<svg width="179" height="200" viewBox="0 0 179 200" fill="none" xmlns="http://www.w3.org/2000/svg">
<path d="M119.567 86.6426L75.69 130.52L58.608 113.438C58.4439 113.274 58.2664 113.126 58.0755 112.999C57.8812 112.868 57.6802 112.761 57.4659 112.674C57.2515 112.584 57.0304 112.517 56.8027 112.473C56.5783 112.426 56.3472 112.403 56.116 112.403C55.8849 112.403 55.6572 112.426 55.4294 112.473C55.2017 112.517 54.9806 112.584 54.7662 112.674C54.5552 112.761 54.3509 112.868 54.1566 112.999C53.9657 113.126 53.7882 113.274 53.6241 113.438L33.6817 133.38C33.5176 133.544 33.3702 133.722 33.2429 133.913C33.1123 134.107 33.0051 134.311 32.9147 134.522C32.8276 134.737 32.7606 134.958 32.7171 135.186C32.6702 135.413 32.6467 135.641 32.6467 135.872C32.6467 136.103 32.6702 136.334 32.7171 136.559C32.7606 136.787 32.8276 137.008 32.9147 137.222C33.0051 137.436 33.1123 137.637 33.2429 137.832C33.3702 138.023 33.5176 138.2 33.6817 138.364L73.1947 177.891C73.3588 178.055 73.5363 178.199 73.7272 178.329C73.9215 178.457 74.1225 178.564 74.3368 178.654C74.5512 178.741 74.7723 178.808 75 178.855C75.2244 178.899 75.4555 178.922 75.6867 178.922C75.9178 178.922 76.1455 178.899 76.3733 178.855C76.601 178.808 76.8221 178.741 77.0365 178.654C77.2508 178.564 77.4518 178.457 77.6461 178.329C77.837 178.199 78.0145 178.055 78.1786 177.891L144.497 111.569C144.661 111.405 144.808 111.227 144.936 111.033C145.063 110.842 145.174 110.638 145.261 110.423C145.351 110.209 145.418 109.991 145.462 109.764C145.508 109.536 145.529 109.308 145.529 109.077C145.529 108.842 145.508 108.615 145.462 108.387C145.418 108.159 145.351 107.941 145.261 107.727C145.174 107.513 145.063 107.308 144.936 107.118C144.808 106.923 144.661 106.746 144.497 106.582L124.555 86.6426C124.39 86.4785 124.213 86.3344 124.019 86.2038C123.828 86.0765 123.623 85.966 123.409 85.8789C123.195 85.7918 122.977 85.7248 122.749 85.678C122.521 85.6344 122.294 85.611 122.059 85.611C121.828 85.611 121.6 85.6344 121.373 85.678C121.145 85.7248 120.927 85.7918 120.713 85.8789C120.498 85.966 120.294 86.0765 120.103 86.2038C119.909 86.3344 119.731 86.4785 119.567 86.6426ZM75.69 170.411L41.1408 135.862L56.1127 120.924L73.1947 138.009C73.5296 138.327 73.9148 138.572 74.3435 138.743C74.7756 138.917 75.2244 139.001 75.6867 139.001C76.1489 139.001 76.5977 138.917 77.0264 138.743C77.4585 138.572 77.8437 138.327 78.1786 138.009L122.059 94.1319L137.034 109.077L75.69 170.411Z" fill="white"/>
<mask id="mask0_1099_2163" style="mask-type:luminance" maskUnits="userSpaceOnUse" x="1" y="0" width="176" height="199">
<path d="M1.71484 0.857422H176.634V198.717H1.71484V0.857422Z" fill="white"/>
</mask>
<g mask="url(#mask0_1099_2163)">
<path d="M158.775 24.2096H144.631V19.7147C144.631 19.1151 144.604 18.5156 144.544 17.9194C144.487 17.3232 144.4 16.7303 144.282 16.1408C144.165 15.5547 144.021 14.9719 143.847 14.3991C143.673 13.823 143.472 13.2603 143.241 12.7043C143.013 12.1517 142.755 11.6091 142.474 11.0799C142.192 10.5507 141.884 10.0382 141.549 9.53915C141.218 9.04008 140.859 8.55777 140.481 8.09555C140.099 7.62998 139.697 7.18786 139.275 6.76249C138.85 6.34046 138.408 5.93518 137.942 5.5567C137.48 5.17486 136.997 4.81983 136.498 4.48489C136.003 4.15329 135.487 3.84515 134.958 3.56045C134.428 3.2791 133.889 3.02119 133.333 2.79343C132.781 2.56232 132.218 2.36136 131.642 2.18719C131.069 2.01302 130.486 1.86565 129.9 1.74842C129.311 1.63119 128.718 1.5441 128.122 1.48716C127.525 1.42687 126.926 1.39673 126.326 1.39673C125.727 1.39673 125.127 1.42687 124.531 1.48716C123.935 1.5441 123.342 1.63119 122.752 1.74842C122.166 1.86565 121.584 2.01302 121.011 2.18719C120.438 2.36136 119.872 2.56232 119.319 2.79343C118.763 3.02119 118.224 3.2791 117.695 3.56045C117.166 3.84515 116.653 4.15329 116.154 4.48489C115.655 4.81983 115.173 5.17486 114.711 5.5567C114.248 5.93518 113.803 6.34046 113.377 6.76249C112.955 7.18786 112.553 7.62998 112.172 8.09555C111.793 8.55777 111.435 9.04008 111.103 9.53915C110.768 10.0382 110.463 10.5507 110.179 11.0799C109.897 11.6091 109.64 12.1517 109.412 12.7043C109.184 13.2603 108.98 13.823 108.809 14.3991C108.635 14.9719 108.487 15.5547 108.373 16.1408C108.256 16.7303 108.169 17.3232 108.109 17.9194C108.052 18.5156 108.022 19.1151 108.022 19.7147V24.2096H66.6264C66.3953 24.2096 66.1642 24.233 65.9364 24.2766C65.712 24.3234 65.4909 24.3904 65.2766 24.4775C65.0622 24.568 64.8612 24.6751 64.667 24.8024C64.476 24.933 64.2952 25.0771 64.1344 25.2412C63.9703 25.4053 63.8229 25.5828 63.6956 25.7771C63.565 25.968 63.4578 26.1723 63.3674 26.3867C63.2803 26.601 63.2133 26.8188 63.1664 27.0465C63.1229 27.2743 63.0994 27.502 63.0994 27.7365V35.7516C63.0994 36.4919 63.0291 37.222 62.8851 37.9488C62.7411 38.6723 62.5267 39.3757 62.2453 40.059C61.9606 40.7423 61.6157 41.3887 61.2037 42.005C60.7917 42.6179 60.3261 43.1873 59.8036 43.7098C59.2811 44.2323 58.7117 44.6979 58.0988 45.1099C57.4858 45.5185 56.836 45.8669 56.1528 46.1482C55.4695 46.4329 54.7661 46.6439 54.0426 46.7879C53.3192 46.932 52.5856 47.0057 51.8454 47.0057C51.1086 47.0057 50.375 46.932 49.6516 46.7879C48.9281 46.6439 48.2247 46.4329 47.5414 46.1482C46.8582 45.8669 46.2084 45.5185 45.5954 45.1099C44.9791 44.6979 44.4131 44.2323 43.8906 43.7098C43.3681 43.1873 42.8991 42.6179 42.4905 42.005C42.0785 41.3887 41.7335 40.7423 41.4488 40.059C41.1675 39.3757 40.9531 38.6723 40.8091 37.9488C40.6651 37.222 40.5947 36.4919 40.5947 35.7516V19.7147C40.5947 19.1453 40.6383 18.5792 40.722 18.0165C40.8091 17.4538 40.9364 16.9012 41.1072 16.3585C41.278 15.8159 41.489 15.2901 41.7369 14.7776C41.9881 14.2685 42.2728 13.7795 42.5977 13.3106C42.9226 12.845 43.281 12.4029 43.6695 11.9909C44.0614 11.5756 44.4834 11.1938 44.9322 10.8454C45.3811 10.4971 45.8533 10.1822 46.349 9.90423C46.8447 9.62623 47.3606 9.38842 47.8931 9.18746C48.4257 8.98649 48.9683 8.82907 49.5243 8.71184C50.0836 8.59461 50.6463 8.51758 51.2124 8.48743C51.7818 8.45394 52.3478 8.46733 52.9139 8.52093C53.4799 8.57452 54.0393 8.67165 54.5919 8.80898C55.1446 8.9463 55.6805 9.12717 56.2064 9.34823C56.7289 9.56929 57.2346 9.8272 57.7203 10.1219C58.206 10.42 58.6648 10.7516 59.1002 11.1201C59.5357 11.4852 59.9409 11.8837 60.3161 12.3125C60.4635 12.5 60.6276 12.6708 60.8118 12.8283C60.996 12.9823 61.1903 13.1163 61.4013 13.2335C61.6123 13.3474 61.8334 13.4412 62.0611 13.5115C62.2922 13.5785 62.5267 13.6254 62.7645 13.6489C63.0023 13.669 63.2435 13.669 63.4813 13.6422C63.7191 13.6154 63.9535 13.5651 64.1813 13.4915C64.4091 13.4178 64.6268 13.3206 64.8344 13.2034C65.0454 13.0828 65.2397 12.9455 65.4172 12.7881C65.5981 12.6273 65.7622 12.4531 65.9062 12.2622C66.0503 12.0713 66.1742 11.867 66.278 11.6493C66.3785 11.4316 66.4589 11.2072 66.5158 10.976C66.5728 10.7416 66.6063 10.5038 66.613 10.266C66.623 10.0248 66.6063 9.787 66.5661 9.54919C66.5292 9.31473 66.4656 9.08363 66.3785 8.85922C66.2914 8.63815 66.1809 8.42379 66.0503 8.22283C65.9196 8.02186 65.7723 7.8343 65.6048 7.66348C64.9952 6.9668 64.3354 6.32036 63.6286 5.72417C62.9186 5.12797 62.1717 4.58537 61.3812 4.10305C60.5907 3.62074 59.7701 3.19871 58.916 2.84032C58.0619 2.48194 57.1877 2.19054 56.2867 1.96278C55.3891 1.73837 54.4814 1.58095 53.5603 1.49386C52.6359 1.40678 51.7148 1.38668 50.7904 1.44027C49.8659 1.49386 48.9482 1.61444 48.0438 1.80536C47.1362 1.99627 46.2519 2.25753 45.3844 2.58242C44.5169 2.90731 43.6796 3.29584 42.8723 3.75136C42.0651 4.20354 41.2981 4.71265 40.568 5.28204C39.8378 5.85145 39.1545 6.47444 38.5181 7.14767C37.8817 7.8209 37.3023 8.53767 36.7731 9.29799C36.2472 10.0617 35.7816 10.8588 35.373 11.6895C34.9677 12.5235 34.6261 13.3809 34.3514 14.2652C34.0768 15.1494 33.8691 16.0471 33.7285 16.9648C33.5911 17.8792 33.5208 18.8003 33.5208 19.7247V24.2196H19.3997C18.8202 24.2196 18.2441 24.2498 17.6714 24.3067C17.0953 24.3636 16.5259 24.4507 15.9598 24.5613C15.3938 24.6751 14.8344 24.8158 14.2851 24.9833C13.7325 25.1507 13.1899 25.345 12.6573 25.5661C12.1214 25.7905 11.6022 26.035 11.0931 26.3063C10.584 26.5809 10.0883 26.8757 9.60935 27.1972C9.13038 27.5188 8.66817 27.8604 8.22269 28.2289C7.77387 28.5939 7.3485 28.9825 6.93987 29.3878C6.53124 29.7964 6.14606 30.2251 5.77762 30.6706C5.41254 31.116 5.06755 31.5783 4.74935 32.0606C4.42781 32.5395 4.12971 33.0319 3.85841 33.541C3.58711 34.0501 3.33925 34.5726 3.11819 35.1052C2.89713 35.6378 2.70287 36.1804 2.53539 36.733C2.36792 37.2857 2.22725 37.845 2.11337 38.4111C1.99949 38.9771 1.91575 39.5465 1.85881 40.1193C1.80187 40.6954 1.77173 41.2715 1.77173 41.8476V181.21C1.77173 181.789 1.80187 182.362 1.85881 182.938C1.91575 183.511 1.99949 184.084 2.11337 184.65C2.22725 185.216 2.36792 185.772 2.53539 186.324C2.70287 186.877 2.89713 187.42 3.11819 187.952C3.33925 188.485 3.58711 189.007 3.85841 189.516C4.12971 190.025 4.42781 190.518 4.74935 191C5.06755 191.479 5.41254 191.941 5.77762 192.387C6.14606 192.832 6.53124 193.261 6.93987 193.67C7.3485 194.078 7.77387 194.463 8.22269 194.832C8.66817 195.197 9.13038 195.539 9.60935 195.86C10.0883 196.182 10.584 196.48 11.0931 196.751C11.6022 197.022 12.1214 197.27 12.6573 197.491C13.1899 197.712 13.7325 197.907 14.2851 198.074C14.8344 198.242 15.3938 198.382 15.9598 198.496C16.5259 198.61 17.0953 198.694 17.6714 198.751C18.2441 198.808 18.8202 198.838 19.3997 198.838H141.104C141.338 198.838 141.566 198.814 141.794 198.771C142.022 198.724 142.239 198.657 142.454 198.57C142.668 198.483 142.872 198.372 143.063 198.245C143.258 198.114 143.435 197.97 143.599 197.806C143.763 197.642 143.907 197.465 144.038 197.27C144.165 197.079 144.272 196.875 144.363 196.661C144.45 196.446 144.517 196.229 144.564 196.001C144.607 195.773 144.631 195.545 144.631 195.314C144.631 195.08 144.607 194.852 144.564 194.624C144.517 194.396 144.45 194.179 144.363 193.964C144.272 193.75 144.165 193.546 144.038 193.355C143.907 193.161 143.763 192.983 143.599 192.819C143.435 192.655 143.258 192.511 143.063 192.38C142.872 192.253 142.668 192.146 142.454 192.055C142.239 191.968 142.022 191.901 141.794 191.854C141.566 191.811 141.338 191.787 141.104 191.787H19.3997C18.703 191.787 18.0164 191.72 17.3364 191.583C16.6532 191.449 15.9933 191.248 15.3502 190.983C14.7105 190.715 14.1009 190.391 13.5215 190.005C12.9454 189.62 12.4095 189.181 11.9204 188.689C11.4281 188.197 10.9893 187.664 10.6041 187.088C10.2189 186.509 9.89405 185.899 9.6261 185.259C9.36149 184.616 9.16053 183.956 9.02655 183.273C8.88923 182.593 8.82224 181.907 8.82224 181.21V72.7425H169.353V181.21C169.353 181.907 169.282 182.593 169.148 183.273C169.015 183.956 168.814 184.616 168.546 185.259C168.281 185.899 167.956 186.509 167.571 187.088C167.182 187.664 166.744 188.197 166.255 188.689C165.762 189.181 165.23 189.62 164.65 190.005C164.074 190.391 163.465 190.715 162.821 190.983C162.182 191.248 161.519 191.449 160.839 191.583C160.159 191.72 159.469 191.787 158.775 191.787C158.544 191.787 158.313 191.811 158.089 191.854C157.861 191.901 157.64 191.968 157.426 192.055C157.211 192.146 157.01 192.253 156.816 192.38C156.625 192.511 156.448 192.655 156.283 192.819C156.119 192.983 155.972 193.161 155.845 193.355C155.714 193.546 155.607 193.75 155.52 193.964C155.429 194.179 155.362 194.396 155.319 194.624C155.272 194.852 155.248 195.08 155.248 195.314C155.248 195.545 155.272 195.773 155.319 196.001C155.362 196.229 155.429 196.446 155.52 196.661C155.607 196.875 155.714 197.079 155.845 197.27C155.972 197.465 156.119 197.642 156.283 197.806C156.448 197.97 156.625 198.114 156.816 198.245C157.01 198.372 157.211 198.483 157.426 198.57C157.64 198.657 157.861 198.724 158.089 198.771C158.313 198.814 158.544 198.838 158.775 198.838C159.351 198.838 159.928 198.808 160.504 198.751C161.076 198.694 161.646 198.61 162.212 198.496C162.778 198.382 163.337 198.242 163.89 198.074C164.443 197.907 164.985 197.712 165.518 197.491C166.05 197.27 166.573 197.022 167.082 196.751C167.591 196.48 168.083 196.182 168.562 195.86C169.045 195.539 169.507 195.197 169.952 194.832C170.398 194.463 170.827 194.078 171.235 193.67C171.64 193.261 172.029 192.832 172.394 192.387C172.762 191.941 173.104 191.479 173.426 191C173.747 190.518 174.042 190.025 174.317 189.516C174.588 189.007 174.836 188.485 175.057 187.952C175.278 187.42 175.472 186.877 175.64 186.324C175.807 185.772 175.948 185.216 176.062 184.65C176.172 184.084 176.259 183.511 176.316 182.938C176.373 182.362 176.403 181.789 176.403 181.21V41.8375C176.403 41.2614 176.373 40.6853 176.316 40.1092C176.259 39.5365 176.172 38.9671 176.062 38.401C175.948 37.835 175.807 37.2756 175.64 36.723C175.472 36.1703 175.278 35.6277 175.057 35.0951C174.836 34.5626 174.588 34.0401 174.317 33.531C174.042 33.0219 173.747 32.5295 173.426 32.0472C173.104 31.5682 172.762 31.106 172.394 30.6605C172.029 30.2151 171.64 29.7863 171.235 29.3777C170.827 28.9691 170.398 28.5839 169.952 28.2188C169.507 27.8504 169.045 27.5087 168.562 27.1872C168.083 26.8656 167.591 26.5709 167.082 26.2962C166.573 26.0249 166.05 25.7771 165.518 25.556C164.985 25.335 164.443 25.1407 163.89 24.9732C163.337 24.8058 162.778 24.6651 162.212 24.5512C161.646 24.4373 161.076 24.3536 160.504 24.2966C159.928 24.2397 159.351 24.2096 158.775 24.2096ZM115.059 19.7147C115.059 18.9744 115.129 18.2443 115.273 17.5174C115.417 16.794 115.632 16.0872 115.913 15.404C116.194 14.7207 116.543 14.0709 116.951 13.458C117.363 12.8417 117.829 12.2723 118.351 11.7498C118.874 11.2272 119.443 10.7617 120.056 10.3497C120.672 9.93773 121.319 9.58939 122.002 9.30804C122.685 9.02334 123.392 8.81232 124.116 8.6683C124.842 8.52093 125.573 8.45059 126.313 8.45059C127.053 8.45059 127.783 8.52093 128.51 8.6683C129.234 8.81232 129.937 9.02334 130.62 9.30804C131.303 9.58939 131.953 9.93773 132.57 10.3497C133.183 10.7617 133.752 11.2272 134.274 11.7498C134.797 12.2723 135.262 12.8417 135.674 13.458C136.083 14.0709 136.431 14.7207 136.713 15.404C136.994 16.0872 137.209 16.794 137.353 17.5174C137.497 18.2443 137.567 18.9744 137.567 19.7147V35.7516C137.567 36.4919 137.497 37.2254 137.353 37.9488C137.209 38.6757 136.994 39.379 136.713 40.0623C136.431 40.7456 136.083 41.3954 135.674 42.0083C135.262 42.6246 134.797 43.194 134.274 43.7165C133.752 44.239 133.183 44.708 132.57 45.1166C131.953 45.5286 131.303 45.8769 130.62 46.1583C129.937 46.443 129.234 46.6573 128.51 46.8013C127.783 46.9454 127.053 47.0157 126.313 47.0157C125.573 47.0157 124.842 46.9454 124.116 46.8013C123.392 46.6573 122.685 46.443 122.002 46.1583C121.319 45.8769 120.672 45.5286 120.056 45.1166C119.443 44.708 118.874 44.239 118.351 43.7165C117.829 43.194 117.363 42.6246 116.951 42.0083C116.543 41.3954 116.194 40.7456 115.913 40.0623C115.632 39.379 115.417 38.6757 115.273 37.9488C115.129 37.2254 115.059 36.4919 115.059 35.7516V19.7147ZM169.353 65.692H8.82224V41.8375C8.82224 41.1442 8.88923 40.4542 9.02655 39.7743C9.16053 39.091 9.36149 38.4312 9.6261 37.7881C9.89405 37.1483 10.2189 36.5387 10.6041 35.9626C10.9893 35.3832 11.4281 34.8506 11.9204 34.3583C12.4095 33.8659 12.9454 33.4305 13.5215 33.042C14.1009 32.6568 14.7105 32.3319 15.3502 32.0673C15.9933 31.7993 16.6532 31.5984 17.3364 31.4644C18.0164 31.3271 18.703 31.2601 19.3997 31.2601H33.5409V35.7516C33.5409 36.3512 33.571 36.9507 33.628 37.5469C33.6883 38.1431 33.7753 38.736 33.8926 39.3255C34.0098 39.9116 34.1538 40.4944 34.328 41.0671C34.5022 41.6432 34.7031 42.2059 34.9309 42.7619C35.162 43.3146 35.4166 43.8572 35.7013 44.3864C35.9826 44.9156 36.2908 45.4281 36.6223 45.9271C36.9573 46.4262 37.3123 46.9085 37.6942 47.3707C38.0726 47.8363 38.4746 48.2784 38.8999 48.7038C39.322 49.1292 39.7674 49.5311 40.2297 49.9096C40.6952 50.2914 41.1742 50.6498 41.6733 50.9814C42.1723 51.3163 42.6848 51.6245 43.214 51.9058C43.7432 52.1872 44.2858 52.4451 44.8385 52.6762C45.3945 52.904 45.9572 53.1049 46.5299 53.2791C47.106 53.4533 47.6855 53.6006 48.2749 53.7179C48.8611 53.8351 49.4539 53.9222 50.0535 53.9825C50.6497 54.0394 51.2459 54.0696 51.8454 54.0696C52.4483 54.0696 53.0445 54.0394 53.6407 53.9825C54.2402 53.9222 54.8297 53.8351 55.4192 53.7179C56.0087 53.6006 56.5882 53.4533 57.1643 53.2791C57.737 53.1049 58.2997 52.904 58.8557 52.6762C59.4084 52.4451 59.951 52.1872 60.4802 51.9058C61.0094 51.6245 61.5219 51.3163 62.0209 50.9814C62.52 50.6498 62.999 50.2914 63.4645 49.9096C63.9267 49.5311 64.3722 49.1292 64.7942 48.7038C65.2196 48.2784 65.6215 47.8363 66 47.3707C66.3819 46.9085 66.7369 46.4262 67.0718 45.9271C67.4034 45.4281 67.7116 44.9156 67.9929 44.3864C68.2776 43.8572 68.5322 43.3146 68.7599 42.7619C68.9911 42.2059 69.192 41.6432 69.3662 41.0671C69.5404 40.4944 69.6844 39.9116 69.8016 39.3255C69.9188 38.736 70.0059 38.1431 70.0629 37.5469C70.1232 36.9507 70.1533 36.3512 70.1499 35.7516V31.2601H108.022V35.7516C108.022 36.3512 108.052 36.9507 108.109 37.5469C108.169 38.1431 108.256 38.736 108.373 39.3255C108.487 39.9116 108.635 40.4944 108.809 41.0671C108.98 41.6432 109.184 42.2059 109.412 42.7619C109.64 43.3146 109.897 43.8572 110.179 44.3864C110.463 44.9156 110.768 45.4281 111.103 45.9271C111.435 46.4262 111.793 46.9085 112.172 47.3707C112.553 47.8363 112.955 48.2784 113.377 48.7038C113.803 49.1292 114.248 49.5311 114.711 49.9096C115.173 50.2914 115.655 50.6498 116.154 50.9814C116.653 51.3163 117.166 51.6245 117.695 51.9058C118.224 52.1872 118.763 52.4451 119.319 52.6762C119.872 52.904 120.438 53.1049 121.011 53.2791C121.584 53.4533 122.166 53.6006 122.752 53.7179C123.342 53.8351 123.935 53.9222 124.531 53.9825C125.127 54.0394 125.727 54.0696 126.326 54.0696C126.926 54.0696 127.525 54.0394 128.122 53.9825C128.718 53.9222 129.311 53.8351 129.9 53.7179C130.486 53.6006 131.069 53.4533 131.642 53.2791C132.218 53.1049 132.781 52.904 133.333 52.6762C133.889 52.4451 134.428 52.1872 134.958 51.9058C135.487 51.6245 136.003 51.3163 136.498 50.9814C136.997 50.6498 137.48 50.2914 137.942 49.9096C138.408 49.5311 138.85 49.1292 139.275 48.7038C139.697 48.2784 140.099 47.8363 140.481 47.3707C140.859 46.9085 141.218 46.4262 141.549 45.9271C141.884 45.4281 142.192 44.9156 142.474 44.3864C142.755 43.8572 143.013 43.3146 143.241 42.7619C143.472 42.2059 143.673 41.6432 143.847 41.0671C144.021 40.4944 144.165 39.9116 144.282 39.3255C144.4 38.736 144.487 38.1431 144.544 37.5469C144.604 36.9507 144.631 36.3512 144.631 35.7516V31.2601H158.775C159.469 31.2601 160.159 31.3271 160.839 31.4644C161.519 31.5984 162.182 31.7993 162.821 32.0673C163.465 32.3319 164.074 32.6568 164.65 33.042C165.23 33.4305 165.762 33.8659 166.255 34.3583C166.744 34.8506 167.182 35.3832 167.571 35.9626C167.956 36.5387 168.281 37.1483 168.546 37.7881C168.814 38.4312 169.015 39.091 169.148 39.7743C169.282 40.4542 169.353 41.1442 169.353 41.8375V65.692Z" fill="white"/>
</g>
</svg>
