<svg width="72" height="45" viewBox="0 0 72 45" fill="none" xmlns="http://www.w3.org/2000/svg">
<g clip-path="url(#clip0_1099_2102)">
<path d="M24.2584 32.4264L20.6933 37.0793C19.9376 38.0665 20.1493 39.4745 21.1644 40.2088L21.4152 40.3892C21.8256 40.6868 22.3071 40.8293 22.7852 40.8293C23.4888 40.8293 24.1847 40.519 24.635 39.9314L28.2001 35.2776C28.9559 34.2913 28.7441 32.8833 27.7281 32.149L27.4783 31.9677C27.0679 31.671 26.5863 31.5276 26.1082 31.5276C25.4046 31.5276 24.7079 31.8387 24.2584 32.4264Z" fill="white"/>
<mask id="mask0_1099_2102" style="mask-type:luminance" maskUnits="userSpaceOnUse" x="26" y="36" width="8" height="9">
<path d="M26.0361 36.4934H33.2593V44.1401H26.0361V36.4934Z" fill="white"/>
</mask>
<g mask="url(#mask0_1099_2102)">
<path d="M28.8924 37.3137L26.4612 40.4862C25.7862 41.3672 25.9762 42.6242 26.8829 43.2801L27.5284 43.7472C27.8946 44.0119 28.3249 44.1401 28.7509 44.1401C29.38 44.1401 30.0012 43.8627 30.4029 43.3383L32.8341 40.165C33.5091 39.284 33.3191 38.0269 32.4133 37.371L31.7669 36.904C31.4007 36.6392 30.9712 36.5111 30.5444 36.5111C29.9162 36.5111 29.2941 36.7884 28.8924 37.3137Z" fill="white"/>
</g>
<path d="M15.8917 26.9523L14.9113 26.2433C14.5825 26.0055 14.1964 25.89 13.8129 25.89C13.248 25.8909 12.6893 26.1396 12.3283 26.6117L10.6919 28.7464C10.0863 29.538 10.2564 30.6677 11.0711 31.257L12.0515 31.9661C12.3804 32.2047 12.7665 32.3193 13.15 32.3193C13.7148 32.3193 14.2736 32.0698 14.6345 31.5985L16.2709 29.463C16.8765 28.6713 16.7064 27.5416 15.8917 26.9523Z" fill="white"/>
<path d="M23.1452 27.2828C22.7062 26.9658 22.1908 26.8123 21.6797 26.8123C20.9275 26.8123 20.1822 27.1445 19.7006 27.7734L15.3503 33.4515C14.5416 34.5071 14.7689 36.0136 15.8544 36.7985C16.2934 37.1164 16.8088 37.2698 17.3198 37.2698C17.9983 37.2698 18.6707 36.9992 19.1497 36.4849C19.2217 36.3652 19.3006 36.2489 19.3883 36.135L21.4541 33.4389L22.9534 31.4821C23.0558 31.3481 23.1686 31.2208 23.2883 31.101L23.6493 30.6298C24.4579 29.5742 24.2306 28.0685 23.1452 27.2828Z" fill="white"/>
<path d="M10.8872 0.78574L0.398218 19.0232C0.065911 19.6015 0.279351 20.3316 0.873687 20.6545L4.4961 22.6214C5.0913 22.9443 5.84268 22.7377 6.17499 22.1602L16.6639 3.92198C16.9962 3.34447 16.7837 2.61437 16.1893 2.29147L12.5661 0.323735C11.9717 0.000836805 11.2195 0.20739 10.8872 0.78574Z" fill="white"/>
<mask id="mask1_1099_2102" style="mask-type:luminance" maskUnits="userSpaceOnUse" x="54" y="1" width="18" height="23">
<path d="M54.8342 1.00494H71.4149V23.6373H54.8342V1.00494Z" fill="white"/>
</mask>
<g mask="url(#mask1_1099_2102)">
<path d="M54.9921 4.7659L65.4811 23.0033C65.8134 23.5808 66.5648 23.7882 67.16 23.4653L70.7833 21.4976C71.3776 21.1747 71.5902 20.4446 71.2579 19.8671L60.7689 1.62882C60.4366 1.05047 59.6852 0.843915 59.09 1.16681L55.4676 3.13455C54.8724 3.45745 54.6598 4.18755 54.9921 4.7659Z" fill="white"/>
</g>
<path d="M59.273 29.4739C59.3016 28.6317 58.8964 27.8316 58.2058 27.3224L52.7622 23.3144C50.7952 21.9672 48.3407 20.4235 45.4688 18.7272C41.4186 16.3346 37.6018 14.2648 35.8319 13.3189C35.5559 13.1714 35.2323 13.1326 34.9269 13.2102L32.9374 13.7168C32.645 13.7919 32.3908 13.9664 32.2207 14.2092L32.2181 14.2126C31.6663 14.9975 31.0529 15.7183 30.3943 16.3548C29.6213 17.1018 28.8005 17.7223 27.9563 18.1986C26.942 18.7694 25.8991 19.1302 24.8544 19.2693C24.6236 19.2997 24.3911 19.3157 24.1638 19.3157C23.3447 19.3157 22.5812 19.1117 21.9565 18.7247C21.1557 18.2298 20.642 17.5048 20.4711 16.628C20.2733 15.6129 20.544 14.4545 21.2971 13.0854C21.8281 12.1209 22.4901 11.2399 22.9734 10.5958C23.0914 10.4381 23.1946 10.3015 23.2762 10.1886C23.6094 9.72826 23.9972 9.20302 24.4319 8.65249C24.5429 8.5117 24.4258 8.31105 24.2445 8.33128C23.3317 8.43329 21.265 8.33297 18.0148 6.37534C17.7259 6.20167 17.3458 6.29694 17.1801 6.58527L8.16964 22.2521C7.9805 22.5809 8.02648 22.9898 8.28417 23.2714L10.6728 25.8833C10.7058 25.9195 10.7431 25.9516 10.783 25.9794L11.0225 25.6666C11.3513 25.2383 11.786 24.8876 12.2797 24.6532C12.7534 24.4281 13.2844 24.3092 13.8128 24.3092C14.1781 24.3092 14.539 24.364 14.8843 24.4736C15.2435 24.5866 15.5802 24.7552 15.8839 24.9753L16.8643 25.6843C17.2391 25.9558 17.5489 26.2922 17.7849 26.6842C17.8404 26.7761 17.8916 26.8705 17.9367 26.9658C17.9983 27.0939 18.177 27.1125 18.2638 26.9995L18.394 26.8292C18.7809 26.3242 19.2911 25.9119 19.8724 25.6362C20.4303 25.3707 21.0654 25.2307 21.6763 25.2307C22.1031 25.2307 22.5326 25.2956 22.9395 25.4246C23.3621 25.557 23.7595 25.756 24.1169 26.0139C24.5586 26.3343 24.923 26.7297 25.2006 27.1909C25.467 27.6335 25.6414 28.1166 25.7177 28.6258C25.7715 28.979 25.7759 29.334 25.7316 29.6839C25.7143 29.8272 25.8305 29.9536 25.9789 29.9486C26.0223 29.9469 26.0665 29.9469 26.1116 29.9469C26.5177 29.9469 26.9307 30.0093 27.322 30.1324C27.7281 30.2605 28.1064 30.4511 28.4499 30.6998L28.7007 30.881C29.9275 31.7688 30.4681 33.2248 30.2243 34.599C30.193 34.7727 30.3345 34.9312 30.5167 34.9295C30.5262 34.9295 30.5358 34.9295 30.5462 34.9295C30.9331 34.9295 31.3149 34.9885 31.681 35.104C32.0619 35.2237 32.4168 35.4024 32.7396 35.6351L33.3851 36.103C35.0163 37.2825 35.3538 39.5242 34.1399 41.1092L33.8215 41.5248C33.6714 41.7204 33.707 42.0003 33.9092 42.1454C33.9447 42.1706 33.9838 42.1909 34.0254 42.2044C34.7499 42.4548 41.7344 44.7597 43.7083 41.5257C43.8385 41.3124 43.7508 41.0367 43.5218 40.9279L37.0058 37.8322C36.6136 37.645 36.408 37.21 36.5355 36.8036C36.6284 36.5069 36.8939 36.2388 37.5385 36.2126C37.6062 36.2093 37.6747 36.2244 37.7355 36.2548L44.4371 39.6524C45.1894 40.0343 46.044 40.1936 46.8865 40.0925C47.9181 39.9685 49.0417 39.4517 49.1406 37.8136C49.1658 37.3837 48.9385 36.9765 48.555 36.7598L40.1926 32.0259C39.8655 31.8404 39.6903 31.4788 39.7519 31.1162C39.8109 30.7773 39.9974 30.4325 40.5111 30.414C40.6794 30.4081 40.8451 30.4519 40.99 30.5337L49.7775 35.4969C50.2191 35.7456 50.7241 35.867 51.2343 35.8434C52.1132 35.8046 53.3956 35.5449 53.9023 34.4329C54.3474 33.4549 53.9552 32.3075 53.0112 31.757L43.3908 26.148C43.1062 25.9828 42.9396 25.6767 42.9613 25.3555C42.9899 24.9314 43.2103 24.4517 44.1048 24.5908C44.2133 24.6077 44.3174 24.6456 44.4111 24.7004L55.3408 31.0302C56.1529 31.5007 57.149 31.5791 58.0184 31.2174C58.6648 30.9485 59.24 30.4367 59.273 29.4739Z" fill="white"/>
<path d="M63.2678 22.6433L54.1471 6.78339C54.0742 6.65693 53.9215 6.59622 53.7784 6.63754C53.1233 6.82723 52.3042 7.02029 52.1854 7.03462C51.8331 7.07678 51.4791 7.09701 51.126 7.09701C49.9243 7.09701 48.7243 6.86517 47.5903 6.48662C44.9466 5.60392 41.6608 5.35016 38.7299 5.35016C36.5617 5.35016 34.5878 5.48927 33.2117 5.61488C32.0777 5.71943 30.9767 5.79952 29.8774 6.11483C28.8449 6.41075 27.9616 7.09448 27.2406 7.85241C27.0497 8.05222 26.8641 8.25708 26.6801 8.46532C25.9409 9.30418 25.258 10.1995 24.6073 11.0982C23.6546 12.4151 20.6101 16.0184 22.8304 17.391C23.2243 17.6346 23.6937 17.7341 24.1639 17.7341C24.3219 17.7341 24.4789 17.7231 24.6342 17.7021C26.4103 17.466 28.0015 16.4374 29.2466 15.2335C29.8513 14.6501 30.3945 14.0043 30.8743 13.3206C30.9559 13.2034 31.283 12.5037 31.4209 12.4682L34.4689 11.6918L35.4876 11.4329C35.5145 11.4254 35.5422 11.422 35.5709 11.422C35.6247 11.422 35.6776 11.4355 35.7262 11.4608C37.2966 12.2878 50.9932 19.5872 58.8532 26.1783C58.8541 26.1792 58.8549 26.18 58.8549 26.18C58.9634 26.2702 59.123 26.2702 59.2332 26.1826L63.2496 22.973C63.3198 22.8752 63.3276 22.747 63.2678 22.6433Z" fill="white"/>
</g>
<defs>
<clipPath id="clip0_1099_2102">
<rect width="71.6327" height="45" fill="white"/>
</clipPath>
</defs>
</svg>
