<svg width="72" height="39" viewBox="0 0 72 39" fill="none" xmlns="http://www.w3.org/2000/svg">
<g clip-path="url(#clip0_1099_2119)">
<path d="M17.9803 11.1828C17.9803 11.3787 17.9708 11.5738 17.9518 11.7688C17.9328 11.9632 17.9043 12.1568 17.8656 12.3483C17.8276 12.5404 17.7801 12.7297 17.7231 12.9167C17.6669 13.1038 17.6011 13.2879 17.5258 13.4684C17.4513 13.6496 17.3673 13.8264 17.2752 13.9988C17.1832 14.1713 17.0823 14.3386 16.9742 14.5015C16.8653 14.6637 16.7491 14.8208 16.6249 14.9721C16.5007 15.1233 16.3692 15.268 16.2311 15.4061C16.093 15.5449 15.9483 15.6757 15.7971 15.7999C15.6458 15.9241 15.4888 16.0403 15.3265 16.1492C15.1636 16.2581 14.9963 16.3582 14.8231 16.4502C14.6507 16.543 14.4746 16.6263 14.2934 16.7008C14.1129 16.7761 13.9288 16.8419 13.7417 16.8988C13.5547 16.9551 13.3647 17.0026 13.1733 17.0406C12.9811 17.0793 12.7882 17.1078 12.5931 17.1268C12.3988 17.1458 12.2037 17.156 12.0079 17.156C11.812 17.156 11.617 17.1458 11.4226 17.1268C11.2282 17.1078 11.0346 17.0793 10.8424 17.0406C10.651 17.0026 10.4618 16.9551 10.274 16.8988C10.0869 16.8419 9.90281 16.7761 9.72234 16.7008C9.54186 16.6263 9.36504 16.543 9.19261 16.4502C9.02017 16.3582 8.85212 16.2581 8.68991 16.1492C8.52697 16.0403 8.37061 15.9241 8.21936 15.7999C8.06811 15.6757 7.92271 15.5449 7.78461 15.4061C7.64652 15.268 7.515 15.1233 7.39078 14.9721C7.2673 14.8208 7.1504 14.6637 7.04226 14.5015C6.93339 14.3386 6.83256 14.1713 6.74049 13.9988C6.64843 13.8264 6.56513 13.6496 6.48987 13.4684C6.41535 13.2879 6.34959 13.1038 6.29259 12.9167C6.2356 12.7297 6.18811 12.5404 6.15011 12.3483C6.11212 12.1568 6.08362 11.9632 6.0639 11.7688C6.0449 11.5738 6.0354 11.3787 6.0354 11.1828C6.0354 10.9878 6.0449 10.7927 6.0639 10.5976C6.08362 10.4032 6.11212 10.2096 6.15011 10.0182C6.18811 9.826 6.2356 9.63676 6.29259 9.44971C6.34959 9.26193 6.41535 9.07853 6.48987 8.89733C6.56513 8.71685 6.64843 8.54003 6.74049 8.36759C6.83256 8.19516 6.93339 8.02783 7.04226 7.8649C7.1504 7.70196 7.2673 7.5456 7.39078 7.39435C7.515 7.2431 7.64652 7.09843 7.78461 6.9596C7.92271 6.82151 8.06811 6.69072 8.21936 6.5665C8.37061 6.44229 8.52697 6.32611 8.68991 6.21725C8.85212 6.10838 9.02017 6.00827 9.19261 5.91548C9.36504 5.82342 9.54186 5.74012 9.72234 5.66486C9.90281 5.59033 10.0869 5.52457 10.274 5.46758C10.4618 5.41132 10.651 5.36383 10.8424 5.3251C11.0346 5.28711 11.2282 5.25861 11.4226 5.23961C11.617 5.21989 11.812 5.21039 12.0079 5.21039C12.2037 5.21039 12.3988 5.21989 12.5931 5.23961C12.7882 5.25861 12.9811 5.28711 13.1733 5.3251C13.3647 5.36383 13.5547 5.41132 13.7417 5.46758C13.9288 5.52457 14.1129 5.59033 14.2934 5.66486C14.4746 5.74012 14.6507 5.82342 14.8231 5.91548C14.9963 6.00827 15.1636 6.10838 15.3265 6.21725C15.4888 6.32611 15.6458 6.44229 15.7971 6.5665C15.9483 6.69072 16.093 6.82151 16.2311 6.9596C16.3692 7.09843 16.5007 7.2431 16.6249 7.39435C16.7491 7.5456 16.8653 7.70196 16.9742 7.8649C17.0823 8.02783 17.1832 8.19516 17.2752 8.36759C17.3673 8.54003 17.4513 8.71685 17.5258 8.89733C17.6011 9.07853 17.6669 9.26193 17.7231 9.44971C17.7801 9.63676 17.8276 9.826 17.8656 10.0182C17.9043 10.2096 17.9328 10.4032 17.9518 10.5976C17.9708 10.7927 17.9803 10.9878 17.9803 11.1828Z" fill="white"/>
<mask id="mask0_1099_2119" style="mask-type:luminance" maskUnits="userSpaceOnUse" x="0" y="20" width="21" height="13">
<path d="M0.0627441 20.0144H20.0143V32.1727H0.0627441V20.0144Z" fill="white"/>
</mask>
<g mask="url(#mask0_1099_2119)">
<path d="M19.9814 21.3362C16.9652 23.6064 14.9939 27.2495 14.9939 31.3405V32.0872H2.30223C1.07837 32.0872 0.0627441 31.0716 0.0627441 29.8477V28.3542C0.0627441 23.8153 3.7358 20.1423 8.27469 20.1423H15.7406C17.2933 20.1423 18.7568 20.5902 19.9814 21.3362Z" fill="white"/>
</g>
<path d="M65.7613 11.1828C65.7613 11.3787 65.7511 11.5738 65.7321 11.7688C65.7131 11.9632 65.6846 12.1568 65.6459 12.3483C65.6079 12.5404 65.5604 12.7297 65.5041 12.9167C65.4471 13.1038 65.3814 13.2879 65.3061 13.4684C65.2316 13.6496 65.1483 13.8264 65.0555 13.9988C64.9634 14.1713 64.8633 14.3386 64.7545 14.5015C64.6456 14.6637 64.5294 14.8208 64.4052 14.9721C64.281 15.1233 64.1502 15.268 64.0114 15.4061C63.8733 15.5449 63.7286 15.6757 63.5774 15.7999C63.4261 15.9241 63.269 16.0403 63.1068 16.1492C62.9439 16.2581 62.7766 16.3582 62.6041 16.4502C62.4317 16.543 62.2549 16.6263 62.0737 16.7008C61.8932 16.7761 61.7091 16.8419 61.522 16.8988C61.335 16.9551 61.1457 17.0026 60.9535 17.0406C60.7614 17.0793 60.5685 17.1078 60.3741 17.1268C60.179 17.1458 59.984 17.156 59.7881 17.156C59.593 17.156 59.398 17.1458 59.2029 17.1268C59.0085 17.1078 58.8149 17.0793 58.6235 17.0406C58.4313 17.0026 58.242 16.9551 58.055 16.8988C57.8672 16.8419 57.6838 16.7761 57.5026 16.7008C57.3221 16.6263 57.1453 16.543 56.9729 16.4502C56.8004 16.3582 56.6331 16.2581 56.4702 16.1492C56.3072 16.0403 56.1509 15.9241 55.9996 15.7999C55.8484 15.6757 55.7037 15.5449 55.5649 15.4061C55.4268 15.268 55.296 15.1233 55.1718 14.9721C55.0476 14.8208 54.9314 14.6637 54.8225 14.5015C54.7137 14.3386 54.6136 14.1713 54.5208 13.9988C54.4287 13.8264 54.3454 13.6496 54.2701 13.4684C54.1956 13.2879 54.1299 13.1038 54.0729 12.9167C54.0159 12.7297 53.9691 12.5404 53.9304 12.3483C53.8924 12.1568 53.8639 11.9632 53.8449 11.7688C53.8252 11.5738 53.8157 11.3787 53.8157 11.1828C53.8157 10.9878 53.8252 10.7927 53.8449 10.5976C53.8639 10.4032 53.8924 10.2096 53.9304 10.0182C53.9691 9.826 54.0159 9.63676 54.0729 9.44971C54.1299 9.26193 54.1956 9.07853 54.2701 8.89733C54.3454 8.71685 54.4287 8.54003 54.5208 8.36759C54.6136 8.19516 54.7137 8.02783 54.8225 7.8649C54.9314 7.70196 55.0476 7.5456 55.1718 7.39435C55.296 7.2431 55.4268 7.09843 55.5649 6.9596C55.7037 6.82151 55.8484 6.69072 55.9996 6.5665C56.1509 6.44229 56.3072 6.32611 56.4702 6.21725C56.6331 6.10838 56.8004 6.00827 56.9729 5.91548C57.1453 5.82342 57.3221 5.74012 57.5026 5.66486C57.6838 5.59033 57.8672 5.52457 58.055 5.46758C58.242 5.41132 58.4313 5.36383 58.6235 5.3251C58.8149 5.28711 59.0085 5.25861 59.2029 5.23961C59.398 5.21989 59.593 5.21039 59.7881 5.21039C59.984 5.21039 60.179 5.21989 60.3741 5.23961C60.5685 5.25861 60.7614 5.28711 60.9535 5.3251C61.1457 5.36383 61.335 5.41132 61.522 5.46758C61.7091 5.52457 61.8932 5.59033 62.0737 5.66486C62.2549 5.74012 62.4317 5.82342 62.6041 5.91548C62.7766 6.00827 62.9439 6.10838 63.1068 6.21725C63.269 6.32611 63.4261 6.44229 63.5774 6.5665C63.7286 6.69072 63.8733 6.82151 64.0114 6.9596C64.1502 7.09843 64.281 7.2431 64.4052 7.39435C64.5294 7.5456 64.6456 7.70196 64.7545 7.8649C64.8633 8.02783 64.9634 8.19516 65.0555 8.36759C65.1483 8.54003 65.2316 8.71685 65.3061 8.89733C65.3814 9.07853 65.4471 9.26193 65.5041 9.44971C65.5604 9.63676 65.6079 9.826 65.6459 10.0182C65.6846 10.2096 65.7131 10.4032 65.7321 10.5976C65.7511 10.7927 65.7613 10.9878 65.7613 11.1828Z" fill="white"/>
<mask id="mask1_1099_2119" style="mask-type:luminance" maskUnits="userSpaceOnUse" x="51" y="20" width="21" height="13">
<path d="M51.813 20.0144H71.7185V32.1727H51.813V20.0144Z" fill="white"/>
</mask>
<g mask="url(#mask1_1099_2119)">
<path d="M71.7339 28.3542V29.8477C71.7339 31.0716 70.7182 32.0872 69.4936 32.0872H56.802V31.3405C56.802 27.2495 54.8314 23.6064 51.8152 21.3362C53.0398 20.5902 54.5026 20.1423 56.056 20.1423H63.5212C68.0608 20.1423 71.7339 23.8153 71.7339 28.3542Z" fill="white"/>
</g>
<path d="M44.8571 9.69007C44.8571 9.98307 44.8425 10.2761 44.814 10.5683C44.7855 10.8599 44.7424 11.1499 44.6846 11.4378C44.6276 11.7257 44.5568 12.0099 44.4713 12.2905C44.3858 12.5711 44.2872 12.8473 44.1754 13.1184C44.0628 13.3894 43.9379 13.6547 43.7991 13.9133C43.661 14.172 43.5105 14.4233 43.3475 14.6674C43.1846 14.9114 43.01 15.1467 42.8236 15.3732C42.6373 15.6004 42.4408 15.8174 42.2333 16.0249C42.0257 16.2325 41.8087 16.429 41.5815 16.6153C41.355 16.8016 41.1197 16.9763 40.8757 17.1392C40.6316 17.3021 40.3803 17.4527 40.1216 17.5908C39.863 17.7296 39.5977 17.8545 39.3267 17.9671C39.0556 18.0788 38.7794 18.1782 38.4988 18.263C38.2183 18.3485 37.934 18.4193 37.6461 18.4763C37.3583 18.534 37.0682 18.5772 36.7766 18.6057C36.4844 18.6342 36.1914 18.6488 35.8984 18.6488C35.6047 18.6488 35.3124 18.6342 35.0201 18.6057C34.7279 18.5772 34.4385 18.534 34.1506 18.4763C33.8628 18.4193 33.5785 18.3485 33.2979 18.263C33.0166 18.1782 32.7412 18.0788 32.4701 17.9671C32.199 17.8545 31.9338 17.7296 31.6751 17.5908C31.4165 17.4527 31.1651 17.3021 30.9211 17.1392C30.6771 16.9763 30.4418 16.8016 30.2145 16.6153C29.988 16.429 29.771 16.2325 29.5635 16.0249C29.356 15.8174 29.1587 15.6004 28.9731 15.3732C28.7868 15.1467 28.6122 14.9114 28.4493 14.6674C28.2863 14.4233 28.1358 14.172 27.997 13.9133C27.8589 13.6547 27.7339 13.3894 27.6214 13.1184C27.5089 12.8473 27.4102 12.5711 27.3255 12.2905C27.24 12.0099 27.1684 11.7257 27.1114 11.4378C27.0544 11.1499 27.0113 10.8599 26.9828 10.5683C26.9536 10.2761 26.9397 9.98307 26.9397 9.69007C26.9397 9.39635 26.9536 9.10408 26.9828 8.81181C27.0113 8.51955 27.0544 8.2302 27.1114 7.94232C27.1684 7.65444 27.24 7.37021 27.3255 7.08964C27.4102 6.80833 27.5089 6.53287 27.6214 6.26179C27.7339 5.99072 27.8589 5.72548 27.997 5.46683C28.1358 5.20817 28.2863 4.95682 28.4493 4.71278C28.6122 4.46874 28.7868 4.23346 28.9731 4.00623C29.1587 3.77972 29.356 3.56271 29.5635 3.3552C29.771 3.1477 29.988 2.95115 30.2145 2.76483C30.4418 2.57851 30.6771 2.40388 30.9211 2.24094C31.1651 2.078 31.4165 1.92748 31.6751 1.78866C31.9338 1.65056 32.199 1.52562 32.4701 1.4131C32.7412 1.30057 33.0166 1.20193 33.2979 1.11718C33.5785 1.03169 33.8628 0.960813 34.1506 0.903091C34.4385 0.846099 34.7279 0.80299 35.0201 0.774494C35.3124 0.745267 35.6047 0.731384 35.8984 0.731384C36.1914 0.731384 36.4844 0.745267 36.7766 0.774494C37.0682 0.80299 37.3583 0.846099 37.6461 0.903091C37.934 0.960813 38.2183 1.03169 38.4988 1.11718C38.7794 1.20193 39.0556 1.30057 39.3267 1.4131C39.5977 1.52562 39.863 1.65056 40.1216 1.78866C40.3803 1.92748 40.6316 2.078 40.8757 2.24094C41.1197 2.40388 41.355 2.57851 41.5815 2.76483C41.8087 2.95115 42.0257 3.1477 42.2333 3.3552C42.4408 3.56271 42.6373 3.77972 42.8236 4.00623C43.01 4.23346 43.1846 4.46874 43.3475 4.71278C43.5105 4.95682 43.661 5.20817 43.7991 5.46683C43.9379 5.72548 44.0628 5.99072 44.1754 6.26179C44.2872 6.53287 44.3858 6.80833 44.4713 7.08964C44.5568 7.37021 44.6276 7.65444 44.6846 7.94232C44.7424 8.2302 44.7855 8.51955 44.814 8.81181C44.8425 9.10408 44.8571 9.39635 44.8571 9.69007Z" fill="white"/>
<path d="M44.1102 23.1285H27.6856C23.1555 23.1285 19.4736 26.8103 19.4736 31.3404V35.8201C19.4736 37.0564 20.4768 38.0596 21.7131 38.0596H50.0827C51.319 38.0596 52.3229 37.0564 52.3229 35.8201V31.3404C52.3229 26.8103 48.6403 23.1285 44.1102 23.1285Z" fill="white"/>
</g>
<defs>
<clipPath id="clip0_1099_2119">
<rect width="71.9676" height="39" fill="white"/>
</clipPath>
</defs>
</svg>
