<svg width="43" height="55" viewBox="0 0 43 55" fill="none" xmlns="http://www.w3.org/2000/svg">
<g clip-path="url(#clip0_1099_2134)">
<mask id="mask0_1099_2134" style="mask-type:luminance" maskUnits="userSpaceOnUse" x="0" y="0" width="43" height="55">
<path d="M0.0517578 0H42.4703V54.6713H0.0517578V0Z" fill="white"/>
</mask>
<g mask="url(#mask0_1099_2134)">
<path d="M38.1075 53.1525H36.26V40.6441C36.26 40.5421 36.2404 40.4432 36.2012 40.3494C36.1621 40.2546 36.1064 40.1712 36.0343 40.099C35.9622 40.0269 35.8787 39.9712 35.7849 39.9321C35.6901 39.8929 35.5922 39.8744 35.4902 39.8744H30.1197C30.0764 38.7162 29.9527 38.2906 29.5952 37.9403C29.4221 37.7661 29.2232 37.6332 28.9965 37.5394C28.7708 37.4457 28.5349 37.3983 28.2896 37.3983C28.0619 37.3972 27.8352 37.3787 27.6095 37.3416C27.3849 37.3045 27.1644 37.2489 26.948 37.1757C26.7316 37.1025 26.5235 37.0119 26.3215 36.9047C26.1206 36.7975 25.9289 36.6739 25.7476 36.5358C25.5672 36.3967 25.3982 36.2442 25.2416 36.0783C25.085 35.9124 24.9428 35.7341 24.8161 35.5456C24.6883 35.356 24.577 35.1571 24.4822 34.95C24.3874 34.7429 24.3101 34.5285 24.2493 34.3091C24.1896 34.0885 24.1473 33.8649 24.1236 33.6383C24.0999 33.4105 24.0948 33.1838 24.1082 32.9561C24.1226 32.7284 24.1545 32.5027 24.204 32.2802C24.2545 32.0576 24.3225 31.8402 24.408 31.6289C24.4935 31.4177 24.5955 31.2147 24.7151 31.0199C24.8336 30.8252 24.9675 30.6407 25.1159 30.4676C25.2653 30.2945 25.4271 30.1348 25.6023 29.9885C25.7764 29.8422 25.9629 29.7103 26.1587 29.5949C26.1587 29.5949 26.4915 29.4341 26.5966 29.3723C29.8177 27.6855 32.5339 24.0635 34.4 19.3329C34.9956 19.0351 35.5685 18.6971 36.1178 18.3199C36.667 17.9438 37.1873 17.5306 37.6799 17.0814C38.1724 16.6321 38.631 16.1519 39.0576 15.6398C39.4831 15.1277 39.8716 14.5877 40.224 14.022C40.5754 13.4563 40.8866 12.869 41.1576 12.26C41.4275 11.651 41.6553 11.0266 41.8397 10.3867C42.0242 9.7468 42.1643 9.0966 42.2591 8.43713C42.3539 7.77766 42.4034 7.1151 42.4064 6.44841C42.4064 6.2145 42.3838 5.98163 42.3374 5.75184C42.2921 5.52206 42.2241 5.29846 42.1344 5.08104C42.0448 4.86465 41.9345 4.65856 41.8047 4.46381C41.6738 4.26906 41.5265 4.08874 41.3606 3.92284C41.1947 3.75694 41.0143 3.60856 40.8186 3.47872C40.6238 3.34786 40.4177 3.2376 40.2013 3.14796C39.9849 3.05831 39.7613 2.9903 39.5316 2.94496C39.3007 2.89962 39.0689 2.87593 38.834 2.87593H37.1523V0.788283C37.1523 0.68627 37.1338 0.58838 37.0946 0.493581C37.0554 0.399812 36.9998 0.316348 36.9277 0.244218C36.8555 0.172088 36.7721 0.116445 36.6773 0.077289C36.5835 0.0381327 36.4846 0.0185547 36.3826 0.0185547H6.29003C6.18802 0.0185547 6.0891 0.0381327 5.99533 0.077289C5.90053 0.116445 5.81706 0.172088 5.74493 0.244218C5.6728 0.316348 5.61716 0.399812 5.57801 0.493581C5.53885 0.58838 5.51927 0.68627 5.51927 0.788283V2.87593H3.67172C3.43781 2.87696 3.20597 2.89962 2.97618 2.94599C2.7464 2.99236 2.52279 3.06037 2.3064 3.15002C2.09105 3.23967 1.88496 3.34992 1.69021 3.48078C1.49546 3.61062 1.31513 3.759 1.15027 3.9249C0.984368 4.0908 0.837017 4.27112 0.707184 4.46587C0.576319 4.66062 0.467094 4.86671 0.377447 5.0831C0.2878 5.29949 0.219792 5.52309 0.174453 5.75287C0.129115 5.98266 0.106445 6.2145 0.106445 6.44841C0.108506 7.11819 0.156936 7.78487 0.251735 8.44744C0.346534 9.11103 0.486672 9.76432 0.672149 10.4073C0.857626 11.0513 1.08638 11.6789 1.35944 12.2909C1.63148 12.903 1.94472 13.4924 2.29919 14.0612C2.65366 14.629 3.04522 15.171 3.47491 15.6851C3.90459 16.1983 4.36726 16.6805 4.86289 17.1308C5.35956 17.5801 5.88404 17.9943 6.43738 18.3715C6.99072 18.7486 7.56776 19.0856 8.1685 19.3823C8.20044 19.3978 8.23238 19.4101 8.26639 19.4194C10.115 24.1068 12.8301 27.6978 16.0214 29.3723L16.4397 29.5887C16.6386 29.702 16.8272 29.8319 17.0044 29.9771C17.1827 30.1214 17.3475 30.2801 17.499 30.4522C17.6505 30.6243 17.7875 30.8077 17.9091 31.0024C18.0307 31.1961 18.1358 31.3991 18.2234 31.6114C18.312 31.8226 18.3821 32.0401 18.4346 32.2637C18.4872 32.4873 18.5212 32.7129 18.5366 32.9417C18.5521 33.1704 18.548 33.3992 18.5263 33.6279C18.5037 33.8557 18.4635 34.0803 18.4037 34.3018C18.345 34.5234 18.2677 34.7387 18.1739 34.9479C18.0791 35.1571 17.9678 35.357 17.8411 35.5476C17.7133 35.7383 17.5711 35.9176 17.4145 36.0845C17.2579 36.2524 17.0889 36.406 16.9065 36.5451C16.7241 36.6852 16.5325 36.8089 16.3305 36.9171C16.1275 37.0242 15.9183 37.1159 15.7009 37.1891C15.4835 37.2623 15.2619 37.3179 15.0353 37.355C14.8096 37.3921 14.5808 37.4106 14.3521 37.4106C14.1068 37.4106 13.8709 37.458 13.6452 37.5518C13.4185 37.6456 13.2196 37.7785 13.0465 37.9526C12.6952 38.303 12.5653 38.7286 12.5231 39.8857H7.07831C6.97629 39.8857 6.87737 39.9053 6.7836 39.9445C6.6888 39.9836 6.60534 40.0393 6.53321 40.1114C6.46108 40.1835 6.40544 40.267 6.36628 40.3618C6.32816 40.4555 6.30858 40.5545 6.30858 40.6565V53.1525H4.43011C4.32707 53.1525 4.22918 53.172 4.13541 53.2112C4.04061 53.2503 3.95715 53.306 3.88502 53.3781C3.81289 53.4502 3.75724 53.5337 3.71809 53.6285C3.67893 53.7223 3.65935 53.8202 3.65935 53.9232C3.65935 54.0252 3.67893 54.1231 3.71809 54.2169C3.75724 54.3117 3.81289 54.3951 3.88502 54.4673C3.95715 54.5394 4.04061 54.5951 4.13541 54.6342C4.22918 54.6734 4.32707 54.6929 4.43011 54.6929H38.1075C38.2095 54.6929 38.3074 54.6734 38.4022 54.6342C38.496 54.5951 38.5794 54.5394 38.6516 54.4673C38.7237 54.3951 38.7794 54.3117 38.8185 54.2169C38.8577 54.1231 38.8772 54.0252 38.8772 53.9232C38.8772 53.8202 38.8577 53.7223 38.8185 53.6285C38.7794 53.5337 38.7237 53.4502 38.6516 53.3781C38.5794 53.306 38.496 53.2503 38.4022 53.2112C38.3074 53.172 38.2095 53.1525 38.1075 53.1525ZM40.2632 5.01303C40.4579 5.2016 40.6084 5.42005 40.7155 5.66941C40.8227 5.91774 40.8763 6.17741 40.8794 6.44841C40.8763 6.97187 40.8423 7.49223 40.7773 8.01054C40.7114 8.52987 40.6156 9.04302 40.4878 9.54999C40.36 10.057 40.2013 10.5547 40.0138 11.042C39.8252 11.5305 39.6088 12.0045 39.3636 12.4661C39.1173 12.9277 38.8453 13.3729 38.5454 13.8015C38.2456 14.2302 37.921 14.6393 37.5717 15.0277C37.2234 15.4172 36.8514 15.7841 36.4578 16.1282C36.0642 16.4724 35.651 16.7908 35.2192 17.0855C36.4908 12.9576 37.1338 8.73493 37.1472 4.41641H38.8278C39.0978 4.41435 39.3574 4.46587 39.6058 4.56891C39.8551 4.67299 40.0746 4.82137 40.2632 5.01303ZM30.5442 13.7284C31.519 10.5804 31.9116 7.36137 31.7209 4.07122C31.7096 3.97024 31.7178 3.87029 31.7457 3.7724C31.7745 3.67451 31.8199 3.58589 31.8837 3.50655C31.9476 3.42617 32.0239 3.36229 32.1125 3.31283C32.2021 3.26337 32.2969 3.23245 32.3979 3.22112C32.4999 3.20772 32.5999 3.21597 32.6978 3.24276C32.7967 3.27058 32.8863 3.31695 32.9667 3.3798C33.0461 3.44369 33.111 3.52097 33.1594 3.61062C33.2089 3.7013 33.2377 3.79713 33.248 3.89914C33.3614 5.63334 33.314 7.36343 33.1069 9.08939C32.8997 10.8154 32.536 12.5073 32.0156 14.1663C31.9919 14.2456 31.9569 14.3198 31.9095 14.3878C31.8621 14.4558 31.8044 14.5156 31.7385 14.5651C31.6715 14.6145 31.5993 14.6527 31.52 14.6795C31.4417 14.7062 31.3603 14.7196 31.2768 14.7207C31.2037 14.7186 31.1326 14.7083 31.0615 14.6898C30.9646 14.6588 30.876 14.6114 30.7977 14.5465C30.7194 14.4816 30.6555 14.4043 30.6081 14.3137C30.5596 14.224 30.5298 14.1292 30.5184 14.0272C30.5081 13.9262 30.5164 13.8263 30.5442 13.7284ZM30.5071 15.6068C30.6091 15.6079 30.707 15.6285 30.8008 15.6676C30.8945 15.7078 30.977 15.7635 31.0491 15.8366C31.1202 15.9087 31.1758 15.9922 31.214 16.087C31.2521 16.1808 31.2717 16.2787 31.2706 16.3807C31.2706 16.4827 31.25 16.5806 31.2109 16.6754C31.1717 16.7692 31.1161 16.8516 31.0429 16.9237C30.9708 16.9948 30.8873 17.0505 30.7936 17.0896C30.6988 17.1277 30.6009 17.1473 30.4988 17.1473C30.3968 17.1463 30.2989 17.1267 30.2052 17.0876C30.1114 17.0484 30.0279 16.9928 29.9558 16.9206C29.8837 16.8485 29.828 16.765 29.7899 16.6713C29.7508 16.5765 29.7312 16.4786 29.7312 16.3766C29.7312 16.2735 29.7508 16.1746 29.7909 16.0798C29.8311 15.984 29.8878 15.9005 29.961 15.8284C30.0341 15.7562 30.1197 15.7006 30.2145 15.6625C30.3103 15.6233 30.4102 15.6058 30.5133 15.6068H30.5071ZM1.66445 6.44841C1.66445 6.31549 1.67784 6.18359 1.7036 6.05273C1.7304 5.92289 1.76852 5.79615 1.82004 5.67353C1.87053 5.54988 1.93339 5.43344 2.00758 5.32319C2.08074 5.2119 2.16524 5.10989 2.259 5.01509C2.35277 4.92132 2.45479 4.83682 2.56607 4.76263C2.67633 4.68844 2.79277 4.62559 2.91539 4.57407C3.03801 4.52255 3.16475 4.48339 3.29561 4.45763C3.42545 4.43084 3.55734 4.41641 3.69027 4.41641H5.53782C5.56049 8.77511 6.21893 13.0349 7.51521 17.1958C7.07006 16.9052 6.6445 16.5878 6.23954 16.2436C5.83355 15.9005 5.45023 15.5326 5.08958 15.1421C4.72893 14.7506 4.39405 14.3394 4.08389 13.9066C3.77476 13.4749 3.49242 13.0256 3.23791 12.5578C2.98442 12.091 2.75979 11.6098 2.56401 11.1152C2.36926 10.6206 2.20542 10.1157 2.07353 9.60048C1.9406 9.0863 1.83962 8.56491 1.77161 8.03733C1.70257 7.50975 1.66754 6.98011 1.66445 6.44841ZM15.8915 8.80706L14.7035 7.94562C14.5664 7.85082 14.416 7.80342 14.2501 7.80342C14.0842 7.80342 13.9337 7.85082 13.7977 7.94562L12.6148 8.80706V1.55801H15.8915V8.80706ZM7.8233 53.1525V41.4138H34.6896V53.1525H7.8233Z" fill="white"/>
</g>
<path d="M13.1193 44.2712H29.6876C29.7896 44.2712 29.8875 44.2908 29.9823 44.3299C30.0771 44.3691 30.1595 44.4247 30.2316 44.4969C30.3037 44.569 30.3594 44.6525 30.3985 44.7462C30.4377 44.841 30.4573 44.9389 30.4573 45.0409V49.5315C30.4573 49.6335 30.4377 49.7314 30.3985 49.8262C30.3594 49.92 30.3037 50.0035 30.2316 50.0756C30.1595 50.1477 30.0771 50.2034 29.9823 50.2425C29.8875 50.2817 29.7896 50.3013 29.6876 50.3013H13.1193C13.0173 50.3013 12.9194 50.2817 12.8246 50.2425C12.7309 50.2034 12.6474 50.1477 12.5753 50.0756C12.5031 50.0035 12.4475 49.92 12.4083 49.8262C12.3692 49.7314 12.3496 49.6335 12.3496 49.5315V45.0409C12.3496 44.9389 12.3692 44.841 12.4083 44.7462C12.4475 44.6525 12.5031 44.569 12.5753 44.4969C12.6474 44.4247 12.7309 44.3691 12.8246 44.3299C12.9194 44.2908 13.0173 44.2712 13.1193 44.2712Z" fill="white"/>
</g>
<defs>
<clipPath id="clip0_1099_2134">
<rect width="42.7338" height="55" fill="white"/>
</clipPath>
</defs>
</svg>
