<svg width="186" height="200" viewBox="0 0 186 200" fill="none" xmlns="http://www.w3.org/2000/svg">
<g clip-path="url(#clip0_1099_2145)">
<mask id="mask0_1099_2145" style="mask-type:luminance" maskUnits="userSpaceOnUse" x="0" y="0" width="155" height="200">
<path d="M0 0.134399H154.839V199.439H0V0.134399Z" fill="white"/>
</mask>
<g mask="url(#mask0_1099_2145)">
<path d="M22.1943 3.76679H37.6849C37.8765 1.6633 39.6943 0.134399 41.7978 0.134399H112.181C114.284 0.134399 116.102 1.75738 116.196 3.76679H131.784C137.903 3.76679 143.357 6.34744 147.467 10.2688C151.485 14.2876 153.972 19.832 153.972 25.9543V44.4086L146.606 48.713V26.0484C146.606 22.0329 144.98 18.2056 142.208 15.625C139.627 12.9469 135.8 11.2265 131.784 11.2265H116.196C116.005 13.33 114.19 14.9563 112.181 14.9563H41.7978C39.6943 14.9563 37.8765 13.33 37.6849 11.2265H22.1943C18.1789 11.2265 14.3516 12.8528 11.6735 15.625C9.09286 18.2056 7.37243 22.0329 7.37243 26.0484V177.238C7.37243 181.253 8.99877 185.081 11.6735 187.661C14.3516 190.339 18.0814 192.06 22.1943 192.06H131.882C135.897 192.06 139.721 190.433 142.305 187.661C144.98 185.081 146.704 181.253 146.704 177.238V83.9046L154.066 79.6001V177.14C154.066 183.263 151.485 188.807 147.564 192.826C143.549 196.841 138.001 199.328 131.882 199.328H22.1943C16.0754 199.328 10.5277 196.747 6.51221 192.826C2.4934 188.807 0.00683594 183.263 0.00683594 177.14V25.9543C0.00683594 19.832 2.4934 14.3817 6.51221 10.2688C10.5277 6.25335 16.0754 3.76679 22.1943 3.76679Z" fill="white"/>
</g>
<path d="M31.3743 107.238C30.2252 106.186 30.2252 104.466 31.3743 103.411C32.4261 102.265 34.1465 102.265 35.1983 103.411L40.1714 108.384L49.832 91.7439C50.5007 90.5006 52.2211 90.0235 53.5618 90.7896C54.8018 91.4583 55.2823 93.1787 54.5161 94.5194L43.3266 114.025C43.1351 114.217 43.041 114.506 42.7554 114.698C41.7036 115.749 39.9799 115.749 38.9281 114.698L31.3743 107.14V107.238Z" fill="white"/>
<path d="M64.5565 107.046C63.0276 107.046 61.8784 105.897 61.8784 104.368C61.8784 102.839 63.0276 101.69 64.5565 101.69H120.884C122.413 101.69 123.562 102.839 123.562 104.368C123.562 105.897 122.413 107.046 120.884 107.046H64.5565Z" fill="white"/>
<path d="M31.3743 135.638C30.2252 134.587 30.2252 132.866 31.3743 131.815C32.4261 130.665 34.1465 130.665 35.1983 131.815L40.1714 136.788L49.832 120.148C50.5007 118.905 52.2211 118.427 53.5618 119.19C54.8018 119.859 55.2823 121.583 54.5161 122.92L43.3266 142.429C43.1351 142.621 43.041 142.907 42.7554 143.098C41.7036 144.15 39.9799 144.15 38.9281 143.098L31.3743 135.544V135.638Z" fill="white"/>
<path d="M64.5565 135.447C63.0276 135.447 61.8784 134.301 61.8784 132.769C61.8784 131.24 63.0276 130.094 64.5565 130.094H120.884C122.413 130.094 123.562 131.24 123.562 132.769C123.562 134.301 122.413 135.447 120.884 135.447H64.5565Z" fill="white"/>
<path d="M31.3743 164.042C30.2252 162.991 30.2252 161.267 31.3743 160.215C32.4261 159.069 34.1465 159.069 35.1983 160.215L40.1714 165.188L49.832 148.548C50.5007 147.305 52.2211 146.828 53.5618 147.594C54.8018 148.263 55.2823 149.983 54.5161 151.226L43.3266 170.83C43.1351 171.021 43.041 171.307 42.7554 171.499C41.7036 172.55 39.9799 172.55 38.9281 171.499L31.3743 163.945V164.042Z" fill="white"/>
<path d="M64.5565 163.851C63.0276 163.851 61.8784 162.702 61.8784 161.173C61.8784 159.64 63.0276 158.397 64.5565 158.397H120.884C122.413 158.397 123.562 159.64 123.562 161.173C123.562 162.702 122.413 163.851 120.884 163.851H64.5565Z" fill="white"/>
<path fill-rule="evenodd" clip-rule="evenodd" d="M77.0834 27.9603C91.0485 27.9603 102.332 39.2439 102.332 53.2056C102.332 67.1673 91.0485 78.4543 77.0834 78.4543C63.1217 78.4543 51.8381 67.1673 51.8381 53.2056C51.8381 39.2439 63.1217 27.9603 77.0834 27.9603ZM77.0834 40.1041C81.1022 40.1041 84.449 43.3568 84.449 47.4697C84.449 51.4852 81.1963 54.832 77.0834 54.832C73.068 54.832 69.7212 51.5826 69.7212 47.4697C69.7212 43.4543 72.9739 40.1041 77.0834 40.1041ZM72.0162 56.9355H82.154C86.9356 56.9355 90.7595 60.7627 90.7595 65.5443V66.213H63.4107V65.5443C63.4107 60.7627 67.2346 56.9355 72.0162 56.9355Z" fill="white"/>
<mask id="mask1_1099_2145" style="mask-type:luminance" maskUnits="userSpaceOnUse" x="116" y="38" width="68" height="49">
<path d="M116.129 38.7097H183.874V86.8818H116.129V38.7097Z" fill="white"/>
</mask>
<g mask="url(#mask1_1099_2145)">
<path fill-rule="evenodd" clip-rule="evenodd" d="M174.913 40.2957L183.33 54.832C183.999 55.9812 183.615 57.416 182.466 58.0847L133.313 86.4852C132.836 86.7742 132.359 86.8683 131.784 86.7742L118.491 84.7648C117.728 84.6673 117.154 84.2876 116.771 83.6156C116.388 82.9469 116.388 82.2782 116.579 81.6095L121.458 69.0827C121.646 68.6021 122.029 68.125 122.51 67.9335L171.663 39.5329C172.809 38.8642 174.244 39.2439 174.913 40.3931V40.2957ZM172.043 44.4086C172.332 44.9832 172.14 45.6519 171.663 45.9375L127.769 71.2802C127.194 71.5692 126.525 71.3777 126.236 70.8972C125.951 70.3259 126.142 69.6539 126.62 69.3683L170.514 44.0255C171.089 43.7399 171.757 43.9314 172.043 44.4086Z" fill="white"/>
</g>
</g>
<defs>
<clipPath id="clip0_1099_2145">
<rect width="185.161" height="200" fill="white"/>
</clipPath>
</defs>
</svg>
