<svg width="224" height="200" viewBox="0 0 224 200" fill="none" xmlns="http://www.w3.org/2000/svg">
<path d="M155.302 21.3357L158.119 25.2646L153.607 28.5068L150.787 24.5779L155.302 21.3357Z" fill="white"/>
<mask id="mask0_1099_2185" style="mask-type:luminance" maskUnits="userSpaceOnUse" x="0" y="119" width="223" height="80">
<path d="M0.0368652 119.186H222.475V198.717H0.0368652V119.186Z" fill="white"/>
</mask>
<g mask="url(#mask0_1099_2185)">
<path d="M215.565 130.975C211.405 128.125 206.113 127.509 201.41 129.324L201.306 129.364L199.27 130.339C195.823 126.042 190.407 123.654 184.81 124.143C182.794 124.31 180.828 124.846 178.952 125.744L177.944 126.233C176.296 123.369 173.707 121.215 170.559 120.12C167.092 118.914 163.367 119.132 160.072 120.733L137.537 131.635C135.792 130.935 133.889 130.547 131.893 130.547H84.8037L81.9399 130.57C64.4828 130.724 48.0305 138.307 36.5889 151.427H26.9359V144.571H0.0334473V149.407H22.0994V193.964H0.0334473V198.801H26.9359V191.707H39.8144L125.275 196.845C125.653 196.865 126.032 196.878 126.41 196.878C129.26 196.878 132.094 196.235 134.663 194.999L212.544 157.797C214.503 157.024 216.245 155.878 217.728 154.398C220.616 151.511 222.207 147.669 222.207 143.583C222.207 138.538 219.721 133.826 215.565 130.975ZM177.897 132.704L181.471 130.972C182.697 130.386 183.98 130.034 185.303 129.924C188.495 129.646 191.59 130.791 193.82 132.945L147.253 155.212H143.847C145.532 153.078 146.661 150.489 147.009 147.662L177.897 132.704ZM162.6 125.951C164.503 125.03 166.653 124.903 168.653 125.6C170.338 126.186 171.741 127.301 172.696 128.775L146.503 141.459C145.827 139.175 144.628 137.115 143.047 135.413L162.6 125.951ZM213.625 150.291C212.688 151.229 211.586 151.946 210.343 152.428L210.239 152.469L132.158 189.768C130.128 190.742 127.87 191.184 125.623 191.05L40.0756 185.909L26.9359 185.902V157.228H39.2852L40.156 156.186C50.5359 143.737 65.7824 136.515 81.9902 136.371L84.8305 136.348H131.896C137.095 136.348 141.328 140.578 141.328 145.78C141.328 150.971 137.115 155.192 131.927 155.212H96.2084L82.1442 159.824L83.9496 165.337L97.1362 161.013H99.1425V161.016H131.896C131.916 161.016 131.94 161.013 131.96 161.013H148.57L203.601 134.7C206.535 133.601 209.693 133.987 212.282 135.762C214.901 137.557 216.402 140.407 216.402 143.583C216.402 146.118 215.417 148.503 213.625 150.291Z" fill="white"/>
</g>
<path d="M14.2551 153.527H19.0917V158.792H14.2551V153.527Z" fill="white"/>
<path d="M14.2551 162.58H19.0917V190.062H14.2551V162.58Z" fill="white"/>
<path d="M116.02 90.4844V115.595L110.916 110.49L107.496 113.91L118.439 124.853L129.438 113.853L126.018 110.433L120.857 115.595V90.4844H116.02Z" fill="white"/>
<path d="M95.5787 98.2383L90.4474 93.107L87.0276 96.5268L97.9702 107.469L108.97 96.4698L105.55 93.0501L100.415 98.1814V86.3713H136.462V98.2383L131.327 93.107L127.907 96.5268L138.85 107.469L149.849 96.4698L146.433 93.0501L141.298 98.1814V86.3713H188.17V0.0402832H48.707V86.3713H95.5787V98.2383ZM58.1557 81.5381L101.192 47.9737L98.218 44.1621L53.5436 79.0026V7.16783L111.425 48.7039C113.525 50.2111 115.98 50.9614 118.438 50.9614C120.897 50.9614 123.355 50.2111 125.452 48.7039L149.253 31.6252L146.436 27.6964L122.632 44.775C120.127 46.577 116.754 46.577 114.245 44.775L58.6414 4.87348H178.235L159.435 18.3649L162.255 22.2938L183.333 7.16783V78.9993L138.659 44.1621L135.685 47.9737L178.724 81.5381H141.298V74.6451H136.462V81.5381H100.415V74.6451H95.5787V81.5381H58.1557Z" fill="white"/>
<path d="M116.02 72.2268H120.857V79.2405H116.02V72.2268Z" fill="white"/>
<path d="M95.5789 63.3171H100.415V70.3308H95.5789V63.3171Z" fill="white"/>
<path d="M136.462 63.3171H141.298V70.3308H136.462V63.3171Z" fill="white"/>
</svg>
