<svg width="180" height="233" viewBox="0 0 180 233" fill="none" xmlns="http://www.w3.org/2000/svg">
<mask id="mask0_179_905" style="mask-type:luminance" maskUnits="userSpaceOnUse" x="0" y="68" width="160" height="120">
<path d="M0.015625 68.3981H159.328V187.555H0.015625V68.3981Z" fill="white"/>
</mask>
<g mask="url(#mask0_179_905)">
<path d="M158.61 142.374C158.208 139.254 157.704 136.733 157.184 134.519C157.05 133.968 156.932 133.432 156.79 132.912C156.656 132.392 156.522 131.888 156.388 131.391C156.239 130.903 156.105 130.414 155.963 129.942C155.829 129.461 155.664 128.996 155.522 128.524C154.033 123.86 152.142 119.369 149.81 115.076C149.991 115.312 150.165 115.541 150.338 115.761C150.503 115.99 150.669 116.218 150.834 116.439C151.173 116.896 151.504 117.345 151.827 117.817C152.158 118.29 152.497 118.771 152.828 119.291C153.158 119.818 153.513 120.37 153.86 120.976C154.545 122.111 155.64 124.522 156.483 126.696C157.279 128.752 157.854 130.438 158.256 131.628C158.657 132.809 158.886 133.495 158.973 133.55C159.012 133.582 159.012 133.448 158.973 133.156C158.941 132.857 158.846 132.384 158.705 131.738C158.421 130.446 157.909 128.421 156.964 125.625C156.751 124.963 156.648 124.514 156.593 124.12C156.538 123.734 156.53 123.387 156.428 122.962C156.672 123.497 156.869 124.017 157.074 124.506C157.279 124.994 157.452 125.451 157.617 125.885C157.783 126.318 157.948 126.72 158.082 127.09C158.216 127.46 158.334 127.799 158.445 128.106C158.673 128.721 158.831 129.201 158.957 129.532C159.075 129.871 159.154 130.06 159.185 130.091C159.248 130.155 159.138 129.587 158.799 128.319C158.626 127.689 158.405 126.877 158.082 125.892C157.933 125.396 157.759 124.853 157.554 124.27C157.35 123.687 157.137 123.056 156.877 122.387C154.836 116.911 152.426 111.987 149.724 107.473C147.013 102.967 144.004 98.8546 140.624 95.0495C138.576 92.7333 136.425 90.5826 134.196 88.5579C131.966 86.5332 129.65 84.6346 127.224 82.8777C124.805 81.113 122.284 79.4822 119.653 77.9775C117.021 76.4807 114.28 75.0941 111.404 73.873C110.829 73.6367 110.159 73.3609 109.427 73.0931C108.686 72.8252 107.891 72.5337 107.055 72.2816C106.638 72.1477 106.213 72.0138 105.787 71.8798C105.354 71.7538 104.92 71.6277 104.487 71.5017C104.274 71.4387 104.054 71.3835 103.841 71.3205C103.621 71.2575 103.408 71.2023 103.187 71.1472C102.762 71.0369 102.336 70.9266 101.919 70.8163C96.7272 69.5243 91.3937 68.7443 86.0287 68.4922C80.6637 68.2401 75.2592 68.5001 69.8864 69.3116C64.5213 70.123 59.2036 71.4859 54.0513 73.3924C48.9068 75.2911 43.9357 77.7333 39.2403 80.6797C28.2503 87.5731 18.9226 97.019 12.1789 108.064C8.79916 113.579 6.08908 119.495 4.07227 125.632C2.08698 131.777 0.787085 138.151 0.282883 144.556C0.0780511 146.998 -0.00860859 149.393 0.0229041 151.709C0.0465385 154.025 0.164711 156.278 0.377421 158.453C0.598009 160.627 0.8895 162.723 1.25977 164.732C1.35431 165.236 1.45673 165.732 1.55126 166.221C1.60641 166.465 1.65368 166.709 1.70095 166.953C1.7561 167.198 1.81125 167.442 1.86639 167.678C1.97669 168.159 2.08698 168.631 2.20515 169.096C2.32332 169.569 2.4415 170.026 2.55967 170.483C2.67784 170.94 2.81965 171.389 2.9457 171.83C3.07963 172.279 3.1978 172.712 3.33961 173.146C3.61534 174.004 3.8832 174.847 4.18257 175.659C4.33225 176.061 4.47406 176.462 4.62374 176.856C4.77343 177.25 4.92311 177.636 5.08068 178.014C5.15158 178.203 5.23036 178.4 5.30127 178.582C5.38005 178.771 5.45883 178.952 5.53761 179.141C5.69517 179.503 5.85274 179.866 6.0103 180.22C7.2708 183.064 8.61797 185.475 9.89423 187.468C7.59381 182.513 5.75032 177.242 4.48982 171.854C3.22143 166.465 2.53603 160.958 2.43362 155.593C2.30757 148.999 3.04024 143.067 4.39528 137.135C5.08068 134.164 5.92364 131.194 6.97931 128.138C8.04286 125.089 9.28761 121.945 10.8475 118.668C11.785 116.683 13.014 114.997 14.0696 113.516C14.2272 113.295 14.3769 113.083 14.5187 112.893C14.6684 112.704 14.8023 112.531 14.9362 112.366C15.212 112.043 15.4562 111.751 15.7004 111.475C15.9525 111.2 16.1889 110.932 16.4489 110.648C16.7088 110.365 16.9688 110.057 17.2761 109.703C17.5833 109.356 17.9142 108.947 18.3002 108.466C18.4972 108.23 18.702 107.97 18.9305 107.694C19.1511 107.41 19.3795 107.103 19.6474 106.78C19.9074 106.449 20.1831 106.103 20.4825 105.716C20.7897 105.338 21.1127 104.929 21.4672 104.495C22.1684 103.621 22.9877 102.628 23.9489 101.502C24.7052 101.053 25.7057 100.312 27.0844 99.217C28.4709 98.1298 30.2356 96.6724 32.5912 94.8762C32.859 94.6713 32.7645 94.8762 32.473 95.2622C32.3233 95.4513 32.1264 95.6876 31.8979 95.9476C31.6694 96.2076 31.4173 96.4991 31.1416 96.7748C29.4399 98.5159 27.7225 100.414 26.1705 102.353C24.6185 104.291 23.2319 106.268 22.129 108.111C23.7283 105.843 25.4693 103.652 27.2813 101.596C28.7309 99.9339 30.2908 98.2716 31.8979 96.7275C33.4972 95.1834 35.1437 93.7575 36.7351 92.56C38.8464 90.9765 40.17 90.3383 41.8559 89.4324C42.0607 89.3221 42.2813 89.2039 42.5019 89.0778C42.7304 88.9597 42.9667 88.8336 43.2109 88.6997C43.6994 88.4318 44.2351 88.1325 44.8417 87.8016C45.1411 87.6283 45.4562 87.4471 45.795 87.258C46.1337 87.0689 46.4961 86.8641 46.8743 86.6514C47.2524 86.4308 47.6621 86.2102 48.0954 85.966C48.3081 85.8478 48.5287 85.7217 48.7571 85.5957C48.9856 85.4696 49.2298 85.3436 49.4741 85.2097C49.8995 85.0915 50.3643 84.9339 50.837 84.8079C51.3175 84.6739 51.7902 84.54 52.2472 84.414C53.161 84.1855 53.9567 84.0122 54.39 84.0122C54.6343 84.0201 54.4215 84.217 53.941 84.5479C53.4604 84.8788 52.7041 85.3121 51.8533 85.7848C51.2388 86.1157 50.5534 86.5017 49.8286 86.9035C49.4583 87.1004 49.088 87.321 48.7099 87.5337C48.5208 87.644 48.3317 87.7543 48.1348 87.8646C47.9457 87.9749 47.7566 88.0852 47.5597 88.2034C46.0234 89.1093 44.4793 90.1178 43.1873 91.0474C41.0838 92.5757 39.5633 93.9229 37.8853 95.4513C38.2398 95.1676 38.5471 94.9471 38.8149 94.7501C39.0749 94.561 39.3034 94.4113 39.4924 94.2853C39.8627 94.0411 40.1069 93.9229 40.2566 93.8756C40.556 93.7811 40.5087 93.9702 40.5718 94.0726C40.6348 94.175 40.8002 94.1908 41.5329 93.7496C42.2734 93.332 43.5576 92.4182 45.9919 90.8977C46.3307 90.6929 46.827 90.4092 47.3864 90.1178C47.9457 89.842 48.5523 89.5348 49.1195 89.2748C49.6946 89.0227 50.2067 88.8021 50.577 88.6603C50.9394 88.5185 51.1521 88.4555 51.097 88.5106C50.38 89.1881 50.3328 89.456 50.7661 89.3693C50.9867 89.3378 51.3333 89.2275 51.7824 89.0463C52.0108 88.9518 52.255 88.8415 52.5387 88.7312C52.8144 88.613 53.1216 88.4791 53.4446 88.3373C53.6101 88.2664 53.7755 88.1955 53.9489 88.1167C54.1222 88.0458 54.3034 87.967 54.4924 87.8882C54.8627 87.7307 55.2566 87.5652 55.6663 87.384C56.0838 87.2186 56.5171 87.0453 56.9662 86.8641C57.4152 86.675 57.8879 86.5096 58.3685 86.3205C60.3065 85.5957 62.4966 84.8709 64.7892 84.2722C66.9084 83.7207 69.3112 83.2086 71.7929 82.8305C74.2745 82.4523 76.827 82.2238 79.222 82.1687C81.609 82.1057 83.8386 82.216 85.6584 82.4366C87.4783 82.6414 88.9042 82.9801 89.7078 83.3189C89.7866 83.3504 89.9047 83.3898 90.0623 83.4292C90.2199 83.4686 90.4089 83.5159 90.6295 83.571C90.8501 83.6183 91.1022 83.6734 91.378 83.7286C91.5119 83.7601 91.6537 83.7837 91.8034 83.8152C91.9452 83.8467 92.0949 83.8861 92.2524 83.9176C92.8748 84.0516 93.5602 84.1776 94.2535 84.3352C94.6001 84.414 94.9468 84.4849 95.2934 84.5637C95.64 84.6346 95.9788 84.7133 96.3097 84.7921C98.1217 85.1939 99.6894 85.5957 100.737 85.9423C101.257 86.1235 101.651 86.2653 101.887 86.3993C102.124 86.5332 102.195 86.6356 102.076 86.7065C101.927 86.801 102.132 86.9586 102.581 87.1634C103.03 87.3604 103.715 87.6283 104.534 87.9197C106.173 88.5106 108.316 89.2905 110.112 90.0232C118.203 93.2769 125.695 98.1377 132.021 104.228C138.355 110.309 143.508 117.597 147.132 125.522C147.384 126.105 147.683 126.728 147.943 127.381C148.077 127.704 148.219 128.027 148.353 128.35C148.487 128.681 148.613 129.012 148.747 129.335C149.259 130.627 149.716 131.864 150.07 132.786C150.259 133.243 150.401 133.629 150.527 133.889C150.661 134.157 150.763 134.306 150.826 134.314C150.897 134.322 150.937 134.18 150.929 133.857C150.921 133.534 150.882 133.03 150.763 132.321C150.669 131.714 150.96 132.179 151.378 133.069C151.575 133.511 151.819 134.062 152.04 134.637C152.26 135.212 152.489 135.803 152.67 136.339C153.355 138.293 154.001 140.632 154.513 142.957C155.033 145.288 155.412 147.605 155.719 149.488C155.884 150.472 156.002 151.276 156.136 151.772C156.262 152.261 156.381 152.442 156.483 152.158C156.53 152.024 156.578 151.772 156.617 151.386C156.656 151 156.711 150.488 156.719 149.826C156.727 149.488 156.735 149.125 156.735 148.715C156.735 148.306 156.719 147.857 156.711 147.368C156.704 147.124 156.696 146.872 156.688 146.604C156.672 146.344 156.648 146.068 156.633 145.777C156.617 145.493 156.593 145.194 156.578 144.887C156.554 144.579 156.515 144.264 156.491 143.933C156.184 140.908 156.255 140.097 156.262 138.844C156.255 138.537 156.247 138.198 156.215 137.788C156.199 137.591 156.184 137.371 156.152 137.127C156.121 136.89 156.081 136.622 156.034 136.331C155.987 136.047 155.932 135.732 155.869 135.378C155.798 135.031 155.711 134.653 155.616 134.243C155.569 134.031 155.514 133.818 155.459 133.589C155.404 133.361 155.341 133.132 155.27 132.88C155.136 132.392 154.994 131.856 154.813 131.289C154.947 131.226 154.892 130.375 155.262 131.257C155.404 131.596 155.538 131.943 155.672 132.313C155.805 132.676 155.955 133.054 156.097 133.44C156.231 133.834 156.365 134.243 156.515 134.661C156.578 134.874 156.656 135.086 156.727 135.307C156.79 135.52 156.861 135.748 156.932 135.976C157.499 137.796 158.074 139.892 158.61 142.374Z" fill="white"/>
</g>
<mask id="mask1_179_905" style="mask-type:luminance" maskUnits="userSpaceOnUse" x="13" y="152" width="148" height="80">
<path d="M13.6289 152.214H160.501V231.287H13.6289V152.214Z" fill="white"/>
</mask>
<g mask="url(#mask1_179_905)">
<path d="M55.5721 218.438C55.9266 218.603 56.2812 218.761 56.6357 218.918C56.9981 219.076 57.3526 219.225 57.715 219.375C58.4319 219.69 59.1724 219.958 59.913 220.226C60.299 220.352 60.6929 220.478 61.0868 220.596C61.2838 220.659 61.4729 220.714 61.6777 220.777C61.8746 220.825 62.0716 220.88 62.2686 220.935C62.6703 221.037 63.0642 221.148 63.466 221.25C63.8678 221.345 64.2696 221.447 64.6714 221.542C64.2775 221.415 63.8914 221.289 63.4975 221.163C63.1115 221.029 62.7255 220.888 62.3316 220.754C62.1346 220.683 61.9377 220.612 61.7407 220.541C61.5438 220.47 61.3468 220.391 61.142 220.32C60.7481 220.163 60.3384 220.013 59.9366 219.848C59.4718 219.714 59.0464 219.588 58.6525 219.47C58.2507 219.351 57.8883 219.225 57.5338 219.107C56.8247 218.887 56.2024 218.658 55.5721 218.438ZM114.824 222.361C112.72 223.314 110.601 224.275 108.419 225.095C108.836 225.024 109.207 225.039 109.687 224.866C110.057 224.732 110.42 224.598 110.79 224.456C110.971 224.386 111.16 224.315 111.349 224.244C111.531 224.173 111.72 224.094 111.909 224.015C112.287 223.866 112.681 223.708 113.075 223.543C113.477 223.369 113.886 223.196 114.312 223.007C115.998 222.251 117.943 221.329 120.315 220.021C120.126 220.108 119.952 220.194 119.779 220.273C119.606 220.352 119.44 220.423 119.275 220.494C118.952 220.636 118.652 220.769 118.377 220.888C117.817 221.132 117.337 221.313 116.911 221.486C116.699 221.573 116.502 221.66 116.313 221.731C116.131 221.809 115.95 221.88 115.777 221.943C115.438 222.085 115.131 222.219 114.824 222.361ZM56.5963 219.296C55.0285 218.697 53.9413 218.438 52.6493 217.973C52.8226 218.067 52.996 218.154 53.1693 218.248C53.3505 218.335 53.5238 218.422 53.6971 218.508C54.0516 218.682 54.4062 218.855 54.7528 219.028C55.1152 219.194 55.4697 219.351 55.8242 219.509C55.9975 219.588 56.1709 219.659 56.3521 219.737C56.5254 219.808 56.7066 219.871 56.8799 219.942C57.3132 220.108 57.7465 220.265 58.2192 220.423C58.6997 220.572 59.2197 220.738 59.8184 220.927C61.0396 221.266 62.5916 221.715 64.8683 222.219C62.4734 221.526 60.7953 220.896 59.5112 220.415C58.2271 219.926 57.3526 219.564 56.5963 219.296ZM29.2591 199.175C34.0411 204.336 39.5952 208.889 45.7875 212.616C47.3316 213.545 48.9151 214.435 50.5459 215.255C52.1688 216.074 53.831 216.838 55.517 217.547C58.9125 218.957 62.4261 220.139 66.0579 221.045C67.5312 221.423 69.0359 221.707 70.5485 221.967L71.6908 222.148L72.258 222.235L72.8331 222.306C73.2113 222.361 73.5895 222.408 73.9676 222.463C74.3536 222.503 74.7318 222.55 75.1099 222.589C77.0007 222.802 77.9776 222.81 78.5054 222.755C79.0333 222.715 79.1042 222.613 79.1908 222.511C79.2775 222.416 79.372 222.314 79.9392 222.266C80.2229 222.235 80.6246 222.219 81.2076 222.227C81.4912 222.219 81.83 222.219 82.2082 222.219C82.5942 222.219 83.0275 222.227 83.5238 222.219C80.9634 222.124 78.5842 221.841 75.882 221.534C70.6982 220.927 65.5695 219.745 60.6299 218.004C55.6982 216.247 50.9555 213.955 46.5595 211.142L46.7643 211.048L47.2449 211.347L47.7255 211.631L48.7024 212.206C49.3563 212.568 50.0101 212.946 50.6798 213.293C52.0033 214.01 53.3662 214.656 54.737 215.278C57.4944 216.507 60.3384 217.587 63.2691 218.445C66.1919 219.328 69.2092 219.997 72.2896 220.478C73.8258 220.706 75.3778 220.919 76.9534 221.045C77.7412 221.124 78.5291 221.155 79.3247 221.211C79.7187 221.226 80.1204 221.242 80.5222 221.258L81.1131 221.282C81.3179 221.289 81.5149 221.289 81.7197 221.289C75.9135 220.777 69.8788 219.682 63.7654 217.736C57.652 215.798 51.4597 212.994 45.5117 209.102C41.3599 206.4 37.5154 203.185 34.0569 199.601L33.4109 198.923L32.7806 198.23C32.3552 197.773 31.9534 197.3 31.5359 196.836C31.142 196.355 30.7323 195.882 30.3384 195.402L29.4639 194.307L29.1803 193.936C27.6598 191.959 26.2496 189.911 24.9497 187.784L25.2255 187.665C28.7706 193.346 33.1588 198.49 38.2008 202.878L38.1456 202.602C33.3557 198.364 29.1567 193.448 25.6903 187.949C22.2318 182.45 19.4981 176.36 17.7176 169.79C19.0805 174.383 20.8925 178.74 23.0905 182.844C25.2964 186.949 27.8883 190.793 30.819 194.37C33.7496 197.946 37.0191 201.255 40.6273 204.265C44.2355 207.274 48.1667 210 52.4287 212.371C53.7601 213.112 55.1467 213.813 56.5805 214.475C58.0143 215.121 59.4876 215.751 61.0159 216.303C64.049 217.421 67.2475 218.335 70.517 219.005C72.1478 219.328 73.8022 219.619 75.4645 219.824L76.0868 219.903L76.7092 219.974C77.1267 220.013 77.5364 220.068 77.9539 220.1C78.3715 220.131 78.789 220.171 79.2066 220.202C79.6162 220.242 80.0338 220.249 80.4513 220.281C81.2864 220.336 82.1136 220.352 82.9487 220.383C83.3584 220.383 83.7759 220.391 84.1856 220.391L84.8079 220.399L85.4224 220.383C87.069 220.376 88.6997 220.281 90.3069 220.163C90.7402 220.123 91.1656 220.092 91.5832 220.053C92.0007 220.013 92.4182 219.966 92.8279 219.926C93.0327 219.903 93.2297 219.879 93.4345 219.863C93.6315 219.832 93.8363 219.808 94.0333 219.785C94.4272 219.73 94.8211 219.682 95.1992 219.635C95.9713 219.517 96.7197 219.422 97.4366 219.296C97.7911 219.233 98.1457 219.178 98.4923 219.115C98.8389 219.052 99.1777 218.989 99.5086 218.926C102.179 218.43 104.425 217.902 106.181 217.484C106.402 217.437 106.623 217.39 106.827 217.342C107.032 217.295 107.229 217.248 107.418 217.201C107.796 217.114 108.151 217.043 108.466 216.98C109.104 216.846 109.616 216.759 109.994 216.736C110.743 216.681 110.963 216.862 110.554 217.327C110.278 217.634 110.774 217.792 109.719 218.524C109.585 218.611 109.427 218.713 109.238 218.824C109.049 218.926 108.828 219.044 108.584 219.17C108.332 219.288 108.041 219.43 107.718 219.572C107.395 219.722 107.024 219.863 106.615 220.029C104.968 220.675 102.605 221.471 99.1777 222.219C98.5868 222.337 97.9487 222.495 97.2791 222.652C96.9403 222.731 96.6015 222.81 96.247 222.889C96.0737 222.928 95.8925 222.967 95.7192 223.015C95.538 223.054 95.3647 223.094 95.1835 223.133C94.8211 223.212 94.4587 223.29 94.0884 223.369C93.726 223.448 93.3557 223.519 92.9855 223.598C92.2528 223.747 91.5201 223.866 90.8032 223.976C94.9156 223.621 99.0832 222.841 102.88 221.778C104.779 221.242 106.583 220.636 108.238 219.997C108.655 219.832 109.057 219.667 109.459 219.509C109.853 219.344 110.239 219.178 110.609 219.013C110.987 218.847 111.357 218.682 111.704 218.508C112.058 218.343 112.405 218.178 112.736 218.012C114.745 216.996 116.588 215.995 118.306 214.995C120.031 213.994 121.646 213.009 123.19 212.001C124.734 210.993 126.208 209.969 127.649 208.897C129.091 207.826 130.485 206.691 131.88 205.47C132.211 205.186 132.526 204.911 132.841 204.627C133.156 204.351 133.463 204.076 133.771 203.8C134.078 203.524 134.377 203.248 134.669 202.973C134.968 202.697 135.268 202.421 135.551 202.146C136.717 201.027 137.828 199.877 138.923 198.585C140.609 196.576 141.877 194.89 142.87 193.558C143.863 192.227 144.579 191.234 145.123 190.549C145.399 190.21 145.627 189.942 145.808 189.745C145.998 189.548 146.147 189.414 146.273 189.344C146.51 189.21 146.628 189.312 146.667 189.58C146.683 189.698 146.935 189.485 147.282 189.068C147.447 188.855 147.644 188.595 147.849 188.296C148.046 188.004 148.266 187.681 148.456 187.335C149.858 184.869 150.795 182.954 151.552 181.324C151.741 180.914 151.914 180.528 152.079 180.15C152.166 179.961 152.253 179.772 152.332 179.59C152.41 179.409 152.489 179.228 152.56 179.047C152.718 178.692 152.867 178.346 153.009 177.999C153.151 177.652 153.293 177.306 153.435 176.959C153.994 175.572 154.537 174.147 155.176 172.327C155.806 170.499 156.523 168.269 157.255 165.236C156.554 169.049 155.625 172.469 154.545 175.659C153.474 178.842 152.229 181.796 150.858 184.68C150.638 185.144 150.362 185.727 150.086 186.342C149.811 186.949 149.511 187.579 149.259 188.162C148.723 189.296 148.322 190.194 148.424 190.108C148.613 189.982 148.897 189.651 149.283 189.17C149.464 188.926 149.685 188.65 149.905 188.327C150.134 188.004 150.378 187.642 150.63 187.256C151.662 185.68 152.891 183.545 154.065 181.071C155.246 178.59 156.381 175.777 157.271 172.91C158.169 170.042 158.847 167.135 159.272 164.519C159.587 162.558 159.769 160.423 159.934 158.587C160.147 156.373 160.328 154.388 160.415 152.293C160.446 152.954 160.501 153.561 160.533 154.199C160.564 154.837 160.58 155.515 160.572 156.303L160.525 157.602L160.501 158.256L160.462 158.91L160.375 160.21L160.265 161.518L160.21 162.164L160.139 162.818C160.092 163.251 160.036 163.684 159.989 164.118C159.934 164.559 159.871 164.992 159.808 165.425L159.721 166.079L159.611 166.725C159.54 167.159 159.469 167.6 159.39 168.033C159.312 168.466 159.225 168.9 159.138 169.333C159.099 169.554 159.06 169.766 159.012 169.987L158.87 170.641C158.776 171.074 158.681 171.507 158.579 171.941C158.154 173.682 157.681 175.415 157.121 177.148C154.671 184.806 150.984 192.109 146.25 198.695C141.515 205.289 135.724 211.158 129.146 216.003C126.452 218.004 123.608 219.808 120.669 221.447C119.188 222.258 117.699 223.038 116.179 223.755C115.415 224.126 114.643 224.456 113.878 224.803C113.492 224.976 113.098 225.126 112.712 225.292C112.318 225.449 111.932 225.622 111.539 225.772C108.403 227.001 105.197 228.057 101.919 228.876C101.51 228.978 101.1 229.089 100.69 229.183L99.4534 229.459L98.8389 229.601L98.2166 229.719L96.9718 229.963C95.3095 230.263 93.6472 230.53 91.9692 230.727C90.2911 230.932 88.6052 231.066 86.9272 231.169L85.6588 231.224L85.0285 231.255L84.3983 231.263L83.1299 231.287C82.7124 231.295 82.2869 231.287 81.8615 231.287C80.1756 231.279 78.4897 231.2 76.8037 231.09L75.5432 230.987L74.913 230.932L74.2827 230.861L73.0222 230.727L71.7617 230.562C65.0574 229.664 58.4634 227.86 52.2003 225.276C52.5863 225.386 52.9802 225.512 53.3899 225.638C53.5947 225.701 53.7995 225.764 54.0044 225.827C54.2171 225.89 54.4298 225.953 54.6425 226.024C55.0679 226.15 55.5091 226.284 55.9503 226.426C56.3993 226.552 56.8484 226.686 57.3053 226.82C59.1409 227.348 61.0632 227.868 62.9382 228.277C63.4109 228.388 63.8599 228.466 64.2932 228.545C64.7265 228.624 65.1362 228.703 65.5459 228.758C66.3573 228.876 67.1451 229.002 67.9802 229.097C67.1766 228.915 66.2549 228.64 65.4041 228.411C64.5611 228.167 63.789 227.946 63.3006 227.836C60.8978 227.293 58.8809 226.639 57.0532 225.953C56.1394 225.615 55.2728 225.244 54.4298 224.882C53.5868 224.496 52.7517 224.126 51.9324 223.708C50.2859 222.897 48.6315 222.006 46.7959 220.974C44.9603 219.934 42.9356 218.761 40.5879 217.279C40.1782 217.019 39.8631 216.822 39.6346 216.665C39.4062 216.507 39.2643 216.397 39.1856 216.326C39.028 216.192 39.1304 216.216 39.3904 216.326C39.6504 216.444 40.06 216.641 40.5091 216.846C40.966 217.059 41.4466 217.287 41.8641 217.453C42.6992 217.784 43.2113 217.918 42.4944 217.327C42.3132 217.185 42.0532 216.996 41.7066 216.744C41.3599 216.492 40.9345 216.184 40.3988 215.814C39.3352 215.05 37.862 214.034 35.9555 212.545C36.1446 212.623 36.247 212.584 36.5227 212.789C38.6735 214.38 40.0758 215.215 40.9503 215.672C41.8326 216.121 42.1871 216.208 42.3526 216.161C42.6756 216.066 42.2187 215.475 43.5895 216.208C45.7323 217.335 46.9849 217.862 47.5206 218.075C48.0721 218.264 47.9224 218.138 47.3395 217.792C47.0558 217.61 46.6541 217.382 46.1892 217.114C45.7166 216.846 45.1887 216.515 44.6136 216.176C44.0306 215.83 43.4319 215.444 42.8095 215.058C42.5023 214.853 42.195 214.656 41.8956 214.451C41.5884 214.254 41.2812 214.049 40.9897 213.845C33.5921 208.755 27.1241 202.311 21.9954 194.953C21.6961 193.826 19.5847 190.572 17.6861 186.854C16.7328 185.003 15.8111 183.049 15.1099 181.261C14.9209 180.819 14.7712 180.386 14.6136 179.969C14.5348 179.756 14.4639 179.551 14.393 179.354C14.3221 179.149 14.2591 178.96 14.1961 178.763C14.07 178.385 13.9597 178.03 13.8652 177.692C13.7706 177.361 13.6997 177.054 13.6367 176.778C14.1567 178.149 14.7475 179.504 15.3463 180.851C15.9765 182.19 16.6147 183.522 17.3158 184.806C18.0012 186.106 18.7418 187.366 19.4902 188.595C19.6714 188.902 19.8683 189.202 20.0653 189.509C20.2544 189.808 20.4434 190.108 20.6404 190.399C21.0422 190.99 21.4282 191.581 21.8379 192.14C22.0821 192.487 22.3106 192.794 22.5075 193.07C22.7202 193.338 22.9093 193.574 23.0669 193.763C23.382 194.149 23.5789 194.37 23.6262 194.362C23.6814 194.362 23.5789 194.141 23.2875 193.661C22.9881 193.172 22.5154 192.416 21.8379 191.321C20.2465 188.721 18.7733 185.948 17.7176 183.671C20.9083 189.438 24.8394 194.685 29.3458 199.286L29.2591 199.175Z" fill="white"/>
</g>
<path d="M30.2832 192.172C31.2916 193.558 32.4182 194.968 33.6708 196.402C34.9156 197.836 36.2864 199.278 37.7674 200.704C40.7375 203.556 44.196 206.337 48.0799 208.81C50.018 210.055 52.0584 211.221 54.1934 212.285C56.3284 213.348 58.5421 214.309 60.8268 215.152C63.1115 216.003 65.467 216.736 67.8541 217.335C70.2491 217.933 72.6834 218.398 75.1256 218.729C78.3951 219.186 81.5778 219.359 84.7212 219.336C87.8489 219.28 90.9371 219.028 93.9938 218.516C97.0505 218.02 100.076 217.279 103.109 216.287C104.629 215.783 106.142 215.207 107.655 214.577C109.167 213.939 110.68 213.222 112.192 212.426C114.398 211.261 115.919 210.331 116.903 209.677C117.148 209.519 117.368 209.378 117.549 209.252C117.731 209.126 117.888 209.015 118.006 208.929C118.259 208.74 118.385 208.629 118.416 208.582C118.479 208.487 118.132 208.637 117.463 208.96C117.124 209.118 116.707 209.315 116.226 209.543C115.982 209.661 115.722 209.772 115.438 209.898C115.162 210.016 114.871 210.15 114.556 210.284C112.941 210.961 111.791 211.347 111.129 211.497C110.459 211.639 110.286 211.568 110.601 211.268C110.916 210.977 111.712 210.457 112.964 209.645C114.217 208.842 115.927 207.755 117.991 206.242C120.094 204.698 120.976 203.808 121.118 203.516C121.252 203.225 120.606 203.493 119.511 204.076C115.044 206.415 109.931 208.487 104.558 209.811C104.424 209.842 104.275 209.89 104.101 209.937C103.928 209.992 103.731 210.039 103.526 210.102C103.109 210.221 102.636 210.37 102.14 210.512C101.636 210.654 101.116 210.819 100.596 210.953C100.336 211.024 100.076 211.103 99.8236 211.174C99.5715 211.237 99.3273 211.3 99.091 211.363C98.3426 211.576 97.5784 211.749 96.8299 211.93C96.0736 212.08 95.3331 212.245 94.5847 212.371C93.8362 212.513 93.0878 212.608 92.3552 212.718C91.977 212.765 91.6067 212.805 91.2443 212.852C90.8741 212.899 90.5038 212.931 90.1335 212.962C87.195 213.254 84.2879 213.277 81.3888 213.175C75.4014 212.915 69.3037 211.875 63.3478 209.874C57.3998 207.873 51.5936 204.926 46.2916 201.027C51.1052 204.895 56.5568 208.038 62.363 210.292C68.1614 212.553 74.3142 213.915 80.5222 214.357C85.0206 214.672 89.4717 214.538 93.8441 213.955C98.2244 213.364 102.526 212.308 106.725 210.788L106.843 211.071C103.448 212.513 99.8945 213.671 96.3336 214.491C96.1603 214.538 95.9791 214.577 95.8058 214.617C95.6246 214.656 95.4434 214.695 95.2543 214.735C94.8919 214.806 94.5138 214.892 94.1356 214.963C93.3714 215.097 92.6073 215.247 91.8667 215.357C90.3935 215.601 89.0542 215.767 88.2349 215.917C86.5726 216.208 84.8394 216.405 83.0511 216.492C81.2627 216.563 79.4192 216.539 77.5521 216.397C73.8021 216.121 69.9261 215.357 66.0815 214.152C64.1356 213.545 62.0637 212.797 60.1729 211.993C58.2822 211.182 56.5883 210.315 55.3357 209.575C53.2716 208.33 51.6803 207.29 49.9786 206.242C48.2848 205.179 46.4886 204.099 44.1172 202.563C43.7627 202.342 43.3924 202.075 42.9749 201.775C42.5574 201.476 42.1162 201.129 41.6356 200.751C41.5174 200.657 41.3993 200.562 41.2732 200.46C41.1551 200.357 41.0369 200.255 40.9108 200.152C40.6587 199.94 40.4066 199.727 40.1388 199.498C39.8788 199.27 39.6188 199.034 39.3431 198.789C39.2091 198.663 39.0673 198.545 38.9334 198.419C38.7995 198.285 38.6577 198.159 38.5237 198.025C38.2401 197.757 37.9486 197.497 37.6729 197.206C37.3814 196.922 37.0978 196.639 36.7984 196.339C36.5069 196.04 36.2154 195.733 35.9161 195.418C35.6167 195.11 35.3252 194.772 35.018 194.441C33.8205 193.117 32.5994 191.66 31.4019 190.092C33.7732 193.416 36.3888 196.418 39.1698 199.089C41.9507 201.759 44.8893 204.115 47.9381 206.155C50.9791 208.196 54.1225 209.953 57.3368 211.402C58.9439 212.127 60.5668 212.797 62.2055 213.388C63.8441 213.971 65.4907 214.498 67.153 214.955C67.4838 215.05 67.8226 215.137 68.1456 215.231C68.4765 215.326 68.8074 215.397 69.1304 215.483C69.4612 215.57 69.7764 215.657 70.0994 215.735C70.4224 215.822 70.7454 215.901 71.0763 215.98L71.5568 216.098C71.7223 216.137 71.8877 216.176 72.0453 216.208C72.3762 216.287 72.6992 216.366 73.0379 216.436C73.3688 216.507 73.6997 216.586 74.0463 216.657C74.3851 216.728 74.7317 216.807 75.0784 216.87C75.4329 216.933 75.7953 217.004 76.1577 217.075C76.5201 217.145 76.8982 217.201 77.2764 217.264C77.6545 217.335 78.0484 217.398 78.4502 217.445C78.852 217.508 79.2617 217.563 79.6792 217.618C81.373 217.831 83.248 217.996 85.3909 218.067C78.8835 218.327 72.6204 217.642 66.8536 216.208C66.4912 216.121 66.1367 216.019 65.7822 215.924C65.4276 215.83 65.0652 215.743 64.7186 215.641C64.0096 215.428 63.3084 215.231 62.623 215.003C61.2443 214.569 59.8972 214.081 58.5815 213.569C55.966 212.529 53.4765 211.371 51.1445 210.087C48.8126 208.803 46.6225 207.44 44.5899 205.99C42.5574 204.54 40.6824 203.036 38.9492 201.499C35.4828 198.427 32.623 195.244 30.2832 192.172Z" fill="white"/>
<path d="M29.2597 199.175C28.2749 197.962 27.0774 196.505 25.8957 194.929C24.7219 193.353 23.5559 191.668 22.5633 190.068C22.0669 189.273 21.6258 188.485 21.2319 187.76C21.0349 187.398 20.8537 187.043 20.6883 186.704C20.6095 186.539 20.5307 186.373 20.4519 186.216C20.381 186.058 20.3101 185.901 20.2471 185.751C19.7271 184.554 19.4908 183.671 19.6247 183.34C19.6326 183.325 19.5774 183.167 19.4593 182.907C19.349 182.647 19.1914 182.285 18.9945 181.859C18.8999 181.639 18.7896 181.41 18.6872 181.166C18.5769 180.914 18.4666 180.654 18.3485 180.386C18.2303 180.118 18.0964 179.842 17.9782 179.559C17.86 179.275 17.734 178.984 17.6158 178.692C16.6231 176.392 15.7172 174.044 15.3941 174.06C15.3941 174.052 15.4178 173.965 15.4178 173.965C14.8978 173.351 14.8663 173.918 15.2996 175.517C15.7329 177.101 16.6704 179.701 18.3012 182.994C21.2003 188.839 24.9188 194.37 29.3306 199.262C29.3464 199.286 29.2597 199.175 29.2597 199.175Z" fill="white"/>
<path d="M13.7549 150.89C13.7549 151.371 13.7549 151.836 13.7549 152.293C13.7628 152.749 13.7706 153.191 13.7864 153.624C13.7864 154.049 13.81 154.475 13.8337 154.884C13.8494 155.286 13.8652 155.688 13.8888 156.074C13.9518 156.854 13.9912 157.587 14.07 158.28C14.1015 158.627 14.133 158.973 14.1645 159.304C14.2039 159.635 14.2433 159.95 14.2827 160.265C14.5978 162.778 14.9839 164.779 15.4172 166.552C15.5511 167.064 15.6772 167.497 15.8032 167.876C15.9371 168.246 16.0711 168.569 16.1971 168.868C16.4492 169.467 16.7249 169.963 17.0007 170.609C16.851 169.995 16.6777 169.341 16.5437 168.663C16.4728 168.325 16.3941 167.986 16.3232 167.655C16.2601 167.316 16.1971 166.977 16.1341 166.647C15.882 165.339 15.685 164.133 15.5196 163.361C15.4723 163.117 15.4172 162.881 15.3699 162.652C15.3226 162.416 15.2754 162.188 15.2281 161.951C15.1414 161.494 15.039 161.037 14.9602 160.58C14.8815 160.123 14.7948 159.667 14.7081 159.202C14.6372 158.737 14.5585 158.264 14.4797 157.776C14.1803 155.838 13.9046 153.679 13.7549 150.89Z" fill="white"/>
<path d="M13.4714 135.244C13.9047 133.275 14.4168 131.321 15.0155 129.391C15.6143 127.461 16.2996 125.554 17.0638 123.671C18.5764 119.913 20.4357 116.289 22.5785 112.831L22.0192 113.382L21.4756 113.942C20.4514 115.691 19.4982 117.471 18.6237 119.291C17.7571 121.111 16.9614 122.962 16.2445 124.837C14.8028 128.603 13.7077 132.479 12.9199 136.41C13.0932 136.016 13.2902 135.63 13.4714 135.244Z" fill="white"/>
<path d="M15.4173 173.965C15.4173 173.965 15.3937 174.052 15.3937 174.06C14.5349 171.184 13.8811 168.388 13.3532 165.827C12.8175 163.267 12.4 160.951 11.9982 159.028C11.9903 158.997 11.9903 159.099 11.9824 159.28C11.9824 159.367 11.9824 159.47 11.9824 159.588C11.9903 159.706 11.9903 159.84 11.9982 159.966C12.0139 160.502 12.0454 161.085 12.0691 161.258C12.7939 165.67 13.9204 169.884 15.4173 173.965Z" fill="white"/>
<path d="M24.3674 204.548C26.2424 206.557 28.2119 208.464 30.276 210.26C32.34 212.056 34.4987 213.734 36.7361 215.302L36.4288 214.869C31.8122 211.521 27.558 207.66 23.7607 203.382C23.9577 203.768 24.1625 204.154 24.3674 204.548Z" fill="white"/>
<path d="M61.1659 218.611C58.834 217.839 56.5414 216.949 54.2962 215.94C52.0588 214.932 49.8686 213.797 47.7494 212.553L47.7021 212.671C49.8292 213.915 52.0115 215.05 54.2568 216.058C56.502 217.075 58.8025 217.965 61.1423 218.729L61.1659 218.611Z" fill="white"/>
<path d="M31.2923 105.591C30.9457 106.016 30.5675 106.442 30.2051 106.883C29.8427 107.332 29.4724 107.781 29.1258 108.222C28.787 108.671 28.4483 109.105 28.1489 109.522C27.8495 109.932 27.5817 110.326 27.3453 110.672C26.8254 111.484 26.4393 112.138 26.1163 112.768C25.9509 113.083 25.7933 113.382 25.6358 113.69C25.4861 113.997 25.3364 114.312 25.1631 114.635C26.3369 112.799 27.8101 110.846 28.9052 109.357C30.3784 107.363 31.5995 105.733 33.0412 104.031C32.7419 104.283 32.4583 104.543 32.1668 104.803C31.8753 105.071 31.5759 105.323 31.2923 105.591Z" fill="white"/>
<path d="M47.5527 207.156C48.0018 207.455 48.4666 207.739 48.9235 208.03C49.3805 208.322 49.8453 208.59 50.3101 208.866C50.7119 209.102 51.1215 209.291 51.5233 209.504C50.5858 208.984 49.6641 208.44 48.7581 207.881C48.3563 207.629 47.9466 207.408 47.5527 207.156Z" fill="white"/>
<path d="M26.8407 180.945C26.6043 180.465 26.3916 180.024 26.1868 179.59C25.9898 179.157 25.8008 178.732 25.6117 178.314C25.4541 177.96 25.2729 177.581 25.0996 177.219C25.2729 177.629 25.4226 178.046 25.6117 178.448C25.8008 178.842 25.9898 179.244 26.1868 179.653C26.3916 180.063 26.6043 180.488 26.8407 180.945Z" fill="white"/>
<path d="M152.087 160.171C152.009 160.58 151.945 160.99 151.859 161.4C151.772 161.809 151.701 162.219 151.638 162.637C151.481 163.637 151.386 164.661 151.221 165.662C151.315 165.252 151.433 164.85 151.528 164.433C151.615 164.023 151.709 163.606 151.78 163.188C151.867 162.692 151.906 162.187 151.961 161.683C152.016 161.187 152.048 160.675 152.087 160.171Z" fill="white"/>
<mask id="mask2_179_905" style="mask-type:luminance" maskUnits="userSpaceOnUse" x="44" y="14" width="128" height="75">
<path d="M44.3701 14.1176H171.429V88.7395H44.3701V14.1176Z" fill="white"/>
</mask>
<g mask="url(#mask2_179_905)">
<mask id="mask3_179_905" style="mask-type:luminance" maskUnits="userSpaceOnUse" x="37" y="0" width="141" height="93">
<path d="M52.0431 0.472687L177.321 31.229L162.306 92.4107L37.0273 61.6544L52.0431 0.472687Z" fill="white"/>
</mask>
<g mask="url(#mask3_179_905)">
<mask id="mask4_179_905" style="mask-type:luminance" maskUnits="userSpaceOnUse" x="37" y="0" width="141" height="93">
<path d="M52.0431 0.472687L177.321 31.229L162.306 92.4107L37.0273 61.6544L52.0431 0.472687Z" fill="white"/>
</mask>
<g mask="url(#mask4_179_905)">
<path d="M164.598 76.1345C165.434 79.9554 163.48 87.9911 163.48 87.9911C163.251 88.0778 163.023 88.1329 162.81 88.1802L162.842 82.76C162.842 82.76 161.66 86.0688 161.266 88.0699C158.706 88.2747 157.611 86.7069 157.611 86.7069C158.524 80.2075 160.092 76.8199 161.101 75.1891C160.785 74.6534 160.667 74.0152 160.809 73.3614C161.038 72.2978 161.92 71.5179 162.936 71.3682L165.623 59.7479L148.495 62.9386C147.203 63.1828 146.077 62.0405 146.345 60.7484L147.29 56.1318C147.4 55.5331 147.227 54.9265 146.825 54.4932C126.594 32.6549 106.513 29.0231 93.2539 29.8188C78.8054 30.6854 69.2886 36.7201 68.8947 36.9801L68.871 36.9879C68.4535 37.2558 68.1778 37.6655 68.0596 38.1303L66.8857 43.2668C66.5785 44.5746 65.058 45.1418 63.9787 44.3461L46.0953 31.3157C44.7796 30.3545 45.2523 28.2905 46.8437 27.9911L113.327 15.7406C113.824 15.6539 114.328 15.7642 114.738 16.0557L170.263 55.7222C171.602 56.6676 171.137 58.7474 169.522 59.0625L167.245 59.4722L164.425 71.6203C165.473 72.1166 166.064 73.2905 165.804 74.4564C165.662 75.1891 165.197 75.78 164.598 76.1345ZM70.8169 40.0131C70.7145 40.0683 70.62 40.1707 70.5885 40.3046L63.7739 68.0751C63.6872 68.406 64.0023 68.7054 64.3332 68.5951C69.4698 66.9564 100.667 58.708 136.481 86.4548C136.741 86.6439 137.104 86.5257 137.175 86.2264L144.32 57.1324C144.352 56.9906 144.328 56.8409 144.226 56.7385C141.87 54.0126 111.279 19.9632 70.8169 40.0131Z" fill="white"/>
</g>
</g>
</g>
<mask id="mask5_179_905" style="mask-type:luminance" maskUnits="userSpaceOnUse" x="25" y="176" width="90" height="36">
<path d="M25.0293 176.573H114.194V211.213H25.0293V176.573Z" fill="white"/>
</mask>
<g mask="url(#mask5_179_905)">
<path d="M113.777 179.764C112.383 178.472 108.948 177.235 100.912 181.702C97.4378 183.868 95.547 185.263 94.6016 186.035C93.9872 186.523 93.2387 186.815 92.4588 186.87C88.2676 187.161 75.0481 188.438 70.5181 188.351C69.8564 188.335 69.6358 187.445 70.077 187.098C70.4078 186.838 70.9199 186.704 71.6526 186.476C74.2209 185.68 88.504 185.743 88.1888 180.402C87.8895 175.281 77.6479 177.164 74.6069 177.818C73.433 178.07 72.1174 178.267 70.9042 178.409C70.9042 178.409 66.5003 178.606 64.3338 178.086C59.8117 176.904 50.3028 174.99 44.2996 179.85C39.4625 183.774 37.3117 186.358 36.3742 187.768C35.744 188.713 34.8774 189.485 33.869 190.013L25.4078 195.969C24.9588 196.284 24.9036 196.922 25.2897 197.308L34.7198 206.746L39.1788 211.197C39.557 211.576 40.1872 211.528 40.5024 211.095C42.4089 208.519 49.2471 200.948 63.4908 201.413C80.6494 201.964 80.7597 201.633 84.5255 199.64C87.4798 198.072 94.5071 195.559 97.3984 194.551C98.2492 194.252 99.037 193.803 99.7382 193.235L113.683 181.78C114.329 181.284 114.368 180.323 113.777 179.764Z" fill="white"/>
</g>
<mask id="mask6_179_905" style="mask-type:luminance" maskUnits="userSpaceOnUse" x="86" y="173" width="15" height="7">
<path d="M86.7227 173.713H100.84V179.496H86.7227V173.713Z" fill="white"/>
</mask>
<g mask="url(#mask6_179_905)">
<path d="M87.3691 176.384C87.8103 176.628 88.1963 176.92 88.5194 177.243C88.7163 177.447 88.8975 177.66 89.0551 177.889C90.0792 177.4 91.2216 176.888 92.4584 176.352L92.4742 176.345C95.5703 175.186 98.241 174.572 100.431 174.501C99.7142 174.123 98.824 173.902 97.7683 173.839C95.5309 173.705 92.6239 174.304 89.1181 175.612C88.5115 175.872 87.9285 176.132 87.3691 176.384Z" fill="white"/>
</g>
<path d="M85.541 185.286C86.3603 185.223 87.1403 185.16 87.8729 185.105H87.8808C89.8425 184.955 91.5363 184.821 92.6156 184.751C92.7968 184.743 92.9859 184.703 93.1592 184.64C93.3877 184.561 93.6004 184.451 93.7894 184.302C94.7663 183.514 96.6492 182.127 100.06 180.016L100.092 179.992L100.123 179.976C101.1 179.441 102.054 178.96 102.952 178.558C103.842 178.18 104.693 177.865 105.488 177.637C105.599 177.605 105.709 177.574 105.819 177.542C105.693 177.432 105.559 177.329 105.41 177.235C104.598 176.699 103.511 176.408 102.18 176.36C100.053 176.289 97.3346 176.857 94.1124 178.046C92.6392 178.677 91.3157 179.275 90.1655 179.827C90.1734 179.882 90.1734 179.929 90.1812 179.976C90.3309 182.34 88.7711 184.12 85.541 185.286Z" fill="white"/>
<mask id="mask7_179_905" style="mask-type:luminance" maskUnits="userSpaceOnUse" x="47" y="137" width="67" height="35">
<path d="M47.4033 137.143H113.406V171.074H47.4033V137.143Z" fill="white"/>
</mask>
<g mask="url(#mask7_179_905)">
<path d="M113.154 164.173V138.364C112.808 138.711 112.422 139.034 112.035 139.333C111.681 139.609 111.311 139.861 110.925 140.097C109.648 140.869 108.238 141.397 106.757 141.633C104.764 141.933 102.708 141.815 100.691 141.815H86.4394C86.3842 141.815 86.337 141.815 86.2818 141.807V142.728C86.2818 142.847 86.2897 142.949 86.2818 143.059C86.2503 143.658 85.8091 144.107 85.2025 144.139C84.139 144.186 83.0597 144.139 81.9882 144.139H76.8044C76.3475 144.139 75.8905 144.147 75.4415 144.139C74.764 144.123 74.2913 143.666 74.2834 142.988C74.2755 142.595 74.2755 142.201 74.2755 141.815C74.2361 141.822 74.181 141.822 74.1416 141.822C74.1101 141.822 74.0707 141.822 74.0392 141.822C72.0224 141.854 69.9898 141.822 67.9651 141.822H58.9289C56.6994 141.822 54.4147 141.964 52.2561 141.271C51.358 140.987 50.4835 140.593 49.6563 140.105C49.2703 139.877 48.9 139.632 48.5376 139.364C48.1437 139.065 47.7734 138.742 47.4268 138.403V166.528C47.4268 166.741 47.4189 166.946 47.4347 167.159C47.5765 169.12 49.1757 170.633 51.1531 170.664C51.6337 170.672 52.1064 170.664 52.5948 170.664H107.411C108.049 170.664 108.695 170.664 109.341 170.664C111.508 170.657 113.146 168.947 113.154 166.796C113.154 165.906 113.154 165.039 113.154 164.173Z" fill="white"/>
</g>
<mask id="mask8_179_905" style="mask-type:luminance" maskUnits="userSpaceOnUse" x="47" y="111" width="67" height="29">
<path d="M47.4033 111.074H113.406V139.16H47.4033V111.074Z" fill="white"/>
</mask>
<g mask="url(#mask8_179_905)">
<path d="M113.138 126.862V124.301C112.996 122.356 111.405 120.819 109.428 120.796C109.294 120.796 109.168 120.796 109.034 120.796H93.0884V115.234C93.0884 114.107 92.7654 113.036 91.9461 112.216C91.1819 111.444 90.1498 111.09 89.0705 111.082C88.0936 111.082 87.1325 111.082 86.1556 111.082H71.9119C71.7307 111.082 71.5416 111.074 71.3604 111.082C69.2255 111.121 67.5474 112.815 67.5002 114.95C67.4529 116.888 67.4765 118.842 67.4923 120.796H51.9487C51.7123 120.796 51.4918 120.796 51.2633 120.796C50.2628 120.796 49.3331 121.134 48.6005 121.82C47.8836 122.49 47.5054 123.403 47.4424 124.365V127.973C47.4424 128.493 47.4424 129.005 47.4424 129.525C47.4424 129.745 47.4424 129.966 47.4581 130.186C47.466 130.344 47.4818 130.494 47.4975 130.643C47.4975 130.667 47.5054 130.691 47.5054 130.714C47.5448 130.927 47.5684 131.148 47.6157 131.352C47.726 131.872 47.8914 132.384 48.0805 132.889C48.0805 132.889 48.0805 132.889 48.0884 132.897C48.0884 132.904 48.0884 132.904 48.0963 132.912C48.1041 132.928 48.1041 132.936 48.1041 132.952C48.1514 133.054 48.2066 133.157 48.2538 133.267C48.3562 133.456 48.4508 133.645 48.5532 133.826C48.569 133.858 48.5847 133.889 48.6083 133.913C48.7502 134.149 48.8998 134.386 49.0574 134.614C49.1283 134.709 49.1992 134.787 49.2622 134.882C49.2544 134.874 49.2465 134.858 49.2386 134.842C49.2544 134.866 49.2622 134.882 49.278 134.89C49.404 135.047 49.538 135.205 49.6798 135.355C49.8925 135.583 50.121 135.811 50.3652 136.024C50.4597 136.111 50.5543 136.197 50.6567 136.276C50.6724 136.292 50.6961 136.308 50.7197 136.324C50.8457 136.402 50.893 136.434 50.9009 136.442C50.893 136.442 50.8615 136.41 50.8064 136.379C50.9639 136.481 51.1136 136.607 51.2712 136.71C51.6887 136.977 52.1141 137.214 52.5632 137.419C52.9965 137.553 52.7601 137.505 52.6183 137.45C52.6341 137.458 52.642 137.458 52.6577 137.466C52.7838 137.513 52.9019 137.56 53.028 137.6C53.2722 137.679 53.5086 137.757 53.7449 137.82C54.0049 137.891 54.2649 137.946 54.5327 138.002C54.6194 138.017 54.7139 138.033 54.8006 138.049C54.8557 138.057 54.903 138.057 54.9503 138.065C55.612 138.12 56.2817 138.104 56.9434 138.104H74.1572C74.2123 138.104 74.2675 138.104 74.3148 138.112V136.324C74.3148 135.804 74.2439 135.244 74.6693 134.858C75.0317 134.519 75.5044 134.575 75.9613 134.575H84.9581C85.0448 134.575 85.1472 134.575 85.2339 134.575C85.8169 134.606 86.2265 135.008 86.2974 135.559C86.3053 135.591 86.3053 135.622 86.3053 135.654C86.3053 135.67 86.3053 135.678 86.3053 135.693V138.12C86.3604 138.112 86.4077 138.112 86.4629 138.112H86.5574C88.5269 138.072 90.4965 138.112 92.466 138.112H104.717C105.04 138.112 105.355 138.096 105.67 138.072C105.733 138.065 105.796 138.057 105.859 138.049C105.93 138.033 106.016 138.025 106.087 138.009C106.347 137.954 106.615 137.907 106.875 137.828C107.135 137.765 107.387 137.679 107.639 137.592C107.758 137.545 107.876 137.505 107.994 137.458C108.451 137.245 108.892 137.009 109.317 136.741C109.459 136.647 109.593 136.56 109.727 136.465C109.759 136.434 109.885 136.339 109.932 136.308L109.94 136.3C109.948 136.292 109.963 136.284 109.963 136.276C110.066 136.197 110.16 136.103 110.263 136.024C110.499 135.811 110.72 135.591 110.948 135.355C111.082 135.205 111.216 135.055 111.35 134.89C111.35 134.882 111.366 134.874 111.374 134.858C111.437 134.756 111.515 134.661 111.586 134.575C111.728 134.37 111.862 134.165 111.98 133.952C112.004 133.913 112.027 133.866 112.051 133.826C112.161 133.629 112.28 133.424 112.374 133.22C112.413 133.125 112.469 133.023 112.516 132.92C112.697 132.432 112.863 131.935 112.973 131.415C113.012 131.25 113.044 131.077 113.075 130.911V130.903V130.896C113.075 130.896 113.075 130.888 113.075 130.88C113.075 130.872 113.075 130.864 113.075 130.856C113.083 130.777 113.099 130.683 113.107 130.628C113.123 130.494 113.13 130.352 113.138 130.218C113.146 129.997 113.154 129.785 113.162 129.564V128.099C113.146 127.658 113.138 127.264 113.138 126.862ZM89.3935 114.974C89.3935 114.982 89.3935 114.99 89.4014 114.99V114.997C89.4093 115.037 89.4172 115.06 89.4014 115.021C89.3935 115.029 89.3778 115.013 89.3699 114.997C89.4093 116.935 89.3935 118.866 89.3778 120.796H71.2108V115.391C71.2108 115.265 71.2108 115.131 71.2108 115.005C71.1871 115.037 71.1714 115.045 71.1635 115.037C71.1477 115.06 71.1477 115.013 71.1556 114.958C71.1162 115.005 71.0926 115.013 71.1556 114.95C71.1556 114.919 71.1635 114.895 71.1714 114.863C71.1714 114.863 71.1714 114.863 71.1635 114.863C71.1635 114.863 71.1635 114.863 71.1714 114.863C71.1793 114.848 71.1793 114.824 71.1871 114.816C71.132 114.816 71.1477 114.8 71.195 114.793C71.2029 114.753 71.2186 114.737 71.2186 114.785C71.2265 114.785 71.2423 114.777 71.2659 114.777C71.2659 114.769 71.2659 114.769 71.2659 114.761V114.769C71.2974 114.761 71.3211 114.761 71.3526 114.753C71.3762 114.722 71.392 114.714 71.3998 114.706C71.392 114.714 71.3762 114.73 71.3526 114.753C71.4156 114.745 71.4629 114.745 71.4392 114.761C71.4471 114.769 71.4392 114.785 71.4077 114.808C71.4707 114.808 71.5259 114.808 71.5889 114.808H88.5506C88.7712 114.808 88.9917 114.8 89.2123 114.808C89.1966 114.8 89.1887 114.8 89.1808 114.793C89.1336 114.761 89.1493 114.753 89.1808 114.745C89.1572 114.73 89.1651 114.73 89.1887 114.745C89.1966 114.745 89.2123 114.745 89.2202 114.745C89.1887 114.722 89.1729 114.706 89.1651 114.698C89.1651 114.698 89.1887 114.714 89.2281 114.745C89.2596 114.745 89.2911 114.753 89.3148 114.753C89.3305 114.753 89.3384 114.761 89.3541 114.761C89.3541 114.745 89.3541 114.737 89.362 114.737C89.362 114.737 89.3699 114.745 89.3699 114.761C89.4329 114.777 89.4644 114.793 89.3699 114.8C89.3699 114.816 89.3699 114.816 89.3699 114.832C89.3935 114.84 89.4093 114.848 89.4172 114.848C89.4093 114.848 89.3857 114.848 89.3699 114.84V114.848C89.3778 114.856 89.3935 114.863 89.4093 114.879C89.4014 114.879 89.3935 114.871 89.3778 114.863C89.3778 114.879 89.3857 114.887 89.3857 114.903C89.4093 114.934 89.4329 114.958 89.4566 114.974C89.4329 114.958 89.4172 114.942 89.3935 114.926C89.3935 114.95 89.3935 114.958 89.3935 114.974Z" fill="white"/>
</g>
</svg>
