<svg width="159" height="100" viewBox="0 0 159 100" fill="none" xmlns="http://www.w3.org/2000/svg">
<g clip-path="url(#clip0_503_1908)">
<path d="M65.1651 27.8494L58.333 47.8453H60.927L63.0409 41.4217H70.1181L72.2321 47.8453H75.0609L68.2288 27.8494H65.1651ZM63.7558 39.5119L65.6349 33.8032C66.1047 32.6084 66.3395 31.4237 66.5846 30.2289C66.8195 31.4237 67.2893 32.6084 67.5242 33.8032L69.4033 39.5119H63.7558Z" fill="black"/>
<path d="M83.078 27.6143C80.9538 27.6143 79.3096 27.8491 78.125 28.0942V47.8451H80.719V39.7568C81.4338 39.9917 82.1385 39.9917 82.8431 39.9917C85.4371 39.9917 87.5613 39.2768 88.9706 37.8471C89.9101 36.8973 90.625 35.4676 90.625 33.5681C90.625 31.6584 89.9101 30.2286 88.9706 29.2789C87.3264 28.3291 85.4371 27.6143 83.078 27.6143ZM82.8431 37.8471C81.9036 37.8471 81.1989 37.8471 80.719 37.6122V29.7589C81.1989 29.7589 82.1385 29.5138 83.078 29.5138C85.9069 29.5138 87.7962 30.7086 87.7962 33.5681C87.7962 36.4174 85.9069 37.8471 82.8431 37.8471Z" fill="black"/>
<path d="M93.6885 27.8494H96.2824V47.8453H93.6885V27.8494Z" fill="black"/>
<mask id="mask0_503_1908" style="mask-type:luminance" maskUnits="userSpaceOnUse" x="13" y="78" width="129" height="21">
<path d="M13.0723 78.4314H141.177V98.0801H13.0723V78.4314Z" fill="white"/>
</mask>
<g mask="url(#mask0_503_1908)">
<path d="M139.175 80.6985H15.6662C14.7266 80.6985 13.7871 81.4134 13.7871 82.6082C13.7871 91.1764 20.6192 98.08 29.1057 98.08H125.276C133.752 98.08 140.595 91.1764 140.595 82.6082C140.83 81.4134 140.125 80.6985 139.175 80.6985ZM125.511 94.5057H29.3406C23.4481 94.5057 18.495 89.9816 17.5555 84.2728H137.296C136.346 89.9816 131.404 94.5057 125.511 94.5057Z" fill="black"/>
</g>
<mask id="mask1_503_1908" style="mask-type:luminance" maskUnits="userSpaceOnUse" x="1" y="0" width="155" height="79">
<path d="M1.20508 0H155.055V78.4314H1.20508V0Z" fill="white"/>
</mask>
<g mask="url(#mask1_503_1908)">
<path d="M132.343 40.7067H139.41C140.125 44.0359 143.189 46.4154 146.722 46.4154C150.725 46.4154 154.259 43.0862 154.259 38.8072C154.259 34.7529 150.96 31.1887 146.722 31.1887C143.189 31.1887 140.36 33.5682 139.41 36.8975H132.343V20.4759H139.41C140.125 23.8051 143.189 26.1846 146.722 26.1846C150.725 26.1846 154.259 22.8554 154.259 18.5662C154.259 14.5221 150.96 10.9477 146.722 10.9477C143.189 10.9477 140.36 13.3272 139.41 16.6667H132.343V1.89951C132.343 0.949754 131.638 0 130.454 0H24.1527C23.2131 0 22.2634 0.714871 22.2634 1.89951V16.6667H16.6057C15.901 13.8072 12.8373 11.1928 9.5387 11.1928C5.53543 11.1928 2.00193 14.5221 2.00193 18.8011C2.00193 22.8554 5.30055 26.4195 9.5387 26.4195C13.0722 26.4195 15.901 24.04 16.8508 20.7108H22.5085V37.1324H16.6057C15.901 33.8031 12.8373 31.4236 9.30381 31.4236C5.30055 31.4236 1.75684 34.7529 1.75684 39.0421C1.75684 43.0862 5.06566 46.6605 9.30381 46.6605C12.8373 46.6605 15.6662 44.281 16.6057 40.9416H22.2634V57.3734H16.6057C15.901 54.0339 12.8373 51.6544 9.30381 51.6544C5.30055 51.6544 1.75684 54.9939 1.75684 59.2729C1.75684 63.317 5.06566 66.8913 9.30381 66.8913C12.8373 66.8913 15.6662 64.5118 16.6057 61.1826H22.2634V75.9395C22.2634 76.8893 22.9782 77.8391 24.1527 77.8391H130.689C131.638 77.8391 132.578 77.1242 132.578 75.9395V61.1826H139.645C140.36 64.5118 143.424 66.8913 146.957 66.8913C150.96 66.8913 154.494 63.5621 154.494 59.2729C154.494 55.2288 151.195 51.6544 146.957 51.6544C143.424 51.6544 140.595 54.0339 139.645 57.3734H132.578V40.7067H132.343ZM146.722 34.7529C148.846 34.7529 150.725 36.4175 150.725 38.8072C150.725 40.9416 149.081 42.8513 146.722 42.8513C144.598 42.8513 142.709 41.1867 142.709 38.8072C142.954 36.6626 144.598 34.7529 146.722 34.7529ZM146.722 14.7569C148.846 14.7569 150.725 16.4216 150.725 18.8011C150.725 20.9457 149.081 22.8554 146.722 22.8554C144.598 22.8554 142.709 21.1908 142.709 18.8011C142.954 16.6667 144.598 14.7569 146.722 14.7569ZM9.5387 22.8554C7.41452 22.8554 5.53543 21.1908 5.53543 18.8011C5.53543 16.6667 7.17963 14.7569 9.5387 14.7569C11.8978 14.7569 13.542 16.4216 13.542 18.8011C13.3071 20.9457 11.6629 22.8554 9.5387 22.8554ZM9.5387 42.8513C7.41452 42.8513 5.53543 41.1867 5.53543 38.8072C5.53543 36.6626 7.17963 34.7529 9.5387 34.7529C11.8978 34.7529 13.542 36.4175 13.542 38.8072C13.3071 40.9416 11.6629 42.8513 9.5387 42.8513ZM9.5387 62.8472C7.41452 62.8472 5.53543 61.1826 5.53543 58.8031C5.53543 56.6585 7.17963 54.7488 9.5387 54.7488C11.8978 54.7488 13.542 56.4134 13.542 58.8031C13.3071 60.9375 11.6629 62.8472 9.5387 62.8472ZM146.722 54.7488C148.846 54.7488 150.725 56.4134 150.725 58.8031C150.725 60.9375 149.081 62.8472 146.722 62.8472C144.598 62.8472 142.709 61.1826 142.709 58.8031C142.954 56.6585 144.598 54.7488 146.722 54.7488ZM128.81 57.1283H126.216L125.276 56.1785V40.4718H128.81V57.1283ZM102.176 51.8995H113.246L121.732 58.0882V66.4114H33.109V58.0882L41.5955 51.8995H52.676C53.6155 51.8995 54.555 51.1846 54.555 49.9898C54.555 48.8051 53.8504 48.0903 52.676 48.0903H40.8908C40.4211 48.0903 40.1862 48.0903 39.9411 48.3252L32.8741 53.319V40.2267H52.9108C53.8504 40.2267 54.8001 39.5118 54.8001 38.3272C54.8001 37.3775 54.0853 36.4175 52.9108 36.4175H32.8741V23.3252L39.9411 28.3293C40.1862 28.5641 40.6559 28.5641 40.8908 28.5641H52.676C53.6155 28.5641 54.555 27.8493 54.555 26.6646C54.555 25.7047 53.8504 24.7549 52.676 24.7549H41.5955L33.109 18.5662V11.1928H121.967V19.5159L113.491 25.7047H102.41C101.461 25.7047 100.521 26.4195 100.521 27.6144C100.521 28.5641 101.226 29.5139 102.41 29.5139H114.196C114.665 29.5139 114.9 29.5139 115.135 29.279L122.202 24.2851V37.3775H101.696C100.756 37.3775 99.8165 38.0923 99.8165 39.277C99.8165 40.2267 100.521 41.1867 101.696 41.1867H121.732V54.279L114.665 49.2749C114.43 49.04 113.961 49.04 113.726 49.04H101.941C100.991 49.04 100.051 49.7549 100.051 50.9395C100.051 52.1344 100.991 51.8995 102.176 51.8995ZM128.81 37.1324H125.276V21.4257L126.45 20.7108H129.044V37.1324H128.81ZM25.8071 4.04412H128.81V16.9016H125.746C125.511 16.9016 125.511 16.9016 125.276 16.9016V9.28309C125.276 8.33333 124.561 7.61846 123.387 7.61846H31.2197C30.2801 7.61846 29.3406 8.33333 29.3406 9.28309V16.9016C29.1057 16.9016 29.1057 16.9016 28.8708 16.9016H25.8071V4.04412ZM25.8071 20.4759H28.401L29.3406 21.1908V36.8975H25.8071V20.4759ZM25.8071 40.7067H29.3406V56.4134L28.401 57.1283H25.8071V40.7067ZM128.81 73.5601H25.8071V60.7026H28.8708C29.1057 60.7026 29.1057 60.7026 29.3406 60.7026V68.3211C29.3406 69.2708 30.0452 70.2206 31.2197 70.2206H123.622C124.561 70.2206 125.511 69.5159 125.511 68.3211V60.7026C125.746 60.7026 125.746 60.7026 125.981 60.7026H129.044V73.5601H128.81Z" fill="black"/>
</g>
</g>
<defs>
<clipPath id="clip0_503_1908">
<rect width="158.824" height="100" fill="white"/>
</clipPath>
</defs>
</svg>
