<svg width="30" height="30" viewBox="0 0 30 30" fill="none" xmlns="http://www.w3.org/2000/svg">
<g clip-path="url(#clip0_1146_2249)">
<path d="M30 15C30 15.2456 29.9939 15.4908 29.9819 15.736C29.97 15.9813 29.9519 16.2261 29.9277 16.4703C29.9038 16.7144 29.8738 16.9582 29.8376 17.2009C29.8018 17.4439 29.7598 17.6855 29.7117 17.9264C29.664 18.167 29.6101 18.4064 29.5504 18.6447C29.4907 18.8827 29.4253 19.1193 29.354 19.3544C29.2828 19.5891 29.2057 19.822 29.1233 20.0532C29.0404 20.2846 28.9522 20.5136 28.8581 20.7404C28.7641 20.9672 28.6646 21.1914 28.5597 21.4135C28.4549 21.6352 28.3445 21.8544 28.2288 22.071C28.1131 22.2873 27.9923 22.5011 27.866 22.7116C27.7398 22.9221 27.6085 23.1293 27.4721 23.3337C27.3358 23.5377 27.1944 23.7384 27.0482 23.9355C26.9018 24.1327 26.7509 24.3262 26.5951 24.5161C26.4395 24.7056 26.2793 24.8915 26.1144 25.0734C25.9494 25.2554 25.7802 25.4329 25.6066 25.6066C25.4329 25.7802 25.2554 25.9494 25.0734 26.1144C24.8915 26.2793 24.7056 26.4395 24.5161 26.5951C24.3262 26.7509 24.1327 26.9018 23.9355 27.0482C23.7384 27.1944 23.5377 27.3358 23.3337 27.4721C23.1293 27.6085 22.9221 27.7398 22.7116 27.866C22.5011 27.9923 22.2873 28.1131 22.071 28.2288C21.8544 28.3445 21.6352 28.4549 21.4135 28.5597C21.1914 28.6646 20.9672 28.7641 20.7404 28.8581C20.5136 28.9522 20.2846 29.0404 20.0532 29.1233C19.822 29.2057 19.5891 29.2828 19.3544 29.354C19.1193 29.4253 18.8827 29.4907 18.6447 29.5504C18.4064 29.6101 18.167 29.664 17.9264 29.7117C17.6855 29.7598 17.4439 29.8018 17.2009 29.8376C16.9582 29.8738 16.7144 29.9038 16.4703 29.9277C16.2261 29.9519 15.9813 29.97 15.736 29.9819C15.4908 29.9939 15.2456 30 15 30C14.7544 30 14.5092 29.9939 14.264 29.9819C14.0187 29.97 13.7739 29.9519 13.5297 29.9277C13.2856 29.9038 13.0418 29.8738 12.7991 29.8376C12.5561 29.8018 12.3145 29.7598 12.0736 29.7117C11.833 29.664 11.5936 29.6101 11.3553 29.5504C11.1173 29.4907 10.8807 29.4253 10.6456 29.354C10.4109 29.2828 10.178 29.2057 9.94647 29.1233C9.71535 29.0404 9.4864 28.9522 9.25962 28.8581C9.03284 28.7641 8.80859 28.6646 8.58652 28.5597C8.3648 28.4549 8.14562 28.3445 7.92896 28.2288C7.71267 28.1131 7.49891 27.9923 7.28841 27.866C7.07791 27.7398 6.87066 27.6085 6.6663 27.4721C6.46231 27.3358 6.26157 27.1944 6.06445 27.0482C5.86733 26.9018 5.67383 26.7509 5.48394 26.5951C5.29442 26.4395 5.10851 26.2793 4.92658 26.1144C4.74465 25.9494 4.56706 25.7802 4.39345 25.6066C4.21983 25.4329 4.05056 25.2554 3.88563 25.0734C3.7207 24.8915 3.56047 24.7056 3.40495 24.5161C3.24906 24.3262 3.09823 24.1327 2.95175 23.9355C2.80563 23.7384 2.66421 23.5377 2.52785 23.3337C2.39149 23.1293 2.2602 22.9221 2.13397 22.7116C2.00774 22.5011 1.88694 22.2873 1.77119 22.071C1.65545 21.8544 1.54514 21.6352 1.44025 21.4135C1.33536 21.1914 1.23589 20.9672 1.14185 20.7404C1.04782 20.5136 0.959563 20.2846 0.876736 20.0532C0.794271 19.822 0.717231 19.5891 0.645978 19.3544C0.574725 19.1193 0.509259 18.8827 0.44958 18.6447C0.389902 18.4064 0.33601 18.167 0.288267 17.9264C0.240162 17.6855 0.198206 17.4439 0.162399 17.2009C0.12623 16.9582 0.0962094 16.7144 0.072338 16.4703C0.0481047 16.2261 0.0300203 15.9813 0.0180844 15.736C0.00614872 15.4908 0 15.2456 0 15C0 14.7544 0.00614872 14.5092 0.0180844 14.264C0.0300203 14.0187 0.0481047 13.7739 0.072338 13.5297C0.0962094 13.2856 0.12623 13.0418 0.162399 12.7991C0.198206 12.5561 0.240162 12.3145 0.288267 12.0736C0.33601 11.833 0.389902 11.5936 0.44958 11.3553C0.509259 11.1173 0.574725 10.8807 0.645978 10.6456C0.717231 10.4109 0.794271 10.178 0.876736 9.94647C0.959563 9.71535 1.04782 9.4864 1.14185 9.25962C1.23589 9.03284 1.33536 8.80859 1.44025 8.58652C1.54514 8.3648 1.65545 8.14562 1.77119 7.92896C1.88694 7.71267 2.00774 7.49891 2.13397 7.28841C2.2602 7.07791 2.39149 6.87066 2.52785 6.6663C2.66421 6.46231 2.80563 6.26157 2.95175 6.06445C3.09823 5.86733 3.24906 5.67383 3.40495 5.48394C3.56047 5.29442 3.7207 5.10851 3.88563 4.92658C4.05056 4.74465 4.21983 4.56706 4.39345 4.39345C4.56706 4.21983 4.74465 4.05056 4.92658 3.88563C5.10851 3.7207 5.29442 3.56047 5.48394 3.40495C5.67383 3.24906 5.86733 3.09823 6.06445 2.95175C6.26157 2.80563 6.46231 2.66421 6.6663 2.52785C6.87066 2.39149 7.07791 2.2602 7.28841 2.13397C7.49891 2.00774 7.71267 1.88694 7.92896 1.77119C8.14562 1.65545 8.3648 1.54514 8.58652 1.44025C8.80859 1.33536 9.03284 1.23589 9.25962 1.14185C9.4864 1.04782 9.71535 0.959563 9.94647 0.876736C10.178 0.794271 10.4109 0.717231 10.6456 0.645978C10.8807 0.574725 11.1173 0.509259 11.3553 0.44958C11.5936 0.389902 11.833 0.33601 12.0736 0.288267C12.3145 0.240162 12.5561 0.198206 12.7991 0.162399C13.0418 0.12623 13.2856 0.0962094 13.5297 0.072338C13.7739 0.0481047 14.0187 0.0300203 14.264 0.0180844C14.5092 0.00614872 14.7544 0 15 0C15.2456 0 15.4908 0.00614872 15.736 0.0180844C15.9813 0.0300203 16.2261 0.0481047 16.4703 0.072338C16.7144 0.0962094 16.9582 0.12623 17.2009 0.162399C17.4439 0.198206 17.6855 0.240162 17.9264 0.288267C18.167 0.33601 18.4064 0.389902 18.6447 0.44958C18.8827 0.509259 19.1193 0.574725 19.3544 0.645978C19.5891 0.717231 19.822 0.794271 20.0532 0.876736C20.2846 0.959563 20.5136 1.04782 20.7404 1.14185C20.9672 1.23589 21.1914 1.33536 21.4135 1.44025C21.6352 1.54514 21.8544 1.65545 22.071 1.77119C22.2873 1.88694 22.5011 2.00774 22.7116 2.13397C22.9221 2.2602 23.1293 2.39149 23.3337 2.52785C23.5377 2.66421 23.7384 2.80563 23.9355 2.95175C24.1327 3.09823 24.3262 3.24906 24.5161 3.40495C24.7056 3.56047 24.8915 3.7207 25.0734 3.88563C25.2554 4.05056 25.4329 4.21983 25.6066 4.39345C25.7802 4.56706 25.9494 4.74465 26.1144 4.92658C26.2793 5.10851 26.4395 5.29442 26.5951 5.48394C26.7509 5.67383 26.9018 5.86733 27.0482 6.06445C27.1944 6.26157 27.3358 6.46231 27.4721 6.6663C27.6085 6.87066 27.7398 7.07791 27.866 7.28841C27.9923 7.49891 28.1131 7.71267 28.2288 7.92896C28.3445 8.14562 28.4549 8.3648 28.5597 8.58652C28.6646 8.80859 28.7641 9.03284 28.8581 9.25962C28.9522 9.4864 29.0404 9.71535 29.1233 9.94647C29.2057 10.178 29.2828 10.4109 29.354 10.6456C29.4253 10.8807 29.4907 11.1173 29.5504 11.3553C29.6101 11.5936 29.664 11.833 29.7117 12.0736C29.7598 12.3145 29.8018 12.5561 29.8376 12.7991C29.8738 13.0418 29.9038 13.2856 29.9277 13.5297C29.9519 13.7739 29.97 14.0187 29.9819 14.264C29.9939 14.5092 30 14.7544 30 15Z" fill="white"/>
<path d="M18.1755 15.0199L24.1202 9.07516C24.997 8.19807 24.997 6.77662 24.1202 5.89989C23.2435 5.02279 21.822 5.02279 20.945 5.89989L15.0002 11.8446L9.05548 5.89989C8.17839 5.02279 6.75694 5.02279 5.88021 5.89989C5.00347 6.77662 5.00347 8.19807 5.88021 9.07516L11.8249 15.0199L5.88021 20.9646C5.00347 21.8414 5.00347 23.2628 5.88021 24.1399C6.31858 24.5783 6.8933 24.7975 7.46766 24.7975C8.04239 24.7975 8.61712 24.5783 9.05548 24.1399L15.0002 18.1952L20.945 24.1399C21.3833 24.5783 21.958 24.7975 22.5328 24.7975C23.1071 24.7975 23.6819 24.5783 24.1202 24.1399C24.997 23.2628 24.997 21.8414 24.1202 20.9646L18.1755 15.0199Z" fill="#FE6601"/>
</g>
<defs>
<clipPath id="clip0_1146_2249">
<rect width="30" height="30" fill="white"/>
</clipPath>
</defs>
</svg>
