<svg width="30" height="30" viewBox="0 0 30 30" fill="none" xmlns="http://www.w3.org/2000/svg">
<g clip-path="url(#clip0_1146_2986)">
<path d="M30 15C30 15.2456 29.9942 15.4912 29.9819 15.736C29.97 15.9813 29.9519 16.2261 29.928 16.4703C29.9038 16.7148 29.8738 16.9582 29.8376 17.2012C29.8018 17.4439 29.7598 17.6859 29.7117 17.9264C29.664 18.1673 29.6101 18.4068 29.5504 18.6447C29.4911 18.8831 29.4256 19.1196 29.3544 19.3544C29.2831 19.5895 29.2061 19.8224 29.1233 20.0535C29.0404 20.2846 28.9522 20.5136 28.8581 20.7404C28.7645 20.9672 28.665 21.1918 28.5601 21.4135C28.4549 21.6356 28.3445 21.8547 28.2288 22.071C28.1131 22.2877 27.9923 22.5011 27.866 22.7116C27.7398 22.9225 27.6085 23.1297 27.4721 23.3337C27.3358 23.5377 27.1944 23.7384 27.0482 23.9355C26.9021 24.133 26.7509 24.3262 26.5954 24.5161C26.4395 24.7059 26.2793 24.8919 26.1144 25.0734C25.9494 25.2554 25.7802 25.4333 25.6066 25.6069C25.4333 25.7805 25.2554 25.9494 25.0734 26.1144C24.8915 26.2793 24.7059 26.4395 24.5161 26.5954C24.3262 26.7509 24.1327 26.9021 23.9355 27.0482C23.7384 27.1944 23.5377 27.3358 23.3337 27.4721C23.1297 27.6085 22.9221 27.7398 22.7116 27.866C22.5011 27.9923 22.2877 28.1134 22.071 28.2292C21.8544 28.3449 21.6352 28.4552 21.4135 28.5601C21.1914 28.665 20.9672 28.7645 20.7404 28.8585C20.5136 28.9522 20.2846 29.0408 20.0535 29.1233C19.8224 29.2061 19.5891 29.2831 19.3544 29.3544C19.1193 29.4256 18.8831 29.4911 18.6447 29.5508C18.4068 29.6105 18.1673 29.664 17.9264 29.7121C17.6855 29.7598 17.4439 29.8018 17.2009 29.838C16.9582 29.8738 16.7148 29.9038 16.4703 29.928C16.2261 29.9519 15.9813 29.97 15.736 29.9823C15.4908 29.9942 15.2456 30.0004 15 30.0004C14.7548 30.0004 14.5092 29.9942 14.264 29.9823C14.0187 29.97 13.7742 29.9519 13.5297 29.928C13.2856 29.9038 13.0418 29.8738 12.7991 29.838C12.5564 29.8018 12.3145 29.7598 12.0736 29.7121C11.833 29.664 11.5936 29.6105 11.3553 29.5508C11.1173 29.4911 10.8807 29.4256 10.646 29.3544C10.4109 29.2831 10.178 29.2061 9.94683 29.1233C9.71571 29.0408 9.48676 28.9522 9.25998 28.8585C9.03284 28.7645 8.80859 28.665 8.58688 28.5601C8.3648 28.4552 8.14562 28.3449 7.92896 28.2292C7.71267 28.1134 7.49891 27.9923 7.28841 27.866C7.07791 27.7398 6.87066 27.6085 6.66667 27.4721C6.46231 27.3358 6.26157 27.1944 6.06445 27.0482C5.86733 26.9021 5.67383 26.7509 5.4843 26.5954C5.29442 26.4395 5.10851 26.2793 4.92658 26.1144C4.74465 25.9494 4.56706 25.7805 4.39345 25.6069C4.21983 25.4333 4.05056 25.2554 3.88563 25.0734C3.72106 24.8919 3.56047 24.7059 3.40495 24.5161C3.24906 24.3262 3.09823 24.133 2.95211 23.9355C2.80563 23.7384 2.66457 23.5377 2.52785 23.3337C2.39149 23.1297 2.2602 22.9225 2.13397 22.7116C2.00774 22.5011 1.88694 22.2877 1.77119 22.071C1.65545 21.8547 1.54514 21.6356 1.44025 21.4135C1.33536 21.1918 1.23589 20.9672 1.14185 20.7404C1.04782 20.5136 0.959563 20.2846 0.876736 20.0535C0.794271 19.8224 0.717231 19.5895 0.645978 19.3544C0.574725 19.1196 0.509259 18.8831 0.44958 18.6447C0.389902 18.4068 0.33601 18.1673 0.288267 17.9264C0.240524 17.6859 0.198568 17.4439 0.162399 17.2012C0.12623 16.9582 0.0962094 16.7148 0.072338 16.4703C0.0481047 16.2261 0.0300203 15.9813 0.0180844 15.736C0.00614872 15.4912 0 15.2456 0 15C0 14.7548 0.00614872 14.5092 0.0180844 14.2643C0.0300203 14.0191 0.0481047 13.7742 0.072338 13.5297C0.0962094 13.2856 0.12623 13.0422 0.162399 12.7991C0.198568 12.5564 0.240524 12.3145 0.288267 12.0739C0.33601 11.833 0.389902 11.5936 0.44958 11.3556C0.509259 11.1173 0.574725 10.8807 0.645978 10.646C0.717231 10.4109 0.794271 10.178 0.876736 9.94683C0.959563 9.71571 1.04782 9.48676 1.14185 9.25998C1.23589 9.0332 1.33536 8.80859 1.44025 8.58688C1.54514 8.3648 1.65545 8.14562 1.77119 7.92933C1.88694 7.71267 2.00774 7.49928 2.13397 7.28877C2.2602 7.07791 2.39149 6.87066 2.52785 6.66667C2.66457 6.46231 2.80563 6.26194 2.95211 6.06481C3.09823 5.86733 3.24906 5.67383 3.40495 5.4843C3.56047 5.29442 3.72106 5.10851 3.88563 4.92658C4.05056 4.74501 4.21983 4.56706 4.39345 4.39345C4.56706 4.21983 4.74465 4.05056 4.92658 3.886C5.10851 3.72106 5.29442 3.56084 5.4843 3.40495C5.67383 3.24942 5.86733 3.09823 6.06445 2.95211C6.26157 2.80563 6.46231 2.66457 6.66667 2.52821C6.87066 2.39185 7.07791 2.26056 7.28841 2.13433C7.49891 2.0081 7.71267 1.88694 7.92896 1.77119C8.14562 1.65545 8.3648 1.54514 8.58688 1.44025C8.80859 1.33536 9.03284 1.23589 9.25998 1.14185C9.48676 1.04782 9.71571 0.959563 9.94683 0.877098C10.178 0.794271 10.4109 0.717231 10.646 0.645978C10.8807 0.574725 11.1173 0.509259 11.3553 0.44958C11.5936 0.389902 11.833 0.336371 12.0736 0.288267C12.3145 0.240524 12.5564 0.198568 12.7991 0.162399C13.0418 0.126591 13.2856 0.0965712 13.5297 0.072338C13.7742 0.0484665 14.0187 0.0303819 14.264 0.0180844C14.5092 0.00614872 14.7548 0 15 0C15.2456 0 15.4908 0.00614872 15.736 0.0180844C15.9813 0.0303819 16.2261 0.0484665 16.4703 0.072338C16.7148 0.0965712 16.9582 0.126591 17.2009 0.162399C17.4439 0.198568 17.6855 0.240524 17.9264 0.288267C18.1673 0.336371 18.4068 0.389902 18.6447 0.44958C18.8831 0.509259 19.1193 0.574725 19.3544 0.645978C19.5891 0.717231 19.8224 0.794271 20.0535 0.877098C20.2846 0.959563 20.5136 1.04782 20.7404 1.14185C20.9672 1.23589 21.1914 1.33536 21.4135 1.44025C21.6352 1.54514 21.8544 1.65545 22.071 1.77119C22.2877 1.88694 22.5011 2.0081 22.7116 2.13433C22.9221 2.26056 23.1297 2.39185 23.3337 2.52821C23.5377 2.66457 23.7384 2.80563 23.9355 2.95211C24.1327 3.09823 24.3262 3.24942 24.5161 3.40495C24.7059 3.56084 24.8915 3.72106 25.0734 3.886C25.2554 4.05056 25.4333 4.21983 25.6066 4.39345C25.7802 4.56706 25.9494 4.74501 26.1144 4.92658C26.2793 5.10851 26.4395 5.29442 26.5954 5.4843C26.7509 5.67383 26.9021 5.86733 27.0482 6.06481C27.1944 6.26194 27.3358 6.46231 27.4721 6.66667C27.6085 6.87066 27.7398 7.07791 27.866 7.28877C27.9923 7.49928 28.1131 7.71267 28.2288 7.92933C28.3445 8.14562 28.4549 8.3648 28.5601 8.58688C28.665 8.80859 28.7645 9.0332 28.8581 9.25998C28.9522 9.48676 29.0404 9.71571 29.1233 9.94683C29.2061 10.178 29.2831 10.4109 29.3544 10.646C29.4256 10.8807 29.4911 11.1173 29.5504 11.3556C29.6101 11.5936 29.664 11.833 29.7117 12.0739C29.7598 12.3145 29.8018 12.5564 29.8376 12.7991C29.8738 13.0422 29.9038 13.2856 29.928 13.5297C29.9519 13.7742 29.97 14.0191 29.9819 14.2643C29.9942 14.5092 30 14.7548 30 15Z" fill="white"/>
<path fill-rule="evenodd" clip-rule="evenodd" d="M13.3643 17.8226C12.6481 14.5432 11.9678 10.829 11.9678 8.55215C11.9678 6.33246 13.3266 4.53052 15.0002 4.53052C16.6741 4.53052 18.033 6.33246 18.033 8.55215C18.033 10.829 17.3526 14.5432 16.6365 17.8226C16.4694 18.5927 15.7879 19.1417 15.0002 19.1417C14.2124 19.1417 13.5314 18.5927 13.3643 17.8226ZM15.0002 20.3324C16.2079 20.3324 17.188 21.3126 17.188 22.5202C17.188 23.7276 16.2079 24.7081 15.0002 24.7081C13.7929 24.7081 12.8123 23.7276 12.8123 22.5202C12.8123 21.3126 13.7929 20.3324 15.0002 20.3324Z" fill="#FE6601"/>
</g>
<defs>
<clipPath id="clip0_1146_2986">
<rect width="30" height="30" fill="white"/>
</clipPath>
</defs>
</svg>
