<svg width="143" height="100" viewBox="0 0 143 100" fill="none" xmlns="http://www.w3.org/2000/svg">
<g clip-path="url(#clip0_503_1994)">
<mask id="mask0_503_1994" style="mask-type:luminance" maskUnits="userSpaceOnUse" x="0" y="0" width="140" height="99">
<path d="M0.569336 0H139.593V98.7654H0.569336V0Z" fill="white"/>
</mask>
<g mask="url(#mask0_503_1994)">
<mask id="mask1_503_1994" style="mask-type:luminance" maskUnits="userSpaceOnUse" x="0" y="0" width="140" height="98">
<path d="M122.503 9.04707V5.02508C122.503 2.25694 120.246 0 117.468 0H107.37C104.601 0 102.344 2.25694 102.344 5.02508V8.12114C101.949 8.39121 101.611 8.64198 101.361 8.84452C98.4768 7.55208 86.8352 2.86458 70.3325 2.86458C53.8395 2.86458 42.1979 7.55208 39.314 8.84452C39.0632 8.64198 38.7257 8.39121 38.3302 8.12114V5.02508C38.3302 2.25694 36.0733 0 33.3051 0H23.2068C20.429 0 18.172 2.25694 18.172 5.02508V9.04707C12.3078 14.0818 8.75845 24.3152 5.18977 39.0625C2.08406 51.8808 1.1292 72.5405 0.839851 83.7191C0.68553 89.4387 4.19633 94.5602 9.56863 96.4699C15.2399 98.4857 21.5478 96.4024 24.9043 91.4063L36.0057 74.8553C38.3206 71.4024 42.1979 69.3384 46.3549 69.3384H94.3102C98.4768 69.3384 102.354 71.4024 104.669 74.8553L115.77 91.4063C118.268 95.1292 122.397 97.2319 126.689 97.2319C128.164 97.2319 129.65 96.9811 131.106 96.4699C136.478 94.5602 139.989 89.429 139.844 83.7191C139.545 72.5405 138.591 51.8808 135.485 39.0625C131.916 24.3152 128.367 14.0818 122.503 9.04707ZM104.553 5.02508C104.553 3.47222 105.817 2.20872 107.37 2.20872H117.468C119.03 2.20872 120.294 3.47222 120.294 5.02508V7.47492C119.079 6.76119 117.777 6.21142 116.359 5.88349C111.189 4.67785 107.206 5.65201 104.553 6.87693V5.02508ZM20.3807 5.02508C20.3807 3.47222 21.6443 2.20872 23.1971 2.20872H33.2955C34.858 2.20872 36.1215 3.47222 36.1215 5.02508V6.87693C33.4691 5.65201 29.4857 4.67785 24.3159 5.88349C22.8981 6.21142 21.596 6.76119 20.3807 7.47492V5.02508ZM130.363 94.3866C125.637 96.0648 120.39 94.3384 117.603 90.1813L106.502 73.6304C103.772 69.5602 99.2195 67.1296 94.3102 67.1296H46.3549C41.4552 67.1296 36.9027 69.5602 34.1732 73.6304L23.0717 90.1813C20.2747 94.3384 15.0277 96.0745 10.3113 94.3866C5.83599 92.7951 2.91354 88.532 3.03893 83.777C3.33792 72.6852 4.28314 52.2087 7.33098 39.5833C11.6809 21.6049 16.1273 10.0598 24.8175 8.03434C30.6527 6.67438 34.7326 8.42978 36.7966 9.74151C37.7515 10.3492 38.2723 10.8603 38.3302 10.9182C38.6678 11.2558 39.179 11.3426 39.6034 11.14C39.7287 11.0725 52.1612 5.06366 70.3325 5.06366C88.5135 5.06366 100.946 11.0725 101.071 11.14C101.496 11.3426 102.007 11.2558 102.344 10.9182C102.393 10.87 107.273 6.02816 115.857 8.03434C124.547 10.0502 128.994 21.6049 133.344 39.5833C136.392 52.1991 137.337 72.6852 137.636 83.777C137.761 88.532 134.839 92.7951 130.363 94.3866ZM81.8391 26.8615H58.8356C58.228 26.8615 57.7264 27.3534 57.7264 27.961V34.9248C57.7264 35.5324 58.228 36.0243 58.8356 36.0243H81.8391C82.4467 36.0243 82.9386 35.5324 82.9386 34.9248V27.961C82.9386 27.3534 82.4467 26.8615 81.8391 26.8615ZM80.7395 33.8252H59.9351V29.0606H80.7395V33.8252ZM81.8391 40.0559H58.8356C58.228 40.0559 57.7264 40.5478 57.7264 41.1555V48.1192C57.7264 48.7269 58.228 49.2284 58.8356 49.2284H81.8391C82.4467 49.2284 82.9386 48.7269 82.9386 48.1192V41.1555C82.9386 40.5478 82.4467 40.0559 81.8391 40.0559ZM80.7395 47.0197H59.9351V42.2647H80.7395V47.0197ZM110.186 35.0694C114.179 35.0694 117.429 31.8191 117.429 27.8164C117.429 23.8233 114.179 20.5729 110.186 20.5729C106.183 20.5729 102.933 23.8233 102.933 27.8164C102.933 31.8191 106.183 35.0694 110.186 35.0694ZM110.186 22.7816C112.964 22.7816 115.221 25.0386 115.221 27.8164C115.221 30.6038 112.964 32.8607 110.186 32.8607C107.398 32.8607 105.142 30.6038 105.142 27.8164C105.142 25.0386 107.398 22.7816 110.186 22.7816ZM104.871 40.8275C104.871 36.8345 101.621 33.5841 97.6184 33.5841C93.6254 33.5841 90.375 36.8345 90.375 40.8275C90.375 44.8206 93.6254 48.071 97.6184 48.071C101.621 48.071 104.871 44.8206 104.871 40.8275ZM97.6184 45.8719C94.8406 45.8719 92.5837 43.6053 92.5837 40.8275C92.5837 38.0498 94.8406 35.7928 97.6184 35.7928C100.406 35.7928 102.663 38.0498 102.663 40.8275C102.663 43.6053 100.406 45.8719 97.6184 45.8719ZM109.8 46.9715C105.807 46.9715 102.557 50.2218 102.557 54.2149C102.557 58.208 105.807 61.4583 109.8 61.4583C113.803 61.4583 117.053 58.208 117.053 54.2149C117.053 50.2218 113.803 46.9715 109.8 46.9715ZM109.8 59.2593C107.022 59.2593 104.765 56.9927 104.765 54.2149C104.765 51.4371 107.022 49.1705 109.8 49.1705C112.588 49.1705 114.844 51.4371 114.844 54.2149C114.844 56.9927 112.588 59.2593 109.8 59.2593ZM123.187 33.9603C119.194 33.9603 115.944 37.2107 115.944 41.2037C115.944 45.2064 119.194 48.4568 123.187 48.4568C127.19 48.4568 130.441 45.2064 130.441 41.2037C130.441 37.2107 127.19 33.9603 123.187 33.9603ZM123.187 46.2481C120.41 46.2481 118.153 43.9815 118.153 41.2037C118.153 38.4259 120.41 36.169 123.187 36.169C125.965 36.169 128.232 38.4259 128.232 41.2037C128.232 43.9815 125.965 46.2481 123.187 46.2481ZM29.8426 36.5548C30.0547 36.7573 30.3345 36.8634 30.6045 36.8634C30.8842 36.8634 31.1543 36.7573 31.3665 36.5548L35.6971 32.4171C35.9189 32.2145 36.0347 31.9252 36.0347 31.6262V21.5181C36.0347 20.9105 35.5428 20.4186 34.9352 20.4186H26.2835C25.6662 20.4186 25.1743 20.9105 25.1743 21.5181V31.6262C25.1743 31.9252 25.2997 32.2145 25.5216 32.4171L29.8426 36.5548ZM27.3831 22.6273H33.8356V31.1536L30.6045 34.2303L27.3831 31.1536V22.6273ZM27.8267 40.2585L23.689 35.9279C23.4865 35.7157 23.1971 35.5903 22.8981 35.5903H12.7997C12.1824 35.5903 11.6905 36.0822 11.6905 36.6898V45.3511C11.6905 45.9587 12.1824 46.4506 12.7997 46.4506H22.8981C23.1971 46.4506 23.4865 46.3349 23.689 46.113L27.8267 41.7824C28.2318 41.358 28.2318 40.6829 27.8267 40.2585ZM22.4255 44.2515H13.8993V37.799H22.4255L25.5023 41.0205L22.4255 44.2515ZM31.4147 45.4475C30.9807 45.0424 30.3152 45.0424 29.8908 45.4475L25.5601 49.5853C25.3383 49.7878 25.2226 50.0772 25.2226 50.3762V60.4745C25.2226 61.0918 25.7145 61.5837 26.3221 61.5837H34.9737C35.591 61.5837 36.0829 61.0918 36.0829 60.4745V50.3762C36.0829 50.0772 35.9575 49.7878 35.7357 49.5853L31.4147 45.4475ZM33.8742 59.375H27.4216V50.8488L30.6527 47.772L33.8742 50.8488V59.375ZM48.4575 35.5517H38.3591C38.0601 35.5517 37.7708 35.6674 37.5682 35.8893L33.4305 40.2199C33.0254 40.6443 33.0254 41.3194 33.4305 41.7438L37.5682 46.0745C37.7708 46.2867 38.0601 46.412 38.3591 46.412H48.4575C49.0748 46.412 49.5667 45.9201 49.5667 45.3029V36.6512C49.5667 36.0436 49.0748 35.5517 48.4575 35.5517ZM47.358 44.2033H38.8317L35.755 40.9819L38.8317 37.7508H47.358V44.2033Z" fill="white"/>
</mask>
<g mask="url(#mask1_503_1994)">
<path d="M0.685547 0V98.4857H139.594V0H0.685547Z" fill="black"/>
</g>
</g>
</g>
<defs>
<clipPath id="clip0_503_1994">
<rect width="142.593" height="100" fill="white"/>
</clipPath>
</defs>
</svg>
