<svg width="50" height="50" viewBox="0 0 50 50" fill="none" xmlns="http://www.w3.org/2000/svg">
<g clip-path="url(#clip0_1146_1779)">
<path d="M49.4271 41.9097C49.4271 46.059 46.062 49.4213 41.9155 49.4213H7.51161C3.3652 49.4213 0.00292969 46.059 0.00292969 41.9097V7.50868C0.00292969 3.35937 3.3652 -0.00289917 7.51161 -0.00289917H41.9155C46.062 -0.00289917 49.4271 3.35937 49.4271 7.50868V41.9097Z" fill="#FE6601"/>
<path d="M19.5454 17.6302C19.5454 17.8733 19.5222 18.1134 19.4731 18.3507C19.4268 18.588 19.3573 18.8194 19.2647 19.0422C19.1721 19.2679 19.0564 19.4792 18.9233 19.6817C18.7873 19.8814 18.6339 20.0694 18.4632 20.2402C18.2925 20.4109 18.1044 20.5642 17.9048 20.7002C17.7022 20.8333 17.4881 20.9491 17.2653 21.0417C17.0425 21.1343 16.811 21.2037 16.5737 21.25C16.3365 21.2992 16.0963 21.3223 15.8533 21.3223C15.6102 21.3223 15.37 21.2992 15.1328 21.25C14.8955 21.2037 14.664 21.1343 14.4383 21.0417C14.2155 20.9491 14.0043 20.8333 13.8018 20.7002C13.5992 20.5642 13.414 20.4109 13.2433 20.2402C13.0697 20.0694 12.9163 19.8814 12.7832 19.6817C12.6472 19.4792 12.5344 19.2679 12.4418 19.0422C12.3492 18.8194 12.2798 18.588 12.2306 18.3507C12.1843 18.1134 12.1611 17.8733 12.1611 17.6302C12.1611 17.3872 12.1843 17.147 12.2306 16.9097C12.2798 16.6725 12.3492 16.441 12.4418 16.2182C12.5344 15.9925 12.6472 15.7813 12.7832 15.5787C12.9163 15.3762 13.0697 15.191 13.2433 15.0203C13.414 14.8466 13.5992 14.6962 13.8018 14.5602C14.0043 14.4242 14.2155 14.3113 14.4383 14.2188C14.664 14.1262 14.8955 14.0567 15.1328 14.0075C15.37 13.9612 15.6102 13.9381 15.8533 13.9381C16.0963 13.9381 16.3365 13.9612 16.5737 14.0075C16.811 14.0567 17.0425 14.1262 17.2653 14.2188C17.4881 14.3113 17.7022 14.4242 17.9048 14.5602C18.1044 14.6962 18.2925 14.8466 18.4632 15.0203C18.6339 15.191 18.7873 15.3762 18.9233 15.5787C19.0564 15.7813 19.1721 15.9925 19.2647 16.2182C19.3573 16.441 19.4268 16.6725 19.4731 16.9097C19.5222 17.147 19.5454 17.3872 19.5454 17.6302Z" fill="white"/>
<path d="M12.6709 24.0451H19.0135V44.4502H12.6709V24.0451Z" fill="white"/>
<path d="M23.0039 24.0451H29.0398V44.4502H23.0039V24.0451Z" fill="white"/>
<path d="M23.2637 34.9074H29.2996V44.4502H23.2637V34.9074Z" fill="white"/>
<path d="M29.3001 34.9074C29.3001 34.9074 29.2075 32.2627 29.9049 30.8854C29.9049 30.8854 30.6022 29.1898 32.7955 29.1811C32.7955 29.1811 35.3707 28.7326 36.1086 31.2847C36.1086 31.2847 36.3864 32.6996 36.3864 33.2986C36.3864 33.8976 36.4066 44.4502 36.4066 44.4502H42.7289V32.7604C42.7289 32.7604 43.189 26.1574 39.2249 24.349C39.2249 24.349 32.7087 21.4236 29.1728 26.7969C29.1728 26.7969 28.4002 27.3293 28.2961 25.8391C28.189 24.349 27.2833 28.125 27.2573 28.206C27.2313 28.287 28.2961 35.7321 28.2961 35.7321L29.3001 34.9074Z" fill="white"/>
</g>
<defs>
<clipPath id="clip0_1146_1779">
<rect width="50" height="50" fill="white"/>
</clipPath>
</defs>
</svg>
