<svg width="51" height="100" viewBox="0 0 51 100" fill="none" xmlns="http://www.w3.org/2000/svg">
<g clip-path="url(#clip0_503_1828)">
<path d="M23.9503 85.2205C22.1086 85.2205 20.6064 86.7226 20.6064 88.5719C20.6064 90.4212 22.1086 91.9234 23.9503 91.9234C25.7997 91.9234 27.2942 90.4212 27.2942 88.5719C27.2942 86.7226 25.7997 85.2205 23.9503 85.2205Z" fill="black"/>
<mask id="mask0_503_1828" style="mask-type:luminance" maskUnits="userSpaceOnUse" x="0" y="1" width="48" height="96">
<path d="M0 1.15479H47.9091V96.9655H0V1.15479Z" fill="white"/>
</mask>
<g mask="url(#mask0_503_1828)">
<path d="M45.0785 79.3629C45.0785 79.8082 44.7086 80.1705 44.2633 80.1705H3.63828C3.19294 80.1705 2.83062 79.8082 2.83062 79.3629V18.7877C2.83062 18.3423 3.19294 17.9725 3.63828 17.9725H44.2633C44.7086 17.9725 45.0785 18.3423 45.0785 18.7877V79.3629ZM23.9508 93.7197C21.1202 93.7197 18.8104 91.41 18.8104 88.5718C18.8104 85.7261 21.1202 83.4163 23.9508 83.4163C26.789 83.4163 29.0987 85.7261 29.0987 88.5718C29.0987 91.41 26.789 93.7197 23.9508 93.7197ZM18.2971 7.9332C18.2971 7.48031 18.6594 7.11799 19.1048 7.11799H28.8043C29.2497 7.11799 29.612 7.48031 29.612 7.9332V9.01261C29.612 9.45796 29.2497 9.82028 28.8043 9.82028H19.1048C18.6594 9.82028 18.2971 9.45796 18.2971 9.01261V7.9332ZM40.6326 1.2605H7.27657C3.27597 1.2605 0 4.54401 0 8.55216V89.5908C0 93.599 3.27597 96.8825 7.27657 96.8825H40.6326C44.6332 96.8825 47.9016 93.599 47.9016 89.5908V8.55216C47.9016 4.54401 44.6332 1.2605 40.6326 1.2605Z" fill="black"/>
</g>
</g>
<defs>
<clipPath id="clip0_503_1828">
<rect width="50.7246" height="100" fill="white"/>
</clipPath>
</defs>
</svg>
