<svg width="100" height="100" viewBox="0 0 100 100" fill="none" xmlns="http://www.w3.org/2000/svg">
<mask id="mask0_503_1835" style="mask-type:luminance" maskUnits="userSpaceOnUse" x="0" y="0" width="98" height="98">
<path d="M0 0H97.9567V97.9567H0V0Z" fill="white"/>
</mask>
<g mask="url(#mask0_503_1835)">
<path d="M82.2356 26.7949L86.1298 29.0706C86.859 29.4953 87.8205 29.7036 88.774 29.7036C89.7356 29.7036 90.6891 29.4953 91.4183 29.0706L95.3125 26.7949C96.7708 25.9456 97.9567 23.8783 97.9567 22.1956V17.6042C97.9567 15.9215 96.7708 13.8462 95.3125 12.9969L91.4183 10.7292C90.6891 10.3045 89.7356 10.0882 88.774 10.0882C87.8205 10.0882 86.859 10.3045 86.1298 10.7292L82.2356 12.9969C80.7853 13.8462 79.5914 15.9215 79.5914 17.6042V22.1956C79.5914 22.6924 79.7035 23.2292 79.8958 23.7501L54.359 38.4456C54.0144 38.0529 53.6378 37.7084 53.2292 37.476L41.6667 30.6411C41.4183 30.4969 41.1378 30.3847 40.8494 30.2885V19.5594C41.25 19.4552 41.6346 19.311 41.9631 19.1186L45.8574 16.851C47.3077 16.0017 48.5016 13.9263 48.5016 12.2436V7.6523C48.5016 5.96961 47.3077 3.89429 45.8574 3.05294L41.9631 0.777299C41.234 0.35262 40.2724 0.144287 39.3189 0.144287C38.3574 0.144287 37.4039 0.35262 36.6747 0.777299L32.7804 3.05294C31.3221 3.89429 30.1362 5.96961 30.1362 7.6523V12.2436C30.1362 13.9263 31.3221 16.0017 32.7804 16.851L36.6747 19.1186C37.0032 19.311 37.3878 19.4552 37.7885 19.5594V30.1283C37.2756 30.2324 36.8029 30.4007 36.3942 30.6411L24.8317 37.476C23.3814 38.3334 22.1955 40.4087 22.1955 42.0914V55.8654C22.1955 56.186 22.2516 56.5225 22.3317 56.867L16.6186 60.1443C16.3381 59.8638 16.0417 59.6074 15.7212 59.4231L11.8269 57.1555C11.0978 56.7308 10.1442 56.5145 9.18269 56.5145C8.22115 56.5145 7.26763 56.7308 6.53846 57.1555L2.64423 59.4231C1.1859 60.2725 0 62.3478 0 64.0305V68.6219C0 70.3046 1.1859 72.3799 2.64423 73.2292L6.53846 75.4969C7.26763 75.9215 8.22115 76.1379 9.18269 76.1379C10.1442 76.1379 11.0978 75.9215 11.8269 75.4969L15.7212 73.2292C17.1795 72.3799 18.3654 70.3046 18.3654 68.6219V64.0305C18.3654 63.6299 18.2933 63.2052 18.1731 62.7885L23.75 59.5754C24.0865 59.944 24.4471 60.2565 24.8317 60.4888L36.3942 67.3238C36.8029 67.5562 37.2756 67.7244 37.7885 67.8286V78.3975C37.3878 78.5017 37.0032 78.6459 36.6747 78.8382L32.7804 81.1138C31.3221 81.9552 30.1362 84.0305 30.1362 85.7132V90.3046C30.1362 91.9872 31.3221 94.0626 32.7804 94.9119L36.6747 97.1796C37.4039 97.6042 38.3574 97.8206 39.3189 97.8206C40.2724 97.8206 41.234 97.6042 41.9631 97.1796L45.8574 94.9119C47.3077 94.0626 48.5016 91.9872 48.5016 90.3046V85.7132C48.5016 84.0305 47.3077 81.9552 45.8574 81.1138L41.9631 78.8382C41.6346 78.6459 41.25 78.5017 40.8494 78.3975V67.6763C41.1378 67.5802 41.4183 67.468 41.6667 67.3238L53.2292 60.4888C53.5497 60.2965 53.8462 60.0481 54.1266 59.7677L78.9503 70.2404C78.8782 70.561 78.8301 70.8735 78.8301 71.1699V75.7693C78.8301 77.452 80.016 79.5193 81.4744 80.3687L85.3686 82.6443C86.0897 83.069 87.0513 83.2773 88.0128 83.2773C88.9664 83.2773 89.9279 83.069 90.6571 82.6443L94.5513 80.3687C96.0016 79.5193 97.1955 77.452 97.1955 75.7693V71.1699C97.1955 69.4872 96.0016 67.4199 94.5513 66.5706L90.6571 64.2949C89.9279 63.8703 88.9664 63.6619 88.0128 63.6619C87.0513 63.6619 86.0897 63.8703 85.3686 64.2949L81.4744 66.5706C81.0737 66.8029 80.6971 67.1315 80.3606 67.5161L55.6811 57.0994C55.7933 56.6828 55.8654 56.2661 55.8654 55.8654V42.0914C55.8654 41.7949 55.8173 41.4824 55.7532 41.1699L81.5865 26.3142C81.7949 26.4985 82.0112 26.6667 82.2356 26.7949ZM15.3045 68.6219C15.3045 69.2228 14.6955 70.2805 14.1827 70.585L10.2885 72.8526C10.1442 72.9328 9.75961 73.077 9.18269 73.077C8.61378 73.077 8.22115 72.9328 8.08494 72.8526L4.19071 70.585C3.66987 70.2805 3.0609 69.2228 3.0609 68.6219V64.0305C3.0609 63.4376 3.66987 62.3719 4.19071 62.0674L8.08494 59.7997C8.22115 59.7196 8.61378 59.5834 9.18269 59.5834C9.75961 59.5834 10.1442 59.7196 10.2885 59.7997L14.1827 62.0674C14.6955 62.3719 15.3045 63.4376 15.3045 64.0305V68.6219ZM81.891 71.1699C81.891 70.577 82.5 69.5113 83.0128 69.2148L86.9071 66.9392C87.0513 66.859 87.4359 66.7228 88.0128 66.7228C88.5817 66.7228 88.9744 66.859 89.1106 66.9392L93.0048 69.2148C93.5256 69.5113 94.1346 70.577 94.1346 71.1699V75.7693C94.1346 76.3622 93.5256 77.4279 93.0048 77.7244L89.1106 80.0001C88.9744 80.0802 88.5817 80.2164 88.0128 80.2164C87.4359 80.2164 87.0513 80.0802 86.9071 80.0001L83.0128 77.7244C82.5 77.4279 81.891 76.3622 81.891 75.7693V71.1699ZM34.3189 14.2068C33.8061 13.9023 33.1971 12.8446 33.1971 12.2436V7.6523C33.1971 7.05935 33.8061 5.99365 34.3189 5.69717L38.2131 3.42153C38.3574 3.3414 38.742 3.20518 39.3189 3.20518C39.8878 3.20518 40.2805 3.3414 40.4167 3.42153L44.3109 5.69717C44.8317 5.99365 45.4407 7.05935 45.4407 7.6523V12.2436C45.4407 12.8446 44.8317 13.9023 44.3109 14.2068L40.4167 16.4744C40.2805 16.5545 39.8878 16.6988 39.3189 16.6988C38.742 16.6988 38.3574 16.5545 38.2131 16.4744L34.3189 14.2068ZM44.3109 83.7581C44.8317 84.0546 45.4407 85.1203 45.4407 85.7132V90.3046C45.4407 90.9055 44.8317 91.9632 44.3109 92.2677L40.4167 94.5353C40.2805 94.6154 39.8878 94.7597 39.3189 94.7597C38.742 94.7597 38.3574 94.6154 38.2131 94.5353L34.3189 92.2677C33.8061 91.9632 33.1971 90.9055 33.1971 90.3046V85.7132C33.1971 85.1203 33.8061 84.0546 34.3189 83.7581L38.2131 81.4824C38.3574 81.4023 38.742 81.2661 39.3189 81.2661C39.8878 81.2661 40.2805 81.4023 40.4167 81.4824L44.3109 83.7581ZM52.8045 55.8654C52.8045 56.4664 52.1955 57.5481 51.6747 57.8526L40.1122 64.6876C39.976 64.7677 39.5913 64.9039 39.0305 64.9039C38.4696 64.9039 38.0849 64.7677 37.9567 64.6876L26.3862 57.8526C25.8654 57.5481 25.2564 56.4664 25.2564 55.8654V42.0914C25.2564 41.4904 25.8654 40.4167 26.3862 40.1122L37.9567 33.2773C38.0849 33.1972 38.4696 33.061 39.0305 33.061C39.5913 33.061 39.976 33.1972 40.1122 33.2773L51.6747 40.1122C52.1955 40.4167 52.8045 41.4904 52.8045 42.0914V55.8654ZM82.6522 17.6042C82.6522 17.0033 83.2612 15.9456 83.7821 15.6411L87.6763 13.3735C87.8125 13.2853 88.2051 13.1491 88.774 13.1491C89.351 13.1491 89.7356 13.2853 89.8798 13.3735L93.774 15.6411C94.2869 15.9456 94.8958 17.0033 94.8958 17.6042V22.1956C94.8958 22.7885 94.2869 23.8542 93.774 24.1507L89.8798 26.4263C89.7356 26.5065 89.351 26.6427 88.774 26.6427C88.2051 26.6427 87.8125 26.5065 87.6763 26.4263L83.7821 24.1507C83.2612 23.8542 82.6522 22.7885 82.6522 22.1956V17.6042Z" fill="black"/>
</g>
</svg>
