<svg width="108" height="100" viewBox="0 0 108 100" fill="none" xmlns="http://www.w3.org/2000/svg">
<g clip-path="url(#clip0_503_1851)">
<mask id="mask0_503_1851" style="mask-type:luminance" maskUnits="userSpaceOnUse" x="2" y="0" width="103" height="98">
<path d="M2.38086 0H104.762V97.6749H2.38086V0Z" fill="white"/>
</mask>
<g mask="url(#mask0_503_1851)">
<path d="M82.6263 50.8464C77.4272 50.8464 73.2048 55.0967 73.2048 60.2958C73.4559 71.9029 90.0016 73.1213 91.9455 61.7094C92.8848 56.0733 88.3368 50.8092 82.6263 50.8464ZM89.8063 61.0863C88.6066 70.0428 75.6136 69.3731 75.3997 60.2958C75.874 50.2046 90.4481 51.0231 89.8063 61.0863ZM101.655 65.2902C102.771 65.1879 103.655 64.2485 103.655 63.1231V57.4312C103.655 56.3151 102.818 55.385 101.692 55.2455L98.0095 54.8735C97.8141 54.3062 97.5723 53.7388 97.3026 53.2087L99.6371 50.3627C100.363 49.4978 100.307 48.2143 99.4976 47.4144L95.4797 43.4059C94.5496 42.4665 93.1173 42.6246 92.2338 43.5268V11.6257C92.2338 5.22693 87.0162 0 80.6173 0C80.5987 0 74.0511 0 74.0325 0H10.3327C1.32046 0.316219 1.28326 13.3185 10.3327 13.6533H14.8807V86.0491C14.8807 92.4479 20.1077 97.6749 26.4972 97.6749H33.1099H96.8283C105.859 97.3586 105.859 84.3378 96.8283 84.0216H92.2338V77.0554C93.1173 77.9576 94.5775 78.1157 95.4797 77.167L99.4976 73.1399C100.288 72.34 100.344 71.0565 99.6371 70.2195L97.284 67.3456C97.5537 66.7969 97.7955 66.1923 97.9909 65.6622L101.655 65.2902ZM10.3513 11.4304C4.26875 11.2351 4.26875 2.41815 10.3513 2.22284H69.0288C66.6478 4.7154 66.6478 8.97507 69.0288 11.4304H10.3513ZM33.1378 95.4706H26.5251C21.3446 95.4706 17.1222 91.2481 17.1222 86.0677V13.6533H74.0697C75.5206 13.6533 75.5206 11.4304 74.0697 11.4304C71.5121 11.4304 69.4566 9.3285 69.4566 6.81734C69.4566 4.5945 71.047 2.73438 73.1211 2.29725C73.5024 2.13914 80.05 2.22284 80.6452 2.20424C85.8257 2.20424 90.0388 6.42671 90.0388 11.6071V45.2753L89.6854 45.5636C89.1367 45.2939 88.5694 45.08 88.0206 44.8754L87.6486 41.1644C87.5091 40.067 86.5883 39.2392 85.4723 39.2392H79.7989C78.7014 39.2392 77.7342 40.067 77.6225 41.183L77.2226 44.8754C76.6739 45.08 76.1066 45.3125 75.5578 45.5636L72.6932 43.2292C71.8097 42.5037 70.5355 42.5781 69.7728 43.3873L65.7271 47.3958C64.9644 48.1585 64.8807 49.4513 65.569 50.3162L67.9034 53.1901C67.6523 53.7202 67.4198 54.2876 67.2152 54.8549L63.5135 55.2269C62.4068 55.3664 61.5883 56.2872 61.5883 57.4126V63.1045C61.5883 64.1834 62.4533 65.1693 63.5507 65.2623L67.2431 65.6622C67.4198 66.1737 67.6709 66.7969 67.9406 67.3456L65.5876 70.2567C64.8993 71.1217 64.983 72.3958 65.7457 73.1585L69.7542 77.1484C70.5169 77.9762 71.8097 78.0506 72.6932 77.3251L75.5578 74.9907C76.0879 75.2418 76.6553 75.4836 77.2226 75.6975L77.6225 79.3899C77.7342 80.506 78.6549 81.3523 79.7989 81.3523H85.4723C86.5697 81.3523 87.5091 80.5246 87.6486 79.3899L88.0206 75.6975C88.6066 75.4836 89.1553 75.2418 89.6854 74.9907L90.0388 75.2883V84.0588H33.1378C32.5054 84.0588 32.0124 84.5703 32.031 85.1842C32.031 85.7887 32.524 86.2816 33.1378 86.2816C34.3469 86.2816 35.4536 86.7746 36.2721 87.5372C39.3134 90.2065 37.2394 95.5543 33.1378 95.4706ZM96.8283 86.263C102.911 86.4583 102.911 95.2753 96.8283 95.4706H38.1601C40.5318 92.9967 40.5132 88.6812 38.1601 86.263C40.848 86.263 96.1028 86.263 96.8283 86.263ZM95.1449 68.2106L97.9444 71.5867L93.9823 75.5952L90.5132 72.8051C90.1598 72.5353 89.6668 72.4795 89.2948 72.6935C88.5135 73.1213 87.63 73.4933 86.6441 73.8095C86.2349 73.949 85.9187 74.3211 85.8815 74.7489L85.4723 79.1109L79.8361 79.1574L79.3897 74.7489C79.3432 74.3211 79.0362 73.949 78.6177 73.8095C77.6784 73.5119 76.7762 73.1399 75.967 72.6935C75.5764 72.4981 75.0835 72.5353 74.758 72.8051L71.3818 75.5952C70.8331 75.0465 67.8476 72.0796 67.3547 71.6332L70.1635 68.2106C70.7494 67.5409 70.1449 66.7597 69.8659 66.1272C69.2799 65.1693 69.4752 63.7556 68.2568 63.5417L63.8856 63.1231L63.8484 57.4498L68.2568 56.994C68.7126 56.9568 69.0846 56.6406 69.2055 56.2128C69.4752 55.2734 69.8473 54.3899 70.2844 53.5807C70.4983 53.1901 70.4611 52.6972 70.1635 52.3438L67.3547 48.949L71.3353 44.9405L74.7766 47.7307C75.13 48.0004 75.595 48.0655 75.9949 47.8423C76.8692 47.3772 77.7528 47.0238 78.6177 46.7634C79.0548 46.6518 79.3618 46.2705 79.4269 45.824L79.8547 41.4435L85.4909 41.4062L85.9373 45.824C85.9745 46.2705 86.2907 46.6518 86.7464 46.782C87.63 47.0424 88.5135 47.3958 89.3506 47.8609C90.2528 48.4375 91.2386 47.1168 91.9083 46.689C91.9269 46.6518 93.9637 44.9963 93.9823 44.9777L97.9909 48.949L95.1449 52.381C94.8659 52.7344 94.8101 53.2087 95.024 53.6179C95.4797 54.4457 95.8517 55.3292 96.1214 56.25C96.2609 56.6871 96.633 56.9754 97.0701 57.0406L101.441 57.487L101.46 63.1045L97.0701 63.5603C95.8703 63.7556 95.9819 65.2065 95.4518 66.09C95.1635 66.7411 94.5496 67.5409 95.1449 68.2106ZM23.149 44.6801H51.8692C52.483 44.6801 52.976 44.1964 52.976 43.5826V35.3702C52.976 34.7656 52.483 34.2727 51.8692 34.2727H23.149C22.5351 34.2727 22.0515 34.7656 22.0515 35.3702V43.5826C22.0515 44.1685 22.5351 44.6801 23.149 44.6801ZM24.265 36.4769H50.7717V42.4665H24.265V36.4769ZM23.149 51.8136H39.0995C40.5504 51.8136 40.5504 54.0365 39.0995 54.0365H23.149C21.6981 54.0086 21.7167 51.8136 23.149 51.8136ZM53.348 61.8676H23.1676C21.7167 61.8676 21.7353 59.654 23.1676 59.654H53.348C54.7989 59.6726 54.7803 61.8676 53.348 61.8676ZM53.348 67.5037C54.7989 67.5037 54.7803 69.7266 53.348 69.7266H23.1676C21.7167 69.7266 21.7353 67.5037 23.1676 67.5037H53.348ZM53.348 77.5856H23.1676C21.7167 77.5856 21.7353 75.3627 23.1676 75.3627H53.348C54.7989 75.3627 54.7803 77.5577 53.348 77.5856ZM41.9455 28.1622H47.3212C47.9257 28.1622 48.4187 27.6786 48.4187 27.0647V18.3687C48.4187 17.7548 47.9257 17.2619 47.3212 17.2619H41.9455C41.3409 17.2619 40.848 17.7548 40.848 18.3687V27.0647C40.8294 27.6786 41.3409 28.1622 41.9455 28.1622ZM43.0429 19.4661H46.2051V25.9487H43.0429V19.4661ZM68.9265 27.0647V18.3687C68.9265 17.7548 69.4194 17.2619 70.024 17.2619H75.3997C76.8506 17.2619 76.8506 19.4847 75.3997 19.4847H71.1214V25.9673H75.3997C76.8506 25.9673 76.8506 28.1622 75.3997 28.1808H70.024C69.4194 28.1622 68.9265 27.6786 68.9265 27.0647ZM50.2044 27.0647V25.0837C50.2044 23.6235 52.4272 23.6235 52.4272 25.0837V25.9673H55.5801V18.3687C55.5801 16.9085 57.803 16.9085 57.803 18.3687V27.0647C57.803 27.6786 57.31 28.1622 56.7055 28.1622H51.3205C50.6973 28.1622 50.2044 27.6786 50.2044 27.0647ZM59.5701 27.0647V18.3687C59.5701 17.7548 60.0537 17.2619 60.6676 17.2619H66.0433C67.4942 17.2619 67.4942 19.4847 66.0433 19.4847H61.765V21.6239H66.0433C66.6478 21.6239 67.1408 22.1168 67.1408 22.7214C67.1408 23.3352 66.6478 23.8281 66.0433 23.8281H61.765V25.9673H66.0433C67.4942 25.9673 67.4942 28.1622 66.0433 28.1808H60.6862C60.0723 28.1622 59.5701 27.6786 59.5701 27.0647ZM79.092 17.2433H84.4678C85.9187 17.2433 85.9187 19.4661 84.4678 19.4661H82.8774V27.0647C82.8774 27.6786 82.3845 28.1622 81.7799 28.1622C81.1754 28.1622 80.6824 27.6786 80.6824 27.0647V19.4661H79.092C77.6412 19.4661 77.6412 17.2619 79.092 17.2433ZM23.7907 27.0647V23.8281H28.069C28.6828 23.8281 29.1664 23.3352 29.1664 22.7214V18.3687C29.1664 17.7548 28.6828 17.2619 28.069 17.2619H22.6932C22.0887 17.2619 21.5958 17.7548 21.5958 18.3687V27.0647C21.5958 28.497 23.7907 28.5156 23.7907 27.0647ZM23.7907 19.4661H26.9529V21.6053H23.7907V19.4661ZM32.5612 28.1622C33.175 28.1622 33.6679 27.6786 33.6679 27.0647V24.8698L37.2115 27.9111C37.4347 28.0878 37.6858 28.1808 37.9369 28.1808C38.9228 28.2273 39.4529 26.8694 38.6717 26.237L35.8629 23.8467H37.9369C38.5507 23.8467 39.0437 23.3538 39.0437 22.74V18.3873C39.0437 17.7734 38.5507 17.2805 37.9369 17.2805H32.5612C31.9566 17.2805 31.4637 17.7734 31.4637 18.3873V27.0833C31.4637 27.6786 31.9566 28.1622 32.5612 28.1622ZM33.6865 19.4661H36.8394V21.6053H33.6865V19.4661Z" fill="black"/>
</g>
</g>
<defs>
<clipPath id="clip0_503_1851">
<rect width="107.143" height="100" fill="white"/>
</clipPath>
</defs>
</svg>
