<svg width="115" height="100" viewBox="0 0 115 100" fill="none" xmlns="http://www.w3.org/2000/svg">
<g clip-path="url(#clip0_503_1884)">
<path d="M45.3774 13.9043C45.2658 14.0438 45.1635 14.1926 45.0519 14.3321C44.9868 14.4344 44.9124 14.5274 44.8473 14.6298C44.745 14.7693 44.6427 14.9181 44.5404 15.0576C44.4753 15.1599 44.4009 15.2715 44.3265 15.3738C44.2334 15.5226 44.1404 15.6714 44.0381 15.8202C43.973 15.9225 43.8986 16.0341 43.8335 16.1458C43.7405 16.2946 43.6382 16.4527 43.5452 16.6108C43.4801 16.7224 43.415 16.834 43.3499 16.9363C43.2476 17.113 43.1546 17.2804 43.0523 17.4478C42.9965 17.5594 42.9314 17.6617 42.8756 17.7641C42.764 17.9687 42.6523 18.1733 42.5407 18.3872C42.5035 18.4616 42.457 18.536 42.4198 18.6104C42.271 18.8987 42.1222 19.1963 41.9734 19.4847C41.9362 19.5591 41.899 19.6335 41.8618 19.7079C41.7595 19.9404 41.6479 20.1636 41.5456 20.3961C41.4898 20.5077 41.434 20.6193 41.3875 20.7402C41.2945 20.9356 41.2108 21.1216 41.1177 21.3262C41.0619 21.4471 41.0061 21.5773 40.9503 21.7168C40.8759 21.9028 40.7922 22.0888 40.7178 22.2841C40.662 22.4144 40.6062 22.5539 40.5504 22.6934C40.476 22.8794 40.3923 23.0747 40.3179 23.2607C40.2714 23.4002 40.2156 23.549 40.1598 23.6885C40.0854 23.8838 40.011 24.0792 39.9366 24.2745C39.8901 24.4233 39.8343 24.5628 39.7878 24.7023C39.7692 24.7674 39.7413 24.8232 39.7227 24.8883C39.7785 24.8976 39.8343 24.9069 39.8994 24.9069C40.0854 24.9348 40.2714 24.9627 40.4574 24.9813C40.9689 25.0464 41.4712 25.1115 41.9827 25.1766C42.2245 25.2045 42.4663 25.2231 42.7174 25.251C43.1918 25.3068 43.6661 25.3533 44.1497 25.3998C44.3823 25.4277 44.6241 25.4463 44.8659 25.4743C45.4146 25.5208 45.9634 25.5673 46.5214 25.6138C46.6795 25.6231 46.8376 25.6324 46.9957 25.651C47.7026 25.6975 48.4187 25.744 49.1349 25.7905C49.3209 25.7998 49.4976 25.8091 49.6836 25.8184C50.223 25.8463 50.7625 25.8649 51.3019 25.8928C51.553 25.9021 51.8041 25.9114 52.0552 25.9114C52.5482 25.93 53.0411 25.9486 53.534 25.9579C53.7852 25.9579 54.0363 25.9672 54.2874 25.9672C54.4362 25.9765 54.5757 25.9765 54.7152 25.9765V7.35669C54.678 7.36599 54.6315 7.36599 54.585 7.37529C54.5106 7.39389 54.4362 7.40319 54.3618 7.42179C54.2409 7.44969 54.1107 7.4776 53.9898 7.5055C53.9154 7.5241 53.8503 7.5427 53.7759 7.5613C53.6363 7.5985 53.5061 7.64501 53.3666 7.68221C53.3108 7.70081 53.255 7.71941 53.1899 7.73801C53.0039 7.80312 52.8086 7.86822 52.6133 7.94263C52.5947 7.95193 52.5668 7.97053 52.5389 7.97983C52.3715 8.04493 52.2041 8.11004 52.0459 8.19374C51.9808 8.22164 51.9157 8.24955 51.8506 8.27745C51.7204 8.34255 51.5902 8.40766 51.4693 8.47276C51.3949 8.50996 51.3298 8.54717 51.2554 8.58437C51.1345 8.64947 51.0136 8.71458 50.8927 8.78898C50.8183 8.82618 50.7532 8.87268 50.6788 8.90989C50.5486 8.99359 50.4183 9.0773 50.2881 9.161C50.2323 9.19821 50.1765 9.23541 50.1207 9.27261C49.9254 9.39352 49.7487 9.52373 49.5627 9.66324C49.5441 9.67254 49.5255 9.68184 49.5162 9.70044C49.3488 9.82135 49.1721 9.95156 49.0047 10.0911C48.9488 10.1376 48.8837 10.1841 48.8279 10.2399C48.707 10.3422 48.5768 10.4445 48.4559 10.5468C48.3908 10.6119 48.3257 10.6677 48.2606 10.7328C48.1397 10.8351 48.0281 10.9467 47.9072 11.049C47.8421 11.1141 47.777 11.1792 47.7119 11.2443C47.591 11.3559 47.4701 11.4862 47.3491 11.6071C47.284 11.6629 47.2282 11.7187 47.1724 11.7745C46.9957 11.9605 46.8283 12.1558 46.6516 12.3418C46.4656 12.5464 46.2889 12.7603 46.1122 12.9742C46.0471 13.0487 45.9913 13.1231 45.9355 13.1882C45.8145 13.337 45.6936 13.4858 45.5727 13.6346C45.5076 13.7276 45.4425 13.8206 45.3774 13.9043Z" fill="black"/>
<path d="M26.1346 22.0796C26.674 22.2377 27.2227 22.3865 27.7808 22.5353C27.9296 22.5725 28.0877 22.619 28.2458 22.6562C28.6643 22.7679 29.0829 22.8702 29.5107 22.9725C29.6874 23.019 29.8641 23.0562 30.0408 23.1027C30.5245 23.2143 31.0081 23.3259 31.501 23.4375C31.6033 23.4561 31.6963 23.484 31.7893 23.5026C32.3753 23.6235 32.9705 23.7444 33.5658 23.8653C33.7239 23.8932 33.8913 23.9304 34.0494 23.9583C34.5051 24.042 34.9608 24.1257 35.4166 24.2094C35.6026 24.2467 35.7979 24.2746 35.9839 24.3118C36.1234 24.3304 36.2629 24.3583 36.4024 24.3769C36.4489 24.2188 36.514 24.0606 36.5605 23.9118C36.6536 23.6607 36.7373 23.4189 36.821 23.1771C36.8861 23.0004 36.9512 22.8237 37.0256 22.6376C37.1093 22.4144 37.193 22.1819 37.2767 21.9587C37.3511 21.782 37.4255 21.6053 37.4906 21.4193C37.5836 21.2054 37.6673 20.9914 37.7603 20.7775C37.8347 20.6008 37.9091 20.4241 37.9835 20.2474C38.0765 20.0335 38.1603 19.8289 38.2533 19.6243C38.3277 19.4475 38.4114 19.2801 38.4858 19.1034C38.5788 18.9081 38.6718 18.7128 38.7648 18.5175C38.8485 18.3408 38.9322 18.1734 39.0159 18.006C39.1089 17.8199 39.2019 17.6246 39.2949 17.4386C39.3786 17.2712 39.4716 17.1131 39.5553 16.9457C39.6483 16.7597 39.7506 16.5737 39.8437 16.397C39.9367 16.2388 40.0204 16.0807 40.1134 15.9226C40.2064 15.7459 40.3087 15.5692 40.411 15.3925C40.504 15.2437 40.5877 15.0856 40.6807 14.9368C40.783 14.7693 40.8853 14.5926 40.9876 14.4345C41.0806 14.2857 41.1736 14.1369 41.2759 13.9881C41.3783 13.83 41.4806 13.6626 41.5922 13.5045C41.6852 13.365 41.7782 13.2254 41.8805 13.0859C41.9828 12.9278 42.0944 12.7697 42.1967 12.6209C42.299 12.4814 42.392 12.3512 42.4943 12.2117C42.6059 12.0629 42.7175 11.9141 42.8291 11.7746C42.9222 11.6443 43.0245 11.5141 43.1268 11.3839C43.2384 11.2444 43.35 11.1049 43.4709 10.9654C43.5732 10.8445 43.6755 10.7236 43.7778 10.6027C43.8894 10.4632 44.0103 10.333 44.1219 10.2028C44.2242 10.0818 44.3265 9.97024 44.4382 9.84933C44.5498 9.72842 44.6707 9.59821 44.7916 9.47731C44.8939 9.3657 45.0055 9.25409 45.1078 9.15179C45.2287 9.03088 45.3496 8.90997 45.4705 8.78906C45.5449 8.72396 45.61 8.65885 45.6751 8.59375C42.9222 9.3192 40.2529 10.3423 37.6673 11.6443C32.8031 14.0997 28.4132 17.5502 24.8418 21.689C25.1952 21.8006 25.5486 21.9122 25.9021 22.0145C25.9858 22.0331 26.0509 22.061 26.1346 22.0796Z" fill="black"/>
<path d="M67.6337 9.15179C67.7453 9.25409 67.8477 9.3657 67.95 9.47731C68.0709 9.59821 68.1918 9.72842 68.3034 9.84933C68.415 9.97024 68.5173 10.0818 68.6196 10.2028C68.7405 10.333 68.8521 10.4632 68.9637 10.6027C69.0753 10.7236 69.1776 10.8445 69.2799 10.9654C69.3916 11.1049 69.5032 11.2444 69.6148 11.3839C69.7171 11.5141 69.8194 11.6443 69.9217 11.7746C70.024 11.9234 70.1356 12.0629 70.2472 12.2117C70.3495 12.3512 70.4425 12.4814 70.5448 12.6209C70.6564 12.7697 70.7587 12.9278 70.8703 13.0859C70.9634 13.2254 71.0564 13.365 71.1587 13.5045C71.261 13.6626 71.3633 13.83 71.4749 13.9881C71.5679 14.1369 71.6609 14.2857 71.7539 14.4345C71.8562 14.6019 71.9585 14.7693 72.0608 14.9368C72.1538 15.0856 72.2468 15.2437 72.3305 15.3925C72.4329 15.5692 72.5352 15.7459 72.6375 15.9226C72.7212 16.0807 72.8142 16.2388 72.8979 16.397C73.0002 16.5737 73.0932 16.7597 73.1862 16.9457C73.2792 17.1131 73.3629 17.2712 73.4466 17.4386C73.5396 17.6246 73.6326 17.8199 73.7349 18.006C73.8093 18.1734 73.893 18.3408 73.9767 18.5082C74.0698 18.7128 74.1628 18.9081 74.2558 19.1127C74.3302 19.2801 74.4139 19.4475 74.4883 19.6243C74.5813 19.8289 74.6743 20.0428 74.758 20.2474C74.8324 20.4241 74.9161 20.6008 74.9905 20.7775C75.0742 20.9914 75.1672 21.2054 75.2509 21.4286C75.3253 21.6053 75.3904 21.782 75.4648 21.9587C75.5486 22.1819 75.6323 22.4144 75.7253 22.6376C75.7904 22.8237 75.8555 23.0004 75.9206 23.1771C76.0136 23.4189 76.0973 23.6607 76.181 23.9025C76.2368 24.0606 76.2926 24.2188 76.3484 24.3769C76.4786 24.3583 76.6181 24.3304 76.7576 24.3118C76.9529 24.2746 77.139 24.2467 77.325 24.2094C77.79 24.1257 78.2457 24.042 78.7015 23.9583C78.8596 23.9304 79.0177 23.8932 79.1758 23.8653C79.771 23.7444 80.3663 23.6235 80.9522 23.5026C81.0452 23.484 81.1382 23.4561 81.2312 23.4375C81.7241 23.3259 82.2171 23.2143 82.7007 23.1027C82.8774 23.0562 83.0541 23.019 83.2308 22.9725C83.6587 22.8702 84.0865 22.7679 84.505 22.6562C84.6538 22.619 84.8119 22.5725 84.9608 22.5353C85.5188 22.3865 86.0675 22.2377 86.6163 22.0796C86.6907 22.061 86.7558 22.0331 86.8302 22.0145C87.1929 21.9122 87.5463 21.8006 87.8997 21.689C84.3376 17.5502 79.9384 14.0997 75.0835 11.6443C72.498 10.3423 69.8194 9.3192 67.0664 8.59375C67.1315 8.65885 67.2059 8.72396 67.271 8.79836C67.3919 8.90997 67.5128 9.03088 67.6337 9.15179Z" fill="black"/>
<path d="M59.2168 25.9579C59.7005 25.9486 60.1934 25.93 60.6863 25.9114C60.9375 25.9114 61.1886 25.9021 61.4397 25.8928C61.9791 25.8649 62.5186 25.8463 63.0673 25.8184C63.244 25.8091 63.43 25.7998 63.6067 25.7905C64.3229 25.744 65.039 25.6975 65.7459 25.651C65.904 25.6324 66.0621 25.6231 66.2295 25.6138C66.7782 25.5673 67.327 25.5208 67.885 25.4743C68.1175 25.4463 68.3593 25.4277 68.6011 25.3998C69.0755 25.3533 69.5498 25.3068 70.0334 25.251C70.2753 25.2231 70.5171 25.2045 70.7589 25.1766C71.2704 25.1115 71.7726 25.0464 72.2842 24.9813C72.4702 24.9627 72.6562 24.9348 72.8515 24.9069C72.9073 24.9069 72.9631 24.8976 73.0189 24.8883C73.0003 24.8232 72.9724 24.7581 72.9538 24.7023C72.9073 24.5628 72.8515 24.4233 72.805 24.2838C72.7306 24.0792 72.6562 23.8838 72.5818 23.6885C72.526 23.549 72.4795 23.4095 72.4237 23.27C72.3493 23.0747 72.2656 22.8794 72.1912 22.6841C72.1354 22.5539 72.0796 22.4144 72.0331 22.2841C71.9494 22.0888 71.8657 21.8935 71.7819 21.7075C71.7354 21.5773 71.6796 21.4471 71.6238 21.3262C71.5308 21.1216 71.4471 20.9263 71.3541 20.7309C71.3076 20.6193 71.2518 20.5077 71.2053 20.3961C71.0937 20.1543 70.9821 19.9311 70.8705 19.6986C70.8333 19.6242 70.8054 19.5591 70.7682 19.494C70.6287 19.1963 70.4706 18.8987 70.3218 18.6104C70.2846 18.536 70.2474 18.4709 70.2101 18.3965C70.0985 18.1826 69.9776 17.9687 69.866 17.7641C69.8102 17.6617 69.7544 17.5594 69.6893 17.4571C69.5963 17.2804 69.494 17.113 69.3917 16.9363C69.3266 16.834 69.2615 16.7224 69.1964 16.6201C69.1034 16.4527 69.0104 16.2946 68.9081 16.1458C68.843 16.0341 68.7686 15.9225 68.7035 15.8202C68.6104 15.6714 68.5081 15.5226 68.4151 15.3738C68.3407 15.2715 68.2756 15.1599 68.2012 15.0576C68.0989 14.9181 67.9966 14.7693 67.9036 14.6298C67.8292 14.5274 67.7548 14.4344 67.6897 14.3321C67.5874 14.1926 67.4758 14.0438 67.3735 13.9043C67.2991 13.8206 67.234 13.7276 67.1689 13.6346C67.0479 13.4858 66.927 13.337 66.8061 13.1882C66.7503 13.1231 66.6945 13.0487 66.6387 12.9742C66.4527 12.7603 66.276 12.5464 66.09 12.3418C65.9226 12.1558 65.7459 11.9605 65.5692 11.7745C65.5133 11.7187 65.4575 11.6629 65.4017 11.6071C65.2808 11.4862 65.1599 11.3559 65.0297 11.2443C64.9646 11.1792 64.8995 11.1141 64.8344 11.049C64.7228 10.9467 64.6019 10.8351 64.4903 10.7328C64.4159 10.6677 64.3508 10.6119 64.2857 10.5468C64.1648 10.4445 64.0346 10.3422 63.9136 10.2399C63.8578 10.1841 63.7927 10.1376 63.7369 10.0911C63.5695 9.95156 63.4021 9.82135 63.2254 9.70044C63.2161 9.68184 63.1975 9.67254 63.1882 9.66324C63.0022 9.52373 62.8162 9.39352 62.6302 9.27261C62.5651 9.23541 62.5093 9.19821 62.4535 9.161C62.3232 9.0773 62.193 8.99359 62.0628 8.90989C61.9977 8.87268 61.9233 8.82618 61.8582 8.78898C61.7373 8.71458 61.6071 8.64947 61.4862 8.58437C61.4211 8.54717 61.3467 8.50996 61.2723 8.47276C61.1514 8.40766 61.0212 8.34255 60.891 8.27745C60.8258 8.24955 60.7607 8.22164 60.7049 8.19374C60.5375 8.11004 60.3701 8.04493 60.2027 7.97983C60.1748 7.97053 60.1469 7.95193 60.1283 7.94263C59.933 7.86822 59.747 7.80312 59.5517 7.73801C59.4959 7.71941 59.4401 7.70081 59.3843 7.68221C59.2447 7.64501 59.1052 7.5985 58.9657 7.5613C58.9006 7.5427 58.8262 7.5241 58.7611 7.5055C58.6309 7.4776 58.5007 7.44969 58.3798 7.42179C58.3054 7.40319 58.231 7.39389 58.1659 7.37529C58.1194 7.36599 58.0729 7.36599 58.0264 7.35669V25.9765C58.1659 25.9765 58.3054 25.9765 58.4542 25.9672C58.7053 25.9672 58.9564 25.9579 59.2168 25.9579Z" fill="black"/>
<path d="M53.5433 71.6053C53.0411 71.6239 52.5482 71.6332 52.0552 71.6518C51.8041 71.6611 51.553 71.6704 51.3112 71.6797C50.7625 71.6983 50.223 71.7262 49.6743 71.7541C49.4976 71.7634 49.3116 71.7634 49.1349 71.782C48.4187 71.8192 47.7026 71.8657 46.9957 71.9122C46.8376 71.9308 46.6702 71.9401 46.5121 71.9587C45.9634 71.9959 45.4146 72.0424 44.8659 72.0982C44.6241 72.1168 44.3823 72.1447 44.1404 72.1633C43.6661 72.2098 43.1918 72.2563 42.7174 72.3121C42.4756 72.34 42.2245 72.3679 41.9827 72.3958C41.4712 72.4516 40.9689 72.5167 40.4574 72.5818C40.2714 72.6097 40.0854 72.6283 39.8994 72.6562C39.8343 72.6655 39.7785 72.6748 39.7227 72.6748C39.7413 72.7399 39.7692 72.805 39.7878 72.8609C39.8343 73.0097 39.8901 73.1492 39.9366 73.2887C40.011 73.484 40.0854 73.6793 40.1598 73.8746C40.2156 74.0234 40.2714 74.1629 40.3179 74.3024C40.3923 74.4978 40.476 74.6838 40.5504 74.8698C40.6062 75.0093 40.662 75.1488 40.7178 75.2883C40.7922 75.4743 40.8759 75.6696 40.9503 75.8556C41.0061 75.9859 41.0619 76.1161 41.1177 76.2463C41.2108 76.4416 41.2945 76.6369 41.3875 76.8229C41.434 76.9438 41.4898 77.0554 41.5456 77.1763C41.6479 77.3995 41.7595 77.6321 41.8618 77.8553C41.899 77.9297 41.9362 78.0041 41.9734 78.0785C42.1222 78.3761 42.271 78.6644 42.4198 78.9527C42.457 79.0271 42.5035 79.1109 42.5407 79.1853C42.6523 79.3899 42.764 79.5945 42.8756 79.7991C42.9314 79.9107 42.9965 80.013 43.0523 80.1153C43.1546 80.2827 43.2476 80.4594 43.3499 80.6268C43.415 80.7385 43.4801 80.8408 43.5452 80.9524C43.6382 81.1105 43.7405 81.2686 43.8335 81.4174C43.8986 81.529 43.973 81.6406 44.0381 81.7429C44.1404 81.901 44.2334 82.0498 44.3265 82.1893C44.4009 82.301 44.4753 82.4033 44.5404 82.5056C44.6427 82.6544 44.745 82.7939 44.838 82.9334C44.9124 83.0357 44.9868 83.138 45.0519 83.231C45.1635 83.3798 45.2658 83.5193 45.3681 83.6588C45.4425 83.7518 45.5076 83.8356 45.5727 83.9286C45.6936 84.0774 45.8145 84.2262 45.9355 84.375C45.9913 84.4401 46.0471 84.5145 46.1122 84.5889C46.2889 84.8028 46.4656 85.0167 46.6516 85.2213C46.819 85.4167 46.9957 85.6027 47.1724 85.7887C47.2282 85.8445 47.2933 85.9003 47.3491 85.9654C47.4701 86.0863 47.591 86.2072 47.7119 86.3188C47.777 86.3839 47.8421 86.449 47.9072 86.5141C48.0281 86.6257 48.1397 86.728 48.2513 86.8303C48.3257 86.8955 48.3908 86.9606 48.4559 87.0164C48.5768 87.1187 48.707 87.221 48.8279 87.3233C48.8837 87.3791 48.9488 87.4256 49.0047 87.4814C49.1721 87.6116 49.3395 87.7418 49.5162 87.8627C49.5255 87.8813 49.5441 87.8906 49.5627 87.8999C49.7487 88.0394 49.9254 88.1696 50.1114 88.2905C50.1765 88.337 50.2323 88.3649 50.2881 88.4114C50.4183 88.4952 50.5486 88.5696 50.6788 88.6533C50.7532 88.6905 50.8183 88.737 50.8927 88.7742C51.0136 88.8486 51.1345 88.9137 51.2554 88.9788C51.3298 89.016 51.3949 89.0625 51.4693 89.0904C51.5902 89.1648 51.7204 89.2206 51.8506 89.2857C51.9157 89.3136 51.9808 89.3415 52.0459 89.3787C52.2041 89.4531 52.3715 89.5182 52.5389 89.5926C52.5668 89.6019 52.5947 89.6112 52.6133 89.6205C52.8086 89.6949 53.0039 89.76 53.1899 89.8251C53.255 89.8437 53.3108 89.8623 53.3666 89.8809C53.5061 89.9274 53.6363 89.9646 53.7759 90.0019C53.8503 90.0205 53.9154 90.0391 53.9898 90.0577C54.1107 90.0856 54.2409 90.1135 54.3618 90.1414C54.4362 90.16 54.5106 90.1693 54.585 90.1879C54.6315 90.1972 54.678 90.1972 54.7152 90.2065V71.5867C54.5757 71.596 54.4269 71.596 54.2874 71.596C54.0363 71.596 53.7852 71.6053 53.5433 71.6053Z" fill="black"/>
<path d="M86.6163 75.4835C86.0675 75.3254 85.5188 75.1766 84.9608 75.0278C84.8119 74.9906 84.6538 74.9534 84.505 74.9069C84.0865 74.8046 83.6587 74.693 83.2215 74.5907C83.0541 74.5442 82.8774 74.507 82.7007 74.4605C82.2171 74.3489 81.7241 74.2372 81.2312 74.1256C81.1382 74.107 81.0452 74.0884 80.9522 74.0698C80.3663 73.9396 79.771 73.8187 79.1758 73.6978C79.0177 73.6699 78.8596 73.642 78.7015 73.6048C78.2457 73.5211 77.79 73.4374 77.325 73.3537C77.139 73.3165 76.9436 73.2886 76.7576 73.2514C76.6181 73.2328 76.4786 73.2049 76.3484 73.1863C76.2926 73.3444 76.2368 73.5025 76.181 73.6606C76.0973 73.9024 76.0136 74.1442 75.9206 74.3861C75.8555 74.5628 75.7904 74.7395 75.7253 74.9255C75.6323 75.1487 75.5486 75.3812 75.4648 75.6044C75.3904 75.7904 75.3253 75.9579 75.2509 76.1346C75.1672 76.3578 75.0742 76.5717 74.9905 76.7856C74.9161 76.9716 74.8324 77.139 74.758 77.3157C74.6743 77.5297 74.5813 77.7343 74.4883 77.9389C74.4139 78.1156 74.3302 78.283 74.2558 78.4597C74.1628 78.655 74.0698 78.8596 73.9767 79.055C73.893 79.2224 73.8093 79.3898 73.7349 79.5572C73.6326 79.7525 73.5396 79.9385 73.4466 80.1338C73.3629 80.2919 73.2792 80.4593 73.1862 80.6175C73.0932 80.8035 73.0002 80.9895 72.8979 81.1662C72.8142 81.3243 72.7212 81.4824 72.6375 81.6405C72.5352 81.8172 72.4329 81.9939 72.3305 82.1707C72.2468 82.3288 72.1538 82.4776 72.0608 82.6264C71.9585 82.8031 71.8562 82.9705 71.7539 83.1379C71.6609 83.2867 71.5679 83.4262 71.4749 83.575C71.3633 83.7425 71.261 83.9006 71.1587 84.0587C71.0564 84.1982 70.9634 84.347 70.8703 84.4772C70.7587 84.6353 70.6471 84.7934 70.5448 84.9422C70.4425 85.0817 70.3495 85.2213 70.2472 85.3515C70.1356 85.5003 70.024 85.6491 69.9124 85.7886C69.8194 85.9188 69.7171 86.049 69.6148 86.1792C69.5032 86.3187 69.3916 86.4582 69.2799 86.5977C69.1776 86.7186 69.0753 86.8489 68.9637 86.9698C68.8521 87.1 68.7405 87.2302 68.6196 87.3604C68.5173 87.4813 68.415 87.6022 68.3034 87.7138C68.1918 87.844 68.0709 87.9649 67.95 88.0858C67.8477 88.1974 67.7453 88.309 67.6337 88.4207C67.5128 88.5416 67.3919 88.6532 67.271 88.7741C67.2059 88.8392 67.1315 88.9136 67.0664 88.9787C69.8194 88.2439 72.498 87.2209 75.0835 85.9188C79.9384 83.4634 84.3376 80.0129 87.8997 75.8742C87.5463 75.7625 87.2022 75.6602 86.8395 75.5486C86.7651 75.53 86.6907 75.5021 86.6163 75.4835Z" fill="black"/>
<path d="M45.1078 88.4207C45.0055 88.309 44.8939 88.1974 44.7916 88.0858C44.6707 87.9649 44.5498 87.844 44.4382 87.7138C44.3265 87.6022 44.2242 87.4813 44.1219 87.3697C44.0103 87.2302 43.8894 87.1 43.7778 86.9698C43.6755 86.8489 43.5732 86.7186 43.4709 86.5977C43.35 86.4582 43.2384 86.3187 43.1268 86.1792C43.0245 86.049 42.9315 85.9188 42.8291 85.7886C42.7175 85.6491 42.6059 85.5003 42.4943 85.3515C42.392 85.2213 42.299 85.0817 42.1967 84.9515C42.0944 84.7934 41.9828 84.6353 41.8712 84.4772C41.7782 84.347 41.6852 84.1982 41.5922 84.0587C41.4806 83.9006 41.3783 83.7332 41.2666 83.575C41.1736 83.4262 41.0806 83.2867 40.9969 83.1379C40.8853 82.9705 40.783 82.7938 40.6807 82.6264C40.5877 82.4776 40.504 82.3288 40.411 82.1707C40.3087 81.9939 40.2064 81.8172 40.1041 81.6405C40.0204 81.4824 39.9367 81.3243 39.8437 81.1662C39.7506 80.9895 39.6483 80.8035 39.5553 80.6175C39.4623 80.4593 39.3786 80.2919 39.2949 80.1338C39.2019 79.9385 39.1089 79.7432 39.0066 79.5572C38.9322 79.3898 38.8485 79.2224 38.7648 79.055C38.6718 78.8596 38.5788 78.655 38.4858 78.4504C38.4114 78.283 38.3277 78.1156 38.2533 77.9389C38.1603 77.7343 38.0672 77.5204 37.9835 77.3157C37.9091 77.139 37.8254 76.9716 37.7603 76.7949C37.6673 76.5717 37.5836 76.3578 37.4906 76.1346C37.4162 75.9579 37.3511 75.7811 37.2767 75.6044C37.193 75.3812 37.1093 75.1487 37.0163 74.9162C36.9512 74.7395 36.8861 74.5628 36.821 74.3861C36.728 74.1442 36.6443 73.8931 36.5605 73.6513C36.5047 73.4932 36.4489 73.3444 36.4024 73.1863C36.2629 73.2049 36.1234 73.2328 35.9839 73.2514C35.7979 73.2886 35.6026 73.3165 35.4166 73.3537C34.9608 73.4374 34.5051 73.5211 34.0494 73.6048C33.8913 73.642 33.7239 73.6699 33.5658 73.6978C32.9705 73.8187 32.3753 73.9396 31.7893 74.0605C31.6963 74.0884 31.594 74.107 31.501 74.1256C31.0081 74.2372 30.5245 74.3489 30.0408 74.4605C29.8641 74.507 29.6874 74.5442 29.5107 74.5907C29.0829 74.693 28.6643 74.8046 28.2458 74.9069C28.0877 74.9441 27.9389 74.9906 27.7808 75.0278C27.2227 75.1766 26.674 75.3254 26.1346 75.4835C26.0509 75.5114 25.9765 75.53 25.8928 75.5579C25.5393 75.6602 25.1859 75.7625 24.8418 75.8742C28.4132 80.0129 32.8031 83.4634 37.6673 85.9188C40.2529 87.2209 42.9222 88.2439 45.6751 88.9787C45.61 88.9136 45.5449 88.8392 45.4705 88.7741C45.3496 88.6532 45.2287 88.5416 45.1078 88.4207Z" fill="black"/>
<path d="M67.3735 83.6588C67.4758 83.5193 67.5874 83.3798 67.6897 83.231C67.7548 83.138 67.8292 83.0357 67.9036 82.9334C67.9966 82.7939 68.0989 82.6544 68.2012 82.5056C68.2756 82.4033 68.3407 82.301 68.4151 82.1893C68.5081 82.0498 68.6104 81.901 68.7035 81.7429C68.7686 81.6406 68.843 81.529 68.9081 81.4267C69.0104 81.2686 69.1034 81.1105 69.2057 80.9431C69.2615 80.8408 69.3266 80.7385 69.3917 80.6268C69.494 80.4594 69.5963 80.2827 69.6986 80.106C69.7544 80.0037 69.8102 79.9014 69.866 79.8084C69.9776 79.5945 70.0985 79.3806 70.2101 79.1667C70.2474 79.0923 70.2846 79.0271 70.3218 78.9527C70.4706 78.6644 70.6287 78.3761 70.7682 78.0785C70.8054 78.0134 70.8333 77.9483 70.8612 77.8832C70.9821 77.6414 71.0937 77.4088 71.2053 77.167C71.2518 77.0647 71.2983 76.9531 71.3541 76.8415C71.4471 76.6462 71.5308 76.4416 71.6238 76.237C71.6796 76.1161 71.7261 75.9859 71.7819 75.8649C71.8657 75.6696 71.9494 75.4743 72.0331 75.279C72.0796 75.1488 72.1354 75.0186 72.1912 74.8791C72.2656 74.6838 72.3493 74.4885 72.4237 74.2931C72.4795 74.1629 72.526 74.0234 72.5818 73.8839C72.6562 73.6793 72.7306 73.484 72.805 73.2794C72.8515 73.1399 72.9073 73.0097 72.9538 72.8702C72.9724 72.805 73.0003 72.7399 73.0189 72.6748C72.9631 72.6748 72.9073 72.6655 72.8515 72.6562C72.6562 72.6283 72.4702 72.6097 72.2842 72.5818C71.7726 72.5167 71.2704 72.4516 70.7589 72.3958C70.5171 72.3679 70.2753 72.34 70.0241 72.3121C69.5498 72.2563 69.0755 72.2098 68.6011 72.1633C68.3593 72.1447 68.1175 72.1168 67.8757 72.0982C67.3363 72.0424 66.7782 71.9959 66.2295 71.9587C66.0714 71.9401 65.904 71.9308 65.7459 71.9122C65.039 71.8657 64.3229 71.8192 63.6067 71.782C63.43 71.7634 63.244 71.7634 63.0673 71.7541C62.5279 71.7262 61.9791 71.6983 61.4304 71.6797C61.1886 71.6704 60.9375 71.6611 60.6956 71.6518C60.1934 71.6332 59.7005 71.6239 59.2075 71.6053C58.9564 71.6053 58.7053 71.596 58.4635 71.596C58.3147 71.596 58.1659 71.596 58.0264 71.5867V90.2065C58.0729 90.1972 58.1101 90.1972 58.1566 90.1879C58.231 90.1693 58.3054 90.16 58.3798 90.1414C58.51 90.1135 58.6309 90.0856 58.7518 90.0577C58.8262 90.0391 58.9006 90.0205 58.9657 90.0019C59.1052 89.9646 59.2447 89.9274 59.375 89.8809C59.4308 89.8623 59.4959 89.8437 59.5517 89.8251C59.747 89.76 59.933 89.6949 60.1283 89.6205C60.1562 89.6112 60.1841 89.6019 60.2027 89.5833C60.3701 89.5182 60.5375 89.4531 60.7049 89.3787C60.7607 89.3415 60.8258 89.3136 60.891 89.2857C61.0212 89.2206 61.1514 89.1648 61.2723 89.0997C61.3467 89.0625 61.4211 89.016 61.4862 88.9788C61.6071 88.9137 61.728 88.8486 61.8489 88.7742C61.9233 88.737 61.9977 88.6905 62.0628 88.6533C62.193 88.5696 62.3232 88.4952 62.4535 88.4114C62.5093 88.3649 62.5651 88.337 62.6302 88.2905C62.8162 88.1696 63.0022 88.0394 63.1789 87.8999C63.1975 87.8906 63.2161 87.8813 63.2347 87.8627C63.4021 87.7418 63.5695 87.6116 63.7369 87.4814C63.7927 87.4256 63.8578 87.3791 63.9136 87.3233C64.0439 87.221 64.1648 87.1187 64.2857 87.0164C64.3508 86.9606 64.4159 86.8955 64.4903 86.8303C64.6019 86.728 64.7228 86.6257 64.8344 86.5141C64.8995 86.449 64.9646 86.3839 65.039 86.3188C65.1599 86.2072 65.2808 86.0863 65.4017 85.9654C65.4575 85.9003 65.5133 85.8445 65.5692 85.7887C65.7459 85.6027 65.9226 85.4167 66.09 85.2213C66.276 85.0167 66.4527 84.8028 66.6387 84.5889C66.6945 84.5145 66.7503 84.4494 66.8061 84.375C66.927 84.2262 67.0479 84.0774 67.1689 83.9286C67.234 83.8356 67.2991 83.7518 67.3735 83.6588Z" fill="black"/>
<mask id="mask0_503_1884" style="mask-type:luminance" maskUnits="userSpaceOnUse" x="1" y="0" width="111" height="98">
<path d="M1.33008 0H111.217V97.619H1.33008V0Z" fill="white"/>
</mask>
<g mask="url(#mask0_503_1884)">
<path d="M93.4156 74.2281L92.0206 76.051L91.2951 76.9903H91.2765C87.2866 81.9196 82.2177 86.0119 76.5723 88.8672C70.7594 91.8062 64.528 93.3966 58.0269 93.6291V93.6663H54.7159V93.6291C48.2147 93.3966 41.9834 91.8062 36.1705 88.8672C30.525 86.0119 25.4655 81.9196 21.4662 76.9903H21.4476L20.7222 76.051L19.3271 74.2281L19.3829 74.2001C17.2066 71.0379 15.4581 67.6618 14.1653 64.109C15.0767 64.2764 16.0068 64.3694 16.9555 64.3694H17.8111C19.0574 67.4293 20.6664 70.359 22.6474 73.0934C22.7776 73.0562 22.9078 73.0097 23.038 72.9725C23.2334 72.9074 23.4287 72.8516 23.6333 72.7865C24.0146 72.6656 24.3959 72.5539 24.7866 72.433C24.9819 72.3772 25.1772 72.3214 25.3725 72.2656C25.8282 72.1354 26.2839 72.0052 26.749 71.8843C26.8699 71.8471 27.0001 71.8192 27.1303 71.782C27.7162 71.6239 28.3115 71.4751 28.9067 71.3356C29.0741 71.2891 29.2415 71.2519 29.4089 71.2147C29.8554 71.1124 30.3018 71.01 30.7575 70.9077C30.9714 70.8612 31.1947 70.8147 31.4086 70.7682C31.8271 70.6752 32.2456 70.5915 32.6735 70.5078C32.8874 70.4613 33.1106 70.4241 33.3338 70.3776C33.7988 70.2846 34.2732 70.2009 34.7475 70.1172C34.9149 70.0893 35.0916 70.0521 35.2683 70.0242C35.3055 70.0149 35.3427 70.0056 35.3892 69.9963L35.3799 69.987L35.4078 69.9777C35.3613 69.8196 35.3241 69.6522 35.2776 69.4847C35.2311 69.3359 35.1939 69.1871 35.1567 69.029C35.073 68.7221 34.9893 68.3966 34.9149 68.0804C34.887 67.9781 34.8591 67.8757 34.8312 67.7641C34.7289 67.3456 34.6266 66.9178 34.5336 66.49C34.5057 66.3783 34.4871 66.276 34.4592 66.1644C34.3941 65.8389 34.3197 65.5134 34.2546 65.1879C34.2267 65.0298 34.1895 64.8717 34.1616 64.7135C34.143 64.6019 34.115 64.481 34.0964 64.3694H37.4633C37.4819 64.4531 37.5005 64.5461 37.5191 64.6298C37.5656 64.8903 37.6214 65.1507 37.6772 65.4018C37.7144 65.5692 37.7516 65.7273 37.7888 65.8854C37.8446 66.1551 37.9097 66.4249 37.9748 66.6853C38.012 66.8341 38.0399 66.9829 38.0771 67.1317C38.1608 67.4386 38.2352 67.7548 38.3189 68.0618C38.3468 68.1548 38.3654 68.2478 38.3933 68.3408C38.4956 68.7221 38.5979 69.1034 38.7095 69.4754C38.877 69.4568 39.0444 69.4382 39.2118 69.4103C39.4815 69.3731 39.7512 69.3359 40.0209 69.308C40.486 69.2429 40.951 69.1871 41.4253 69.1313C41.6857 69.1034 41.9554 69.0662 42.2159 69.0383C42.7274 68.9825 43.2482 68.9267 43.7598 68.8802C43.983 68.8616 44.1969 68.8337 44.4201 68.8151C45.1456 68.75 45.8896 68.6849 46.6243 68.6291C46.7081 68.6198 46.8011 68.6198 46.8848 68.6105C47.5358 68.564 48.1962 68.5175 48.8565 68.4803C49.1076 68.471 49.3587 68.4617 49.6005 68.4431C50.1028 68.4152 50.6143 68.3966 51.1165 68.378C51.3956 68.3687 51.6839 68.3501 51.9629 68.3408C52.4465 68.3315 52.9302 68.3129 53.4138 68.3036C53.7021 68.2943 53.9811 68.2943 54.2694 68.285C54.4182 68.285 54.5671 68.285 54.7159 68.2757V64.3694H58.0269V68.2757C58.1757 68.285 58.3245 68.285 58.4733 68.285C58.7616 68.2943 59.0406 68.2943 59.329 68.3036C59.8126 68.3129 60.2962 68.3315 60.7799 68.3408C61.0682 68.3501 61.3472 68.3687 61.6262 68.378C62.1377 68.3966 62.64 68.4152 63.1422 68.4431C63.3933 68.4617 63.6351 68.471 63.8863 68.4803C64.5466 68.5175 65.2069 68.564 65.8673 68.6105C65.951 68.6198 66.0347 68.6198 66.1184 68.6291C66.8531 68.6849 67.5972 68.75 68.3319 68.8151C68.5459 68.8337 68.7691 68.8616 68.983 68.8802C69.4945 68.9267 70.0153 68.9825 70.5269 69.0383C70.7966 69.0662 71.057 69.1034 71.3174 69.1313C71.7918 69.1871 72.2568 69.2429 72.7218 69.308C72.9915 69.3359 73.2613 69.3731 73.531 69.4103C73.6984 69.4382 73.8751 69.4568 74.0425 69.4754C74.1448 69.1034 74.2564 68.7221 74.3494 68.3408C74.3773 68.2478 74.4052 68.1455 74.4331 68.0432C74.5075 67.7455 74.5912 67.4386 74.6656 67.1317C74.7028 66.9829 74.7401 66.8248 74.7773 66.676C74.8331 66.4156 74.8982 66.1551 74.954 65.8947C74.9912 65.7273 75.0284 65.5599 75.0656 65.3925C75.1214 65.1414 75.1772 64.8903 75.2237 64.6391C75.2423 64.5461 75.2609 64.4531 75.2795 64.3694H78.6556C78.6277 64.481 78.6091 64.6019 78.5812 64.7135C78.5533 64.8717 78.5161 65.0298 78.4882 65.1879C78.4231 65.5227 78.3487 65.8482 78.2836 66.1737C78.2557 66.276 78.2371 66.3876 78.2092 66.49C78.1162 66.9178 78.0139 67.3456 77.9116 67.7734C77.8837 67.8757 77.8558 67.9688 77.8371 68.0711C77.7534 68.3966 77.6697 68.7128 77.586 69.0383C77.5488 69.1871 77.5116 69.3266 77.4744 69.4754C77.4279 69.6429 77.3814 69.8103 77.3349 69.9777L77.3628 69.987V69.9963C77.4 70.0056 77.4372 70.0149 77.4837 70.0242C77.6511 70.0521 77.8278 70.0893 77.9953 70.1172C78.4696 70.2009 78.9439 70.2846 79.4089 70.3776C79.6322 70.4241 79.8554 70.4613 80.0693 70.5078C80.4971 70.5915 80.9156 70.6845 81.3342 70.7682C81.5574 70.8147 81.7713 70.8612 81.9852 70.9077C82.4502 71.01 82.8967 71.1124 83.3524 71.224C83.5105 71.2612 83.6686 71.2891 83.8267 71.3356C84.4313 71.4751 85.0358 71.6239 85.6217 71.782C85.7427 71.8192 85.8543 71.8471 85.9752 71.875C86.4495 72.0052 86.9145 72.1354 87.3796 72.2656C87.5749 72.3214 87.7609 72.3772 87.9562 72.433C88.3468 72.5539 88.7374 72.6656 89.1188 72.7865C89.3141 72.8516 89.5094 72.9074 89.7047 72.9725C89.8349 73.0097 89.9651 73.0562 90.0953 73.0934C92.0764 70.359 93.6854 67.4293 94.9316 64.3694H95.7873C96.736 64.3694 97.6753 64.2764 98.5775 64.109C97.2847 67.6618 95.5362 71.0379 93.3598 74.2001L93.4156 74.2281ZM19.3271 23.3445L20.7222 21.5216L21.4476 20.5729L21.4662 20.5822C25.4655 15.6436 30.525 11.5513 36.1705 8.69606C41.9834 5.76637 48.2147 4.16667 54.7159 3.93415V3.90625H58.0269V3.93415C64.528 4.16667 70.7594 5.76637 76.5723 8.69606C82.2177 11.5513 87.2866 15.6436 91.2765 20.5822L91.2951 20.5729L92.0206 21.5216L93.4156 23.3445L93.3598 23.3631C95.5362 26.5253 97.2847 29.9107 98.5775 33.4542C97.6753 33.2868 96.736 33.2031 95.7873 33.2031H94.9316C93.6854 30.1339 92.0764 27.2042 90.0953 24.4699C89.9744 24.5164 89.8442 24.5536 89.714 24.5908C89.5094 24.6559 89.3141 24.721 89.1095 24.7861C88.7281 24.8977 88.3468 25.0093 87.9655 25.1302C87.7702 25.186 87.5749 25.2418 87.3703 25.2976C86.9238 25.4278 86.4588 25.558 86.0031 25.6789C85.8729 25.7161 85.7427 25.7533 85.6217 25.7812C85.0265 25.9394 84.4313 26.0882 83.836 26.237C83.6686 26.2742 83.5012 26.3114 83.3431 26.3486C82.8967 26.4509 82.4409 26.5532 81.9945 26.6555C81.7713 26.702 81.5481 26.7485 81.3342 26.795C80.9156 26.888 80.4971 26.9717 80.0786 27.0554C79.8554 27.1019 79.6322 27.1484 79.4089 27.1856C78.9439 27.2786 78.4789 27.3624 78.0046 27.4461C77.8278 27.4833 77.6511 27.5112 77.4744 27.5391C77.4372 27.5484 77.4 27.5577 77.3628 27.567V27.5856H77.3349C77.3814 27.753 77.4279 27.9204 77.4744 28.0878C77.5116 28.2366 77.5488 28.3854 77.586 28.5342C77.6697 28.8504 77.7534 29.176 77.8371 29.4922C77.8651 29.5945 77.8837 29.6968 77.9116 29.7991C78.0139 30.2176 78.1162 30.6455 78.2092 31.0733C78.2371 31.1849 78.2557 31.2872 78.2743 31.3895C78.3487 31.715 78.4231 32.0499 78.4882 32.3754C78.5161 32.5335 78.5533 32.6916 78.5812 32.8497C78.6091 32.9613 78.6277 33.0822 78.6556 33.2031H75.2795C75.2609 33.1101 75.2423 33.0171 75.2237 32.9334C75.1772 32.673 75.1214 32.4219 75.0656 32.1708C75.0284 32.0033 74.9912 31.8359 74.954 31.6685C74.8982 31.4081 74.8331 31.1477 74.7773 30.8873C74.7401 30.7385 74.7028 30.5897 74.6656 30.4315C74.5912 30.1246 74.5075 29.827 74.4331 29.5201C74.4052 29.4178 74.3773 29.3248 74.3494 29.2225C74.2564 28.8411 74.1448 28.4598 74.0425 28.0878C73.8751 28.1064 73.6984 28.125 73.5403 28.1529C73.2613 28.1901 72.9915 28.2273 72.7125 28.2645C72.2568 28.3203 71.7918 28.3761 71.3267 28.4319C71.057 28.4691 70.7873 28.497 70.5176 28.5249C70.0153 28.5807 69.5038 28.6365 69.0016 28.683C68.7691 28.7016 68.5459 28.7295 68.3226 28.7481C67.5879 28.8225 66.8624 28.8783 66.1184 28.9342C66.0254 28.9435 65.9231 28.9528 65.8301 28.9528C65.1883 28.9993 64.5373 29.0458 63.8863 29.083C63.6351 29.0923 63.384 29.1109 63.1329 29.1202C62.6307 29.1481 62.1284 29.1667 61.6355 29.1946C61.3472 29.2039 61.0589 29.2132 60.7799 29.2225C60.2962 29.2318 59.8126 29.2504 59.329 29.2597C59.0499 29.269 58.7616 29.269 58.4826 29.2783C58.3245 29.2783 58.1757 29.2876 58.0269 29.2876V33.2031H54.7159V29.2876C54.5671 29.2876 54.4182 29.2783 54.2694 29.2783C53.9811 29.269 53.7021 29.269 53.4138 29.2597C52.9302 29.2504 52.4465 29.2318 51.9629 29.2225C51.6839 29.2132 51.3956 29.2039 51.1165 29.1946C50.6143 29.1667 50.1121 29.1481 49.6098 29.1202C49.3587 29.1109 49.1076 29.0923 48.8565 29.083C48.2055 29.0458 47.5637 28.9993 46.9127 28.9528C46.8197 28.9528 46.7174 28.9435 46.6243 28.9342C45.8896 28.8783 45.1549 28.8225 44.4201 28.7481C44.1969 28.7295 43.9737 28.7109 43.7505 28.683C43.2389 28.6365 42.7274 28.5807 42.2252 28.5249C41.9555 28.497 41.6857 28.4691 41.416 28.4319C40.951 28.3761 40.486 28.3203 40.0302 28.2645C39.7512 28.2273 39.4815 28.1901 39.2118 28.1529C39.0444 28.125 38.877 28.1064 38.7095 28.0878C38.5979 28.4598 38.4956 28.8411 38.3933 29.2225C38.3654 29.3155 38.3375 29.4085 38.3189 29.5015C38.2352 29.8177 38.1608 30.1246 38.0771 30.4408C38.0399 30.5897 38.012 30.7385 37.9748 30.8873C37.9097 31.1477 37.8446 31.4081 37.7888 31.6685C37.7516 31.8359 37.7144 32.0033 37.6772 32.1708C37.6214 32.4219 37.5749 32.673 37.5191 32.9334C37.5005 33.0171 37.4819 33.1101 37.4633 33.2031H34.0964C34.115 33.0822 34.143 32.9706 34.1616 32.8497C34.1895 32.6916 34.2267 32.5335 34.2546 32.3754C34.3197 32.0499 34.3941 31.7243 34.4685 31.3988C34.4871 31.2872 34.5057 31.1849 34.5336 31.0733C34.6266 30.6455 34.7289 30.2176 34.8312 29.7991C34.8591 29.6968 34.887 29.5945 34.9056 29.4922C34.9893 29.1667 35.073 28.8504 35.1567 28.5342C35.1939 28.3854 35.2311 28.2366 35.2776 28.0878C35.3241 27.9204 35.3613 27.753 35.4078 27.5856H35.3799L35.3892 27.567C35.3427 27.5577 35.3055 27.5484 35.2683 27.5391C35.0916 27.5112 34.9149 27.4833 34.7382 27.4461C34.2639 27.3624 33.7988 27.2786 33.3338 27.1856C33.1106 27.1484 32.8874 27.1019 32.6735 27.0554C32.2456 26.9717 31.8271 26.888 31.4086 26.795C31.1854 26.7485 30.9714 26.702 30.7575 26.6555C30.3018 26.5532 29.8461 26.4509 29.3903 26.3486C29.2322 26.3114 29.0741 26.2742 28.916 26.237C28.3115 26.0882 27.7162 25.9394 27.121 25.7812C27.0001 25.7533 26.8792 25.7161 26.7583 25.6789C26.2932 25.558 25.8282 25.4278 25.3725 25.2976C25.1679 25.2418 24.9726 25.186 24.7773 25.1302C24.3959 25.0093 24.0146 24.8977 23.6333 24.7861C23.438 24.721 23.2334 24.6559 23.0287 24.5908C22.9078 24.5536 22.7776 24.5164 22.6474 24.4699C20.6664 27.2042 19.0574 30.1339 17.8111 33.2031H16.9555C16.0068 33.2031 15.0767 33.2868 14.1653 33.4542C15.4581 29.9107 17.2066 26.5253 19.3829 23.3631L19.3271 23.3445ZM96.1221 61.0212C96.0105 61.0305 95.8989 61.0305 95.7873 61.0305H16.9555C16.8438 61.0305 16.7322 61.0305 16.6206 61.0212C15.3557 60.9933 14.1374 60.7608 12.9934 60.3702C11.2356 59.7749 9.66378 58.7798 8.371 57.5056C6.11096 55.2827 4.70657 52.1949 4.70657 48.7816C4.70657 45.3683 6.11096 42.2805 8.371 40.0577C9.66378 38.7835 11.2356 37.7976 12.9934 37.1931C14.1374 36.8025 15.3557 36.5792 16.6206 36.542C16.7322 36.542 16.8438 36.5327 16.9555 36.5327H95.7873C95.8989 36.5327 96.0105 36.542 96.1221 36.542C97.387 36.5792 98.6054 36.8025 99.7494 37.1931C101.507 37.7976 103.079 38.7835 104.381 40.0577C106.632 42.2805 108.036 45.3683 108.036 48.7816C108.036 52.1949 106.632 55.2827 104.381 57.5056C103.079 58.7798 101.507 59.7749 99.7494 60.3702C98.6054 60.7608 97.387 60.9933 96.1221 61.0212ZM103.2 35.0818C97.2847 14.8065 78.5533 0 56.3714 0C34.1895 0 15.4674 14.8065 9.54287 35.0818C4.67866 37.7232 1.37695 42.8757 1.37695 48.7816C1.37695 54.6968 4.67866 59.84 9.54287 62.4814C15.4674 82.7567 34.1895 97.5632 56.3714 97.5632C78.5533 97.5632 97.2847 82.7567 103.2 62.4814C108.064 59.84 111.366 54.6968 111.366 48.7816C111.366 42.8757 108.064 37.7232 103.2 35.0818Z" fill="black"/>
</g>
<path d="M36.0495 44.6987V44.708C35.8263 45.6009 35.631 46.4101 35.4542 47.1262C35.1194 48.4841 34.859 49.563 34.6544 50.4372C34.3754 51.6277 34.1894 52.4461 34.0685 53.1065H34.0406C33.9568 52.4926 33.7801 51.5905 33.5197 50.4372C33.3058 49.4885 33.0361 48.3818 32.7199 47.1262C32.7013 47.0611 32.6827 46.9867 32.6641 46.9123C32.6641 46.9123 32.6641 46.9123 32.6641 46.903C32.1804 44.9964 31.6038 42.7642 30.9528 40.2996H27.3906C26.6931 43.0246 26.1164 45.2754 25.6328 47.1262C25.3073 48.4097 25.0283 49.5071 24.8051 50.4372C24.5074 51.6184 24.2935 52.5298 24.154 53.2181H24.0982C23.9773 52.5205 23.7913 51.5998 23.5309 50.4372C23.3263 49.4978 23.0751 48.4097 22.7775 47.1262C22.3497 45.2568 21.8289 43.006 21.1964 40.2996H17.0391L18.9829 47.1262L19.9222 50.4372L21.8661 57.2638H25.8374C26.5164 54.9108 27.1953 52.5298 27.7626 50.4372C28.0975 49.2188 28.3858 48.1028 28.609 47.1262C28.7764 46.4287 28.9159 45.8055 28.9996 45.2847H29.0368C29.1298 45.8148 29.26 46.438 29.4182 47.1262C29.6414 48.0935 29.9111 49.2002 30.2273 50.4372C30.7388 52.4182 31.3434 54.7155 31.9851 57.2638H35.9193L36.2727 56.0827L37.9654 50.4372L38.9513 47.1262L40.9974 40.2996H37.1283C36.7191 41.9737 36.3657 43.4339 36.0495 44.6987Z" fill="black"/>
<path d="M63.1789 47.1262C62.844 48.4841 62.5836 49.563 62.379 50.4372C62.1 51.6277 61.914 52.4461 61.7931 53.1065H61.7652C61.6815 52.4926 61.4954 51.5905 61.235 50.4372C61.0211 49.4885 60.7514 48.3818 60.4445 47.1262C59.9515 45.1638 59.347 42.8572 58.6774 40.2996H55.1059C54.9757 40.8297 54.8455 41.3319 54.7153 41.8342C54.1945 43.8803 53.7387 45.6288 53.3574 47.1262C53.0319 48.4097 52.7529 49.5071 52.5204 50.4372C52.232 51.6184 52.0181 52.5298 51.8786 53.2181H51.8228C51.7019 52.5205 51.5066 51.5998 51.2555 50.4372C51.0509 49.4978 50.7998 48.4097 50.5021 47.1262C50.0743 45.2568 49.5442 43.006 48.921 40.2996H44.7637L46.6982 47.1262L47.6376 50.4372L49.5814 57.2638H53.562C53.9527 55.8967 54.3433 54.5295 54.7153 53.2088C54.985 52.2508 55.2454 51.3208 55.4873 50.4372C55.8128 49.2188 56.1011 48.1028 56.3336 47.1262C56.501 46.4287 56.6312 45.8055 56.7242 45.2847H56.7614C56.8544 45.8148 56.9847 46.438 57.1428 47.1262C57.3567 48.0935 57.6357 49.2002 57.9519 50.4372C57.9798 50.5302 57.9984 50.6232 58.0263 50.7162C58.5193 52.6322 59.0959 54.8364 59.7004 57.2638H63.6346L65.6807 50.4372L66.6759 47.1262L68.722 40.2996H64.853C64.1461 43.1641 63.6067 45.3777 63.1789 47.1262Z" fill="black"/>
<path d="M90.904 47.1262C90.5691 48.4841 90.3087 49.563 90.1041 50.4372C89.8158 51.6277 89.6391 52.4461 89.5182 53.1065H89.481C89.4066 52.4926 89.2206 51.5905 88.9601 50.4372C88.7462 49.4885 88.4765 48.3818 88.1603 47.1262C87.6767 45.1638 87.0721 42.8572 86.4025 40.2996H82.8311C82.1335 43.0246 81.5569 45.2754 81.0825 47.1262C80.757 48.4097 80.478 49.5071 80.2455 50.4372C80.1804 50.6976 80.1246 50.9394 80.0688 51.172V51.1813C79.8642 52.009 79.7154 52.6787 79.6037 53.2181H79.5479C79.427 52.5205 79.2317 51.5998 78.9713 50.4372C78.7667 49.4978 78.5249 48.4097 78.2273 47.1262C77.7994 45.2568 77.2693 43.006 76.6462 40.2996H72.4795L74.4233 47.1262L75.3627 50.4372L76.5811 54.7155V54.7248L77.3065 57.2638H81.2779C81.9568 54.9108 82.645 52.5298 83.2124 50.4372C83.5379 49.2188 83.8262 48.1028 84.0587 47.1262C84.2261 46.4287 84.3564 45.8055 84.4494 45.2847H84.4773C84.5703 45.8148 84.7005 46.438 84.8586 47.1262C85.0818 48.0935 85.3608 49.2002 85.677 50.4372C86.1793 52.4182 86.7931 54.7155 87.4255 57.2638H91.3597L93.4058 50.4372L94.401 47.1262L96.4471 40.2996H92.5688C91.8712 43.1641 91.3225 45.3777 90.904 47.1262Z" fill="black"/>
</g>
<defs>
<clipPath id="clip0_503_1884">
<rect width="114.286" height="100" fill="white"/>
</clipPath>
</defs>
</svg>
