<svg width="26" height="25" viewBox="0 0 26 25" fill="none" xmlns="http://www.w3.org/2000/svg">
<g clip-path="url(#clip0_1235_2389)">
<mask id="mask0_1235_2389" style="mask-type:luminance" maskUnits="userSpaceOnUse" x="0" y="0" width="17" height="17">
<path d="M0 0.0377197H16.8699V16.8699H0V0.0377197Z" fill="white"/>
</mask>
<g mask="url(#mask0_1235_2389)">
<path d="M8.39236 16.8056C3.76956 16.8056 0.0078125 13.0446 0.0078125 8.42104C0.0078125 3.79746 3.76877 0.036499 8.39236 0.036499C13.0163 0.036499 16.7769 3.79746 16.7769 8.42104C16.7769 13.0446 13.0155 16.8056 8.39236 16.8056ZM8.39236 1.4156C8.27803 1.4156 8.1633 1.41837 8.04857 1.42393C7.93424 1.42949 7.81992 1.43822 7.70598 1.44934C7.59165 1.46045 7.47812 1.47475 7.36458 1.49142C7.25105 1.50809 7.13831 1.52794 7.02596 1.55017C6.91322 1.5724 6.80167 1.59781 6.69012 1.6256C6.57897 1.65338 6.46861 1.68395 6.35904 1.7173C6.24908 1.75064 6.14031 1.78637 6.03233 1.82488C5.92435 1.86378 5.81757 1.90507 5.71157 1.94874C5.60558 1.9928 5.50078 2.03925 5.39717 2.08807C5.29356 2.1373 5.19114 2.18891 5.0903 2.2429C4.98908 2.29688 4.88943 2.35325 4.79098 2.4124C4.69253 2.47116 4.59567 2.53269 4.5004 2.5962C4.40512 2.65972 4.31144 2.72602 4.21934 2.7943C4.12724 2.86258 4.03673 2.93284 3.9482 3.00588C3.85968 3.07853 3.77274 3.15316 3.68779 3.23018C3.60283 3.30719 3.51986 3.38619 3.43888 3.46757C3.3579 3.54855 3.2789 3.63152 3.20189 3.71647C3.12487 3.80143 3.04984 3.88836 2.9772 3.97689C2.90455 4.06541 2.83389 4.15593 2.76561 4.24802C2.69733 4.34012 2.63143 4.43381 2.56752 4.52908C2.504 4.62436 2.44247 4.72122 2.38372 4.81967C2.32457 4.91772 2.2682 5.01776 2.21421 5.11859C2.16022 5.21982 2.10861 5.32224 2.05978 5.42585C2.01056 5.52946 1.96411 5.63427 1.92045 5.74026C1.87638 5.84625 1.8351 5.95304 1.79659 6.06102C1.75808 6.16899 1.72196 6.27777 1.68861 6.38733C1.65527 6.49729 1.6247 6.60765 1.59691 6.71881C1.56912 6.82996 1.54411 6.94191 1.52148 7.05425C1.49925 7.1666 1.4798 7.27973 1.46273 7.39327C1.44606 7.50641 1.43216 7.62034 1.42065 7.73427C1.40954 7.8486 1.4012 7.96293 1.39564 8.07726C1.38969 8.19199 1.38691 8.30632 1.38691 8.42104C1.38691 8.53577 1.38969 8.6501 1.39564 8.76482C1.4012 8.87915 1.40954 8.99348 1.42065 9.10781C1.43216 9.22174 1.44606 9.33568 1.46273 9.44881C1.4798 9.56235 1.49925 9.67549 1.52148 9.78783C1.54411 9.90018 1.56912 10.0121 1.59691 10.1233C1.6247 10.2344 1.65527 10.3448 1.68861 10.4548C1.72196 10.5643 1.75808 10.6731 1.79659 10.7811C1.8351 10.889 1.87638 10.9958 1.92045 11.1018C1.96411 11.2078 2.01056 11.3126 2.05978 11.4162C2.10861 11.5198 2.16022 11.6223 2.21421 11.7235C2.2682 11.8247 2.32457 11.9244 2.38372 12.0224C2.44247 12.1209 2.504 12.2177 2.56752 12.313C2.63143 12.4083 2.69733 12.502 2.76561 12.5941C2.83389 12.6862 2.90455 12.7767 2.9772 12.8652C3.04984 12.9537 3.12487 13.0407 3.20189 13.1256C3.2789 13.2106 3.3579 13.2935 3.43888 13.3745C3.51986 13.4559 3.60283 13.5349 3.68779 13.6119C3.77274 13.6889 3.85968 13.7636 3.9482 13.8362C4.03673 13.9092 4.12724 13.9795 4.21934 14.0478C4.31144 14.1161 4.40512 14.1824 4.5004 14.2459C4.59567 14.3098 4.69253 14.3709 4.79098 14.4297C4.88943 14.4888 4.98908 14.5452 5.0903 14.5992C5.19114 14.6536 5.29356 14.7048 5.39717 14.754C5.50078 14.8028 5.60558 14.8493 5.71157 14.8933C5.81757 14.937 5.92435 14.9783 6.03233 15.0172C6.14031 15.0557 6.24908 15.0914 6.35904 15.1248C6.46861 15.1581 6.57897 15.1887 6.69012 15.2165C6.80167 15.2443 6.91322 15.2697 7.02596 15.2919C7.13831 15.3141 7.25105 15.334 7.36458 15.3507C7.47812 15.3677 7.59165 15.3816 7.70598 15.3927C7.81992 15.4039 7.93424 15.4126 8.04897 15.4182C8.1633 15.4237 8.27803 15.4265 8.39236 15.4265C8.50708 15.4265 8.62181 15.4237 8.73614 15.4182C8.85086 15.4126 8.96519 15.4039 9.07913 15.3927C9.19345 15.3816 9.30699 15.3677 9.42053 15.3507C9.53366 15.334 9.6468 15.3141 9.75915 15.2919C9.87149 15.2697 9.98344 15.2443 10.0946 15.2165C10.2057 15.1887 10.3165 15.1581 10.4261 15.1248C10.5356 15.0914 10.6448 15.0557 10.7528 15.0172C10.8604 14.9783 10.9675 14.937 11.0735 14.8933C11.1791 14.8493 11.2839 14.8028 11.3879 14.754C11.4916 14.7048 11.5936 14.6536 11.6948 14.5992C11.796 14.5452 11.8957 14.4888 11.9941 14.4297C12.0926 14.3709 12.189 14.3098 12.2847 14.2459C12.38 14.1824 12.4737 14.1161 12.5658 14.0478C12.6579 13.9795 12.748 13.9092 12.8369 13.8362C12.9254 13.7636 13.012 13.6889 13.0969 13.6119C13.1819 13.5349 13.2652 13.4559 13.3462 13.3745C13.4272 13.2935 13.5062 13.2106 13.5832 13.1256C13.6602 13.0407 13.7353 12.9537 13.8079 12.8652C13.8806 12.7767 13.9512 12.6862 14.0195 12.5941C14.0878 12.502 14.1537 12.4083 14.2172 12.313C14.2811 12.2177 14.3422 12.1209 14.4014 12.0224C14.4601 11.9244 14.5169 11.8247 14.5709 11.7235C14.6249 11.6223 14.6765 11.5198 14.7253 11.4162C14.7745 11.3126 14.821 11.2078 14.8647 11.1018C14.9087 10.9958 14.95 10.889 14.9885 10.7811C15.027 10.6731 15.0632 10.5643 15.0965 10.4548C15.1294 10.3448 15.16 10.2344 15.1882 10.1233C15.216 10.0121 15.241 9.90018 15.2632 9.78783C15.2859 9.67549 15.3053 9.56235 15.3224 9.44881C15.339 9.33568 15.3529 9.22174 15.3645 9.10781C15.3756 8.99348 15.3839 8.87915 15.3895 8.76482C15.395 8.6501 15.3982 8.53577 15.3982 8.42104C15.3978 8.30632 15.395 8.19199 15.3891 8.07726C15.3835 7.96293 15.3748 7.8486 15.3637 7.73467C15.3521 7.62074 15.3379 7.50681 15.3212 7.39367C15.3041 7.28013 15.2843 7.16739 15.262 7.05505C15.2394 6.9427 15.2144 6.83075 15.1862 6.7196C15.1584 6.60845 15.1279 6.49809 15.0945 6.38852C15.0612 6.27896 15.025 6.17019 14.9861 6.06221C14.9476 5.95423 14.9063 5.84744 14.8623 5.74185C14.8186 5.63585 14.7718 5.53105 14.7229 5.42744C14.6737 5.32383 14.6221 5.22181 14.5681 5.12058C14.5141 5.01975 14.4578 4.92011 14.3986 4.82166C14.3395 4.72321 14.2783 4.62674 14.2148 4.53147C14.1509 4.43619 14.085 4.3425 14.0167 4.25041C13.9484 4.15831 13.8778 4.06819 13.8051 3.97967C13.7325 3.89075 13.6575 3.8042 13.5804 3.71925C13.5034 3.6343 13.4244 3.55133 13.3434 3.47035C13.2625 3.38936 13.1795 3.31037 13.0945 3.23335C13.0096 3.15634 12.923 3.08171 12.8341 3.00906C12.7456 2.93602 12.6555 2.86575 12.5634 2.79747C12.4713 2.72919 12.3776 2.66329 12.2823 2.59938C12.1871 2.53586 12.0902 2.47433 11.9921 2.41558C11.8937 2.35643 11.794 2.30006 11.6932 2.24607C11.592 2.19208 11.4896 2.14048 11.386 2.09125C11.2823 2.04242 11.1779 1.99598 11.0719 1.95191C10.966 1.90785 10.8592 1.86656 10.7512 1.82805C10.6436 1.78915 10.5348 1.75342 10.4249 1.72008C10.3153 1.68673 10.205 1.65616 10.0938 1.62798C9.98264 1.60019 9.87109 1.57478 9.75835 1.55255C9.64601 1.52993 9.53327 1.51047 9.42013 1.4934C9.30659 1.47673 9.19306 1.46244 9.07873 1.45093C8.9648 1.43981 8.85047 1.43108 8.73614 1.42552C8.62181 1.41957 8.50708 1.41679 8.39236 1.41679V1.4156Z" fill="white"/>
</g>
<path d="M14.4472 17.7119C14.371 17.7119 14.2963 17.7008 14.2233 17.679C14.1503 17.6567 14.0824 17.6246 14.0189 17.5821C13.9553 17.54 13.8994 17.4892 13.8509 17.4305C13.8025 17.3717 13.7636 17.307 13.7342 17.2367C13.7048 17.1661 13.6866 17.093 13.6786 17.0172C13.6711 16.9414 13.6747 16.866 13.6894 16.7913C13.704 16.7163 13.7291 16.6452 13.7648 16.5781C13.8005 16.5107 13.845 16.4499 13.899 16.3959L16.0343 14.2443C16.0688 14.205 16.1073 14.1693 16.1494 14.1375C16.1911 14.1062 16.236 14.0788 16.2836 14.0565C16.3312 14.0339 16.3805 14.0165 16.4317 14.0041C16.4829 13.9914 16.5345 13.9843 16.5873 13.9827C16.6397 13.9807 16.6917 13.9843 16.7437 13.993C16.7957 14.0018 16.8461 14.0161 16.8949 14.0351C16.9442 14.0542 16.9906 14.078 17.0347 14.1066C17.0787 14.1355 17.1196 14.1681 17.157 14.205C17.1943 14.2423 17.2276 14.2824 17.257 14.3265C17.286 14.3702 17.3106 14.4162 17.33 14.465C17.3499 14.5139 17.3646 14.5643 17.3737 14.6159C17.3832 14.6675 17.3872 14.7199 17.386 14.7723C17.3848 14.8251 17.3785 14.8771 17.3666 14.9283C17.3546 14.9795 17.338 15.0291 17.3157 15.0768C17.2939 15.1244 17.2673 15.1697 17.2363 15.2121C17.205 15.2542 17.1701 15.2931 17.1308 15.3285L14.9954 17.4797C14.9232 17.5535 14.8398 17.6107 14.7445 17.6508C14.6496 17.6909 14.5504 17.7115 14.4472 17.7119Z" fill="white"/>
<mask id="mask1_1235_2389" style="mask-type:luminance" maskUnits="userSpaceOnUse" x="16" y="16" width="10" height="9">
<path d="M16.667 16.4634H25.102V24.9623H16.667V16.4634Z" fill="white"/>
</mask>
<g mask="url(#mask1_1235_2389)">
<path d="M23.7136 24.9536C23.5353 24.954 23.3642 24.9195 23.1999 24.8504C23.0355 24.7813 22.891 24.6829 22.7668 24.5554L17.0849 18.7369C17.0241 18.6746 16.9701 18.6071 16.9225 18.5345C16.8753 18.4614 16.8352 18.3848 16.803 18.3038C16.7705 18.2233 16.7466 18.1403 16.7304 18.0545C16.7145 17.9692 16.7069 17.883 16.7081 17.7961C16.7089 17.7092 16.7185 17.623 16.7367 17.5381C16.7546 17.4531 16.7804 17.3705 16.8149 17.2908C16.8491 17.2106 16.8907 17.1347 16.94 17.0633C16.9888 16.9914 17.0448 16.9251 17.1067 16.8644C17.169 16.8037 17.2365 16.7497 17.3092 16.702C17.3822 16.6548 17.4588 16.6147 17.5398 16.5825C17.6204 16.55 17.7034 16.5258 17.7891 16.5099C17.8744 16.494 17.9606 16.4865 18.0475 16.4877C18.1345 16.4885 18.2206 16.498 18.3056 16.5159C18.3905 16.5337 18.4731 16.5599 18.5529 16.5941C18.6331 16.6282 18.7089 16.6699 18.7803 16.7191C18.8522 16.7683 18.9185 16.8239 18.9792 16.8862L24.6608 22.7047C24.7521 22.7976 24.8275 22.902 24.8878 23.0175C24.9478 23.1331 24.9903 23.2549 25.0145 23.3828C25.0387 23.511 25.0438 23.6396 25.0303 23.769C25.0165 23.8988 24.9843 24.0235 24.9339 24.1434C24.8835 24.2636 24.8164 24.3736 24.7334 24.474C24.6504 24.5745 24.5544 24.6606 24.446 24.7325C24.3376 24.8047 24.2209 24.8595 24.0963 24.8972C23.9716 24.9345 23.8442 24.9536 23.7136 24.9536Z" fill="white"/>
</g>
<path d="M8.37871 14.3265C7.29854 14.3265 5.87101 14.0172 4.34305 12.8418C3.00127 11.81 2.38317 10.2233 2.55427 8.25353C2.63684 7.34246 2.85359 6.46475 3.20452 5.61998C3.21563 5.59537 3.22913 5.57195 3.24501 5.55011C3.26049 5.52788 3.27836 5.50764 3.29821 5.48938C3.31805 5.47072 3.33949 5.45444 3.36212 5.44015C3.38514 5.42586 3.40936 5.41395 3.43477 5.40403C3.46017 5.3945 3.48598 5.38775 3.51257 5.38299C3.53957 5.37862 3.56617 5.37664 3.59356 5.37743C3.62055 5.37822 3.64715 5.3818 3.67335 5.38775C3.69995 5.3941 3.72535 5.40244 3.74997 5.41355C3.77497 5.42467 3.7984 5.43817 3.82023 5.45365C3.84246 5.46913 3.86271 5.487 3.88136 5.50645C3.90002 5.5263 3.9167 5.54734 3.93099 5.57036C3.94528 5.59338 3.95758 5.6172 3.96711 5.64261C3.97704 5.66802 3.98418 5.69382 3.98855 5.72042C3.99331 5.74701 3.9953 5.77401 3.9945 5.801C3.99411 5.828 3.99093 5.85499 3.98498 5.88119C3.97902 5.90779 3.97068 5.9332 3.95957 5.95821C3.64596 6.72437 3.45144 7.52031 3.37641 8.34483C3.23548 10.0328 3.73012 11.3237 4.84721 12.184C7.6054 14.3066 9.96344 13.2102 9.98726 13.1987C10.0115 13.186 10.0373 13.176 10.0639 13.1689C10.0901 13.1613 10.1171 13.1566 10.1449 13.1546C10.1723 13.1526 10.1996 13.1534 10.2266 13.157C10.254 13.1606 10.281 13.1665 10.3068 13.1756C10.333 13.1844 10.358 13.1955 10.3819 13.2094C10.4057 13.2233 10.4279 13.2392 10.4485 13.2574C10.4692 13.2757 10.4878 13.2959 10.5041 13.3178C10.5208 13.3396 10.5351 13.363 10.547 13.388C10.5593 13.4126 10.5684 13.4384 10.5752 13.465C10.5823 13.4916 10.5863 13.5186 10.5875 13.5464C10.5891 13.5738 10.5879 13.6012 10.5835 13.6282C10.5796 13.6556 10.5728 13.6822 10.5637 13.708C10.5541 13.7338 10.5422 13.7588 10.5279 13.7822C10.5137 13.8056 10.4974 13.8275 10.4787 13.8477C10.4601 13.868 10.4394 13.8862 10.4172 13.9025C10.395 13.9188 10.3711 13.9323 10.3461 13.9438C10.287 13.974 9.53074 14.3265 8.37871 14.3265Z" fill="white"/>
</g>
<defs>
<clipPath id="clip0_1235_2389">
<rect width="25.2287" height="25" fill="white"/>
</clipPath>
</defs>
</svg>
