<svg width="18" height="18" viewBox="0 0 18 18" fill="none" xmlns="http://www.w3.org/2000/svg">
<path d="M13.1667 15C13.1667 13.5917 11.3012 12.45 9 12.45C6.69881 12.45 4.83333 13.5917 4.83333 15M16.5 12.4503C16.5 11.4047 15.4716 10.506 14 10.1125M1.5 12.4503C1.5 11.4047 2.52841 10.506 4 10.1125M14 6.70069C14.5115 6.23377 14.8333 5.55523 14.8333 4.8C14.8333 3.39167 13.714 2.25 12.3333 2.25C11.693 2.25 11.109 2.49553 10.6667 2.89931M4 6.70069C3.48854 6.23377 3.16667 5.55523 3.16667 4.8C3.16667 3.39167 4.28595 2.25 5.66667 2.25C6.30696 2.25 6.89104 2.49553 7.33333 2.89931M9 9.9C7.61929 9.9 6.5 8.75833 6.5 7.35C6.5 5.94167 7.61929 4.8 9 4.8C10.3807 4.8 11.5 5.94167 11.5 7.35C11.5 8.75833 10.3807 9.9 9 9.9Z" stroke="white" stroke-width="2" stroke-linecap="round" stroke-linejoin="round"/>
</svg>
