<svg width="18" height="18" viewBox="0 0 18 18" fill="none" xmlns="http://www.w3.org/2000/svg">
<path d="M2.8125 3.9375C2.66332 3.9375 2.52024 3.99676 2.41475 4.10225C2.30926 4.20774 2.25 4.35082 2.25 4.5V13.5C2.25 13.6492 2.30926 13.7923 2.41475 13.8977C2.52024 14.0032 2.66332 14.0625 2.8125 14.0625H15.1875C15.3367 14.0625 15.4798 14.0032 15.5852 13.8977C15.6907 13.7923 15.75 13.6492 15.75 13.5V4.5C15.75 4.35082 15.6907 4.20774 15.5852 4.10225C15.4798 3.99676 15.3367 3.9375 15.1875 3.9375H2.8125ZM2.8125 2.8125H15.1875C15.6351 2.8125 16.0643 2.99029 16.3807 3.30676C16.6972 3.62322 16.875 4.05245 16.875 4.5V13.5C16.875 13.9476 16.6972 14.3768 16.3807 14.6932C16.0643 15.0097 15.6351 15.1875 15.1875 15.1875H2.8125C2.36495 15.1875 1.93572 15.0097 1.61926 14.6932C1.30279 14.3768 1.125 13.9476 1.125 13.5V4.5C1.125 4.05245 1.30279 3.62322 1.61926 3.30676C1.93572 2.99029 2.36495 2.8125 2.8125 2.8125Z" fill="white"/>
<path d="M12.375 5.625C12.6734 5.625 12.9595 5.74353 13.1705 5.95451C13.3815 6.16548 13.5 6.45163 13.5 6.75C13.5 7.04837 13.3815 7.33452 13.1705 7.54549C12.9595 7.75647 12.6734 7.875 12.375 7.875C12.0766 7.875 11.7905 7.75647 11.5795 7.54549C11.3685 7.33452 11.25 7.04837 11.25 6.75C11.25 6.45163 11.3685 6.16548 11.5795 5.95451C11.7905 5.74353 12.0766 5.625 12.375 5.625ZM5.0625 7.875H9.5625C9.9375 7.875 10.125 8.0625 10.125 8.4375C10.125 8.8125 9.9375 9 9.5625 9H5.0625C4.6875 9 4.5 8.8125 4.5 8.4375C4.5 8.0625 4.6875 7.875 5.0625 7.875ZM5.0625 10.125H9.5625C9.9375 10.125 10.125 10.3125 10.125 10.6875C10.125 11.0625 9.9375 11.25 9.5625 11.25H5.0625C4.6875 11.25 4.5 11.0625 4.5 10.6875C4.5 10.3125 4.6875 10.125 5.0625 10.125Z" fill="white"/>
</svg>
