<svg width="30" height="30" viewBox="0 0 30 30" fill="none" xmlns="http://www.w3.org/2000/svg">
<path d="M6.69271 22.552C6.49238 22.552 6.30035 22.4725 6.15866 22.3309C6.01706 22.1892 5.9375 21.9972 5.9375 21.7968V8.20308C5.9375 8.00276 6.01706 7.81073 6.15866 7.66904C6.30035 7.52743 6.49238 7.44788 6.69271 7.44788H11.224V22.552H6.69271Z" fill="black" fill-opacity="0.1"/>
<path d="M10.4688 7.4479V22.5521C10.4688 22.9692 10.8069 23.3073 11.224 23.3073C11.641 23.3073 11.9792 22.9692 11.9792 22.5521V7.4479C11.9792 7.03081 11.641 6.69269 11.224 6.69269C10.8069 6.69269 10.4688 7.03081 10.4688 7.4479Z" fill="#1C1C1C"/>
<path fill-rule="evenodd" clip-rule="evenodd" d="M5.18164 8.2031C5.18164 8.2031 5.18164 7.57747 5.62403 7.13508C5.62403 7.13508 6.06642 6.69269 6.69206 6.69269H23.3066C23.3066 6.69269 23.9323 6.69269 24.3747 7.13508C24.3747 7.13508 24.8171 7.57747 24.8171 8.2031V21.7969C24.8171 21.7969 24.8171 22.4225 24.3747 22.8649C24.3747 22.8649 23.9323 23.3073 23.3066 23.3073H6.69206C6.69206 23.3073 6.06642 23.3073 5.62403 22.8649C5.62403 22.8649 5.18164 22.4225 5.18164 21.7969L5.18164 8.2031ZM6.69206 8.2031V21.7969H23.3066V8.2031H6.69206Z" fill="#1C1C1C"/>
<path d="M5.93685 11.2239H8.20247C8.61956 11.2239 8.95768 10.8858 8.95768 10.4687C8.95768 10.0516 8.61956 9.7135 8.20247 9.7135H5.93685C5.51976 9.7135 5.18164 10.0516 5.18164 10.4687C5.18164 10.8858 5.51976 11.2239 5.93685 11.2239Z" fill="#1C1C1C"/>
<path d="M5.93685 14.2448H8.20247C8.61956 14.2448 8.95768 13.9067 8.95768 13.4896C8.95768 13.0725 8.61956 12.7344 8.20247 12.7344H5.93685C5.51976 12.7344 5.18164 13.0725 5.18164 13.4896C5.18164 13.9067 5.51976 14.2448 5.93685 14.2448Z" fill="#1C1C1C"/>
<path d="M5.93685 17.2656H8.20247C8.61956 17.2656 8.95768 16.9275 8.95768 16.5104C8.95768 16.0933 8.61956 15.7552 8.20247 15.7552H5.93685C5.51976 15.7552 5.18164 16.0933 5.18164 16.5104C5.18164 16.9275 5.51976 17.2656 5.93685 17.2656Z" fill="#1C1C1C"/>
</svg>
