<svg width="25" height="25" viewBox="0 0 25 25" fill="none" xmlns="http://www.w3.org/2000/svg">
<g clip-path="url(#clip0_1235_2428)">
<path d="M12.4956 0C5.59499 0 0 5.59499 0 12.4956C0 19.3967 5.59499 24.9917 12.4956 24.9917C19.3967 24.9917 24.9917 19.3971 24.9917 12.4956C24.9917 5.59459 19.3971 0 12.4956 0ZM20.4332 8.93991L11.9256 17.4475C11.9256 17.4475 10.9669 18.5595 9.96927 18.5595C8.97207 18.5595 7.89864 17.3193 7.89864 17.3193L4.49457 13.4527C4.43026 13.3805 4.37349 13.3027 4.32427 13.2189C4.27504 13.1356 4.23455 13.0478 4.20279 12.9565C4.17103 12.8648 4.1488 12.7711 4.13531 12.6751C4.12221 12.5794 4.11824 12.4829 4.12419 12.3861C4.13015 12.2896 4.14523 12.1943 4.16984 12.1006C4.19446 12.007 4.2282 11.9164 4.27067 11.8295C4.31315 11.7426 4.36396 11.6604 4.42272 11.5834C4.48147 11.5064 4.54737 11.4357 4.62001 11.3718C4.69266 11.3079 4.77086 11.2515 4.85463 11.2031C4.93879 11.1546 5.02652 11.1146 5.11822 11.0836C5.20992 11.0522 5.30361 11.0304 5.39968 11.0177C5.49574 11.0054 5.59221 11.0022 5.68907 11.0086C5.78554 11.0153 5.88081 11.0312 5.9741 11.0562C6.06779 11.0816 6.1579 11.1157 6.24444 11.159C6.33138 11.2023 6.41316 11.2535 6.48977 11.3126C6.56639 11.3718 6.63626 11.4381 6.69977 11.5111C6.69977 11.5111 9.53419 15.0081 9.98039 15.0414C10.4266 15.0748 18.3558 6.86253 18.3558 6.86253C18.4241 6.79545 18.4987 6.7355 18.5789 6.6831C18.6587 6.6307 18.7433 6.58624 18.8322 6.55051C18.9211 6.51439 19.0124 6.48739 19.1065 6.46913C19.2006 6.45127 19.2954 6.44253 19.3915 6.44293C19.4872 6.44333 19.5821 6.45325 19.6757 6.47231C19.7698 6.49136 19.8607 6.51915 19.9493 6.55607C20.0378 6.59299 20.122 6.63824 20.2013 6.69144C20.2811 6.74503 20.3546 6.80537 20.4225 6.87325C20.4899 6.94114 20.5507 7.01458 20.6039 7.09437C20.6575 7.17376 20.7023 7.25792 20.7393 7.34605C20.7762 7.43458 20.8044 7.52588 20.8234 7.61957C20.8425 7.71365 20.852 7.80853 20.8528 7.9042C20.8532 7.99987 20.8444 8.09515 20.8262 8.18923C20.8083 8.28331 20.7813 8.37462 20.7452 8.46354C20.7091 8.55207 20.665 8.63662 20.6126 8.71681C20.5602 8.797 20.5003 8.87124 20.4332 8.93991Z" fill="white"/>
</g>
<defs>
<clipPath id="clip0_1235_2428">
<rect width="25" height="25" fill="white"/>
</clipPath>
</defs>
</svg>
