<svg width="23" height="25" viewBox="0 0 23 25" fill="none" xmlns="http://www.w3.org/2000/svg">
<mask id="mask0_1235_2411" style="mask-type:luminance" maskUnits="userSpaceOnUse" x="0" y="0" width="23" height="25">
<path d="M0 0H22.1034V25H0V0Z" fill="white"/>
</mask>
<g mask="url(#mask0_1235_2411)">
<path d="M10.3349 4.32463C11.7072 5.19799 12.6637 6.65346 12.83 8.31662C13.3704 8.5661 13.9942 8.73241 14.6595 8.73241C17.0715 8.73241 19.0259 6.778 19.0259 4.36641C19.0259 1.95442 17.0715 0 14.6595 0C12.2893 0.0417781 10.3349 1.95442 10.3349 4.32463ZM7.46572 13.2234C9.87731 13.2234 11.8317 11.2689 11.8317 8.85735C11.8317 6.44536 9.87731 4.49094 7.46572 4.49094C5.05374 4.49094 3.09932 6.44536 3.09932 8.85735C3.09932 11.2689 5.05374 13.2234 7.46572 13.2234ZM9.29521 13.5146H5.59446C2.51721 13.5146 0.0224609 16.0098 0.0224609 19.0866V23.7025L0.313316 23.7857C3.22425 24.7004 5.80216 24.9916 7.88151 24.9916C11.9567 24.9916 14.3269 23.8274 14.4932 23.7443L14.7844 23.5776H14.8258V19.0866C14.8676 16.0098 12.3725 13.5146 9.29521 13.5146ZM16.4894 9.02367H12.83C12.7883 10.4791 12.1644 11.8097 11.1665 12.7662C13.9111 13.5978 15.9069 16.0929 15.9069 19.0866V20.4589C19.5249 20.3344 21.6038 19.2947 21.7288 19.2529L22.0196 19.0866H22.0614V14.5957C22.0614 11.5188 19.5662 9.02367 16.4894 9.02367Z" fill="white"/>
</g>
</svg>
