<svg width="25" height="25" viewBox="0 0 25 25" fill="none" xmlns="http://www.w3.org/2000/svg">
<g clip-path="url(#clip0_1235_2377)">
<path d="M24.9917 12.4956C24.9917 12.7005 24.9865 12.9045 24.9766 13.109C24.9667 13.3134 24.9516 13.5171 24.9313 13.7207C24.9115 13.9244 24.8865 14.1272 24.8563 14.3293C24.8265 14.5317 24.7916 14.733 24.7515 14.9335C24.7118 15.1343 24.6669 15.3336 24.6173 15.5321C24.5673 15.7306 24.5129 15.9275 24.4538 16.1232C24.3942 16.3189 24.3303 16.513 24.2612 16.7056C24.1922 16.8981 24.1187 17.0887 24.0405 17.2776C23.9623 17.4666 23.8793 17.6536 23.792 17.8385C23.7047 18.0235 23.6126 18.2061 23.5161 18.3864C23.4196 18.5666 23.3188 18.7444 23.214 18.9199C23.1088 19.0954 22.9992 19.2681 22.8857 19.438C22.7722 19.6083 22.6543 19.7754 22.5324 19.9397C22.4109 20.1037 22.2851 20.2649 22.1553 20.4233C22.0255 20.5813 21.8921 20.7361 21.7547 20.8873C21.6174 21.039 21.4764 21.187 21.3315 21.3315C21.187 21.4764 21.039 21.6174 20.8873 21.7547C20.7361 21.8921 20.5813 22.0255 20.4233 22.1553C20.2649 22.2851 20.1037 22.4109 19.9397 22.5324C19.7754 22.6543 19.6083 22.7722 19.438 22.8857C19.2681 22.9992 19.0954 23.1088 18.9199 23.214C18.7444 23.3188 18.5666 23.4196 18.3864 23.5161C18.2061 23.6126 18.0235 23.7047 17.8385 23.792C17.6536 23.8793 17.4666 23.9623 17.2776 24.0405C17.0887 24.1187 16.8981 24.1922 16.7056 24.2612C16.513 24.3299 16.3189 24.3942 16.1232 24.4538C15.9275 24.5129 15.7306 24.5673 15.5321 24.6173C15.3336 24.6669 15.1343 24.7118 14.9335 24.7515C14.733 24.7916 14.5317 24.8265 14.3293 24.8563C14.1272 24.8865 13.9244 24.9115 13.7207 24.9313C13.5171 24.9516 13.3134 24.9667 13.109 24.9766C12.9045 24.9865 12.7005 24.9917 12.4956 24.9917C12.2912 24.9917 12.0871 24.9865 11.8827 24.9766C11.6783 24.9667 11.4746 24.9516 11.271 24.9313C11.0673 24.9115 10.8645 24.8865 10.6624 24.8563C10.4599 24.8265 10.2587 24.7916 10.0582 24.7515C9.85733 24.7118 9.65804 24.6669 9.45956 24.6173C9.26107 24.5673 9.06417 24.5129 8.86846 24.4538C8.67275 24.3942 8.47863 24.3303 8.28609 24.2612C8.09356 24.1922 7.90301 24.1187 7.71405 24.0405C7.52509 23.9623 7.33811 23.8793 7.15312 23.792C6.96813 23.7047 6.78552 23.6126 6.60529 23.5161C6.42507 23.4196 6.24722 23.3188 6.07176 23.214C5.89629 23.1088 5.72361 22.9992 5.5537 22.8857C5.3834 22.7722 5.21627 22.6543 5.05192 22.5324C4.88797 22.4109 4.7268 22.2851 4.56841 22.1553C4.41041 22.0255 4.25559 21.8921 4.10434 21.7547C3.9527 21.6174 3.80462 21.4764 3.66012 21.3315C3.51523 21.187 3.3743 21.039 3.23695 20.8873C3.09959 20.7361 2.96621 20.5813 2.8364 20.4233C2.70659 20.2649 2.58074 20.1037 2.45927 19.9397C2.3374 19.7754 2.2195 19.6083 2.10596 19.438C1.99243 19.2681 1.88286 19.0954 1.77766 18.9199C1.67286 18.7444 1.57203 18.5666 1.47556 18.3864C1.3791 18.2061 1.287 18.0235 1.19966 17.8385C1.11233 17.6536 1.02936 17.4666 0.951156 17.2776C0.872952 17.0887 0.799511 16.8981 0.730437 16.7056C0.661363 16.513 0.59745 16.3189 0.537903 16.1232C0.478754 15.9275 0.424368 15.7306 0.374349 15.5321C0.324727 15.3336 0.279868 15.1343 0.240171 14.9335C0.200076 14.733 0.165142 14.5317 0.135369 14.3293C0.105199 14.1272 0.0801892 13.9244 0.0603404 13.7207C0.0400946 13.5171 0.0250096 13.3134 0.0150852 13.109C0.00516069 12.9045 0 12.7005 0 12.4956C0 12.2912 0.00516069 12.0871 0.0150852 11.8827C0.0250096 11.6783 0.0400946 11.4746 0.0603404 11.271C0.0801892 11.0673 0.105199 10.8645 0.135369 10.6624C0.165142 10.4599 0.200076 10.2587 0.240171 10.0582C0.279868 9.85733 0.324727 9.65804 0.374349 9.45956C0.424368 9.26107 0.478754 9.06417 0.537903 8.86846C0.59745 8.67275 0.661363 8.47863 0.730437 8.28609C0.799511 8.09356 0.872952 7.90301 0.951156 7.71405C1.02936 7.52509 1.11233 7.33811 1.19966 7.15312C1.287 6.96813 1.3791 6.78552 1.47556 6.60529C1.57203 6.42507 1.67286 6.24722 1.77766 6.07176C1.88286 5.89629 1.99243 5.72361 2.10596 5.5537C2.2195 5.3834 2.3374 5.21627 2.45927 5.05192C2.58074 4.88797 2.70659 4.7268 2.8364 4.56841C2.96621 4.41041 3.09959 4.25559 3.23695 4.10434C3.3743 3.9527 3.51523 3.80462 3.66012 3.66012C3.80462 3.51523 3.9527 3.3743 4.10434 3.23695C4.25559 3.09959 4.41041 2.96621 4.56841 2.8364C4.7268 2.70659 4.88797 2.58074 5.05192 2.45927C5.21627 2.3374 5.3834 2.2195 5.5537 2.10596C5.72361 1.99243 5.89629 1.88286 6.07176 1.77766C6.24722 1.67286 6.42507 1.57203 6.60529 1.47556C6.78552 1.3791 6.96813 1.287 7.15312 1.19966C7.33811 1.11233 7.52509 1.02936 7.71405 0.951156C7.90301 0.872952 8.09356 0.799511 8.28609 0.730437C8.47863 0.661363 8.67275 0.59745 8.86846 0.537903C9.06417 0.478754 9.26107 0.424368 9.45956 0.374349C9.65804 0.324727 9.85733 0.279868 10.0582 0.240171C10.2587 0.200076 10.4599 0.165142 10.6624 0.135369C10.8645 0.105199 11.0673 0.0801892 11.271 0.0603404C11.4746 0.0400946 11.6783 0.0250096 11.8827 0.0150852C12.0871 0.00516069 12.2912 0 12.4956 0C12.7005 0 12.9045 0.00516069 13.109 0.0150852C13.3134 0.0250096 13.5171 0.0400946 13.7207 0.0603404C13.9244 0.0801892 14.1272 0.105199 14.3293 0.135369C14.5317 0.165142 14.733 0.200076 14.9335 0.240171C15.1343 0.279868 15.3336 0.324727 15.5321 0.374349C15.7306 0.424368 15.9275 0.478754 16.1232 0.537903C16.3189 0.59745 16.513 0.661363 16.7056 0.730437C16.8981 0.799511 17.0887 0.872952 17.2776 0.951156C17.4666 1.02936 17.6536 1.11233 17.8385 1.19966C18.0235 1.287 18.2061 1.3791 18.3864 1.47556C18.5666 1.57203 18.7444 1.67286 18.9199 1.77766C19.0954 1.88286 19.2681 1.99243 19.438 2.10596C19.6083 2.2195 19.7754 2.3374 19.9397 2.45927C20.1037 2.58074 20.2649 2.70659 20.4233 2.8364C20.5813 2.96621 20.7361 3.09959 20.8873 3.23695C21.039 3.3743 21.187 3.51523 21.3315 3.66012C21.4764 3.80462 21.6174 3.9527 21.7547 4.10434C21.8921 4.25559 22.0255 4.41041 22.1553 4.56841C22.2851 4.7268 22.4109 4.88797 22.5324 5.05192C22.6543 5.21627 22.7722 5.3834 22.8857 5.5537C22.9992 5.72361 23.1088 5.89629 23.214 6.07176C23.3188 6.24722 23.4196 6.42507 23.5161 6.60529C23.6126 6.78552 23.7047 6.96813 23.792 7.15312C23.8793 7.33811 23.9623 7.52509 24.0405 7.71405C24.1187 7.90301 24.1922 8.09356 24.2612 8.28609C24.3299 8.47863 24.3942 8.67275 24.4538 8.86846C24.5129 9.06417 24.5673 9.26107 24.6173 9.45956C24.6669 9.65804 24.7118 9.85733 24.7515 10.0582C24.7916 10.2587 24.8265 10.4599 24.8563 10.6624C24.8865 10.8645 24.9115 11.0673 24.9313 11.271C24.9516 11.4746 24.9667 11.6783 24.9766 11.8827C24.9865 12.0871 24.9917 12.2912 24.9917 12.4956Z" fill="white"/>
<path d="M18.4341 11.483H13.5089V6.55767C13.5089 6.49138 13.5025 6.42548 13.4894 6.36037C13.4767 6.29487 13.4572 6.23175 13.4318 6.17022C13.4064 6.10869 13.3751 6.05033 13.3382 5.99515C13.3012 5.93958 13.2592 5.88837 13.2123 5.84152C13.1651 5.79468 13.1143 5.7526 13.0587 5.71568C13.0035 5.67876 12.9451 5.6474 12.8836 5.622C12.8221 5.59659 12.759 5.57714 12.6935 5.56443C12.6284 5.55133 12.5625 5.54498 12.4958 5.54498C12.4295 5.54498 12.3636 5.55133 12.2985 5.56443C12.233 5.57714 12.1699 5.59659 12.1083 5.622C12.0468 5.6474 11.9884 5.67876 11.9333 5.71568C11.8777 5.7526 11.8269 5.79468 11.7796 5.84152C11.7328 5.88837 11.6907 5.93958 11.6538 5.99515C11.6169 6.05033 11.5855 6.10869 11.5601 6.17022C11.5347 6.23175 11.5152 6.29487 11.5025 6.36037C11.4894 6.42548 11.4831 6.49138 11.4831 6.55767V11.483H6.55779C6.4915 11.483 6.4256 11.4893 6.36049 11.5024C6.29539 11.5155 6.23187 11.5346 6.17074 11.5604C6.10921 11.5858 6.05085 11.6171 5.99567 11.6541C5.94049 11.691 5.88928 11.7331 5.84244 11.7799C5.7952 11.8267 5.75352 11.878 5.7166 11.9335C5.67968 11.9887 5.64832 12.0471 5.62291 12.1086C5.59751 12.1697 5.57845 12.2332 5.56535 12.2983C5.55225 12.3635 5.5459 12.4294 5.5459 12.496C5.5459 12.5623 5.55225 12.6282 5.56535 12.6933C5.57845 12.7584 5.59751 12.822 5.62291 12.8831C5.64832 12.9446 5.67968 13.003 5.7166 13.0582C5.75352 13.1137 5.7952 13.1649 5.84244 13.2118C5.88928 13.2586 5.94049 13.3007 5.99567 13.3376C6.05085 13.3746 6.10921 13.4059 6.17074 13.4313C6.23187 13.4571 6.29539 13.4762 6.36049 13.4893C6.4256 13.5024 6.4915 13.5087 6.55779 13.5087H11.4831V18.434C11.4831 18.5003 11.4894 18.5662 11.5025 18.6313C11.5152 18.6968 11.5347 18.7599 11.5601 18.8215C11.5855 18.883 11.6169 18.9414 11.6538 18.9965C11.6907 19.0521 11.7328 19.1033 11.7796 19.1502C11.8269 19.197 11.8777 19.2391 11.9333 19.276C11.9884 19.3129 12.0468 19.3443 12.1083 19.3697C12.1699 19.3951 12.233 19.4146 12.2985 19.4273C12.3636 19.4404 12.4295 19.4467 12.4958 19.4467C12.5625 19.4467 12.6284 19.4404 12.6935 19.4273C12.759 19.4146 12.8221 19.3951 12.8836 19.3697C12.9451 19.3443 13.0035 19.3129 13.0587 19.276C13.1143 19.2391 13.1651 19.197 13.2123 19.1502C13.2592 19.1033 13.3012 19.0521 13.3382 18.9965C13.3751 18.9414 13.4064 18.883 13.4318 18.8215C13.4572 18.7599 13.4767 18.6968 13.4894 18.6313C13.5025 18.5662 13.5089 18.5003 13.5089 18.434V13.5087H18.4341C18.5004 13.5087 18.5663 13.5024 18.6314 13.4893C18.6965 13.4762 18.7601 13.4571 18.8212 13.4313C18.8827 13.4059 18.9411 13.3746 18.9963 13.3376C19.0514 13.3007 19.1026 13.2586 19.1495 13.2118C19.1967 13.1649 19.2384 13.1137 19.2753 13.0582C19.3123 13.003 19.3436 12.9446 19.369 12.8831C19.3944 12.822 19.4135 12.7584 19.4266 12.6933C19.4397 12.6282 19.446 12.5623 19.446 12.496C19.446 12.4294 19.4397 12.3635 19.4266 12.2983C19.4135 12.2332 19.3944 12.1697 19.369 12.1086C19.3436 12.0471 19.3123 11.9887 19.2753 11.9335C19.2384 11.878 19.1967 11.8267 19.1495 11.7799C19.1026 11.7331 19.0514 11.691 18.9963 11.6541C18.9411 11.6171 18.8827 11.5858 18.8212 11.5604C18.7601 11.5346 18.6965 11.5155 18.6314 11.5024C18.5663 11.4893 18.5004 11.483 18.4341 11.483Z" fill="#FE6601"/>
</g>
<defs>
<clipPath id="clip0_1235_2377">
<rect width="25" height="25" fill="white"/>
</clipPath>
</defs>
</svg>
