<svg width="587" height="161" viewBox="0 0 587 161" fill="none" xmlns="http://www.w3.org/2000/svg">
<mask id="mask0_1570_2524" style="mask-type:luminance" maskUnits="userSpaceOnUse" x="0" y="45" width="107" height="80">
<path d="M0.010376 45.5137H106.042V124.816H0.010376V45.5137Z" fill="white"/>
</mask>
<g mask="url(#mask0_1570_2524)">
<path d="M105.563 94.7481C105.292 92.6752 104.958 90.9929 104.615 89.5189C104.521 89.1543 104.443 88.795 104.349 88.4512C104.26 88.1075 104.167 87.7689 104.078 87.4408C103.984 87.1127 103.891 86.7898 103.797 86.4721C103.708 86.1543 103.604 85.8418 103.505 85.5293C102.516 82.4252 101.255 79.4356 99.7031 76.5814C99.8229 76.7377 99.9375 76.8887 100.052 77.0346C100.167 77.1856 100.276 77.3366 100.385 77.4877C100.609 77.7898 100.833 78.0866 101.047 78.4043C101.266 78.7168 101.495 79.0398 101.714 79.3887C101.932 79.7377 102.172 80.1023 102.401 80.5085C102.854 81.2585 103.583 82.8627 104.141 84.3106C104.672 85.6804 105.057 86.8054 105.323 87.5918C105.594 88.3835 105.745 88.8366 105.802 88.8731C105.828 88.8939 105.828 88.8106 105.802 88.6127C105.781 88.4096 105.719 88.1023 105.625 87.67C105.438 86.8054 105.094 85.4616 104.469 83.5971C104.323 83.1596 104.255 82.8627 104.219 82.6023C104.182 82.3418 104.177 82.1127 104.109 81.8262C104.271 82.1856 104.406 82.5293 104.536 82.8575C104.677 83.1804 104.792 83.4877 104.901 83.7741C105.01 84.0606 105.12 84.3262 105.208 84.5762C105.297 84.821 105.375 85.0502 105.453 85.2533C105.604 85.6596 105.708 85.9773 105.792 86.2012C105.87 86.4252 105.922 86.5502 105.948 86.571C105.984 86.6179 105.917 86.2377 105.688 85.3939C105.573 84.972 105.427 84.4304 105.214 83.7741C105.109 83.446 104.995 83.0866 104.859 82.7012C104.724 82.3106 104.583 81.8887 104.406 81.4408C103.052 77.8002 101.448 74.5241 99.6459 71.5241C97.8438 68.5189 95.8386 65.7846 93.5886 63.2533C92.2292 61.7116 90.7969 60.2793 89.3125 58.9304C87.8281 57.5814 86.2865 56.321 84.6719 55.1491C83.0625 53.9773 81.3854 52.8939 79.6302 51.8887C77.8802 50.8939 76.0573 49.972 74.1459 49.1596C73.7604 48.9981 73.3177 48.8158 72.8281 48.6387C72.3386 48.4616 71.8073 48.2689 71.25 48.0971C70.974 48.0085 70.6875 47.92 70.4063 47.8314C70.1198 47.7481 69.8281 47.6648 69.5417 47.5814C69.3959 47.5398 69.2552 47.4981 69.1094 47.4564C68.9636 47.42 68.8229 47.3835 68.6771 47.3471C68.3906 47.2689 68.1094 47.196 67.8281 47.1231C64.375 46.2637 60.8281 45.7481 57.2552 45.5762C53.6875 45.4096 50.0834 45.5814 46.5104 46.1231C42.9375 46.6648 39.4011 47.571 35.974 48.8366C32.5521 50.1023 29.2396 51.7273 26.1146 53.6908C18.8021 58.2741 12.5938 64.5658 8.10939 71.9148C5.85939 75.5814 4.0521 79.5241 2.71356 83.6075C1.38543 87.696 0.526058 91.9356 0.187516 96.2012C0.0520996 97.8262 -0.0051921 99.4148 0.0156413 100.962C0.0312662 102.503 0.109391 104.003 0.250016 105.451C0.39585 106.894 0.593766 108.29 0.838558 109.628C0.901058 109.962 0.968766 110.295 1.03127 110.618C1.06772 110.785 1.09897 110.946 1.13543 111.107C1.17189 111.269 1.20835 111.43 1.24481 111.587C1.31772 111.91 1.38543 112.222 1.46356 112.535C1.54689 112.847 1.62502 113.154 1.70835 113.456C1.78127 113.759 1.87502 114.061 1.95835 114.352C2.04689 114.649 2.13022 114.941 2.22397 115.227C2.40627 115.8 2.58335 116.357 2.78647 116.899C2.88022 117.17 2.97397 117.436 3.07814 117.696C3.1771 117.956 3.28127 118.217 3.38022 118.467C3.43231 118.597 3.47918 118.722 3.53127 118.847C3.58335 118.972 3.63543 119.092 3.68752 119.217C3.79168 119.462 3.89585 119.701 4.00002 119.936C4.83856 121.826 5.73439 123.43 6.58856 124.759C5.0521 121.462 3.82814 117.951 2.9896 114.368C2.14585 110.779 1.69272 107.118 1.61981 103.545C1.53647 99.1543 2.02606 95.2116 2.9271 91.2585C3.38543 89.2846 3.94272 87.3054 4.64585 85.2741C5.35418 83.2429 6.18231 81.1491 7.21877 78.9668C7.84377 77.6491 8.66148 76.5241 9.3646 75.5398C9.46877 75.3939 9.56773 75.2533 9.66668 75.1283C9.76043 75.0033 9.85418 74.8887 9.94272 74.7793C10.1198 74.5606 10.2865 74.3679 10.4479 74.1856C10.6146 74.0033 10.7761 73.821 10.9479 73.6335C11.1198 73.446 11.2969 73.2377 11.5 73.0033C11.7031 72.7689 11.9219 72.4981 12.1823 72.1804C12.3125 72.0241 12.4479 71.8523 12.599 71.6648C12.7448 71.4773 12.9011 71.2741 13.0781 71.0554C13.25 70.8418 13.4375 70.6075 13.6302 70.3523C13.8334 70.0971 14.0521 69.8262 14.2865 69.5346C14.7552 68.9564 15.2969 68.295 15.9375 67.545C16.4427 67.2481 17.1094 66.7533 18.0261 66.0241C18.9479 65.3002 20.125 64.3314 21.6875 63.1387C21.8646 63.0033 21.8073 63.1335 21.6146 63.3887C21.5156 63.5189 21.3802 63.6804 21.2292 63.8523C21.0781 64.0241 20.9063 64.2168 20.7292 64.3991C19.5938 65.5554 18.4531 66.821 17.4219 68.1127C16.3854 69.4043 15.4636 70.7221 14.7292 71.9408C15.7917 70.4356 16.9531 68.9773 18.1563 67.6075C19.125 66.5033 20.1615 65.3939 21.2292 64.3679C22.2917 63.3366 23.3906 62.3887 24.4479 61.5918C25.8542 60.545 26.7344 60.1127 27.8542 59.5137C27.9948 59.4356 28.1406 59.3575 28.2865 59.2793C28.4375 59.196 28.5938 59.1127 28.7604 59.0293C29.0833 58.847 29.4427 58.6491 29.8438 58.4252C30.0417 58.3106 30.2552 58.1908 30.4792 58.0658C30.7031 57.9408 30.9427 57.8054 31.1979 57.6595C31.4479 57.5137 31.724 57.3679 32.0104 57.2064C32.1511 57.1283 32.2969 57.045 32.4531 56.9616C32.6042 56.8731 32.7656 56.7898 32.9271 56.7012C33.2136 56.6231 33.5209 56.5241 33.8386 56.4356C34.1511 56.347 34.4688 56.2585 34.7709 56.1752C35.3802 56.0241 35.9115 55.9043 36.2031 55.9043C36.3594 55.9096 36.2188 56.045 35.9011 56.2637C35.5834 56.4825 35.0781 56.7689 34.5104 57.0866C34.099 57.3054 33.6459 57.5606 33.1615 57.8262C32.9167 57.9616 32.6719 58.1075 32.4167 58.2481C32.2917 58.321 32.1667 58.3939 32.0365 58.4668C31.9115 58.545 31.7813 58.6179 31.6563 58.696C30.6302 59.3002 29.6042 59.972 28.7448 60.5866C27.3438 61.6023 26.3333 62.4981 25.2188 63.5189C25.4479 63.3314 25.6563 63.1804 25.8333 63.0554C26.0104 62.9252 26.1563 62.8262 26.2813 62.7429C26.5313 62.5814 26.6927 62.5033 26.7917 62.472C26.9896 62.4043 26.9583 62.5345 27 62.6023C27.0417 62.67 27.1563 62.6804 27.6406 62.3835C28.1354 62.1075 28.9896 61.5033 30.6094 60.4877C30.8386 60.347 31.1667 60.1648 31.5365 59.9668C31.9063 59.7846 32.3125 59.5814 32.6927 59.4095C33.0729 59.2429 33.4167 59.0918 33.6615 58.9981C33.9063 58.9043 34.0417 58.8627 34.0052 58.8991C33.5313 59.3523 33.5 59.5293 33.7865 59.472C33.9323 59.4512 34.1615 59.3731 34.4636 59.2533C34.6146 59.196 34.7813 59.1231 34.9636 59.045C35.1511 58.9668 35.3542 58.8835 35.5677 58.7845C35.6771 58.7377 35.7917 58.6908 35.9063 58.6387C36.0208 58.5866 36.1406 58.5398 36.2656 58.4877C36.5156 58.3783 36.7761 58.2689 37.0521 58.1543C37.3229 58.0398 37.6146 57.9252 37.9115 57.8002C38.2136 57.6804 38.5261 57.5658 38.849 57.4408C40.1354 56.9564 41.599 56.4773 43.1198 56.0814C44.5313 55.7116 46.1302 55.3679 47.7813 55.1179C49.4323 54.8679 51.1302 54.7168 52.724 54.6752C54.3125 54.6387 55.7969 54.7116 57.0104 54.8575C58.224 54.9981 59.1667 55.2168 59.7031 55.4408C59.7552 55.4668 59.8334 55.4877 59.9375 55.5137C60.0417 55.545 60.1719 55.5762 60.3177 55.6127C60.4636 55.6439 60.6302 55.6804 60.8125 55.7168C60.9063 55.7377 61 55.7585 61.099 55.7793C61.1927 55.8002 61.2969 55.821 61.3959 55.8418C61.8125 55.9304 62.2656 56.0189 62.7292 56.1231C62.9584 56.1752 63.1927 56.222 63.4219 56.2689C63.6511 56.321 63.875 56.3731 64.099 56.42C65.3073 56.6908 66.3438 56.9564 67.0417 57.1908C67.3906 57.3106 67.6563 57.4043 67.8073 57.4929C67.9636 57.5814 68.0156 57.6543 67.9323 57.7012C67.8386 57.7585 67.974 57.8679 68.2709 58.0033C68.5729 58.1335 69.0261 58.3158 69.5729 58.5085C70.6615 58.9043 72.0886 59.42 73.2865 59.9043C78.6667 62.071 83.6563 65.3106 87.8646 69.3627C92.0781 73.4096 95.5104 78.2585 97.9167 83.5293C98.0886 83.92 98.2865 84.3366 98.4636 84.7689C98.5521 84.9825 98.6459 85.2012 98.7344 85.4148C98.8229 85.6335 98.9115 85.8523 98.9948 86.071C99.3386 86.9304 99.6406 87.7533 99.8802 88.3679C100 88.67 100.099 88.9252 100.182 89.1023C100.266 89.2793 100.339 89.3783 100.38 89.3835C100.427 89.3887 100.453 89.295 100.448 89.0814C100.443 88.8679 100.422 88.5293 100.339 88.0554C100.271 87.6543 100.474 87.9616 100.75 88.5554C100.88 88.8523 101.042 89.2168 101.188 89.5971C101.333 89.9825 101.484 90.3783 101.609 90.7325C102.063 92.0346 102.49 93.5866 102.833 95.1387C103.177 96.6856 103.432 98.2273 103.635 99.4825C103.75 100.134 103.828 100.675 103.911 101.003C103.995 101.326 104.073 101.446 104.141 101.264C104.177 101.17 104.208 101.003 104.234 100.743C104.26 100.488 104.297 100.149 104.302 99.7064C104.307 99.4825 104.313 99.2377 104.313 98.9668C104.318 98.696 104.302 98.3991 104.297 98.071C104.292 97.9096 104.286 97.7429 104.281 97.5658C104.271 97.3887 104.255 97.2064 104.245 97.0137C104.234 96.8262 104.219 96.6283 104.203 96.42C104.193 96.2168 104.167 96.0033 104.151 95.7846C103.948 93.7741 103.995 93.2325 104 92.3991C103.995 92.1908 103.984 91.9668 103.969 91.696C103.958 91.5606 103.943 91.4148 103.922 91.2585C103.901 91.0971 103.88 90.92 103.844 90.7273C103.818 90.5346 103.781 90.3262 103.734 90.0918C103.688 89.8627 103.63 89.6127 103.568 89.3366C103.536 89.196 103.5 89.0502 103.464 88.8991C103.427 88.7533 103.385 88.5971 103.339 88.4304C103.25 88.1075 103.156 87.7481 103.031 87.3679C103.125 87.3314 103.083 86.7585 103.328 87.3471C103.427 87.571 103.516 87.8054 103.604 88.0502C103.698 88.295 103.792 88.545 103.885 88.8002C103.974 89.0658 104.068 89.3314 104.161 89.6127C104.208 89.7533 104.26 89.8939 104.307 90.0398C104.354 90.1856 104.396 90.3366 104.443 90.4877C104.823 91.7012 105.203 93.097 105.563 94.7481Z" fill="#1E5192"/>
</g>
<mask id="mask1_1570_2524" style="mask-type:luminance" maskUnits="userSpaceOnUse" x="9" y="101" width="98" height="53">
<path d="M9.07288 101.295H106.818V153.925H9.07288V101.295Z" fill="white"/>
</mask>
<g mask="url(#mask1_1570_2524)">
<path d="M36.9844 145.373C37.2188 145.477 37.4583 145.587 37.6927 145.691C37.9323 145.795 38.1719 145.894 38.4115 145.998C38.8906 146.201 39.3802 146.378 39.875 146.561C40.1302 146.644 40.3906 146.727 40.651 146.806C40.7865 146.847 40.9167 146.884 41.0469 146.925C41.1771 146.962 41.3125 146.998 41.4427 147.035C41.7083 147.102 41.974 147.175 42.2396 147.243C42.5052 147.306 42.776 147.373 43.0417 147.436C42.7812 147.352 42.5208 147.269 42.2604 147.181C42.0052 147.097 41.7448 147.003 41.4844 146.91C41.3542 146.863 41.2188 146.816 41.0885 146.769C40.9583 146.722 40.8281 146.67 40.6927 146.623C40.4271 146.519 40.1615 146.42 39.8854 146.311C39.5833 146.217 39.2969 146.134 39.0365 146.056C38.7708 145.977 38.526 145.894 38.2917 145.816C37.8229 145.67 37.401 145.519 36.9844 145.373ZM76.4219 147.977C75.0156 148.618 73.6042 149.253 72.1562 149.8C72.4375 149.753 72.6823 149.764 73 149.649C73.2448 149.561 73.4896 149.467 73.7344 149.378C73.8542 149.332 73.9792 149.285 74.1042 149.238C74.2292 149.186 74.3542 149.134 74.4792 149.087C74.7344 148.983 74.9896 148.878 75.2552 148.769C75.5208 148.654 75.7917 148.535 76.0781 148.41C77.2031 147.91 78.4948 147.295 80.0729 146.425C79.9479 146.483 79.8333 146.54 79.7188 146.592C79.599 146.644 79.4896 146.691 79.3802 146.738C79.1667 146.832 78.9688 146.92 78.7812 147.003C78.4115 147.16 78.0885 147.285 77.8073 147.399C77.6667 147.457 77.5365 147.514 77.4115 147.566C77.2865 147.613 77.1719 147.66 77.0573 147.707C76.8281 147.795 76.625 147.884 76.4219 147.977ZM37.6667 145.941C36.6198 145.545 35.8958 145.373 35.0417 145.061C35.1563 145.123 35.2708 145.181 35.3854 145.243C35.5052 145.3 35.6198 145.358 35.7396 145.415C35.974 145.529 36.2083 145.649 36.4427 145.764C36.6771 145.873 36.9167 145.977 37.151 146.082C37.2708 146.134 37.3854 146.186 37.5052 146.233C37.6198 146.285 37.7396 146.326 37.8542 146.373C38.1458 146.477 38.4323 146.587 38.75 146.691C39.0677 146.795 39.4115 146.904 39.8125 147.024C40.6198 147.253 41.6563 147.55 43.1719 147.884C41.5781 147.425 40.4635 147.009 39.6042 146.686C38.75 146.363 38.1719 146.118 37.6667 145.941ZM19.474 132.55C22.6562 135.983 26.349 139.019 30.474 141.498C31.5052 142.113 32.5573 142.707 33.6354 143.253C34.7188 143.795 35.8229 144.306 36.9531 144.779C39.2083 145.717 41.5469 146.503 43.9635 147.102C44.9427 147.358 45.9479 147.545 46.9531 147.722L47.7135 147.837L48.0885 147.899L48.4688 147.946C48.724 147.983 48.9792 148.014 49.2292 148.05C49.4844 148.076 49.7344 148.108 49.9896 148.134C51.2448 148.274 51.8958 148.279 52.25 148.248C52.599 148.217 52.6458 148.149 52.7031 148.082C52.7604 148.019 52.8281 147.951 53.2031 147.915C53.3906 147.899 53.6615 147.889 54.0469 147.889C54.2396 147.889 54.4583 147.884 54.7135 147.889C54.9688 147.889 55.2604 147.894 55.5885 147.889C53.8854 147.821 52.3021 147.639 50.5052 147.436C47.0521 147.029 43.6406 146.243 40.3542 145.082C37.0729 143.915 33.9115 142.389 30.9896 140.514L31.125 140.451L31.4427 140.649L31.7656 140.842L32.4115 141.222C32.849 141.462 33.2813 141.717 33.7292 141.946C34.6094 142.42 35.5156 142.852 36.4323 143.269C38.2656 144.087 40.1563 144.8 42.1094 145.378C44.0573 145.962 46.0625 146.404 48.1094 146.733C49.1354 146.884 50.1667 147.019 51.2188 147.102C51.7396 147.154 52.2656 147.181 52.7917 147.217C53.0573 147.227 53.3229 147.238 53.5885 147.248L53.9844 147.264C54.1198 147.269 54.25 147.269 54.3854 147.269C50.5208 146.925 46.5052 146.196 42.4375 144.904C38.3698 143.613 34.25 141.748 30.2865 139.154C27.526 137.358 24.9688 135.222 22.6667 132.832L22.4479 132.608L22.2396 132.378L21.8177 131.925C21.5365 131.618 21.2656 131.306 20.9896 130.993C20.724 130.675 20.4531 130.363 20.1927 130.04L19.6094 129.311L19.4219 129.066C18.4115 127.748 17.4687 126.384 16.6042 124.972L16.7865 124.894C19.1458 128.67 22.0729 132.092 25.4219 135.014L25.3854 134.832C22.1979 132.014 19.401 128.743 17.099 125.082C14.7917 121.42 12.9792 117.363 11.7917 112.993C12.6979 116.05 13.9062 118.951 15.3698 121.681C16.8385 124.41 18.5625 126.972 20.5104 129.352C22.4635 131.733 24.6406 133.936 27.0417 135.941C29.4375 137.941 32.0521 139.753 34.8958 141.337C35.7813 141.826 36.7031 142.29 37.6562 142.733C38.6094 143.165 39.5938 143.582 40.6042 143.951C42.6302 144.696 44.7552 145.306 46.9323 145.748C48.0208 145.967 49.1146 146.16 50.224 146.29L50.6354 146.347L51.0521 146.389C51.3281 146.42 51.6042 146.457 51.8802 146.477C52.1615 146.498 52.4375 146.519 52.7135 146.545C52.9896 146.571 53.2656 146.576 53.5417 146.597C54.099 146.634 54.651 146.644 55.2031 146.665C55.4792 146.665 55.7552 146.67 56.0312 146.67L56.4427 146.675L56.8542 146.665C57.9479 146.66 59.0365 146.597 60.1042 146.519C60.3906 146.493 60.6719 146.472 60.9531 146.446C61.2292 146.42 61.5052 146.389 61.776 146.363C61.9167 146.347 62.0469 146.332 62.1823 146.316C62.3177 146.3 62.4479 146.285 62.5833 146.264C62.8438 146.233 63.1042 146.201 63.3594 146.165C63.8698 146.087 64.3698 146.024 64.8438 145.941C65.0833 145.899 65.3177 145.863 65.5521 145.821C65.7813 145.779 66.0052 145.738 66.2292 145.696C68.0052 145.368 69.4948 145.014 70.6719 144.738C70.8177 144.707 70.9583 144.675 71.0938 144.644C71.2344 144.613 71.3646 144.582 71.4896 144.55C71.7448 144.493 71.974 144.441 72.1875 144.399C72.6094 144.311 72.9531 144.253 73.2031 144.238C73.7031 144.201 73.849 144.321 73.5781 144.628C73.3958 144.832 73.724 144.941 73.0208 145.425C72.9323 145.488 72.8281 145.55 72.7031 145.628C72.5781 145.696 72.4323 145.774 72.2656 145.858C72.099 145.936 71.9063 146.029 71.6875 146.128C71.474 146.222 71.2292 146.321 70.9531 146.431C69.8594 146.858 68.2865 147.389 66.0104 147.889C65.6146 147.967 65.1875 148.071 64.7448 148.175C64.5208 148.227 64.2917 148.279 64.0573 148.332C63.9375 148.358 63.8229 148.389 63.7031 148.415C63.5833 148.441 63.4688 148.467 63.3438 148.493C63.1042 148.545 62.8646 148.602 62.6198 148.654C62.375 148.707 62.1302 148.753 61.8854 148.8C61.3958 148.904 60.9115 148.983 60.4375 149.056C63.1667 148.821 65.9427 148.3 68.474 147.592C69.7344 147.238 70.9323 146.832 72.0365 146.41C72.3125 146.3 72.5833 146.191 72.849 146.087C73.1094 145.972 73.3646 145.863 73.6146 145.753C73.8698 145.644 74.1094 145.529 74.3438 145.42C74.5781 145.306 74.8125 145.196 75.0312 145.087C76.3698 144.415 77.5885 143.743 78.7396 143.076C79.8854 142.415 80.9583 141.759 81.9896 141.087C83.0156 140.415 83.9948 139.733 84.9531 139.019C85.9167 138.306 86.8438 137.55 87.7708 136.743C87.9896 136.55 88.2031 136.368 88.4115 136.181C88.6198 135.993 88.8229 135.811 89.026 135.628C89.2344 135.446 89.4323 135.264 89.6302 135.076C89.8229 134.894 90.026 134.712 90.2188 134.529C90.9896 133.785 91.7292 133.019 92.4583 132.154C93.5833 130.816 94.4219 129.701 95.0833 128.811C95.7448 127.925 96.224 127.269 96.5885 126.811C96.7708 126.587 96.9167 126.404 97.0417 126.274C97.1667 126.144 97.2656 126.056 97.349 126.009C97.5104 125.915 97.5885 125.983 97.6094 126.165C97.6198 126.243 97.7865 126.102 98.0208 125.821C98.1302 125.681 98.2604 125.509 98.3958 125.311C98.5312 125.113 98.6771 124.899 98.8021 124.67C99.7344 123.029 100.359 121.753 100.865 120.67C100.984 120.399 101.104 120.139 101.219 119.889C101.271 119.764 101.328 119.639 101.38 119.519C101.432 119.394 101.484 119.274 101.536 119.154C101.635 118.92 101.734 118.686 101.833 118.457C101.927 118.227 102.021 117.998 102.115 117.764C102.49 116.847 102.849 115.894 103.276 114.681C103.693 113.467 104.172 111.983 104.661 109.962C104.193 112.498 103.573 114.779 102.854 116.899C102.141 119.019 101.312 120.983 100.401 122.904C100.255 123.212 100.073 123.597 99.8906 124.009C99.7031 124.415 99.5052 124.837 99.3333 125.217C98.9792 125.977 98.7135 126.571 98.7812 126.519C98.9062 126.431 99.099 126.212 99.349 125.889C99.474 125.727 99.6198 125.545 99.7656 125.332C99.9167 125.113 100.078 124.878 100.25 124.618C100.932 123.566 101.755 122.149 102.536 120.498C103.323 118.852 104.078 116.977 104.667 115.071C105.266 113.16 105.719 111.227 106 109.488C106.214 108.181 106.333 106.759 106.443 105.535C106.583 104.066 106.703 102.743 106.76 101.347C106.786 101.79 106.818 102.191 106.844 102.618C106.865 103.045 106.87 103.493 106.865 104.019L106.833 104.884L106.818 105.321L106.74 106.618L106.661 107.488L106.625 107.92L106.578 108.352C106.542 108.644 106.51 108.931 106.479 109.222C106.438 109.509 106.401 109.8 106.359 110.087L106.297 110.524L106.229 110.957C106.177 111.243 106.13 111.535 106.083 111.821C106.026 112.113 105.969 112.399 105.917 112.691C105.885 112.837 105.859 112.983 105.828 113.123L105.734 113.561C105.667 113.847 105.609 114.139 105.536 114.425C105.26 115.582 104.943 116.738 104.573 117.894C102.938 122.988 100.484 127.847 97.3333 132.233C94.1823 136.623 90.3281 140.524 85.9531 143.748C84.1562 145.082 82.2604 146.285 80.3073 147.373C79.3281 147.915 78.3333 148.436 77.3177 148.91C76.8125 149.154 76.3021 149.373 75.7865 149.608C75.5312 149.722 75.2708 149.821 75.0156 149.931C74.7552 150.04 74.4948 150.149 74.2344 150.248C72.1458 151.071 70.0104 151.774 67.8281 152.321C67.5573 152.389 67.2865 152.457 67.0104 152.524L66.1927 152.707L65.7812 152.795L65.3646 152.878L64.5417 153.045C63.4323 153.238 62.3229 153.42 61.2083 153.545C60.0938 153.686 58.974 153.774 57.8542 153.842L57.0104 153.878L56.5885 153.899L56.1667 153.91L55.3281 153.925C55.0469 153.925 54.7656 153.92 54.4844 153.92C53.3594 153.915 52.2396 153.863 51.1146 153.79L50.276 153.722L49.8542 153.686L49.4375 153.639L48.5938 153.55L47.7604 153.441C43.2969 152.842 38.9062 151.644 34.7396 149.92C34.9948 149.998 35.2604 150.076 35.5312 150.16C35.6667 150.201 35.8021 150.248 35.9427 150.29C36.0833 150.332 36.224 150.373 36.3646 150.42C36.651 150.503 36.9427 150.592 37.2396 150.686C37.5365 150.774 37.8385 150.863 38.1406 150.951C39.3594 151.3 40.6354 151.649 41.8906 151.915C42.2031 151.993 42.5052 152.045 42.7917 152.097C43.0781 152.149 43.349 152.201 43.625 152.243C44.1667 152.316 44.6875 152.399 45.2448 152.462C44.7083 152.342 44.0938 152.16 43.5312 152.009C42.9688 151.842 42.4531 151.701 42.125 151.623C40.5313 151.264 39.1875 150.832 37.974 150.373C37.3594 150.149 36.7865 149.899 36.224 149.66C35.6615 149.399 35.1094 149.154 34.5625 148.878C33.4635 148.337 32.3646 147.743 31.1406 147.056C29.9219 146.368 28.5729 145.582 27.0104 144.602C26.7396 144.431 26.5313 144.295 26.3802 144.191C26.2292 144.087 26.1302 144.014 26.0781 143.967C25.974 143.873 26.0417 143.889 26.2135 143.967C26.3906 144.045 26.6615 144.17 26.9635 144.311C27.2604 144.451 27.5833 144.608 27.8646 144.712C28.4167 144.936 28.7604 145.024 28.2812 144.634C28.1615 144.535 27.9896 144.41 27.7552 144.243C27.5313 144.076 27.2396 143.873 26.8854 143.623C26.1771 143.118 25.1979 142.441 23.9323 141.451C24.0521 141.503 24.1198 141.472 24.3073 141.613C25.7396 142.67 26.6719 143.227 27.2552 143.529C27.8385 143.832 28.0781 143.889 28.1875 143.852C28.401 143.79 28.0938 143.399 29.0104 143.889C30.4375 144.639 31.2656 144.988 31.6302 145.128C31.9948 145.259 31.8906 145.17 31.5052 144.941C31.3177 144.821 31.0521 144.67 30.7396 144.488C30.4271 144.311 30.0729 144.092 29.6875 143.863C29.3073 143.639 28.9062 143.378 28.4896 143.123C28.2917 142.988 28.0833 142.852 27.8802 142.717C27.6771 142.587 27.474 142.451 27.2812 142.311C22.3594 138.931 18.0521 134.639 14.6354 129.738C14.4427 128.988 13.0365 126.821 11.7708 124.352C11.1354 123.118 10.526 121.816 10.0521 120.628C9.93229 120.337 9.82812 120.045 9.72396 119.769C9.67708 119.628 9.625 119.493 9.57812 119.358C9.53125 119.227 9.48958 119.097 9.44792 118.967C9.36458 118.717 9.29167 118.477 9.22917 118.253C9.16667 118.035 9.11979 117.826 9.07812 117.644C9.42187 118.556 9.8125 119.457 10.2135 120.352C10.6302 121.243 11.0573 122.128 11.526 122.988C11.9792 123.852 12.474 124.691 12.9687 125.509C13.0937 125.717 13.224 125.915 13.3542 126.118C13.4844 126.316 13.6042 126.519 13.7396 126.712C14.0052 127.102 14.2604 127.493 14.5313 127.868C14.6979 128.097 14.8437 128.306 14.9792 128.488C15.1198 128.665 15.2448 128.821 15.349 128.951C15.5573 129.207 15.6927 129.352 15.7292 129.347C15.7604 129.347 15.6927 129.201 15.4948 128.878C15.2969 128.556 14.9844 128.05 14.5313 127.326C13.474 125.592 12.4896 123.748 11.7917 122.233C13.9167 126.071 16.5313 129.561 19.5313 132.623L19.474 132.55Z" fill="#1E5192"/>
</g>
<path d="M20.1562 127.889C20.8229 128.811 21.5781 129.753 22.4062 130.707C23.2396 131.66 24.1458 132.618 25.1354 133.566C27.1146 135.467 29.4167 137.316 32 138.967C33.2917 139.79 34.651 140.566 36.0677 141.274C37.4844 141.983 38.9635 142.623 40.4844 143.186C42.0052 143.748 43.5677 144.238 45.1615 144.634C46.7552 145.035 48.3698 145.342 50 145.566C52.1719 145.868 54.2969 145.983 56.3802 145.967C58.4688 145.931 60.5208 145.764 62.5521 145.425C64.5885 145.097 66.6042 144.597 68.625 143.936C69.6354 143.608 70.6406 143.222 71.651 142.806C72.6563 142.378 73.6615 141.899 74.6667 141.373C76.1354 140.597 77.1458 139.977 77.8021 139.54C77.9688 139.436 78.1094 139.342 78.2344 139.259C78.3542 139.175 78.4583 139.102 78.5365 139.04C78.7031 138.92 78.7917 138.847 78.8125 138.811C78.8542 138.748 78.6198 138.847 78.1771 139.061C77.9531 139.17 77.6771 139.3 77.349 139.451C77.1927 139.529 77.0156 139.602 76.8281 139.686C76.6458 139.769 76.4479 139.852 76.2448 139.941C75.1667 140.394 74.401 140.649 73.9583 140.748C73.5156 140.847 73.401 140.8 73.6094 140.602C73.8177 140.404 74.349 140.056 75.1823 139.519C76.0156 138.988 77.151 138.259 78.526 137.253C79.9271 136.227 80.5156 135.634 80.6094 135.441C80.6979 135.243 80.2708 135.42 79.5417 135.811C76.5625 137.368 73.1615 138.748 69.5885 139.628C69.5 139.649 69.3958 139.681 69.2812 139.717C69.1667 139.748 69.0365 139.785 68.901 139.821C68.625 139.899 68.3125 140.003 67.974 140.092C67.6406 140.191 67.2969 140.295 66.9479 140.389C66.776 140.441 66.6042 140.488 66.4375 140.535C66.2708 140.576 66.1094 140.623 65.9531 140.665C65.4479 140.806 64.9427 140.92 64.4427 141.04C63.9427 141.139 63.4479 141.248 62.9479 141.332C62.4531 141.425 61.9531 141.488 61.4635 141.566C61.2188 141.592 60.9688 141.623 60.724 141.654C60.4792 141.686 60.2344 141.707 59.9896 141.727C58.0312 141.92 56.0938 141.936 54.1667 141.868C50.1823 141.696 46.125 141.003 42.1615 139.67C38.2031 138.337 34.3385 136.378 30.8125 133.779C34.0156 136.358 37.6406 138.451 41.5052 139.951C45.3646 141.457 49.4583 142.358 53.5938 142.654C56.5833 142.868 59.5469 142.774 62.4583 142.384C65.3698 141.993 68.2344 141.295 71.0312 140.279L71.1042 140.467C68.849 141.425 66.4844 142.196 64.1094 142.743C63.9948 142.774 63.8802 142.8 63.7604 142.826C63.6406 142.852 63.5208 142.878 63.3958 142.904C63.151 142.957 62.901 143.009 62.651 143.061C62.1406 143.149 61.6302 143.248 61.1406 143.321C60.1615 143.483 59.2708 143.592 58.724 143.691C57.6198 143.884 56.4635 144.019 55.276 144.071C54.0833 144.123 52.8594 144.108 51.6094 144.014C49.1146 143.826 46.5417 143.321 43.9792 142.519C42.6823 142.113 41.3021 141.618 40.0469 141.082C38.7917 140.54 37.6615 139.962 36.8281 139.472C35.4531 138.639 34.3958 137.951 33.2656 137.253C32.1354 136.545 30.9375 135.826 29.3594 134.806C29.125 134.66 28.875 134.477 28.599 134.279C28.3229 134.082 28.026 133.847 27.7135 133.597C27.6354 133.535 27.5521 133.472 27.4687 133.404C27.3906 133.337 27.3073 133.269 27.224 133.201C27.0625 133.061 26.8906 132.915 26.7135 132.769C26.5417 132.613 26.3698 132.457 26.1875 132.295C26.0937 132.212 26.0052 132.128 25.9115 132.045C25.8229 131.962 25.7292 131.873 25.6354 131.785C25.4531 131.608 25.2552 131.431 25.0729 131.243C24.8802 131.056 24.6875 130.863 24.4896 130.665C24.2969 130.462 24.1042 130.259 23.901 130.05C23.7031 129.842 23.5104 129.618 23.3073 129.404C22.5104 128.519 21.6979 127.545 20.8958 126.503C22.4792 128.722 24.2187 130.712 26.0677 132.493C27.9167 134.274 29.875 135.837 31.901 137.196C33.9323 138.556 36.0208 139.722 38.1615 140.686C39.2292 141.17 40.3073 141.613 41.401 142.009C42.4896 142.399 43.5885 142.748 44.6927 143.056C44.9167 143.113 45.1354 143.175 45.3542 143.233C45.5729 143.3 45.7917 143.347 46.0104 143.404C46.224 143.462 46.4427 143.524 46.6562 143.576C46.8698 143.628 47.0885 143.681 47.3021 143.733L47.625 143.811C47.7344 143.837 47.8438 143.863 47.9479 143.889C48.1667 143.936 48.3854 143.988 48.6094 144.04C48.8281 144.087 49.0521 144.134 49.2812 144.186C49.5052 144.233 49.7344 144.285 49.9688 144.326C50.2031 144.373 50.4427 144.415 50.6875 144.462C50.9271 144.509 51.1771 144.545 51.4323 144.592C51.6823 144.634 51.9427 144.675 52.2083 144.712C52.4792 144.748 52.75 144.79 53.0312 144.826C54.1562 144.967 55.4062 145.076 56.8281 145.123C52.5 145.295 48.3281 144.837 44.4948 143.884C44.2552 143.832 44.0156 143.764 43.7812 143.701C43.5417 143.634 43.3021 143.576 43.0677 143.509C42.6042 143.368 42.1354 143.238 41.6771 143.087C40.7604 142.8 39.8646 142.467 38.9896 142.128C37.2448 141.436 35.5885 140.665 34.0365 139.811C32.4844 138.957 31.026 138.05 29.6771 137.087C28.3281 136.123 27.0729 135.118 25.9219 134.097C23.6146 132.056 21.7135 129.931 20.1562 127.889Z" fill="#1E5192"/>
<path d="M19.4739 132.55C18.8229 131.743 18.0208 130.769 17.2343 129.727C16.4531 128.675 15.677 127.555 15.0208 126.488C14.6875 125.962 14.3958 125.436 14.1302 124.956C14 124.712 13.8802 124.477 13.7708 124.253C13.7187 124.139 13.6614 124.035 13.6093 123.925C13.5625 123.821 13.5208 123.717 13.4739 123.618C13.125 122.821 12.9739 122.233 13.0625 122.009C13.0677 121.998 13.026 121.894 12.9531 121.727C12.875 121.55 12.7708 121.311 12.6458 121.024C12.5781 120.878 12.5052 120.727 12.4375 120.561C12.3645 120.399 12.2864 120.222 12.2083 120.045C12.1302 119.868 12.0468 119.68 11.9687 119.493C11.8854 119.305 11.8072 119.113 11.7239 118.92C11.0625 117.389 10.4583 115.821 10.2447 115.837C10.2447 115.831 10.2604 115.774 10.2604 115.774C9.91662 115.363 9.89579 115.743 10.1822 116.805C10.4687 117.863 11.0989 119.592 12.177 121.785C14.1093 125.675 16.5885 129.352 19.5208 132.608C19.5312 132.623 19.4739 132.55 19.4739 132.55Z" fill="#1E5192"/>
<path d="M9.15621 100.42C9.15621 100.738 9.15621 101.045 9.151 101.347C9.16142 101.649 9.16663 101.946 9.17183 102.232C9.17704 102.519 9.19267 102.8 9.20309 103.071C9.21871 103.342 9.22913 103.607 9.24475 103.868C9.28642 104.383 9.31246 104.873 9.36454 105.337C9.38538 105.566 9.40621 105.79 9.42704 106.014C9.45309 106.232 9.47913 106.446 9.50517 106.654C9.71871 108.326 9.97392 109.66 10.2604 110.837C10.3489 111.18 10.4323 111.467 10.5208 111.717C10.6093 111.967 10.6979 112.18 10.7812 112.378C10.9479 112.779 11.1302 113.107 11.3177 113.535C11.2135 113.128 11.1041 112.691 11.0104 112.243C10.9635 112.019 10.9114 111.795 10.8645 111.571C10.8229 111.347 10.7812 111.123 10.7395 110.904C10.5677 110.029 10.4375 109.227 10.3281 108.712C10.2968 108.555 10.2604 108.399 10.2291 108.243C10.1979 108.087 10.1666 107.93 10.1354 107.779C10.0781 107.472 10.0104 107.17 9.95829 106.863C9.901 106.561 9.84892 106.253 9.79163 105.946C9.73954 105.633 9.68746 105.321 9.63538 104.998C9.43746 103.706 9.25517 102.269 9.15621 100.42Z" fill="#1E5192"/>
<path d="M8.96879 90.0031C9.25525 88.6906 9.59379 87.3885 9.99483 86.1021C10.3959 84.8208 10.849 83.55 11.3542 82.3C12.3646 79.8 13.599 77.3885 15.0261 75.0864L14.6563 75.451L14.2917 75.826C13.6094 76.9875 12.974 78.1698 12.3959 79.3833C11.8177 80.5916 11.2865 81.826 10.8073 83.076C9.849 85.5812 9.11983 88.1593 8.599 90.7739C8.71358 90.5135 8.84379 90.2583 8.96879 90.0031Z" fill="#1E5192"/>
<path d="M10.2605 115.774C10.2605 115.774 10.2448 115.831 10.2448 115.837C9.67192 113.925 9.23962 112.061 8.88546 110.357C8.53129 108.654 8.25525 107.113 7.98441 105.831C7.97921 105.811 7.97921 105.878 7.97921 105.998C7.974 106.055 7.974 106.128 7.974 106.206C7.97921 106.285 7.98441 106.368 7.98441 106.456C7.99483 106.811 8.01567 107.201 8.03129 107.316C8.51567 110.253 9.26567 113.055 10.2605 115.774Z" fill="#1E5192"/>
<path d="M16.2187 136.128C17.4635 137.462 18.776 138.733 20.151 139.925C21.5208 141.123 22.9583 142.243 24.4479 143.285L24.2448 142.998C21.1719 140.764 18.3385 138.196 15.8125 135.347C15.9479 135.608 16.0833 135.868 16.2187 136.128Z" fill="#1E5192"/>
<path d="M40.7083 145.483C39.1563 144.972 37.6302 144.384 36.1354 143.712C34.6458 143.035 33.1927 142.279 31.7812 141.457L31.75 141.529C33.1615 142.358 34.6198 143.113 36.1094 143.79C37.6042 144.462 39.1354 145.056 40.6927 145.566L40.7083 145.483Z" fill="#1E5192"/>
<path d="M20.8281 70.2687C20.5937 70.55 20.3437 70.8312 20.1042 71.1281C19.8594 71.4302 19.6146 71.7218 19.3854 72.0187C19.1563 72.3208 18.9323 72.6073 18.7344 72.8833C18.5365 73.1593 18.3542 73.4198 18.1979 73.6489C17.8542 74.1906 17.5937 74.6281 17.3802 75.0448C17.2708 75.2531 17.1667 75.4562 17.0625 75.6541C16.9635 75.8625 16.8594 76.0708 16.75 76.2843C17.5313 75.0656 18.5104 73.7635 19.2344 72.7739C20.2187 71.4458 21.026 70.3625 21.9896 69.2271C21.7917 69.3937 21.599 69.5708 21.4062 69.7427C21.2135 69.9198 21.0156 70.0916 20.8281 70.2687Z" fill="#1E5192"/>
<path d="M31.6459 137.863C31.948 138.061 32.2552 138.248 32.5573 138.446C32.8646 138.639 33.1771 138.816 33.4844 139.003C33.75 139.154 34.0209 139.285 34.2917 139.425C33.6667 139.082 33.0521 138.717 32.448 138.342C32.1823 138.175 31.9115 138.029 31.6459 137.863Z" fill="#1E5192"/>
<path d="M17.8594 120.42C17.7084 120.097 17.5677 119.8 17.4271 119.514C17.2969 119.227 17.1719 118.946 17.0469 118.665C16.9375 118.431 16.823 118.181 16.7084 117.941C16.823 118.212 16.9219 118.488 17.0469 118.759C17.1719 119.019 17.2969 119.285 17.4271 119.561C17.5625 119.832 17.7084 120.113 17.8594 120.42Z" fill="#1E5192"/>
<path d="M101.219 106.592C101.167 106.863 101.125 107.139 101.068 107.41C101.01 107.68 100.964 107.956 100.922 108.232C100.818 108.899 100.75 109.576 100.641 110.248C100.703 109.977 100.781 109.706 100.844 109.43C100.906 109.154 100.964 108.878 101.016 108.597C101.068 108.269 101.099 107.936 101.135 107.602C101.172 107.264 101.193 106.925 101.219 106.592Z" fill="#1E5192"/>
<mask id="mask2_1570_2524" style="mask-type:luminance" maskUnits="userSpaceOnUse" x="29" y="9" width="86" height="50">
<path d="M29.3334 9.50317H114.667V58.8365H29.3334V9.50317Z" fill="white"/>
</mask>
<g mask="url(#mask2_1570_2524)">
<mask id="mask3_1570_2524" style="mask-type:luminance" maskUnits="userSpaceOnUse" x="24" y="0" width="95" height="62">
<path d="M34.6406 0.305176L118.016 20.7791L108.016 61.4979L24.6406 41.0239L34.6406 0.305176Z" fill="white"/>
</mask>
<g mask="url(#mask3_1570_2524)">
<mask id="mask4_1570_2524" style="mask-type:luminance" maskUnits="userSpaceOnUse" x="24" y="0" width="95" height="62">
<path d="M34.6406 0.305176L118.016 20.7791L108.016 61.4979L24.6406 41.0239L34.6406 0.305176Z" fill="white"/>
</mask>
<g mask="url(#mask4_1570_2524)">
<path d="M109.547 50.6593C110.104 53.2062 108.802 58.5551 108.802 58.5551C108.646 58.6124 108.5 58.6489 108.354 58.6801L108.375 55.0708C108.375 55.0708 107.589 57.2739 107.328 58.6072C105.62 58.7426 104.896 57.701 104.896 57.701C105.5 53.3728 106.547 51.1176 107.214 50.0343C107.005 49.6749 106.927 49.253 107.026 48.8155C107.177 48.1072 107.76 47.5916 108.438 47.4926L110.229 39.7583L98.8281 41.8833C97.9688 42.0447 97.2188 41.2843 97.3958 40.4249L98.026 37.3468C98.099 36.951 97.9844 36.5499 97.7188 36.2583C84.25 21.727 70.8854 19.3051 62.0625 19.8364C52.4479 20.4145 46.1146 24.4301 45.849 24.602L45.8385 24.6072C45.5573 24.7843 45.375 25.0603 45.2969 25.3728L44.5104 28.7895C44.3073 29.6593 43.3021 30.0395 42.5781 29.5083L30.6771 20.8312C29.8021 20.1905 30.1146 18.8208 31.1771 18.6228L75.4219 10.4666C75.7552 10.4145 76.0885 10.4822 76.3594 10.6801L113.318 37.076C114.203 37.7114 113.896 39.0916 112.823 39.2999L111.307 39.576L109.427 47.6593C110.125 47.9926 110.521 48.7687 110.349 49.5499C110.25 50.0343 109.943 50.4301 109.547 50.6593ZM47.1302 26.6228C47.0625 26.6593 47 26.727 46.9792 26.8155L42.4427 45.2947C42.3854 45.5187 42.5938 45.7166 42.8125 45.6437C46.2344 44.5551 66.9948 39.0603 90.8333 57.5291C91.0052 57.6593 91.2448 57.576 91.2969 57.378L96.0521 38.0135C96.0729 37.9249 96.0521 37.8208 95.9844 37.753C94.4167 35.9405 74.0625 13.2791 47.1302 26.6228Z" fill="#1E5192"/>
</g>
</g>
</g>
<mask id="mask5_1570_2524" style="mask-type:luminance" maskUnits="userSpaceOnUse" x="16" y="117" width="60" height="24">
<path d="M16.6562 117.508H76V140.56H16.6562V117.508Z" fill="white"/>
</mask>
<g mask="url(#mask5_1570_2524)">
<path d="M75.7188 119.634C74.7969 118.774 72.5104 117.951 67.1615 120.92C64.8438 122.363 63.5938 123.29 62.9584 123.805C62.5521 124.134 62.0521 124.326 61.5313 124.363C58.7448 124.555 49.9479 125.404 46.9323 125.342C46.4948 125.337 46.3438 124.743 46.6407 124.509C46.8594 124.337 47.1979 124.253 47.6823 124.102C49.3959 123.566 58.9011 123.613 58.6927 120.055C58.4948 116.644 51.6771 117.904 49.6563 118.337C48.8698 118.503 47.9948 118.634 47.1875 118.732C47.1875 118.732 44.2552 118.857 42.8125 118.514C39.8073 117.727 33.4792 116.451 29.4844 119.691C26.2604 122.3 24.8334 124.019 24.2084 124.956C23.7917 125.592 23.2136 126.102 22.5365 126.451L16.9063 130.42C16.6094 130.628 16.5729 131.05 16.8282 131.305L26.0729 140.55C26.3282 140.805 26.7448 140.774 26.9532 140.488C28.224 138.769 32.7761 133.732 42.2552 134.04C53.6771 134.404 53.75 134.186 56.2552 132.857C58.224 131.821 62.8959 130.144 64.8229 129.472C65.3854 129.274 65.9115 128.977 66.375 128.597L75.6563 120.972C76.0886 120.639 76.1198 120.003 75.7188 119.634Z" fill="#1E5192"/>
</g>
<mask id="mask6_1570_2524" style="mask-type:luminance" maskUnits="userSpaceOnUse" x="57" y="115" width="11" height="4">
<path d="M57.3334 115.602H68V118.836H57.3334V115.602Z" fill="white"/>
</mask>
<g mask="url(#mask6_1570_2524)">
<path d="M58.1459 117.383C58.4375 117.545 58.698 117.737 58.9115 117.956C59.0469 118.086 59.1667 118.232 59.2709 118.383C59.9532 118.06 60.7136 117.716 61.5313 117.362L61.5469 117.357C63.6042 116.586 65.3855 116.175 66.8386 116.128C66.3646 115.878 65.7709 115.732 65.0677 115.685C63.5782 115.602 61.6407 115.998 59.3125 116.867C58.9063 117.039 58.5157 117.211 58.1459 117.383Z" fill="#1E5192"/>
</g>
<path d="M56.9271 123.305C57.474 123.264 57.9948 123.227 58.4844 123.185H58.4896C59.7917 123.086 60.9219 122.998 61.6407 122.951C61.7605 122.946 61.8855 122.92 62 122.878C62.1563 122.826 62.2969 122.748 62.4167 122.649C63.0677 122.128 64.323 121.206 66.5886 119.8L66.6146 119.784L66.6355 119.774C67.2865 119.415 67.9167 119.097 68.5209 118.831C69.1094 118.576 69.6771 118.368 70.2084 118.217C70.2813 118.191 70.3542 118.17 70.4271 118.154C70.3438 118.081 70.25 118.008 70.1563 117.946C69.6146 117.592 68.8907 117.394 68.0052 117.368C66.5886 117.321 64.7813 117.696 62.6355 118.487C61.6563 118.904 60.7761 119.305 60.0105 119.675C60.0157 119.706 60.0157 119.743 60.0157 119.774C60.1198 121.347 59.0782 122.534 56.9271 123.305Z" fill="#1E5192"/>
<mask id="mask7_1570_2524" style="mask-type:luminance" maskUnits="userSpaceOnUse" x="31" y="90" width="45" height="24">
<path d="M31.5521 90.8364H75.474V113.847H31.5521V90.8364Z" fill="white"/>
</mask>
<g mask="url(#mask7_1570_2524)">
<path d="M75.3074 109.253V92.0811C75.073 92.305 74.823 92.5238 74.5626 92.7217C74.3282 92.904 74.0782 93.0758 73.823 93.2321C72.974 93.7477 72.0365 94.0967 71.0522 94.2529C69.724 94.4561 68.3542 94.3779 67.0105 94.3779H57.5261C57.4949 94.3779 57.4584 94.3779 57.422 94.3727V94.9873C57.422 95.0602 57.4272 95.1279 57.422 95.2008C57.4063 95.6019 57.1095 95.8988 56.7084 95.9196C56.0001 95.9561 55.2813 95.9196 54.5678 95.9196H51.1147C50.8126 95.9196 50.5105 95.9248 50.2084 95.9196C49.7553 95.9092 49.4428 95.6071 49.4428 95.154C49.4376 94.8936 49.4376 94.6331 49.4376 94.3779C49.4063 94.3831 49.3699 94.3831 49.3386 94.3831C49.323 94.3831 49.297 94.3831 49.2761 94.3831C47.9324 94.3988 46.5782 94.3831 45.2345 94.3831H39.2188C37.7345 94.3831 36.2136 94.4769 34.7813 94.0133C34.1824 93.8206 33.5938 93.5602 33.047 93.2373C32.7917 93.0863 32.5417 92.9196 32.3022 92.7425C32.0417 92.5446 31.797 92.3311 31.5626 92.1019V110.826C31.5626 110.961 31.5574 111.102 31.5678 111.237C31.6667 112.545 32.7292 113.555 34.0417 113.576C34.3647 113.581 34.6824 113.576 35.0001 113.576H71.4845C71.9115 113.576 72.3438 113.576 72.7657 113.576C74.2136 113.571 75.3022 112.435 75.3074 111.003C75.3074 110.409 75.3074 109.836 75.3074 109.253Z" fill="#1E5192"/>
</g>
<mask id="mask8_1570_2524" style="mask-type:luminance" maskUnits="userSpaceOnUse" x="31" y="73" width="45" height="20">
<path d="M31.5521 73.9146H75.474V92.1698H31.5521V73.9146Z" fill="white"/>
</mask>
<g mask="url(#mask8_1570_2524)">
<path d="M75.2969 84.425V82.7219C75.2031 81.425 74.1458 80.4042 72.8281 80.3833C72.7396 80.3833 72.6562 80.3833 72.5625 80.3833H61.9531V76.6854C61.9531 75.9354 61.7396 75.2219 61.1979 74.675C60.6875 74.1594 60 73.925 59.2812 73.9198C58.6302 73.9198 57.9896 73.9198 57.3385 73.9198H47.8594C47.7396 73.9198 47.6146 73.9146 47.4948 73.9198C46.0729 73.951 44.9531 75.0708 44.9219 76.4927C44.8906 77.7844 44.9063 79.0865 44.9167 80.3833H34.5729C34.4167 80.3833 34.2708 80.3833 34.1146 80.3833C33.4531 80.3833 32.8333 80.6125 32.3438 81.0656C31.8698 81.5135 31.6146 82.1229 31.5781 82.7583V85.1594C31.5781 85.5083 31.5781 85.8469 31.5781 86.1958C31.5781 86.3417 31.5781 86.4875 31.5885 86.6333C31.5937 86.7375 31.599 86.8365 31.6094 86.9406C31.6094 86.9563 31.6146 86.9719 31.6146 86.9875C31.6406 87.1281 31.6615 87.274 31.6927 87.4146C31.7656 87.7583 31.875 88.1021 32 88.4302C32 88.4354 32 88.4354 32 88.4406C32 88.4458 32 88.4458 32.0052 88.451C32.0104 88.4615 32.0104 88.4667 32.0156 88.4771C32.0469 88.5448 32.0833 88.6125 32.1146 88.6854C32.1823 88.8156 32.2448 88.9354 32.3125 89.0604C32.3229 89.0813 32.3333 89.1021 32.349 89.1125C32.4427 89.274 32.5417 89.4302 32.651 89.5813C32.6979 89.6438 32.7448 89.701 32.7865 89.7635C32.7813 89.7531 32.776 89.7427 32.7708 89.7323C32.7813 89.7479 32.7865 89.7583 32.7969 89.7688C32.8802 89.8729 32.9687 89.9771 33.0625 90.076C33.2031 90.2271 33.3594 90.3781 33.5156 90.5188C33.5833 90.5813 33.6458 90.6333 33.7135 90.6906C33.724 90.701 33.7396 90.7063 33.7552 90.7167C33.8385 90.774 33.875 90.7948 33.8802 90.8C33.875 90.8 33.849 90.7792 33.8125 90.7583C33.9167 90.826 34.0156 90.9042 34.1198 90.9771C34.3958 91.1542 34.6875 91.3104 34.9844 91.451C35.2708 91.5396 35.1146 91.5031 35.0208 91.4719C35.0313 91.4771 35.0365 91.4771 35.0469 91.4823C35.1302 91.5083 35.2083 91.5448 35.2917 91.5708C35.4531 91.6229 35.6094 91.675 35.7708 91.7167C35.9427 91.7635 36.1146 91.8052 36.2917 91.8365C36.3542 91.8469 36.4115 91.8573 36.474 91.8677C36.5052 91.8729 36.5417 91.8729 36.5729 91.8781C37.0104 91.9146 37.4583 91.9042 37.8958 91.9042H49.3542C49.3906 91.9042 49.4271 91.9042 49.4583 91.9094V90.7167C49.4583 90.3729 49.4115 90.0031 49.6927 89.7427C49.9375 89.5188 50.25 89.5552 50.5521 89.5552H56.5417C56.6042 89.5552 56.6667 89.5552 56.724 89.5552C57.1146 89.576 57.3854 89.8417 57.4323 90.2115C57.4375 90.2323 57.4375 90.2531 57.4375 90.274C57.4375 90.2844 57.4375 90.2948 57.4375 90.3052V91.9146C57.474 91.9094 57.5104 91.9094 57.5417 91.9094H57.6094C58.9167 91.8885 60.2292 91.9094 61.5365 91.9094H69.6927C69.9063 91.9094 70.1146 91.9042 70.3281 91.8833C70.3698 91.8781 70.4115 91.8729 70.4531 91.8677C70.5 91.8573 70.5573 91.8521 70.6042 91.8417C70.776 91.8052 70.9583 91.774 71.1302 91.7219C71.3021 91.6802 71.4688 91.6229 71.6406 91.5656C71.7188 91.5344 71.7917 91.5031 71.8698 91.4771C72.1771 91.3313 72.4688 91.1802 72.7552 90.9979C72.849 90.9354 72.9375 90.8781 73.026 90.8104C73.0521 90.7948 73.1302 90.7323 73.1615 90.7063H73.1667C73.1719 90.701 73.1823 90.6958 73.1823 90.6906C73.2552 90.6333 73.3177 90.576 73.3802 90.5188C73.5417 90.3833 73.6875 90.2323 73.8385 90.076C73.9323 89.9771 74.0208 89.8781 74.1042 89.7688C74.1094 89.7583 74.1198 89.7531 74.125 89.7427C74.1615 89.6802 74.2188 89.6125 74.2604 89.5552C74.3594 89.4198 74.4479 89.2844 74.526 89.1438C74.5417 89.1125 74.5573 89.0865 74.5729 89.0604C74.651 88.925 74.724 88.7948 74.7865 88.6542C74.8177 88.5917 74.8542 88.5188 74.8802 88.4563C75.0052 88.1281 75.1146 87.8 75.1875 87.451C75.2135 87.3417 75.2344 87.2271 75.2552 87.1177V87.1125C75.2552 87.1073 75.2552 87.1021 75.2552 87.0969C75.2552 87.0917 75.2552 87.0865 75.2552 87.0813C75.2604 87.0292 75.2708 86.9667 75.276 86.925C75.2865 86.8365 75.2917 86.7427 75.2969 86.6542C75.3021 86.5135 75.3073 86.3677 75.3125 86.2219V85.2427C75.3021 84.951 75.2969 84.6906 75.2969 84.425ZM59.4948 76.5135C59.4948 76.5188 59.4948 76.524 59.5 76.524V76.5292C59.5052 76.5552 59.5052 76.5656 59.5 76.5448C59.4948 76.55 59.4844 76.5396 59.4792 76.5292C59.5052 77.8156 59.4948 79.1021 59.4844 80.3885H47.3906V76.7896C47.3906 76.7063 47.3906 76.6177 47.3906 76.5344C47.375 76.5552 47.3646 76.5552 47.3594 76.5552C47.349 76.5656 47.349 76.5396 47.3542 76.5031C47.3333 76.5344 47.3177 76.5396 47.3542 76.4927C47.3542 76.4719 47.3594 76.4563 47.3646 76.4406C47.3646 76.4406 47.3646 76.4406 47.3594 76.4406C47.3594 76.4406 47.3594 76.4406 47.3646 76.4406C47.3698 76.4302 47.3698 76.4146 47.375 76.4042C47.3438 76.4042 47.349 76.3938 47.3802 76.3885C47.3854 76.3625 47.3958 76.3521 47.3958 76.3833C47.4063 76.3833 47.4167 76.3781 47.4323 76.3781C47.4323 76.3729 47.4323 76.3729 47.4323 76.3677V76.3729C47.4479 76.3677 47.4635 76.3677 47.4844 76.3625C47.5052 76.3469 47.5156 76.3417 47.5208 76.3365C47.5156 76.3417 47.5052 76.3521 47.4896 76.3625C47.5312 76.3573 47.5573 76.3573 47.5469 76.3677C47.5469 76.3729 47.5469 76.3833 47.526 76.399C47.5625 76.399 47.6042 76.399 47.6458 76.399H58.9323C59.0833 76.399 59.224 76.3938 59.375 76.399C59.3646 76.3938 59.3594 76.3938 59.3542 76.3885C59.3177 76.3677 59.3281 76.3625 59.3542 76.3573C59.3385 76.3521 59.3438 76.3521 59.3594 76.3573C59.3646 76.3573 59.375 76.3573 59.3802 76.3573C59.3594 76.3469 59.349 76.3365 59.3438 76.3313C59.3438 76.3313 59.3594 76.3417 59.3854 76.3573C59.4063 76.3573 59.4219 76.3625 59.4427 76.3625C59.4531 76.3625 59.4583 76.3677 59.4688 76.3677C59.4688 76.3573 59.4688 76.3521 59.474 76.3521C59.474 76.3521 59.4792 76.3573 59.4792 76.3677C59.5208 76.3781 59.5417 76.3885 59.4792 76.3938C59.4792 76.4042 59.4792 76.4094 59.4792 76.4198C59.4948 76.425 59.5052 76.4302 59.5052 76.4302C59.5052 76.4302 59.4896 76.4302 59.4792 76.425V76.4302C59.4844 76.4354 59.4948 76.4406 59.5052 76.451C59.5 76.451 59.4948 76.4458 59.4844 76.4406C59.4844 76.451 59.4896 76.4563 59.4896 76.4615C59.5052 76.4823 59.5208 76.5031 59.5365 76.5135C59.5208 76.5031 59.5052 76.4875 59.4948 76.4771C59.4948 76.4979 59.4948 76.5031 59.4948 76.5135Z" fill="#1E5192"/>
</g>
<path d="M131.207 90.8883V88.0342H140.999V90.8883L138.478 91.3883V108.368L140.999 108.847V111.701H131.207V108.847L133.749 108.368V91.3883L131.207 90.8883Z" fill="#1E5192"/>
<path d="M142.671 108.847L144.941 108.368V97.4508L142.421 96.9717V94.1175H149.358L149.566 96.6383C150.15 95.7373 150.869 95.0342 151.733 94.5342C152.593 94.0342 153.551 93.7842 154.608 93.7842C156.384 93.7842 157.775 94.3467 158.775 95.4717C159.775 96.5863 160.275 98.3363 160.275 100.722V108.368L162.546 108.847V111.701H153.483V108.847L155.504 108.368V100.722C155.504 99.5446 155.259 98.7113 154.775 98.2217C154.301 97.7217 153.587 97.4717 152.629 97.4717C152.004 97.4717 151.441 97.6071 150.941 97.8675C150.441 98.1175 150.025 98.4717 149.691 98.93V108.368L151.608 108.847V111.701H142.671V108.847Z" fill="#1E5192"/>
<path d="M175.488 109.555C174.946 110.378 174.29 110.993 173.529 111.409C172.779 111.826 171.925 112.034 170.967 112.034C168.8 112.034 167.113 111.253 165.904 109.68C164.706 108.097 164.113 106.003 164.113 103.388V103.055C164.113 100.279 164.706 98.0446 165.904 96.3467C167.113 94.6383 168.805 93.7842 170.988 93.7842C171.873 93.7842 172.665 93.9821 173.363 94.3675C174.071 94.7581 174.686 95.2998 175.217 95.9925V89.7008L172.675 89.2008V86.3467H179.967V108.368L182.238 108.847V111.701H175.863L175.488 109.555ZM168.863 103.388C168.863 104.93 169.118 106.149 169.634 107.034C170.144 107.909 170.993 108.347 172.175 108.347C172.852 108.347 173.451 108.211 173.967 107.93C174.477 107.654 174.894 107.243 175.217 106.701V99.2425C174.894 98.6904 174.477 98.2581 173.967 97.9508C173.467 97.6331 172.873 97.4717 172.196 97.4717C171.04 97.4717 170.196 97.9925 169.654 99.0342C169.123 100.065 168.863 101.404 168.863 103.055V103.388Z" fill="#1E5192"/>
<path d="M196.062 109.472C195.489 110.295 194.791 110.925 193.958 111.368C193.135 111.81 192.192 112.034 191.124 112.034C189.275 112.034 187.822 111.446 186.77 110.264C185.728 109.086 185.208 107.237 185.208 104.722V97.451L183.27 96.9718V94.1177H189.937V104.764C189.937 106.045 190.15 106.961 190.583 107.514C191.01 108.071 191.65 108.347 192.499 108.347C193.249 108.347 193.895 108.232 194.437 107.993C194.989 107.743 195.442 107.389 195.791 106.93V97.451L193.708 96.9718V94.1177H200.52V108.368L202.666 108.847V111.701H196.374L196.062 109.472Z" fill="#1E5192"/>
<path d="M218.875 100.159H215.688L215.188 97.9715C214.865 97.7111 214.459 97.4924 213.959 97.3257C213.469 97.1486 212.927 97.0549 212.334 97.0549C211.5 97.0549 210.834 97.2424 210.334 97.6174C209.844 97.9924 209.605 98.4611 209.605 99.0132C209.605 99.5549 209.834 100.003 210.292 100.347C210.761 100.695 211.698 101.008 213.105 101.284C215.282 101.716 216.896 102.357 217.938 103.201C218.99 104.034 219.521 105.19 219.521 106.659C219.521 108.242 218.839 109.534 217.48 110.534C216.131 111.534 214.344 112.034 212.125 112.034C210.761 112.034 209.511 111.836 208.375 111.451C207.25 111.05 206.25 110.482 205.375 109.742L205.313 105.805H208.646L209.292 108.097C209.568 108.336 209.948 108.508 210.438 108.617C210.922 108.732 211.438 108.784 211.98 108.784C212.938 108.784 213.667 108.612 214.167 108.263C214.677 107.919 214.938 107.445 214.938 106.847C214.938 106.336 214.677 105.888 214.167 105.513C213.651 105.128 212.714 104.784 211.355 104.492C209.282 104.076 207.719 103.461 206.667 102.638C205.61 101.805 205.084 100.675 205.084 99.2424C205.084 97.758 205.688 96.4871 206.896 95.4299C208.105 94.3621 209.834 93.8257 212.084 93.8257C213.443 93.8257 214.735 94.0132 215.959 94.3882C217.177 94.7528 218.136 95.2163 218.834 95.784L218.875 100.159Z" fill="#1E5192"/>
<path d="M228.652 89.8052V94.1177H231.757V97.451H228.652V106.409C228.652 107.092 228.788 107.576 229.069 107.868C229.361 108.159 229.741 108.305 230.215 108.305C230.548 108.305 230.829 108.295 231.069 108.264C231.319 108.237 231.595 108.191 231.902 108.118L232.298 111.555C231.767 111.722 231.241 111.836 230.715 111.909C230.199 111.993 229.637 112.034 229.027 112.034C227.402 112.034 226.142 111.592 225.257 110.701C224.366 109.8 223.923 108.368 223.923 106.409V97.451H221.34V94.1177H223.923V89.8052H228.652Z" fill="#1E5192"/>
<path d="M234.424 108.847L236.716 108.368V97.4508L234.195 96.9717V94.1175H241.132L241.341 96.68C241.757 95.7633 242.283 95.055 242.924 94.555C243.575 94.0446 244.33 93.7842 245.195 93.7842C245.445 93.7842 245.705 93.805 245.987 93.8467C246.263 93.8883 246.492 93.9404 246.674 93.9925L246.174 98.305L244.216 98.2633C243.518 98.2633 242.945 98.404 242.487 98.68C242.039 98.9456 241.695 99.3258 241.445 99.8258V108.368L243.737 108.847V111.701H234.424V108.847Z" fill="#1E5192"/>
<path d="M266.289 96.9718L264.643 97.2218L258.185 114.326C257.669 115.602 256.987 116.665 256.143 117.514C255.294 118.373 254.008 118.805 252.289 118.805C251.883 118.805 251.508 118.769 251.164 118.701C250.815 118.644 250.398 118.555 249.914 118.43L250.476 114.972C250.627 114.982 250.778 115.003 250.935 115.034C251.101 115.06 251.247 115.076 251.372 115.076C252.164 115.076 252.768 114.878 253.185 114.493C253.612 114.102 253.94 113.623 254.164 113.055L254.705 111.722L249.122 97.2427L247.476 96.9718V94.1177H256.101V96.9718L254.122 97.3052L256.539 104.326L256.789 105.597H256.872L259.664 97.3052L257.685 96.9718V94.1177H266.289V96.9718Z" fill="#1E5192"/>
<path d="M275.814 90.8883V88.0342H285.606V90.8883L283.085 91.3883V108.368L285.606 108.847V111.701H275.814V108.847L278.356 108.368V91.3883L275.814 90.8883Z" fill="#1E5192"/>
<path d="M287.278 108.847L289.548 108.368V97.4508L287.028 96.9717V94.1175H293.965L294.173 96.6383C294.757 95.7373 295.476 95.0342 296.34 94.5342C297.199 94.0342 298.158 93.7842 299.215 93.7842C300.991 93.7842 302.382 94.3467 303.382 95.4717C304.382 96.5863 304.882 98.3363 304.882 100.722V108.368L307.153 108.847V111.701H298.09V108.847L300.111 108.368V100.722C300.111 99.5446 299.866 98.7113 299.382 98.2217C298.908 97.7217 298.194 97.4717 297.236 97.4717C296.611 97.4717 296.048 97.6071 295.548 97.8675C295.048 98.1175 294.632 98.4717 294.298 98.93V108.368L296.215 108.847V111.701H287.278V108.847Z" fill="#1E5192"/>
<path d="M315.657 89.8052V94.1177H318.761V97.451H315.657V106.409C315.657 107.092 315.792 107.576 316.074 107.868C316.365 108.159 316.746 108.305 317.219 108.305C317.553 108.305 317.834 108.295 318.074 108.264C318.324 108.237 318.6 108.191 318.907 108.118L319.303 111.555C318.772 111.722 318.246 111.836 317.719 111.909C317.204 111.993 316.641 112.034 316.032 112.034C314.407 112.034 313.147 111.592 312.261 110.701C311.371 109.8 310.928 108.368 310.928 106.409V97.451H308.344V94.1177H310.928V89.8052H315.657Z" fill="#1E5192"/>
<path d="M329.491 112.034C326.96 112.034 324.934 111.222 323.408 109.597C321.892 107.972 321.137 105.909 321.137 103.409V102.763C321.137 100.154 321.851 98.003 323.283 96.3051C324.726 94.6124 326.658 93.7739 329.075 93.7843C331.45 93.7843 333.288 94.503 334.595 95.9301C335.913 97.3624 336.575 99.2999 336.575 101.743V104.326H326.075L326.033 104.409C326.116 105.576 326.496 106.534 327.179 107.284C327.871 108.034 328.814 108.409 330.012 108.409C331.054 108.409 331.918 108.305 332.616 108.097C333.309 107.878 334.064 107.534 334.887 107.076L336.179 110.013C335.455 110.586 334.517 111.066 333.366 111.451C332.21 111.836 330.918 112.034 329.491 112.034ZM329.075 97.4509C328.2 97.4509 327.502 97.7843 326.991 98.4509C326.491 99.1176 326.179 100.003 326.054 101.097L326.095 101.18H331.929V100.763C331.929 99.753 331.689 98.9457 331.22 98.3468C330.746 97.753 330.033 97.4509 329.075 97.4509Z" fill="#1E5192"/>
<path d="M339.161 108.847L341.453 108.368V97.4508L338.932 96.9717V94.1175H345.87L346.078 96.68C346.495 95.7633 347.021 95.055 347.661 94.555C348.312 94.0446 349.068 93.7842 349.932 93.7842C350.182 93.7842 350.443 93.805 350.724 93.8467C351 93.8883 351.229 93.9404 351.411 93.9925L350.911 98.305L348.953 98.2633C348.255 98.2633 347.682 98.404 347.224 98.68C346.776 98.9456 346.432 99.3258 346.182 99.8258V108.368L348.474 108.847V111.701H339.161V108.847Z" fill="#1E5192"/>
<path d="M352.568 108.847L354.838 108.368V97.4508L352.318 96.9717V94.1175H359.255L359.463 96.6383C360.047 95.7373 360.766 95.0342 361.63 94.5342C362.49 94.0342 363.448 93.7842 364.505 93.7842C366.281 93.7842 367.672 94.3467 368.672 95.4717C369.672 96.5863 370.172 98.3363 370.172 100.722V108.368L372.443 108.847V111.701H363.38V108.847L365.401 108.368V100.722C365.401 99.5446 365.156 98.7113 364.672 98.2217C364.198 97.7217 363.484 97.4717 362.526 97.4717C361.901 97.4717 361.338 97.6071 360.838 97.8675C360.338 98.1175 359.922 98.4717 359.588 98.93V108.368L361.505 108.847V111.701H352.568V108.847Z" fill="#1E5192"/>
<path d="M388.301 100.159H385.114L384.614 97.9715C384.291 97.7111 383.885 97.4924 383.385 97.3257C382.895 97.1486 382.353 97.0549 381.76 97.0549C380.926 97.0549 380.26 97.2424 379.76 97.6174C379.27 97.9924 379.03 98.4611 379.03 99.0132C379.03 99.5549 379.26 100.003 379.718 100.347C380.187 100.695 381.124 101.008 382.53 101.284C384.707 101.716 386.322 102.357 387.364 103.201C388.416 104.034 388.947 105.19 388.947 106.659C388.947 108.242 388.265 109.534 386.905 110.534C385.556 111.534 383.77 112.034 381.551 112.034C380.187 112.034 378.937 111.836 377.801 111.451C376.676 111.05 375.676 110.482 374.801 109.742L374.739 105.805H378.072L378.718 108.097C378.994 108.336 379.374 108.508 379.864 108.617C380.348 108.732 380.864 108.784 381.405 108.784C382.364 108.784 383.093 108.612 383.593 108.263C384.103 107.919 384.364 107.445 384.364 106.847C384.364 106.336 384.103 105.888 383.593 105.513C383.077 105.128 382.14 104.784 380.78 104.492C378.707 104.076 377.145 103.461 376.093 102.638C375.036 101.805 374.51 100.675 374.51 99.2424C374.51 97.758 375.114 96.4871 376.322 95.4299C377.53 94.3621 379.26 93.8257 381.51 93.8257C382.869 93.8257 384.161 94.0132 385.385 94.3882C386.603 94.7528 387.562 95.2163 388.26 95.784L388.301 100.159Z" fill="#1E5192"/>
<path d="M390.828 108.847L393.12 108.368V89.7008L390.578 89.2008V86.3467H397.849V96.3467C398.401 95.5446 399.078 94.9196 399.87 94.4717C400.672 94.0133 401.563 93.7842 402.537 93.7842C404.38 93.7842 405.828 94.3988 406.87 95.6175C407.912 96.8415 408.432 98.7217 408.432 101.263V108.368L410.724 108.847V111.701H401.641V108.847L403.703 108.368V101.243C403.703 99.8675 403.458 98.8988 402.974 98.3258C402.484 97.7581 401.771 97.4717 400.828 97.4717C400.162 97.4717 399.578 97.5967 399.078 97.8467C398.589 98.0863 398.182 98.4196 397.849 98.8467V108.368L399.891 108.847V111.701H390.828V108.847Z" fill="#1E5192"/>
<path d="M412.094 108.847L414.386 108.368V97.4508L411.844 96.9717V94.1175H419.136V108.368L421.407 108.847V111.701H412.094V108.847ZM419.136 89.9092H414.386V86.3467H419.136V89.9092Z" fill="#1E5192"/>
<path d="M422.613 96.9717V94.1175H429.509L429.738 96.1592C430.249 95.3988 430.868 94.8154 431.592 94.4092C432.327 93.9925 433.176 93.7842 434.134 93.7842C436.311 93.7842 437.999 94.6383 439.197 96.3467C440.405 98.0446 441.009 100.279 441.009 103.055V103.388C441.009 106.003 440.405 108.097 439.197 109.68C437.999 111.253 436.327 112.034 434.176 112.034C433.243 112.034 432.415 111.868 431.697 111.534C430.988 111.19 430.384 110.69 429.884 110.034V115.118L432.176 115.597V118.472H422.863V115.597L425.155 115.118V97.4508L422.613 96.9717ZM436.259 103.055C436.259 101.404 435.978 100.065 435.426 99.0342C434.884 97.9925 434.04 97.4717 432.905 97.4717C432.181 97.4717 431.572 97.6175 431.072 97.9092C430.572 98.2008 430.176 98.6175 429.884 99.1592V106.868C430.176 107.368 430.572 107.753 431.072 108.013C431.572 108.279 432.186 108.409 432.926 108.409C434.077 108.409 434.915 107.961 435.447 107.055C435.988 106.154 436.259 104.93 436.259 103.388V103.055Z" fill="#1E5192"/>
<path d="M469.156 95.5965H465.593L464.968 92.3465C464.552 92.0861 463.948 91.8569 463.156 91.659C462.375 91.4663 461.541 91.3674 460.656 91.3674C459.349 91.3674 458.343 91.6486 457.635 92.2007C456.927 92.7424 456.573 93.4455 456.573 94.3049C456.573 95.1121 456.937 95.7736 457.677 96.284C458.427 96.7996 459.708 97.3413 461.531 97.909C464.14 98.6486 466.119 99.6121 467.468 100.805C468.812 101.987 469.489 103.55 469.489 105.492C469.489 107.524 468.682 109.117 467.073 110.284C465.474 111.451 463.364 112.034 460.739 112.034C458.864 112.034 457.166 111.742 455.656 111.159C454.156 110.565 452.895 109.737 451.885 108.68V103.742H455.552L456.073 107.097C456.541 107.487 457.187 107.815 458.01 108.076C458.828 108.326 459.739 108.451 460.739 108.451C462.041 108.451 463.031 108.19 463.698 107.659C464.375 107.117 464.718 106.404 464.718 105.513C464.718 104.612 464.395 103.883 463.76 103.326C463.119 102.774 461.989 102.253 460.364 101.763C457.557 100.961 455.432 100.003 453.989 98.8882C452.557 97.7632 451.843 96.2319 451.843 94.284C451.843 92.3674 452.656 90.8049 454.281 89.5965C455.906 88.3778 457.948 87.7424 460.406 87.7007C462.224 87.7007 463.875 87.9819 465.364 88.534C466.864 89.0913 468.125 89.8257 469.156 90.7424V95.5965Z" fill="#1E5192"/>
<path d="M489.676 96.9718L488.03 97.2218L481.572 114.326C481.056 115.602 480.374 116.665 479.53 117.514C478.681 118.373 477.395 118.805 475.676 118.805C475.27 118.805 474.895 118.769 474.551 118.701C474.202 118.644 473.785 118.555 473.301 118.43L473.864 114.972C474.015 114.982 474.166 115.003 474.322 115.034C474.489 115.06 474.634 115.076 474.759 115.076C475.551 115.076 476.155 114.878 476.572 114.493C476.999 114.102 477.327 113.623 477.551 113.055L478.093 111.722L472.509 97.2427L470.864 96.9718V94.1177H479.489V96.9718L477.509 97.3052L479.926 104.326L480.176 105.597H480.259L483.051 97.3052L481.072 96.9718V94.1177H489.676V96.9718Z" fill="#1E5192"/>
<path d="M505.521 100.159H502.334L501.834 97.9715C501.511 97.7111 501.104 97.4924 500.604 97.3257C500.115 97.1486 499.573 97.0549 498.979 97.0549C498.146 97.0549 497.479 97.2424 496.979 97.6174C496.49 97.9924 496.25 98.4611 496.25 99.0132C496.25 99.5549 496.479 100.003 496.938 100.347C497.406 100.695 498.344 101.008 499.75 101.284C501.927 101.716 503.542 102.357 504.584 103.201C505.636 104.034 506.167 105.19 506.167 106.659C506.167 108.242 505.485 109.534 504.125 110.534C502.776 111.534 500.99 112.034 498.771 112.034C497.406 112.034 496.156 111.836 495.021 111.451C493.896 111.05 492.896 110.482 492.021 109.742L491.959 105.805H495.292L495.938 108.097C496.214 108.336 496.594 108.508 497.084 108.617C497.568 108.732 498.084 108.784 498.625 108.784C499.584 108.784 500.313 108.612 500.813 108.263C501.323 107.919 501.584 107.445 501.584 106.847C501.584 106.336 501.323 105.888 500.813 105.513C500.297 105.128 499.36 104.784 498 104.492C495.927 104.076 494.365 103.461 493.313 102.638C492.255 101.805 491.729 100.675 491.729 99.2424C491.729 97.758 492.334 96.4871 493.542 95.4299C494.75 94.3621 496.479 93.8257 498.729 93.8257C500.089 93.8257 501.38 94.0132 502.604 94.3882C503.823 94.7528 504.781 95.2163 505.479 95.784L505.521 100.159Z" fill="#1E5192"/>
<path d="M515.298 89.8052V94.1177H518.402V97.451H515.298V106.409C515.298 107.092 515.434 107.576 515.715 107.868C516.006 108.159 516.387 108.305 516.861 108.305C517.194 108.305 517.475 108.295 517.715 108.264C517.965 108.237 518.241 108.191 518.548 108.118L518.944 111.555C518.413 111.722 517.887 111.836 517.361 111.909C516.845 111.993 516.282 112.034 515.673 112.034C514.048 112.034 512.788 111.592 511.902 110.701C511.012 109.8 510.569 108.368 510.569 106.409V97.451H507.986V94.1177H510.569V89.8052H515.298Z" fill="#1E5192"/>
<path d="M529.132 112.034C526.601 112.034 524.575 111.222 523.049 109.597C521.533 107.972 520.778 105.909 520.778 103.409V102.763C520.778 100.154 521.492 98.003 522.924 96.3051C524.367 94.6124 526.299 93.7739 528.716 93.7843C531.091 93.7843 532.929 94.503 534.236 95.9301C535.554 97.3624 536.216 99.2999 536.216 101.743V104.326H525.716L525.674 104.409C525.757 105.576 526.137 106.534 526.82 107.284C527.512 108.034 528.455 108.409 529.653 108.409C530.695 108.409 531.559 108.305 532.257 108.097C532.95 107.878 533.705 107.534 534.528 107.076L535.82 110.013C535.096 110.586 534.158 111.066 533.007 111.451C531.851 111.836 530.559 112.034 529.132 112.034ZM528.716 97.4509C527.841 97.4509 527.143 97.7843 526.632 98.4509C526.132 99.1176 525.82 100.003 525.695 101.097L525.736 101.18H531.57V100.763C531.57 99.753 531.33 98.9457 530.861 98.3468C530.387 97.753 529.674 97.4509 528.716 97.4509Z" fill="#1E5192"/>
<path d="M537.906 96.9717V94.1175H544.844L545.031 96.43C545.599 95.5863 546.308 94.93 547.156 94.4717C548 94.0133 548.99 93.7842 550.115 93.7842C551.24 93.7842 552.198 94.0342 552.99 94.5342C553.792 95.0342 554.406 95.7842 554.823 96.7842C555.365 95.8571 556.063 95.1279 556.927 94.5967C557.802 94.055 558.823 93.7842 559.99 93.7842C561.724 93.7842 563.094 94.3883 564.094 95.5967C565.094 96.7946 565.594 98.6123 565.594 101.055V108.368L567.886 108.847V111.701H558.802V108.847L560.844 108.368V101.034C560.844 99.7008 560.625 98.779 560.198 98.2633C559.766 97.7373 559.12 97.4717 558.261 97.4717C557.594 97.4717 557.011 97.6279 556.511 97.93C556.021 98.2217 555.636 98.6331 555.344 99.1592C555.344 99.3675 555.344 99.5498 555.344 99.7008C555.354 99.8415 555.365 99.9873 555.365 100.138V108.368L557.281 108.847V111.701H548.719V108.847L550.636 108.368V101.034C550.636 99.7425 550.417 98.8258 549.99 98.2842C549.558 97.7425 548.912 97.4717 548.052 97.4717C547.396 97.4717 546.828 97.5967 546.344 97.8467C545.87 98.0863 545.474 98.4248 545.156 98.8675V108.368L547.219 108.847V111.701H538.136V108.847L540.427 108.368V97.4508L537.906 96.9717Z" fill="#1E5192"/>
<path d="M168.646 134.811H167.292L166.938 132.791C166.615 132.488 166.229 132.238 165.771 132.041C165.313 131.848 164.771 131.749 164.146 131.749C162.672 131.749 161.531 132.285 160.729 133.353C159.938 134.426 159.542 135.78 159.542 137.416V137.645C159.542 139.301 159.927 140.666 160.708 141.749C161.484 142.822 162.568 143.353 163.958 143.353C164.594 143.353 165.177 143.259 165.708 143.061C166.234 142.853 166.646 142.603 166.938 142.311L167.292 140.291H168.646V142.811C168.229 143.343 167.609 143.811 166.792 144.228C165.969 144.645 165.026 144.853 163.958 144.853C162.109 144.853 160.589 144.176 159.396 142.811C158.214 141.436 157.625 139.718 157.625 137.645V137.436C157.625 135.369 158.208 133.655 159.375 132.291C160.542 130.916 162.068 130.228 163.958 130.228C165.026 130.228 165.969 130.447 166.792 130.874C167.609 131.291 168.229 131.759 168.646 132.27V134.811Z" fill="#1E5192"/>
<path d="M170.701 139.27C170.701 137.717 171.123 136.431 171.972 135.415C172.816 134.405 173.962 133.895 175.41 133.895C176.868 133.895 178.019 134.405 178.868 135.415C179.712 136.415 180.139 137.702 180.139 139.27V139.478C180.139 141.061 179.712 142.353 178.868 143.353C178.035 144.353 176.889 144.853 175.43 144.853C173.972 144.853 172.816 144.353 171.972 143.353C171.123 142.342 170.701 141.051 170.701 139.478V139.27ZM172.618 139.478C172.618 140.603 172.852 141.535 173.326 142.27C173.795 142.993 174.498 143.353 175.43 143.353C176.347 143.353 177.04 142.993 177.514 142.27C177.982 141.535 178.222 140.603 178.222 139.478V139.27C178.222 138.16 177.982 137.243 177.514 136.52C177.04 135.785 176.337 135.415 175.41 135.415C174.493 135.415 173.795 135.785 173.326 136.52C172.852 137.243 172.618 138.16 172.618 139.27V139.478Z" fill="#1E5192"/>
<path d="M181.662 147.457L183.266 147.186V135.603L181.662 135.332V134.082H184.912L185.078 135.374C185.438 134.889 185.87 134.52 186.37 134.27C186.87 134.02 187.453 133.895 188.12 133.895C189.422 133.895 190.438 134.415 191.162 135.457C191.896 136.488 192.266 137.853 192.266 139.561V139.77C192.266 141.285 191.896 142.514 191.162 143.457C190.438 144.389 189.432 144.853 188.141 144.853C187.5 144.853 186.932 144.738 186.432 144.52C185.943 144.301 185.526 143.978 185.182 143.561V147.186L186.766 147.457V148.707H181.662V147.457ZM190.328 139.561C190.328 138.353 190.089 137.368 189.62 136.603C189.146 135.842 188.453 135.457 187.537 135.457C186.995 135.457 186.521 135.582 186.12 135.832C185.729 136.072 185.417 136.405 185.182 136.832V141.978C185.417 142.426 185.729 142.764 186.12 142.999C186.505 143.238 186.985 143.353 187.557 143.353C188.458 143.353 189.146 143.02 189.62 142.353C190.089 141.686 190.328 140.827 190.328 139.77V139.561Z" fill="#1E5192"/>
<path d="M204.031 135.332L203.093 135.478L199.072 146.27C198.807 146.978 198.416 147.592 197.906 148.124C197.406 148.65 196.739 148.915 195.906 148.915C195.749 148.915 195.551 148.895 195.301 148.853C195.062 148.811 194.885 148.775 194.76 148.749L194.947 147.249C194.906 147.233 195.015 147.233 195.281 147.249C195.557 147.275 195.729 147.29 195.801 147.29C196.218 147.29 196.551 147.108 196.801 146.749C197.051 146.4 197.27 145.999 197.468 145.54L197.926 144.436L194.447 135.478L193.468 135.332V134.082H197.739V135.332L196.551 135.52L198.364 140.728L198.718 142.082H198.781L200.968 135.52L199.781 135.332V134.082H204.031V135.332Z" fill="#1E5192"/>
<path d="M205.347 135.332V134.082H208.639L208.826 135.624C209.128 135.082 209.498 134.66 209.93 134.353C210.373 134.051 210.878 133.895 211.451 133.895C211.602 133.895 211.753 133.91 211.91 133.936C212.076 133.952 212.201 133.973 212.285 133.999L212.014 135.79L210.93 135.728C210.415 135.728 209.982 135.848 209.639 136.082C209.305 136.322 209.04 136.655 208.847 137.082V143.145L210.451 143.415V144.645H205.347V143.415L206.93 143.145V135.603L205.347 135.332Z" fill="#1E5192"/>
<path d="M213.611 143.416L215.194 143.145V135.603L213.611 135.332V134.082H217.111V143.145L218.715 143.416V144.645H213.611V143.416ZM217.111 131.395H215.194V129.437H217.111V131.395Z" fill="#1E5192"/>
<path d="M220.177 139.561C220.177 137.868 220.542 136.499 221.281 135.457C222.031 134.415 223.057 133.895 224.365 133.895C225.031 133.895 225.615 134.03 226.115 134.29C226.615 134.54 227.031 134.915 227.365 135.415L227.552 134.082H229.156V144.499C229.156 145.874 228.771 146.947 228.01 147.728C227.26 148.52 226.182 148.915 224.781 148.915C224.266 148.915 223.708 148.837 223.115 148.686C222.531 148.546 222.016 148.358 221.573 148.124L222.073 146.645C222.417 146.822 222.833 146.978 223.323 147.103C223.823 147.228 224.302 147.29 224.76 147.29C225.62 147.29 226.245 147.046 226.635 146.561C227.036 146.087 227.24 145.4 227.24 144.499V143.499C226.891 143.947 226.474 144.285 225.99 144.52C225.516 144.738 224.969 144.853 224.344 144.853C223.052 144.853 222.031 144.389 221.281 143.457C220.542 142.514 220.177 141.285 220.177 139.77V139.561ZM222.094 139.77C222.094 140.827 222.313 141.681 222.76 142.332C223.219 142.973 223.906 143.29 224.823 143.29C225.406 143.29 225.891 143.16 226.281 142.895C226.667 142.634 226.99 142.259 227.24 141.77V136.915C226.99 136.473 226.661 136.118 226.26 135.853C225.87 135.592 225.396 135.457 224.844 135.457C223.927 135.457 223.24 135.842 222.781 136.603C222.323 137.368 222.094 138.353 222.094 139.561V139.77Z" fill="#1E5192"/>
<path d="M231.214 143.416L232.798 143.145V130.937L231.214 130.666V129.437H234.735V135.499C235.094 134.989 235.537 134.593 236.068 134.312C236.594 134.035 237.178 133.895 237.818 133.895C238.954 133.895 239.829 134.239 240.443 134.916C241.068 135.582 241.381 136.624 241.381 138.041V143.145L242.985 143.416V144.645H237.881V143.416L239.464 143.145V138.02C239.464 137.145 239.277 136.499 238.902 136.082C238.527 135.666 237.969 135.457 237.235 135.457C236.704 135.457 236.225 135.582 235.798 135.832C235.365 136.082 235.011 136.426 234.735 136.853V143.145L236.318 143.416V144.645H231.214V143.416Z" fill="#1E5192"/>
<path d="M247.737 131.541V134.082H249.737V135.52H247.737V141.916C247.737 142.416 247.831 142.77 248.029 142.978C248.237 143.176 248.514 143.27 248.862 143.27C249.029 143.27 249.217 143.259 249.425 143.228C249.633 143.202 249.81 143.166 249.967 143.124L250.217 144.457C250.034 144.572 249.764 144.655 249.404 144.728C249.055 144.811 248.706 144.853 248.362 144.853C247.581 144.853 246.967 144.619 246.508 144.145C246.05 143.676 245.821 142.931 245.821 141.916V135.52H244.133V134.082H245.821V131.541H247.737Z" fill="#1E5192"/>
<path d="M266.667 138.832L266.688 138.895C266.698 139.869 266.422 140.614 265.854 141.124C265.297 141.64 264.505 141.895 263.479 141.895C262.438 141.895 261.61 141.556 261 140.874C260.386 140.181 260.084 139.265 260.084 138.124V136.957C260.084 135.832 260.386 134.926 261 134.228C261.61 133.535 262.438 133.187 263.479 133.187C264.505 133.187 265.302 133.447 265.875 133.957C266.443 134.473 266.714 135.218 266.688 136.187L266.667 136.228H265.25C265.25 135.619 265.094 135.176 264.792 134.895C264.5 134.603 264.063 134.457 263.479 134.457C262.865 134.457 262.396 134.687 262.063 135.145C261.729 135.603 261.563 136.207 261.563 136.957V138.124C261.563 138.89 261.729 139.499 262.063 139.957C262.396 140.405 262.865 140.624 263.479 140.624C264.063 140.624 264.5 140.489 264.792 140.207C265.084 139.931 265.229 139.473 265.229 138.832H266.667ZM257.854 137.541C257.854 139.265 258.406 140.718 259.521 141.895C260.646 143.077 262.011 143.666 263.625 143.666C265.209 143.666 266.552 143.077 267.667 141.895C268.792 140.718 269.354 139.265 269.354 137.541C269.354 135.822 268.792 134.374 267.667 133.207C266.552 132.03 265.209 131.437 263.625 131.437C262.011 131.437 260.646 132.03 259.521 133.207C258.406 134.374 257.854 135.822 257.854 137.541ZM256.688 137.541C256.688 135.489 257.36 133.759 258.709 132.353C260.052 130.952 261.693 130.249 263.625 130.249C265.542 130.249 267.172 130.952 268.521 132.353C269.865 133.759 270.542 135.489 270.542 137.541C270.542 139.598 269.86 141.332 268.5 142.749C267.151 144.155 265.526 144.853 263.625 144.853C261.693 144.853 260.052 144.155 258.709 142.749C257.36 141.332 256.688 139.598 256.688 137.541Z" fill="#1E5192"/>
<path d="M277.007 131.687V130.437H282.112V131.687L280.507 131.957V143.145L282.112 143.416V144.645H277.007V143.416L278.591 143.145V131.957L277.007 131.687Z" fill="#1E5192"/>
<path d="M283.466 131.687V130.437H288.57V131.687L286.966 131.957V143.145L288.57 143.416V144.645H283.466V143.416L285.05 143.145V131.957L283.466 131.687Z" fill="#1E5192"/>
<path d="M300.217 134.645H298.759L298.404 132.603C298.113 132.353 297.717 132.155 297.217 131.999C296.727 131.832 296.165 131.749 295.529 131.749C294.514 131.749 293.727 131.968 293.175 132.395C292.634 132.827 292.363 133.389 292.363 134.082C292.363 134.707 292.639 135.228 293.196 135.645C293.748 136.051 294.644 136.41 295.884 136.728C297.384 137.093 298.519 137.634 299.3 138.353C300.076 139.077 300.467 139.973 300.467 141.041C300.467 142.197 299.998 143.119 299.071 143.811C298.139 144.509 296.915 144.853 295.404 144.853C294.305 144.853 293.331 144.671 292.488 144.311C291.639 143.952 290.951 143.488 290.425 142.916V140.27H291.863L292.238 142.311C292.597 142.619 293.035 142.869 293.55 143.061C294.061 143.259 294.68 143.353 295.404 143.353C296.373 143.353 297.139 143.155 297.696 142.749C298.264 142.332 298.55 141.77 298.55 141.061C298.55 140.41 298.3 139.869 297.8 139.436C297.311 138.994 296.456 138.624 295.238 138.332C293.722 137.973 292.54 137.447 291.696 136.749C290.863 136.056 290.446 135.181 290.446 134.124C290.446 133.014 290.91 132.093 291.842 131.353C292.785 130.603 294.014 130.228 295.529 130.228C296.529 130.228 297.43 130.405 298.238 130.749C299.055 131.098 299.717 131.514 300.217 131.999V134.645Z" fill="#1E5192"/>
<path d="M307.308 144.645V143.332L311.975 138.166C312.808 137.238 313.37 136.499 313.662 135.957C313.954 135.405 314.1 134.843 314.1 134.27C314.1 133.561 313.891 132.968 313.475 132.478C313.058 131.994 312.506 131.749 311.829 131.749C310.855 131.749 310.131 131.999 309.662 132.499C309.204 132.999 308.975 133.707 308.975 134.624H307.141L307.12 134.561C307.079 133.343 307.48 132.311 308.329 131.478C309.172 130.645 310.339 130.228 311.829 130.228C313.105 130.228 314.126 130.603 314.891 131.353C315.652 132.103 316.037 133.051 316.037 134.186C316.037 134.968 315.808 135.744 315.35 136.52C314.891 137.301 314.245 138.134 313.412 139.02L309.662 143.103L309.683 143.145H314.725L314.891 141.52H316.516V144.645H307.308Z" fill="#1E5192"/>
<path d="M327.634 139.228C327.634 141.051 327.228 142.447 326.426 143.416C325.619 144.374 324.514 144.853 323.113 144.853C321.723 144.853 320.619 144.369 319.801 143.395C318.994 142.426 318.593 141.035 318.593 139.228V135.874C318.593 134.056 318.994 132.66 319.801 131.686C320.603 130.718 321.702 130.228 323.093 130.228C324.494 130.228 325.598 130.718 326.405 131.686C327.223 132.66 327.634 134.056 327.634 135.874V139.228ZM325.697 135.457C325.697 134.223 325.473 133.301 325.03 132.686C324.582 132.061 323.936 131.749 323.093 131.749C322.259 131.749 321.619 132.061 321.176 132.686C320.728 133.301 320.509 134.223 320.509 135.457V139.624C320.509 140.848 320.728 141.78 321.176 142.416C321.634 143.041 322.28 143.353 323.113 143.353C323.957 143.353 324.598 143.041 325.03 142.416C325.473 141.791 325.697 140.863 325.697 139.624V135.457Z" fill="#1E5192"/>
<path d="M329.738 144.645V143.332L334.405 138.166C335.238 137.238 335.801 136.499 336.092 135.957C336.384 135.405 336.53 134.843 336.53 134.27C336.53 133.561 336.322 132.968 335.905 132.478C335.488 131.994 334.936 131.749 334.259 131.749C333.285 131.749 332.561 131.999 332.092 132.499C331.634 132.999 331.405 133.707 331.405 134.624H329.572L329.551 134.561C329.509 133.343 329.91 132.311 330.759 131.478C331.603 130.645 332.77 130.228 334.259 130.228C335.535 130.228 336.556 130.603 337.322 131.353C338.082 132.103 338.467 133.051 338.467 134.186C338.467 134.968 338.238 135.744 337.78 136.52C337.322 137.301 336.676 138.134 335.842 139.02L332.092 143.103L332.113 143.145H337.155L337.322 141.52H338.947V144.645H329.738Z" fill="#1E5192"/>
<path d="M348.752 139.874H350.711V141.374H348.752V143.145L350.336 143.416V144.645H345.231V143.416L346.836 143.145V141.374H340.461V140.291L346.711 130.437H348.752V139.874ZM342.502 139.874H346.836V133.187L346.773 133.166L346.586 133.687L342.502 139.874Z" fill="#1E5192"/>
<path d="M354.75 144.645H352.833V142.666H354.75V144.645Z" fill="#1E5192"/>
<path d="M361.735 143.416L362.776 143.27L367.755 130.437H369.401L374.276 143.27L375.318 143.416V144.645H371.235V143.416L372.318 143.228L371.38 140.624H365.693L364.735 143.228L365.797 143.416V144.645H361.735V143.416ZM366.276 138.999H370.797L368.589 132.916H368.526L366.276 138.999Z" fill="#1E5192"/>
<path d="M376.432 130.666V129.437H379.953V143.145L381.536 143.416V144.645H376.432V143.416L378.015 143.145V130.937L376.432 130.666Z" fill="#1E5192"/>
<path d="M382.725 130.666V129.437H386.246V143.145L387.829 143.416V144.645H382.725V143.416L384.308 143.145V130.937L382.725 130.666Z" fill="#1E5192"/>
<path d="M394.255 135.332V134.082H397.547L397.734 135.624C398.036 135.082 398.406 134.66 398.838 134.353C399.281 134.051 399.786 133.895 400.359 133.895C400.51 133.895 400.661 133.91 400.818 133.936C400.984 133.952 401.109 133.973 401.193 133.999L400.922 135.79L399.838 135.728C399.323 135.728 398.89 135.848 398.547 136.082C398.213 136.322 397.948 136.655 397.755 137.082V143.145L399.359 143.415V144.645H394.255V143.415L395.838 143.145V135.603L394.255 135.332Z" fill="#1E5192"/>
<path d="M402.519 143.416L404.102 143.145V135.603L402.519 135.332V134.082H406.019V143.145L407.623 143.416V144.645H402.519V143.416ZM406.019 131.395H404.102V129.437H406.019V131.395Z" fill="#1E5192"/>
<path d="M409.085 139.561C409.085 137.868 409.45 136.499 410.189 135.457C410.939 134.415 411.965 133.895 413.273 133.895C413.939 133.895 414.523 134.03 415.023 134.29C415.523 134.54 415.939 134.915 416.273 135.415L416.46 134.082H418.064V144.499C418.064 145.874 417.679 146.947 416.919 147.728C416.169 148.52 415.09 148.915 413.689 148.915C413.174 148.915 412.616 148.837 412.023 148.686C411.439 148.546 410.924 148.358 410.481 148.124L410.981 146.645C411.325 146.822 411.741 146.978 412.231 147.103C412.731 147.228 413.21 147.29 413.669 147.29C414.528 147.29 415.153 147.046 415.544 146.561C415.945 146.087 416.148 145.4 416.148 144.499V143.499C415.799 143.947 415.382 144.285 414.898 144.52C414.424 144.738 413.877 144.853 413.252 144.853C411.96 144.853 410.939 144.389 410.189 143.457C409.45 142.514 409.085 141.285 409.085 139.77V139.561ZM411.002 139.77C411.002 140.827 411.221 141.681 411.669 142.332C412.127 142.973 412.814 143.29 413.731 143.29C414.314 143.29 414.799 143.16 415.189 142.895C415.575 142.634 415.898 142.259 416.148 141.77V136.915C415.898 136.473 415.57 136.118 415.169 135.853C414.778 135.592 414.304 135.457 413.752 135.457C412.835 135.457 412.148 135.842 411.689 136.603C411.231 137.368 411.002 138.353 411.002 139.561V139.77Z" fill="#1E5192"/>
<path d="M420.122 143.416L421.706 143.145V130.937L420.122 130.666V129.437H423.643V135.499C424.003 134.989 424.445 134.593 424.976 134.312C425.503 134.035 426.086 133.895 426.726 133.895C427.862 133.895 428.737 134.239 429.351 134.916C429.976 135.582 430.289 136.624 430.289 138.041V143.145L431.893 143.416V144.645H426.789V143.416L428.372 143.145V138.02C428.372 137.145 428.185 136.499 427.81 136.082C427.435 135.666 426.878 135.457 426.143 135.457C425.612 135.457 425.133 135.582 424.706 135.832C424.273 136.082 423.919 136.426 423.643 136.853V143.145L425.226 143.416V144.645H420.122V143.416Z" fill="#1E5192"/>
<path d="M436.646 131.541V134.082H438.646V135.52H436.646V141.916C436.646 142.416 436.739 142.77 436.937 142.978C437.146 143.176 437.422 143.27 437.771 143.27C437.937 143.27 438.125 143.259 438.333 143.228C438.541 143.202 438.718 143.166 438.875 143.124L439.125 144.457C438.942 144.572 438.672 144.655 438.312 144.728C437.963 144.811 437.614 144.853 437.271 144.853C436.489 144.853 435.875 144.619 435.416 144.145C434.958 143.676 434.729 142.931 434.729 141.916V135.52H433.041V134.082H434.729V131.541H436.646Z" fill="#1E5192"/>
<path d="M448.671 137.415H447.234L446.921 136.145C446.682 135.926 446.385 135.749 446.025 135.624C445.677 135.488 445.281 135.415 444.838 135.415C444.156 135.415 443.65 135.572 443.317 135.874C442.984 136.165 442.817 136.52 442.817 136.936C442.817 137.353 442.963 137.686 443.255 137.936C443.546 138.176 444.14 138.384 445.046 138.561C446.38 138.853 447.364 139.249 448.005 139.749C448.656 140.238 448.984 140.889 448.984 141.707C448.984 142.639 448.598 143.395 447.838 143.978C447.088 144.561 446.098 144.853 444.88 144.853C444.088 144.853 443.369 144.759 442.734 144.582C442.093 144.389 441.525 144.118 441.025 143.77L441.005 141.353H442.463L442.817 142.77C443.036 142.978 443.338 143.134 443.713 143.228C444.098 143.311 444.489 143.353 444.88 143.353C445.557 143.353 446.093 143.217 446.484 142.936C446.869 142.66 447.067 142.301 447.067 141.853C447.067 141.426 446.906 141.077 446.588 140.811C446.265 140.535 445.656 140.29 444.755 140.082C443.473 139.806 442.51 139.431 441.859 138.957C441.203 138.473 440.88 137.822 440.88 136.999C440.88 136.139 441.244 135.41 441.984 134.811C442.718 134.202 443.671 133.895 444.838 133.895C445.63 133.895 446.343 133.999 446.984 134.207C447.619 134.415 448.156 134.707 448.588 135.082L448.671 137.415Z" fill="#1E5192"/>
<path d="M455.761 135.332V134.082H459.053L459.24 135.624C459.542 135.082 459.912 134.66 460.344 134.353C460.787 134.051 461.292 133.895 461.865 133.895C462.016 133.895 462.167 133.91 462.323 133.936C462.49 133.952 462.615 133.973 462.698 133.999L462.428 135.79L461.344 135.728C460.829 135.728 460.396 135.848 460.053 136.082C459.719 136.322 459.454 136.655 459.261 137.082V143.145L460.865 143.415V144.645H455.761V143.415L457.344 143.145V135.603L455.761 135.332Z" fill="#1E5192"/>
<path d="M468.837 144.853C467.363 144.853 466.191 144.368 465.316 143.395C464.452 142.41 464.025 141.139 464.025 139.582V139.145C464.025 137.645 464.467 136.395 465.358 135.395C466.259 134.395 467.322 133.895 468.546 133.895C469.962 133.895 471.03 134.327 471.754 135.186C472.488 136.051 472.858 137.197 472.858 138.624V139.811H466.025L465.983 139.874C466.009 140.889 466.264 141.723 466.754 142.374C467.254 143.03 467.947 143.353 468.837 143.353C469.488 143.353 470.056 143.264 470.546 143.082C471.046 142.889 471.467 142.634 471.816 142.311L472.566 143.561C472.191 143.926 471.691 144.228 471.066 144.478C470.452 144.728 469.712 144.853 468.837 144.853ZM468.546 135.415C467.905 135.415 467.358 135.686 466.9 136.228C466.441 136.77 466.16 137.452 466.066 138.27V138.311H470.941V138.061C470.941 137.311 470.738 136.686 470.337 136.186C469.931 135.676 469.337 135.415 468.546 135.415Z" fill="#1E5192"/>
<path d="M482.829 137.415H481.392L481.079 136.145C480.84 135.926 480.543 135.749 480.184 135.624C479.835 135.488 479.439 135.415 478.996 135.415C478.314 135.415 477.809 135.572 477.475 135.874C477.142 136.165 476.975 136.52 476.975 136.936C476.975 137.353 477.121 137.686 477.413 137.936C477.704 138.176 478.298 138.384 479.204 138.561C480.538 138.853 481.522 139.249 482.163 139.749C482.814 140.238 483.142 140.889 483.142 141.707C483.142 142.639 482.756 143.395 481.996 143.978C481.246 144.561 480.256 144.853 479.038 144.853C478.246 144.853 477.527 144.759 476.892 144.582C476.251 144.389 475.684 144.118 475.184 143.77L475.163 141.353H476.621L476.975 142.77C477.194 142.978 477.496 143.134 477.871 143.228C478.256 143.311 478.647 143.353 479.038 143.353C479.715 143.353 480.251 143.217 480.642 142.936C481.027 142.66 481.225 142.301 481.225 141.853C481.225 141.426 481.064 141.077 480.746 140.811C480.423 140.535 479.814 140.29 478.913 140.082C477.631 139.806 476.668 139.431 476.017 138.957C475.361 138.473 475.038 137.822 475.038 136.999C475.038 136.139 475.402 135.41 476.142 134.811C476.876 134.202 477.829 133.895 478.996 133.895C479.788 133.895 480.501 133.999 481.142 134.207C481.777 134.415 482.314 134.707 482.746 135.082L482.829 137.415Z" fill="#1E5192"/>
<path d="M489.765 144.853C488.291 144.853 487.119 144.368 486.244 143.395C485.38 142.41 484.953 141.139 484.953 139.582V139.145C484.953 137.645 485.395 136.395 486.286 135.395C487.187 134.395 488.25 133.895 489.474 133.895C490.89 133.895 491.958 134.327 492.682 135.186C493.416 136.051 493.786 137.197 493.786 138.624V139.811H486.953L486.911 139.874C486.937 140.889 487.192 141.723 487.682 142.374C488.182 143.03 488.875 143.353 489.765 143.353C490.416 143.353 490.984 143.264 491.474 143.082C491.974 142.889 492.395 142.634 492.744 142.311L493.494 143.561C493.119 143.926 492.619 144.228 491.994 144.478C491.38 144.728 490.64 144.853 489.765 144.853ZM489.474 135.415C488.833 135.415 488.286 135.686 487.828 136.228C487.369 136.77 487.088 137.452 486.994 138.27V138.311H491.869V138.061C491.869 137.311 491.666 136.686 491.265 136.186C490.859 135.676 490.265 135.415 489.474 135.415Z" fill="#1E5192"/>
<path d="M495.695 135.332V134.082H498.986L499.174 135.624C499.476 135.082 499.846 134.66 500.278 134.353C500.721 134.051 501.226 133.895 501.799 133.895C501.95 133.895 502.101 133.91 502.257 133.936C502.424 133.952 502.549 133.973 502.632 133.999L502.361 135.79L501.278 135.728C500.763 135.728 500.33 135.848 499.986 136.082C499.653 136.322 499.388 136.655 499.195 137.082V143.145L500.799 143.415V144.645H495.695V143.415L497.278 143.145V135.603L495.695 135.332Z" fill="#1E5192"/>
<path d="M507.563 135.332L506.313 135.52L508.48 141.54L508.646 142.29H508.709L508.896 141.54L511 135.52L509.73 135.332V134.082H513.813V135.332L512.938 135.478L509.396 144.645H507.938L504.355 135.478L503.5 135.332V134.082H507.563V135.332Z" fill="#1E5192"/>
<path d="M519.923 144.853C518.449 144.853 517.277 144.368 516.402 143.395C515.538 142.41 515.111 141.139 515.111 139.582V139.145C515.111 137.645 515.553 136.395 516.444 135.395C517.345 134.395 518.407 133.895 519.631 133.895C521.048 133.895 522.116 134.327 522.84 135.186C523.574 136.051 523.944 137.197 523.944 138.624V139.811H517.111L517.069 139.874C517.095 140.889 517.35 141.723 517.84 142.374C518.34 143.03 519.032 143.353 519.923 143.353C520.574 143.353 521.142 143.264 521.631 143.082C522.131 142.889 522.553 142.634 522.902 142.311L523.652 143.561C523.277 143.926 522.777 144.228 522.152 144.478C521.538 144.728 520.798 144.853 519.923 144.853ZM519.631 135.415C518.991 135.415 518.444 135.686 517.986 136.228C517.527 136.77 517.246 137.452 517.152 138.27V138.311H522.027V138.061C522.027 137.311 521.824 136.686 521.423 136.186C521.017 135.676 520.423 135.415 519.631 135.415Z" fill="#1E5192"/>
<path d="M532.957 143.395C532.608 143.869 532.186 144.228 531.686 144.478C531.196 144.728 530.623 144.853 529.957 144.853C528.675 144.853 527.67 144.39 526.936 143.457C526.212 142.515 525.853 141.285 525.853 139.77V139.562C525.853 137.869 526.212 136.499 526.936 135.457C527.67 134.416 528.686 133.895 529.978 133.895C530.603 133.895 531.149 134.015 531.623 134.249C532.108 134.473 532.519 134.806 532.853 135.249V130.937L531.269 130.666V129.437H534.79V143.145L536.373 143.416V144.645H533.123L532.957 143.395ZM527.769 139.77C527.769 140.827 527.983 141.681 528.415 142.332C528.858 142.973 529.54 143.291 530.457 143.291C531.024 143.291 531.504 143.16 531.894 142.895C532.28 142.634 532.603 142.265 532.853 141.791V136.895C532.613 136.452 532.295 136.103 531.894 135.853C531.488 135.593 531.019 135.457 530.478 135.457C529.561 135.457 528.879 135.843 528.436 136.603C527.988 137.353 527.769 138.343 527.769 139.562V139.77Z" fill="#1E5192"/>
<path d="M540.302 144.645H538.385V142.666H540.302V144.645Z" fill="#1E5192"/>
</svg>
