<svg width="51" height="51" viewBox="0 0 51 51" fill="none" xmlns="http://www.w3.org/2000/svg">
<g clip-path="url(#clip0_1570_2845)">
<path d="M50.4563 42.5674C50.4563 46.7651 47.0519 50.1665 42.8572 50.1665H8.05246C3.85774 50.1665 0.456299 46.7651 0.456299 42.5674V7.76559C0.456299 3.56794 3.85774 0.166504 8.05246 0.166504H42.8572C47.0519 0.166504 50.4563 3.56794 50.4563 7.76559V42.5674Z" fill="#0A66C2"/>
<path d="M19.9985 17.8C19.9985 18.0431 19.9754 18.2833 19.9262 18.5205C19.8799 18.7578 19.8104 18.9893 19.7178 19.2121C19.6253 19.4378 19.5095 19.649 19.3764 19.8515C19.2404 20.0512 19.0871 20.2393 18.9163 20.41C18.7456 20.5807 18.5575 20.7341 18.3579 20.8701C18.1553 21.0032 17.9412 21.1189 17.7184 21.2115C17.4956 21.3041 17.2641 21.3735 17.0269 21.4198C16.7896 21.469 16.5494 21.4922 16.3064 21.4922C16.0633 21.4922 15.8232 21.469 15.5859 21.4198C15.3486 21.3735 15.1172 21.3041 14.8915 21.2115C14.6687 21.1189 14.4574 21.0032 14.2549 20.8701C14.0523 20.7341 13.8672 20.5807 13.6964 20.41C13.5228 20.2393 13.3695 20.0512 13.2364 19.8515C13.1004 19.649 12.9875 19.4378 12.8949 19.2121C12.8023 18.9893 12.7329 18.7578 12.6837 18.5205C12.6374 18.2833 12.6143 18.0431 12.6143 17.8C12.6143 17.557 12.6374 17.3168 12.6837 17.0796C12.7329 16.8423 12.8023 16.6108 12.8949 16.388C12.9875 16.1623 13.1004 15.9511 13.2364 15.7485C13.3695 15.546 13.5228 15.3608 13.6964 15.1901C13.8672 15.0165 14.0523 14.866 14.2549 14.73C14.4574 14.594 14.6687 14.4812 14.8915 14.3886C15.1172 14.296 15.3486 14.2265 15.5859 14.1774C15.8232 14.1311 16.0633 14.1079 16.3064 14.1079C16.5494 14.1079 16.7896 14.1311 17.0269 14.1774C17.2641 14.2265 17.4956 14.296 17.7184 14.3886C17.9412 14.4812 18.1553 14.594 18.3579 14.73C18.5575 14.866 18.7456 15.0165 18.9163 15.1901C19.0871 15.3608 19.2404 15.546 19.3764 15.7485C19.5095 15.9511 19.6253 16.1623 19.7178 16.388C19.8104 16.6108 19.8799 16.8423 19.9262 17.0796C19.9754 17.3168 19.9985 17.557 19.9985 17.8Z" fill="white"/>
<path d="M13.1235 24.2148H19.4661V44.6199H13.1235V24.2148Z" fill="white"/>
<path d="M23.4563 24.2148H29.4922V44.6199H23.4563V24.2148Z" fill="white"/>
<path d="M23.7168 35.0771H29.7527V44.62H23.7168V35.0771Z" fill="white"/>
<path d="M29.7528 35.0774C29.7528 35.0774 29.6602 32.4328 30.3575 31.0555C30.3575 31.0555 31.0549 29.3599 33.2481 29.3512C33.2481 29.3512 35.8234 28.9027 36.5612 31.4548C36.5612 31.4548 36.839 32.8697 36.839 33.4687C36.839 34.0676 36.8592 44.6203 36.8592 44.6203H43.1816V32.9305C43.1816 32.9305 43.6417 26.3274 39.6775 24.519C39.6775 24.519 33.1613 21.5937 29.6255 26.9669C29.6255 26.9669 28.8529 27.4993 28.7487 26.0092C28.6417 24.519 27.736 28.295 27.7099 28.3761C27.6839 28.4571 28.7487 35.9021 28.7487 35.9021L29.7528 35.0774Z" fill="white"/>
</g>
<defs>
<clipPath id="clip0_1570_2845">
<rect width="50" height="50" fill="white" transform="translate(0.452881 0.169922)"/>
</clipPath>
</defs>
</svg>
