<svg width="474" height="88" viewBox="0 0 474 88" fill="none" xmlns="http://www.w3.org/2000/svg">
<path d="M473.562 67.1284C471.081 67.1284 470.187 65.7839 470.187 62.0491V46.4625C470.187 38.1961 466.167 33.8638 458.674 33.8638C451.18 33.8638 446.415 37.499 443.09 42.2795L443.785 42.9767C446.515 40.5864 449.691 39.6901 452.371 39.6901C457.383 39.6901 459.021 42.7277 459.021 48.2552V49.7989C451.13 51.3925 441.85 53.3346 441.85 62.9454C441.85 67.726 444.927 71.3114 449.79 71.3114C453.959 71.3114 457.085 69.1701 459.269 66.0329C459.964 69.0705 462.445 71.2616 466.614 71.2616C469.79 71.2616 472.023 69.9171 473.612 67.726V67.1782L473.562 67.1284ZM458.922 64.3398C458.078 64.6386 457.135 64.8378 455.994 64.8378C452.966 64.8378 451.577 62.3479 451.577 59.7584C451.577 55.426 454.058 52.986 458.922 51.8904V64.3398Z" fill="#1E5192"/>
<path d="M176.587 33.8647C166.115 33.8647 159.316 40.3882 159.316 51.9412C159.316 62.3986 165.768 71.2626 176.289 71.2626C184.279 71.2626 189.441 66.8804 191.326 60.2574L190.78 59.9586C189.441 61.4027 186.81 63.3448 182.046 63.3448C175.942 63.3448 171.078 60.1578 170.731 49.2023H191.376C191.575 40.8364 186.165 33.7651 176.537 33.7651L176.587 33.8647ZM180.607 47.061L170.78 47.2104C170.78 40.8862 172.567 36.0558 176.19 36.0558C178.87 36.0558 180.607 37.7987 180.607 44.4218V47.061Z" fill="#1E5192"/>
<path d="M162.046 34.4125L160.259 18.6765C156.239 18.9753 151.872 19.3239 147.455 19.3239H130.184C125.47 19.3239 121.499 18.9753 117.48 18.6765L115.693 34.4125H116.586C124.031 23.7558 127.604 21.764 130.383 21.6644H132.666V55.5266C132.666 62.299 132.616 65.1375 131.574 69.8682V70.2168H146.462V69.8682C145.222 65.1375 145.073 62.1496 145.073 55.5266V21.6146H147.356C150.135 21.764 153.708 23.7558 161.152 34.4125H162.046Z" fill="#1E5192"/>
<path d="M280.657 28.4361L281.104 25.4482H255.347L254.95 28.4361H280.657Z" fill="#1E5192"/>
<path d="M283.933 34.9602H271.675V35.3088C272.22 37.0019 272.766 39.4918 272.766 43.6747V60.5063C271.675 62.7471 269.987 64.1913 267.704 64.1913C264.578 64.1913 263.287 61.9504 263.287 59.1119V34.9602H251.625V35.3586C251.923 37.1015 252.171 39.5416 252.171 43.7245V60.2075C252.171 66.8803 255.496 71.2625 261.55 71.2625C267.605 71.2625 271.476 66.482 272.915 63.5439H273.114V70.2168H285.372V69.8682C284.33 65.486 283.933 63.4443 283.933 55.7257V34.9104V34.9602Z" fill="#1E5192"/>
<path d="M344.28 33.8647C333.809 33.8647 327.01 40.3882 327.01 51.9412C327.01 62.3986 333.461 71.2626 343.982 71.2626C351.973 71.2626 357.134 66.8804 359.02 60.2574L358.474 59.9586C357.134 61.4027 354.504 63.3448 349.739 63.3448C343.635 63.3448 338.771 60.1578 338.424 49.2023H359.069C359.268 40.8364 353.858 33.7651 344.231 33.7651L344.28 33.8647ZM348.3 47.061L338.474 47.2104C338.474 40.8862 340.26 36.0558 343.883 36.0558C346.563 36.0558 348.3 37.7987 348.3 44.4218V47.061Z" fill="#1E5192"/>
<path d="M397.382 43.5245C397.382 37.5986 393.064 33.8638 386.96 33.8638C380.856 33.8638 378.523 37.5488 376.637 40.5366H376.339V33.8638L363.734 37.5488V37.8974C364.826 40.686 365.52 43.5245 365.52 48.7532V58.0155C365.52 63.8418 365.223 66.7799 364.826 69.9171V70.2657H377.382V69.9171C376.885 66.7301 376.637 63.792 376.637 58.0155V44.0224C377.332 41.9309 378.87 39.4411 381.501 39.4411C384.776 39.4411 386.215 41.931 386.215 44.9188V58.0653C386.215 63.6426 385.868 66.7799 385.471 69.9171V70.2657H398.722V69.9171C397.878 66.7301 397.382 63.8418 397.382 57.9657V43.5743V43.5245Z" fill="#1E5192"/>
<path d="M426.663 64.2407L418.623 63.3444C413.908 62.7966 412.32 62.3484 412.32 60.3565C412.32 59.6594 412.519 58.9622 412.965 58.4642C415.05 59.2112 417.382 59.7092 419.963 59.7092C429.591 59.7092 435.298 55.0282 435.298 46.9112C435.298 43.276 433.958 40.4874 431.824 38.4955L440.013 39.0432H440.31V30.9761L439.913 30.8267L430.087 36.9517C427.506 35.0096 424.727 33.9141 419.963 33.9141C411.03 33.9141 404.628 39.342 404.628 46.712C404.628 51.5922 406.96 55.1776 410.881 57.3687C407.407 59.1116 404.38 62.0496 404.38 66.1828C404.38 69.569 406.166 71.5609 409.293 72.8059C405.223 73.3038 401.253 75.1463 401.253 78.5824C401.253 83.6617 408.251 86.2512 418.821 86.2512C430.137 86.2512 439.02 81.7196 439.02 74.1504C439.02 67.9755 433.263 64.9877 426.812 64.2905L426.663 64.2407ZM419.864 36.155C423.189 36.155 424.429 39.4416 424.429 46.712C424.429 53.9825 423.04 57.5181 419.913 57.5181C416.787 57.5181 415.496 54.1816 415.496 46.712C415.496 39.2424 416.538 36.155 419.864 36.155ZM421.898 83.8111C415.099 83.8111 410.335 81.5702 410.335 76.9889C410.335 75.6443 410.732 74.3994 411.377 73.4532C412.816 73.8018 414.504 74.1006 416.29 74.2998L422.444 74.9969C428.946 75.7439 431.923 76.2419 431.923 79.1799C431.923 82.118 427.705 83.8609 421.849 83.8609L421.898 83.8111Z" fill="#1E5192"/>
<path d="M312.568 46.0151L315 43.8739C318.275 41.0354 320.806 38.8443 325.62 35.6075V34.9601H313.71L311.228 44.571L303.784 50.3973V16.0371L291.228 20.0707V20.4193C292.221 23.3573 292.618 26.0464 292.618 31.2751V59.3111C292.618 64.9382 292.469 67.2288 291.923 69.8681V70.2167H304.479V69.8681C303.982 67.3782 303.784 64.739 303.784 59.3111V52.8872L313.213 70.2167H327.059V69.5693C325.323 67.428 324.131 65.8843 322.345 62.7471L312.568 45.9653V46.0151Z" fill="#1E5192"/>
<path d="M228.596 19.3232H209.935V19.6718C210.978 24.4524 211.027 27.1912 211.027 34.0135V55.5757C211.027 62.3482 210.978 65.1867 209.935 69.9174V70.266H224.824V69.9174C223.583 65.1867 223.434 62.1988 223.434 55.5757V49.4009H227.156C241.003 49.4009 247.107 42.23 247.107 33.3163C247.107 25.2491 242.343 19.3232 228.546 19.3232H228.596ZM225.469 47.1102H223.434V21.6637C224.278 21.6139 224.824 21.6139 225.519 21.6139C231.127 21.6139 234.452 26.5439 234.452 33.3163C234.452 40.0888 231.821 47.1102 225.419 47.1102H225.469Z" fill="#1E5192"/>
<path d="M81.9458 73.0548C88.6456 51.1937 95.0476 26.4444 100.556 0.15141C100.556 0.00201764 100.407 -0.0477797 100.358 0.0518151C85.122 15.489 58.6702 28.4363 36.9331 32.1711C24.0298 24.1538 13.2109 14.0947 0.208374 0.300803C0.109118 0.201208 -0.0397707 0.300803 0.00985738 0.400398C5.96522 27.0918 12.8139 53.7832 21.1514 80.5742C30.7296 84.1596 44.8736 86.7989 60.8539 87.2969C60.9531 87.2969 60.9531 87.1973 60.8539 87.1475C52.2682 84.558 44.9232 81.8192 38.422 78.2337C38.3227 78.1839 38.3723 78.0345 38.4716 78.0345C49.2409 78.8811 65.1219 78.9309 81.9458 73.0548ZM62.9879 68.4236C54.7992 66.2326 45.8662 61.8006 37.082 56.1237C36.9828 56.0739 37.082 55.9245 37.1317 55.9245C50.3824 58.4144 67.6529 59.6593 85.916 53.7334C86.0153 53.7334 86.1145 53.833 86.0153 53.8828C79.3651 59.5099 71.2758 64.4398 62.9879 68.3738V68.4236ZM38.9183 33.1671C57.0325 35.8561 76.4867 34.412 92.8143 27.291C92.9136 27.291 93.0128 27.3906 92.9136 27.4404C84.4272 35.0096 76.0401 41.0849 65.3204 46.0148C55.494 42.031 46.7595 37.9974 38.8686 33.3165C38.7694 33.2667 38.8686 33.1173 38.9183 33.1173V33.1671ZM8.74441 31.6732C8.74441 31.6732 8.7444 31.474 8.89328 31.5238C26.4616 41.4832 45.1714 45.467 63.3849 46.7618C63.4841 46.7618 63.5338 46.9112 63.3849 46.961C55.3948 50.4468 46.3128 53.086 35.2954 54.9783C24.8735 48.0565 15.2457 39.591 8.69477 31.6732H8.74441ZM36.685 77.188C29.6378 73.0548 23.2358 67.7763 16.4367 60.4063C16.3375 60.3067 16.4368 60.2071 16.536 60.2569C30.5311 66.5313 45.8662 69.569 61.0524 69.1208C61.1516 69.1208 61.2013 69.2702 61.0524 69.32C52.8141 73.1046 44.2284 75.8933 36.6353 77.2378L36.685 77.188Z" fill="#1E5192"/>
</svg>
