<svg width="68" height="51" viewBox="0 0 68 51" fill="none" xmlns="http://www.w3.org/2000/svg">
<g clip-path="url(#clip0_1570_2839)">
<mask id="mask0_1570_2839" style="mask-type:luminance" maskUnits="userSpaceOnUse" x="0" y="0" width="67" height="50">
<path d="M0 0.187012H66.9836V49.8406H0V0.187012Z" fill="white"/>
</mask>
<g mask="url(#mask0_1570_2839)">
<path d="M21.1453 14.6377C21.1453 13.1636 21.9757 11.8001 23.2631 11.0827C24.5504 10.3629 26.1449 10.3973 27.4003 11.1687L43.8409 21.2881C45.0545 22.0374 45.7817 23.3322 45.7817 24.7571C45.7817 26.182 45.0595 27.4792 43.8458 28.226L26.6411 38.822C26.0687 39.1734 25.4201 39.3502 24.7715 39.3502C24.1721 39.3502 23.5431 39.2004 23.0027 38.8982C21.875 38.2693 21.1453 37.0753 21.1453 35.7855V14.6377ZM12.441 49.7079H54.5524C61.3773 49.7079 66.9197 44.2564 66.9197 37.4315V12.4831C66.9197 5.65822 61.3773 0.187012 54.5524 0.187012H12.441C5.61616 0.187012 0 5.65822 0 12.4831V37.4315C0 44.2564 5.61616 49.7079 12.441 49.7079Z" fill="#FF0000"/>
</g>
</g>
<defs>
<clipPath id="clip0_1570_2839">
<rect width="67.4528" height="50" fill="white" transform="translate(0 0.169922)"/>
</clipPath>
</defs>
</svg>
