<svg width="133" height="140" viewBox="0 0 133 140" fill="none" xmlns="http://www.w3.org/2000/svg">
<g clip-path="url(#clip0_1401_2352)">
<mask id="mask0_1401_2352" style="mask-type:luminance" maskUnits="userSpaceOnUse" x="66" y="0" width="6" height="18">
<path d="M66.543 0.0576172H71.2961V17.2842H66.543V0.0576172Z" fill="white"/>
</mask>
<g mask="url(#mask0_1401_2352)">
<path d="M66.6411 2.26687V14.8163C66.6411 16.0231 67.6201 17.0021 68.8269 17.0021C70.0338 17.0021 71.011 16.0231 71.011 14.8163V2.26687C71.011 1.06003 70.0338 0.0810547 68.8269 0.0810547C67.6201 0.0810547 66.6411 1.06003 66.6411 2.26687Z" fill="#1E5192"/>
</g>
<mask id="mask1_1401_2352" style="mask-type:luminance" maskUnits="userSpaceOnUse" x="114" y="60" width="19" height="6">
<path d="M114.938 60.9258H132.114V65.6789H114.938V60.9258Z" fill="white"/>
</mask>
<g mask="url(#mask1_1401_2352)">
<path d="M130.006 61.2598H117.457C116.25 61.2598 115.271 62.2387 115.271 63.4439C115.271 64.6507 116.25 65.6297 117.457 65.6297H130.006C131.213 65.6297 132.19 64.6507 132.19 63.4439C132.19 62.2387 131.213 61.2598 130.006 61.2598Z" fill="#1E5192"/>
</g>
<path d="M7.64773 65.6297H20.1988C21.404 65.6297 22.383 64.6507 22.383 63.4439C22.383 62.2387 21.404 61.2598 20.1988 61.2598H7.64773C6.44089 61.2598 5.46191 62.2387 5.46191 63.4439C5.46191 64.6507 6.44089 65.6297 7.64773 65.6297Z" fill="#1E5192"/>
<path d="M24.0219 18.6396C23.1678 19.492 23.1678 20.876 24.0219 21.7284L32.8951 30.6033C33.3222 31.0303 33.8808 31.243 34.4395 31.243C34.9999 31.243 35.5586 31.0303 35.9856 30.6033C36.838 29.7492 36.838 28.3669 35.9856 27.5128L27.1107 18.6396C26.2583 17.7855 24.876 17.7855 24.0219 18.6396Z" fill="#1E5192"/>
<path d="M110.539 18.6373L101.668 27.5122C100.814 28.3646 100.814 29.7487 101.668 30.6011C102.095 31.0281 102.654 31.2408 103.212 31.2408C103.771 31.2408 104.331 31.0281 104.757 30.6011L113.63 21.7279C114.484 20.8738 114.484 19.4914 113.63 18.6373C112.776 17.785 111.392 17.785 110.539 18.6373Z" fill="#1E5192"/>
<mask id="mask2_1401_2352" style="mask-type:luminance" maskUnits="userSpaceOnUse" x="0" y="30" width="116" height="110">
<path d="M0 30.2471H115.802V139.943H0V30.2471Z" fill="white"/>
</mask>
<g mask="url(#mask2_1401_2352)">
<path d="M8.71118 139.839L32.161 136.647C35.3764 136.21 38.1935 134.071 39.7024 131.276C39.8493 131.283 43.9525 131.063 44.4015 131.23C45.2893 131.56 46.1704 132.15 47.1021 132.776C48.3545 133.617 49.7741 134.569 51.5008 135.053C51.6915 135.107 51.889 135.134 52.0882 135.134L96.8492 135.151C102.124 135.151 106.416 130.879 106.416 125.63C106.416 123.512 105.724 121.554 104.549 119.97C108.291 118.678 110.984 115.133 110.984 110.972C110.984 108.743 110.216 106.695 108.926 105.072C109.068 104.969 109.193 104.845 109.304 104.712C112.332 103.112 114.41 99.9572 114.41 96.3131C114.41 93.9669 113.266 91.9617 111.559 90.4308C112.231 90.0527 112.872 89.5717 113.453 88.964C115.148 87.1867 115.932 84.719 115.786 81.6302C115.551 76.6779 111.708 73.3494 106.224 73.3494L79.3543 73.3224C81.2126 67.3068 83.8592 55.6722 83.5672 52.9074C82.7148 44.7245 80.8582 34.9247 74.0104 31.7481C72.3073 30.9581 70.6279 30.5902 68.9721 30.683C66.9179 30.7893 64.8756 31.6451 63.0662 33.1591C59.076 36.4927 59.314 41.3724 59.5047 45.2934C59.5469 46.1525 59.5925 52.4753 59.5925 52.4753C59.5402 55.2569 44.6682 79.5878 44.2395 80.3828C43.4546 80.9803 40.9616 82.5889 38.5395 84.0978C36.9512 82.1433 34.6945 80.7103 32.1914 80.3136L8.6808 76.58C8.21832 76.5057 7.76259 76.472 7.31867 76.472C3.18504 76.472 0 79.5524 0 83.8464V132.376C0 136.735 3.29138 139.92 7.52966 139.92C7.91618 139.92 8.31115 139.893 8.71118 139.839ZM40.6932 87.9057C47.5224 83.6809 47.7182 83.2488 48.0068 82.6108C48.2128 82.1635 49.5918 79.9068 50.9252 77.7261C59.3798 63.8972 63.9624 55.7768 63.9624 52.477C63.9624 52.477 63.9152 46.0107 63.8696 45.0807C63.6687 40.9555 63.7025 38.3207 65.868 36.5113C66.9618 35.5981 68.0826 35.1053 69.1966 35.0479C70.1317 34.9972 71.1208 35.2251 72.174 35.7129C77.6478 38.2515 78.7905 49.2278 79.2209 53.3631C79.496 55.9692 75.4232 72.2472 74.4138 74.325C73.9986 74.9731 73.9547 75.7951 74.3024 76.4872C74.6738 77.2231 75.4282 77.6873 76.2519 77.6889L106.222 77.7193C107.726 77.7193 111.245 78.121 111.421 81.8378C111.508 83.686 111.129 85.0684 110.29 85.9478C109.581 86.6904 108.575 87.0533 107.643 87.2272C107.64 87.2272 107.638 87.2255 107.636 87.2255H92.2565C91.0513 87.2255 90.0723 88.2045 90.0723 89.4096C90.0723 90.6165 91.0513 91.5954 92.2565 91.5954H104.023C104.062 91.6039 104.099 91.6191 104.137 91.6258C106.929 92.0596 110.04 94.0918 110.04 96.3131C110.04 98.5276 108.617 100.405 106.637 101.132H92.2565C91.0513 101.132 90.0723 102.111 90.0723 103.318C90.0723 104.523 91.0513 105.502 92.2565 105.502H100.598C100.907 105.693 101.261 105.818 101.65 105.834C104.433 105.956 106.614 108.213 106.614 110.972C106.614 113.815 104.284 116.125 101.418 116.125H100.902C100.652 116.024 100.38 115.965 100.093 115.965H91.3146C90.1078 115.965 89.1288 116.944 89.1288 118.151C89.1288 119.358 90.1078 120.335 91.3146 120.335H96.3901C96.6078 120.421 96.8408 120.482 97.0889 120.492C99.8688 120.615 102.046 122.872 102.046 125.63C102.046 128.469 99.7152 130.781 96.8492 130.781L52.4207 130.765C51.4603 130.439 47.2962 127.644 45.9223 127.132C45.2066 126.867 44.3948 126.739 43.4411 126.739C42.7947 126.739 42.1701 126.795 41.5642 126.849C41.3296 126.869 41.0983 126.889 40.8671 126.906C40.8688 126.876 40.8722 126.845 40.8722 126.817V90.338C40.8722 89.7405 40.8114 89.148 40.6932 88.5657V87.9057ZM4.36994 132.376V83.8464C4.36994 82.0217 5.52783 80.8419 7.31867 80.8419C7.53979 80.8419 7.76765 80.8588 7.99551 80.8959L31.5061 84.6278C33.7543 84.9857 35.7528 86.947 36.3233 89.1244V128.012C35.7562 130.137 33.7881 132.015 31.5719 132.317L8.12211 135.507C7.92125 135.536 7.72039 135.55 7.52966 135.55C5.63923 135.55 4.36994 134.275 4.36994 132.376Z" fill="#1E5192"/>
</g>
<path d="M18.9617 97.6312C20.1668 97.6312 21.1458 96.6522 21.1458 95.4453V88.9605C21.1458 87.7537 20.1668 86.7764 18.9617 86.7764C17.7549 86.7764 16.7759 87.7537 16.7759 88.9605V95.4453C16.7759 96.6522 17.7549 97.6312 18.9617 97.6312Z" fill="#1E5192"/>
<path d="M21.1591 104.092C21.1591 104.234 21.1456 104.374 21.117 104.514C21.0883 104.652 21.0477 104.789 20.992 104.919C20.9363 105.051 20.8688 105.175 20.7878 105.294C20.7085 105.412 20.6173 105.52 20.5144 105.621C20.4131 105.721 20.3017 105.81 20.1819 105.889C20.062 105.969 19.9354 106.035 19.8021 106.089C19.6687 106.144 19.532 106.185 19.3902 106.212C19.2485 106.241 19.105 106.254 18.9615 106.254C18.8164 106.254 18.6729 106.241 18.5328 106.212C18.391 106.185 18.2526 106.144 18.1193 106.089C17.9859 106.035 17.8593 105.969 17.7395 105.889C17.6197 105.81 17.5083 105.721 17.407 105.621C17.304 105.52 17.2129 105.412 17.1335 105.294C17.0525 105.175 16.985 105.051 16.931 104.919C16.8753 104.789 16.8331 104.652 16.8044 104.514C16.7774 104.374 16.7622 104.234 16.7622 104.092C16.7622 103.95 16.7774 103.81 16.8044 103.67C16.8331 103.531 16.8753 103.396 16.931 103.265C16.985 103.133 17.0525 103.008 17.1335 102.89C17.2129 102.772 17.304 102.664 17.407 102.563C17.5083 102.463 17.6197 102.374 17.7395 102.294C17.8593 102.215 17.9859 102.149 18.1193 102.095C18.2526 102.039 18.391 101.999 18.5328 101.972C18.6729 101.943 18.8164 101.93 18.9615 101.93C19.105 101.93 19.2485 101.943 19.3902 101.972C19.532 101.999 19.6687 102.039 19.8021 102.095C19.9354 102.149 20.062 102.215 20.1819 102.294C20.3017 102.374 20.4131 102.463 20.5144 102.563C20.6173 102.664 20.7085 102.772 20.7878 102.89C20.8688 103.008 20.9363 103.133 20.992 103.265C21.0477 103.396 21.0883 103.531 21.117 103.67C21.1456 103.81 21.1591 103.95 21.1591 104.092Z" fill="#1E5192"/>
</g>
<defs>
<clipPath id="clip0_1401_2352">
<rect width="132.546" height="140" fill="white"/>
</clipPath>
</defs>
</svg>
