<svg width="1728" height="1117" viewBox="0 0 1728 1117" fill="none" xmlns="http://www.w3.org/2000/svg">
<rect width="1728" height="1117" fill="url(#paint0_linear_290_911)"/>
<g filter="url(#filter0_bd_290_911)">
<rect x="624" y="274" width="480" height="569" rx="24" fill="white" fill-opacity="0.8"/>
<mask id="mask0_290_911" style="mask-type:luminance" maskUnits="userSpaceOnUse" x="810" y="384" width="107" height="80">
<path d="M810.28 384.251H916.626V463.789H810.28V384.251Z" fill="white"/>
</mask>
<g mask="url(#mask0_290_911)">
<path d="M916.147 433.63C915.877 431.552 915.54 429.866 915.195 428.388C915.103 428.021 915.025 427.662 914.932 427.314C914.84 426.969 914.751 426.632 914.662 426.302C914.566 425.972 914.469 425.65 914.377 425.332C914.288 425.009 914.18 424.698 914.084 424.387C913.091 421.271 911.824 418.274 910.272 415.411C910.39 415.566 910.505 415.718 910.62 415.866C910.735 416.018 910.846 416.17 910.957 416.322C911.18 416.622 911.402 416.922 911.62 417.237C911.835 417.552 912.065 417.874 912.284 418.226C912.506 418.574 912.747 418.941 912.976 419.349C913.428 420.104 914.162 421.712 914.721 423.164C915.255 424.535 915.644 425.661 915.907 426.454C916.177 427.247 916.329 427.703 916.385 427.74C916.414 427.762 916.414 427.673 916.388 427.477C916.366 427.276 916.303 426.965 916.207 426.532C916.021 425.669 915.677 424.316 915.047 422.449C914.903 422.008 914.832 421.712 914.799 421.449C914.762 421.186 914.755 420.96 914.692 420.671C914.851 421.03 914.984 421.379 915.121 421.705C915.258 422.027 915.373 422.338 915.484 422.623C915.595 422.912 915.703 423.179 915.792 423.427C915.881 423.676 915.962 423.902 916.036 424.109C916.188 424.517 916.296 424.839 916.377 425.061C916.459 425.283 916.511 425.409 916.529 425.432C916.57 425.476 916.499 425.098 916.273 424.25C916.155 423.827 916.01 423.287 915.796 422.627C915.692 422.297 915.577 421.934 915.44 421.549C915.307 421.156 915.162 420.734 914.988 420.286C913.628 416.633 912.02 413.351 910.213 410.335C908.405 407.327 906.393 404.582 904.141 402.04C902.774 400.499 901.34 399.062 899.851 397.706C898.361 396.358 896.813 395.091 895.194 393.916C893.579 392.742 891.897 391.649 890.137 390.645C888.381 389.645 886.551 388.722 884.636 387.904C884.251 387.748 883.806 387.563 883.313 387.385C882.821 387.207 882.291 387.014 881.731 386.84C881.454 386.751 881.168 386.663 880.883 386.574C880.598 386.488 880.309 386.407 880.02 386.325C879.872 386.281 879.727 386.24 879.586 386.199C879.438 386.162 879.294 386.125 879.153 386.088C878.864 386.014 878.579 385.936 878.301 385.866C874.837 385.003 871.277 384.484 867.695 384.314C864.116 384.143 860.504 384.321 856.918 384.862C853.335 385.403 849.786 386.311 846.352 387.581C842.918 388.852 839.595 390.482 836.464 392.449C829.129 397.047 822.902 403.359 818.401 410.728C816.144 414.41 814.333 418.359 812.988 422.457C811.662 426.561 810.795 430.811 810.454 435.09C810.321 436.72 810.265 438.313 810.284 439.861C810.302 441.41 810.38 442.914 810.521 444.366C810.669 445.814 810.865 447.215 811.11 448.556C811.173 448.893 811.24 449.223 811.306 449.552C811.34 449.715 811.373 449.878 811.406 450.041C811.443 450.201 811.48 450.364 811.517 450.523C811.591 450.842 811.662 451.16 811.74 451.471C811.821 451.783 811.903 452.09 811.98 452.394C812.058 452.701 812.151 452.998 812.236 453.294C812.325 453.591 812.403 453.887 812.499 454.172C812.684 454.746 812.862 455.309 813.062 455.85C813.159 456.121 813.255 456.388 813.355 456.651C813.459 456.91 813.559 457.169 813.659 457.425C813.711 457.551 813.759 457.677 813.811 457.803C813.862 457.929 813.914 458.051 813.966 458.173C814.074 458.418 814.177 458.658 814.281 458.896C815.122 460.792 816.019 462.404 816.874 463.734C815.337 460.426 814.107 456.906 813.266 453.309C812.421 449.712 811.966 446.04 811.892 442.454C811.81 438.053 812.303 434.093 813.207 430.133C813.662 428.154 814.222 426.165 814.929 424.128C815.637 422.094 816.47 419.993 817.511 417.804C818.138 416.481 818.956 415.355 819.664 414.366C819.768 414.218 819.864 414.081 819.964 413.955C820.06 413.829 820.153 413.71 820.242 413.603C820.423 413.384 820.586 413.191 820.749 413.006C820.916 412.821 821.079 412.643 821.249 412.454C821.424 412.265 821.598 412.058 821.805 411.824C822.009 411.587 822.227 411.317 822.487 410.998C822.616 410.839 822.754 410.669 822.902 410.48C823.054 410.291 823.209 410.087 823.383 409.872C823.557 409.654 823.743 409.416 823.943 409.161C824.146 408.909 824.361 408.638 824.598 408.346C825.069 407.76 825.614 407.097 826.254 406.345C826.762 406.049 827.429 405.556 828.348 404.823C829.274 404.097 830.452 403.126 832.023 401.926C832.2 401.789 832.141 401.922 831.945 402.181C831.848 402.311 831.715 402.47 831.563 402.641C831.411 402.815 831.241 403.007 831.059 403.193C829.922 404.352 828.777 405.623 827.74 406.919C826.703 408.212 825.777 409.531 825.043 410.757C826.11 409.25 827.273 407.783 828.481 406.408C829.452 405.304 830.493 404.193 831.559 403.159C832.63 402.129 833.727 401.177 834.79 400.377C836.201 399.325 837.083 398.895 838.209 398.291C838.346 398.217 838.491 398.14 838.643 398.058C838.795 397.976 838.95 397.891 839.113 397.802C839.439 397.625 839.799 397.425 840.202 397.202C840.402 397.087 840.614 396.965 840.84 396.839C841.066 396.713 841.306 396.58 841.558 396.435C841.81 396.287 842.084 396.143 842.373 395.98C842.518 395.898 842.666 395.817 842.818 395.731C842.97 395.646 843.129 395.561 843.292 395.472C843.581 395.391 843.889 395.291 844.207 395.202C844.522 395.117 844.844 395.024 845.144 394.942C845.756 394.791 846.289 394.672 846.578 394.676C846.737 394.676 846.597 394.809 846.278 395.031C845.956 395.25 845.452 395.539 844.881 395.857C844.47 396.076 844.018 396.335 843.529 396.602C843.285 396.735 843.04 396.88 842.785 397.024C842.659 397.098 842.533 397.169 842.403 397.243C842.273 397.317 842.147 397.395 842.018 397.473C840.988 398.077 839.962 398.751 839.098 399.369C837.694 400.388 836.679 401.288 835.56 402.307C835.794 402.118 836.001 401.974 836.179 401.844C836.357 401.714 836.505 401.614 836.631 401.529C836.883 401.366 837.042 401.292 837.142 401.259C837.342 401.192 837.309 401.322 837.35 401.388C837.391 401.459 837.505 401.466 837.991 401.174C838.491 400.896 839.343 400.284 840.973 399.269C841.199 399.132 841.529 398.943 841.899 398.751C842.273 398.562 842.681 398.358 843.059 398.188C843.44 398.021 843.785 397.869 844.029 397.776C844.274 397.684 844.415 397.639 844.378 397.676C843.9 398.128 843.87 398.306 844.159 398.251C844.303 398.228 844.533 398.154 844.833 398.032C844.985 397.973 845.152 397.899 845.337 397.821C845.522 397.743 845.726 397.658 845.945 397.562C846.052 397.513 846.167 397.465 846.282 397.413C846.4 397.365 846.519 397.313 846.645 397.262C846.893 397.154 847.156 397.043 847.43 396.928C847.704 396.813 847.993 396.698 848.297 396.576C848.597 396.454 848.912 396.339 849.234 396.213C850.527 395.728 851.991 395.246 853.521 394.85C854.932 394.479 856.536 394.135 858.192 393.887C859.848 393.635 861.552 393.479 863.149 393.442C864.746 393.401 866.231 393.475 867.446 393.62C868.665 393.761 869.614 393.983 870.151 394.209C870.203 394.231 870.284 394.257 870.388 394.283C870.492 394.313 870.617 394.342 870.766 394.379C870.914 394.413 871.081 394.45 871.266 394.487C871.355 394.505 871.451 394.524 871.547 394.546C871.647 394.565 871.747 394.587 871.851 394.609C872.266 394.698 872.722 394.787 873.185 394.891C873.414 394.942 873.648 394.991 873.878 395.039C874.111 395.091 874.337 395.142 874.559 395.191C875.771 395.461 876.812 395.728 877.512 395.965C877.86 396.083 878.127 396.18 878.282 396.269C878.438 396.358 878.486 396.424 878.405 396.472C878.308 396.535 878.445 396.639 878.745 396.776C879.046 396.91 879.501 397.091 880.049 397.284C881.139 397.68 882.572 398.199 883.773 398.688C889.174 400.855 894.175 404.104 898.399 408.168C902.622 412.228 906.063 417.092 908.479 422.383C908.653 422.772 908.849 423.187 909.023 423.62C909.116 423.839 909.209 424.053 909.298 424.272C909.386 424.491 909.472 424.709 909.557 424.928C909.905 425.791 910.205 426.617 910.446 427.232C910.568 427.536 910.665 427.791 910.75 427.969C910.835 428.147 910.905 428.247 910.95 428.251C910.998 428.254 911.02 428.162 911.017 427.947C911.013 427.732 910.987 427.395 910.909 426.921C910.842 426.517 911.039 426.825 911.317 427.417C911.45 427.717 911.609 428.084 911.761 428.466C911.906 428.851 912.058 429.247 912.18 429.603C912.639 430.907 913.065 432.47 913.41 434.023C913.754 435.575 914.01 437.12 914.214 438.379C914.325 439.035 914.406 439.576 914.491 439.902C914.577 440.232 914.654 440.35 914.721 440.165C914.758 440.072 914.788 439.902 914.817 439.646C914.843 439.391 914.877 439.046 914.88 438.605C914.888 438.383 914.892 438.135 914.892 437.864C914.895 437.59 914.884 437.294 914.877 436.968C914.869 436.805 914.866 436.634 914.858 436.457C914.847 436.279 914.836 436.097 914.825 435.905C914.814 435.716 914.799 435.516 914.784 435.312C914.773 435.104 914.747 434.893 914.729 434.671C914.525 432.656 914.573 432.111 914.577 431.277C914.577 431.07 914.566 430.844 914.547 430.574C914.536 430.437 914.525 430.288 914.503 430.129C914.48 429.97 914.458 429.792 914.425 429.599C914.395 429.407 914.358 429.195 914.314 428.962C914.265 428.732 914.21 428.48 914.147 428.203C914.114 428.062 914.08 427.917 914.043 427.765C914.002 427.617 913.962 427.462 913.917 427.295C913.825 426.969 913.732 426.613 913.61 426.232C913.702 426.191 913.662 425.62 913.906 426.21C914.002 426.436 914.095 426.669 914.184 426.913C914.277 427.158 914.369 427.41 914.466 427.669C914.554 427.928 914.647 428.203 914.743 428.48C914.792 428.621 914.84 428.766 914.888 428.91C914.932 429.058 914.977 429.207 915.025 429.358C915.403 430.574 915.788 431.974 916.147 433.63Z" fill="#1E5192"/>
</g>
<mask id="mask1_290_911" style="mask-type:luminance" maskUnits="userSpaceOnUse" x="819" y="440" width="99" height="53">
<path d="M819.368 440.198H917.456V492.986H819.368V440.198Z" fill="white"/>
</mask>
<g mask="url(#mask1_290_911)">
<path d="M847.364 484.406C847.601 484.513 847.839 484.621 848.076 484.728C848.316 484.832 848.557 484.932 848.794 485.032C849.276 485.239 849.769 485.417 850.265 485.599C850.521 485.684 850.784 485.765 851.047 485.847C851.176 485.884 851.306 485.925 851.439 485.965C851.573 486.002 851.706 486.036 851.836 486.073C852.103 486.143 852.369 486.217 852.636 486.284C852.903 486.347 853.173 486.414 853.44 486.477C853.177 486.391 852.918 486.31 852.658 486.221C852.399 486.136 852.14 486.04 851.877 485.951C851.747 485.902 851.614 485.858 851.48 485.81C851.35 485.758 851.217 485.71 851.084 485.658C850.821 485.558 850.55 485.458 850.276 485.347C849.969 485.258 849.687 485.173 849.42 485.091C849.154 485.013 848.909 484.928 848.676 484.854C848.202 484.706 847.783 484.554 847.364 484.406ZM886.919 487.021C885.511 487.662 884.096 488.303 882.644 488.851C882.921 488.803 883.17 488.814 883.488 488.699C883.733 488.607 883.977 488.518 884.225 488.422C884.348 488.377 884.47 488.329 884.596 488.285C884.722 488.233 884.848 488.181 884.974 488.129C885.226 488.029 885.485 487.921 885.752 487.814C886.015 487.699 886.289 487.581 886.574 487.455C887.704 486.951 888.997 486.336 890.583 485.462C890.457 485.521 890.338 485.576 890.223 485.628C890.108 485.68 889.997 485.732 889.89 485.776C889.671 485.873 889.475 485.962 889.29 486.04C888.916 486.203 888.593 486.325 888.312 486.443C888.171 486.499 888.038 486.554 887.915 486.606C887.789 486.654 887.671 486.703 887.556 486.747C887.33 486.84 887.122 486.929 886.919 487.021ZM848.05 484.976C847.001 484.58 846.275 484.406 845.416 484.098C845.531 484.158 845.649 484.217 845.764 484.276C845.882 484.335 845.997 484.391 846.116 484.45C846.349 484.565 846.586 484.684 846.82 484.798C847.057 484.91 847.294 485.017 847.531 485.121C847.65 485.173 847.768 485.221 847.887 485.273C848.002 485.321 848.12 485.365 848.239 485.41C848.531 485.517 848.817 485.625 849.135 485.728C849.454 485.832 849.798 485.943 850.202 486.065C851.013 486.295 852.047 486.592 853.57 486.929C851.973 486.469 850.85 486.047 849.995 485.725C849.139 485.402 848.553 485.154 848.05 484.976ZM829.804 471.547C832.994 474.989 836.699 478.034 840.833 480.52C841.867 481.138 842.922 481.731 844.008 482.279C845.093 482.828 846.201 483.339 847.331 483.813C849.594 484.75 851.943 485.543 854.362 486.143C855.348 486.395 856.355 486.588 857.363 486.762L858.123 486.88L858.504 486.94L858.886 486.988C859.138 487.025 859.393 487.058 859.645 487.092C859.901 487.121 860.153 487.151 860.408 487.177C861.668 487.318 862.324 487.321 862.676 487.288C863.028 487.258 863.076 487.192 863.131 487.125C863.191 487.058 863.253 486.995 863.631 486.958C863.824 486.94 864.091 486.932 864.476 486.932C864.669 486.929 864.891 486.929 865.147 486.929C865.402 486.929 865.695 486.936 866.025 486.932C864.317 486.866 862.727 486.68 860.923 486.473C857.463 486.065 854.04 485.28 850.743 484.117C847.453 482.942 844.286 481.412 841.352 479.534L841.485 479.471L841.807 479.671L842.13 479.86L842.778 480.245C843.219 480.486 843.652 480.742 844.101 480.968C844.986 481.446 845.894 481.879 846.809 482.298C848.65 483.117 850.547 483.835 852.503 484.409C854.459 484.999 856.467 485.443 858.523 485.769C859.553 485.921 860.59 486.062 861.638 486.143C862.164 486.195 862.69 486.221 863.22 486.258C863.487 486.269 863.75 486.277 864.017 486.288L864.417 486.303C864.55 486.31 864.683 486.31 864.817 486.31C860.942 485.965 856.915 485.236 852.832 483.939C848.754 482.642 844.619 480.768 840.648 478.171C837.877 476.367 835.309 474.225 833.005 471.829L832.787 471.606L832.575 471.377L832.149 470.917C831.868 470.613 831.597 470.295 831.323 469.987C831.056 469.665 830.786 469.35 830.523 469.028L829.938 468.298L829.749 468.05C828.734 466.731 827.793 465.36 826.926 463.945L827.107 463.867C829.475 467.657 832.405 471.088 835.769 474.018L835.732 473.836C832.535 471.006 829.73 467.727 827.419 464.052C825.107 460.381 823.288 456.317 822.095 451.931C823.006 454.998 824.218 457.907 825.685 460.644C827.159 463.382 828.889 465.949 830.845 468.339C832.801 470.725 834.983 472.936 837.391 474.948C839.796 476.956 842.419 478.775 845.267 480.357C846.157 480.849 847.083 481.316 848.035 481.761C848.994 482.194 849.98 482.609 850.999 482.983C853.025 483.728 855.159 484.339 857.341 484.784C858.434 485.002 859.534 485.195 860.642 485.328L861.057 485.384L861.475 485.428C861.753 485.458 862.027 485.491 862.305 485.513C862.587 485.536 862.865 485.558 863.142 485.584C863.417 485.61 863.698 485.617 863.972 485.636C864.528 485.673 865.084 485.68 865.639 485.702C865.913 485.706 866.191 485.706 866.465 485.71L866.88 485.714L867.292 485.706C868.392 485.699 869.481 485.636 870.555 485.558C870.841 485.532 871.126 485.51 871.404 485.484C871.685 485.454 871.959 485.425 872.234 485.399C872.371 485.384 872.504 485.369 872.637 485.354C872.774 485.336 872.908 485.321 873.037 485.302C873.3 485.269 873.564 485.236 873.819 485.202C874.33 485.124 874.83 485.061 875.308 484.976C875.549 484.936 875.783 484.898 876.016 484.858C876.246 484.817 876.475 484.773 876.698 484.732C878.476 484.402 879.973 484.046 881.151 483.772C881.299 483.739 881.44 483.706 881.577 483.676C881.714 483.643 881.847 483.613 881.973 483.583C882.229 483.524 882.462 483.476 882.673 483.431C883.099 483.343 883.44 483.287 883.692 483.268C884.192 483.231 884.337 483.35 884.066 483.661C883.885 483.869 884.214 483.976 883.507 484.461C883.418 484.521 883.314 484.587 883.188 484.661C883.062 484.732 882.918 484.81 882.751 484.891C882.581 484.976 882.392 485.065 882.173 485.165C881.955 485.262 881.71 485.358 881.436 485.469C880.339 485.899 878.761 486.429 876.475 486.929C876.079 487.006 875.653 487.11 875.205 487.218C874.982 487.269 874.753 487.321 874.519 487.377C874.401 487.403 874.282 487.432 874.164 487.462C874.045 487.488 873.927 487.514 873.804 487.54C873.564 487.592 873.323 487.644 873.078 487.699C872.834 487.751 872.585 487.799 872.341 487.847C871.852 487.947 871.359 488.025 870.885 488.103C873.626 487.866 876.412 487.344 878.946 486.636C880.213 486.28 881.414 485.873 882.521 485.447C882.799 485.336 883.07 485.228 883.333 485.124C883.596 485.01 883.855 484.898 884.107 484.787C884.359 484.68 884.6 484.565 884.837 484.454C885.074 484.339 885.303 484.232 885.526 484.121C886.867 483.446 888.093 482.772 889.245 482.105C890.394 481.442 891.472 480.779 892.505 480.108C893.531 479.434 894.517 478.752 895.48 478.037C896.44 477.319 897.373 476.563 898.303 475.752C898.522 475.559 898.737 475.374 898.944 475.189C899.155 475 899.359 474.814 899.563 474.633C899.77 474.451 899.966 474.266 900.166 474.081C900.363 473.896 900.563 473.718 900.756 473.529C901.53 472.784 902.274 472.017 903.004 471.151C904.13 469.809 904.975 468.687 905.638 467.798C906.301 466.909 906.783 466.249 907.146 465.79C907.328 465.564 907.476 465.386 907.602 465.253C907.728 465.119 907.828 465.031 907.909 464.986C908.068 464.893 908.15 464.96 908.172 465.142C908.183 465.219 908.35 465.079 908.583 464.797C908.695 464.656 908.824 464.482 908.961 464.286C909.095 464.09 909.239 463.875 909.365 463.641C910.302 462 910.928 460.718 911.436 459.633C911.558 459.359 911.677 459.099 911.788 458.847C911.844 458.722 911.899 458.596 911.955 458.477C912.007 458.351 912.058 458.233 912.11 458.114C912.21 457.873 912.31 457.64 912.407 457.41C912.499 457.18 912.596 456.951 912.688 456.717C913.066 455.795 913.429 454.843 913.851 453.624C914.274 452.405 914.755 450.92 915.244 448.889C914.774 451.438 914.155 453.72 913.433 455.847C912.714 457.977 911.888 459.944 910.973 461.874C910.825 462.182 910.64 462.571 910.458 462.978C910.273 463.386 910.073 463.808 909.902 464.193C909.543 464.953 909.28 465.549 909.347 465.494C909.473 465.408 909.661 465.19 909.917 464.868C910.043 464.705 910.188 464.519 910.336 464.304C910.484 464.09 910.647 463.849 910.821 463.589C911.506 462.537 912.329 461.115 913.114 459.459C913.9 457.806 914.655 455.928 915.252 454.013C915.852 452.101 916.304 450.156 916.589 448.415C916.8 447.104 916.919 445.681 917.03 444.451C917.171 442.973 917.293 441.651 917.349 440.254C917.375 440.695 917.404 441.099 917.43 441.525C917.452 441.954 917.46 442.403 917.452 442.929L917.423 443.799L917.408 444.233L917.378 444.67L917.326 445.537L917.252 446.407L917.212 446.844L917.163 447.278C917.134 447.567 917.1 447.856 917.067 448.148C917.026 448.437 916.986 448.726 916.945 449.019L916.886 449.453L916.815 449.886C916.767 450.179 916.719 450.468 916.671 450.757C916.611 451.049 916.556 451.338 916.5 451.627C916.474 451.772 916.445 451.92 916.415 452.064L916.319 452.498C916.256 452.787 916.193 453.079 916.122 453.368C915.845 454.528 915.526 455.687 915.155 456.843C913.518 461.956 911.054 466.831 907.894 471.228C904.734 475.629 900.867 479.542 896.477 482.779C894.676 484.113 892.779 485.321 890.82 486.417C889.834 486.955 888.838 487.477 887.819 487.955C887.315 488.199 886.796 488.422 886.285 488.651C886.03 488.766 885.767 488.87 885.507 488.981C885.248 489.085 884.989 489.2 884.726 489.3C882.632 490.122 880.487 490.83 878.302 491.374C878.031 491.441 877.757 491.515 877.483 491.578L876.657 491.763L876.246 491.856L875.001 492.1C873.893 492.297 872.782 492.478 871.659 492.608C870.541 492.745 869.418 492.834 868.296 492.904L867.029 492.96L865.762 492.982C865.48 492.986 865.198 492.982 864.917 492.982C863.791 492.978 862.664 492.923 861.538 492.849L860.694 492.782L860.275 492.745L859.853 492.7L859.012 492.608L858.171 492.5C853.696 491.897 849.294 490.696 845.116 488.97C845.371 489.044 845.638 489.125 845.908 489.211C846.045 489.251 846.183 489.296 846.32 489.34C846.46 489.381 846.601 489.426 846.746 489.466C847.031 489.555 847.324 489.644 847.62 489.737C847.916 489.822 848.22 489.911 848.524 490C849.75 490.352 851.028 490.704 852.284 490.97C852.599 491.044 852.899 491.096 853.188 491.152C853.477 491.204 853.751 491.259 854.022 491.296C854.566 491.374 855.088 491.456 855.648 491.519C855.111 491.4 854.496 491.215 853.929 491.067C853.366 490.9 852.851 490.756 852.521 490.678C850.921 490.315 849.576 489.881 848.357 489.422C847.742 489.196 847.168 488.948 846.601 488.707C846.038 488.448 845.486 488.199 844.938 487.921C843.837 487.384 842.734 486.788 841.507 486.099C840.281 485.406 838.929 484.617 837.362 483.635C837.091 483.461 836.884 483.328 836.728 483.224C836.576 483.117 836.48 483.042 836.428 482.998C836.321 482.905 836.391 482.92 836.565 482.994C836.736 483.076 837.01 483.202 837.314 483.343C837.614 483.483 837.936 483.639 838.218 483.746C838.77 483.969 839.114 484.058 838.632 483.665C838.514 483.569 838.344 483.439 838.11 483.276C837.88 483.109 837.591 482.902 837.236 482.653C836.528 482.146 835.543 481.464 834.272 480.471C834.394 480.523 834.465 480.497 834.654 480.634C836.087 481.694 837.021 482.253 837.606 482.557C838.195 482.861 838.432 482.92 838.54 482.883C838.758 482.82 838.451 482.427 839.366 482.917C840.8 483.669 841.633 484.024 841.993 484.161C842.359 484.291 842.259 484.206 841.87 483.972C841.678 483.854 841.415 483.702 841.103 483.52C840.789 483.343 840.433 483.124 840.048 482.894C839.662 482.665 839.262 482.405 838.847 482.15C838.644 482.016 838.44 481.879 838.236 481.746C838.032 481.609 837.829 481.479 837.632 481.338C832.694 477.945 828.374 473.644 824.951 468.728C824.755 467.976 823.343 465.801 822.076 463.323C821.439 462.085 820.824 460.781 820.354 459.592C820.232 459.296 820.128 459.003 820.024 458.725C819.972 458.584 819.924 458.451 819.876 458.318C819.831 458.181 819.787 458.051 819.746 457.925C819.665 457.669 819.591 457.429 819.524 457.21C819.465 456.988 819.413 456.78 819.372 456.595C819.72 457.51 820.113 458.414 820.517 459.314C820.935 460.207 821.361 461.096 821.828 461.959C822.284 462.826 822.78 463.664 823.277 464.486C823.403 464.69 823.536 464.89 823.662 465.093C823.792 465.294 823.914 465.497 824.051 465.69C824.318 466.083 824.573 466.475 824.848 466.853C825.011 467.079 825.159 467.287 825.296 467.472C825.437 467.65 825.559 467.809 825.666 467.935C825.877 468.194 826.011 468.335 826.044 468.335C826.077 468.335 826.007 468.187 825.814 467.865C825.614 467.542 825.299 467.035 824.848 466.305C823.784 464.567 822.799 462.719 822.099 461.2C824.225 465.049 826.848 468.55 829.86 471.621L829.804 471.547Z" fill="#1E5192"/>
</g>
<path d="M830.481 466.875C831.156 467.798 831.911 468.743 832.745 469.698C833.579 470.65 834.49 471.617 835.483 472.569C837.465 474.474 839.773 476.326 842.362 477.982C843.659 478.808 845.022 479.586 846.445 480.297C847.867 481.005 849.349 481.649 850.875 482.213C852.398 482.779 853.969 483.265 855.566 483.668C857.162 484.069 858.785 484.38 860.419 484.602C862.597 484.906 864.727 485.021 866.82 485.002C868.913 484.965 870.969 484.802 873.011 484.461C875.052 484.128 877.075 483.631 879.097 482.968C880.112 482.635 881.12 482.25 882.132 481.831C883.143 481.401 884.151 480.923 885.158 480.394C886.633 479.616 887.644 478.993 888.303 478.56C888.47 478.452 888.615 478.36 888.737 478.275C888.859 478.189 888.959 478.115 889.041 478.056C889.207 477.934 889.296 477.86 889.315 477.826C889.356 477.763 889.122 477.863 888.678 478.078C888.455 478.186 888.177 478.315 887.851 478.467C887.688 478.545 887.514 478.623 887.329 478.704C887.144 478.786 886.944 478.871 886.74 478.96C885.658 479.412 884.891 479.671 884.447 479.771C884.002 479.868 883.887 479.819 884.095 479.619C884.306 479.423 884.84 479.075 885.677 478.538C886.514 478 887.651 477.274 889.03 476.263C890.434 475.233 891.023 474.637 891.115 474.448C891.204 474.248 890.778 474.429 890.048 474.818C887.062 476.378 883.65 477.763 880.064 478.649C879.975 478.671 879.875 478.697 879.757 478.734C879.642 478.764 879.512 478.801 879.375 478.841C879.097 478.919 878.783 479.019 878.449 479.112C878.116 479.208 877.764 479.316 877.415 479.408C877.245 479.46 877.075 479.508 876.904 479.556C876.738 479.601 876.575 479.642 876.415 479.686C875.911 479.827 875.408 479.942 874.907 480.06C874.404 480.164 873.903 480.271 873.403 480.353C872.907 480.449 872.411 480.512 871.914 480.586C871.67 480.616 871.421 480.646 871.173 480.675C870.929 480.708 870.684 480.731 870.436 480.753C868.472 480.942 866.531 480.964 864.597 480.89C860.6 480.72 856.532 480.023 852.557 478.686C848.586 477.352 844.707 475.385 841.173 472.781C844.385 475.366 848.023 477.463 851.898 478.967C855.769 480.479 859.878 481.386 864.02 481.679C867.02 481.894 869.995 481.801 872.914 481.409C875.837 481.02 878.708 480.316 881.509 479.301L881.587 479.486C879.323 480.449 876.952 481.22 874.57 481.772C874.455 481.801 874.341 481.827 874.218 481.857C874.1 481.879 873.978 481.905 873.855 481.931C873.611 481.983 873.359 482.038 873.107 482.087C872.599 482.176 872.085 482.276 871.592 482.35C870.61 482.513 869.717 482.62 869.169 482.72C868.061 482.916 866.905 483.046 865.709 483.105C864.512 483.154 863.286 483.139 862.034 483.042C859.533 482.857 856.947 482.35 854.376 481.546C853.08 481.142 851.698 480.642 850.438 480.101C849.175 479.564 848.041 478.982 847.208 478.489C845.83 477.656 844.767 476.967 843.633 476.263C842.503 475.555 841.303 474.833 839.717 473.81C839.484 473.662 839.232 473.481 838.954 473.281C838.676 473.084 838.38 472.851 838.065 472.599C837.983 472.536 837.906 472.469 837.82 472.406C837.743 472.34 837.661 472.269 837.576 472.199C837.413 472.058 837.239 471.914 837.065 471.765C836.89 471.61 836.716 471.451 836.535 471.291C836.442 471.206 836.35 471.125 836.257 471.039C836.168 470.954 836.075 470.869 835.983 470.78C835.798 470.602 835.601 470.424 835.416 470.235C835.223 470.047 835.031 469.85 834.834 469.654C834.642 469.454 834.445 469.246 834.245 469.039C834.042 468.831 833.849 468.609 833.645 468.391C832.845 467.501 832.03 466.527 831.23 465.482C832.812 467.705 834.56 469.706 836.416 471.488C838.272 473.273 840.232 474.844 842.266 476.207C844.3 477.567 846.397 478.738 848.545 479.708C849.616 480.194 850.698 480.638 851.791 481.034C852.883 481.423 853.987 481.775 855.095 482.083C855.317 482.142 855.54 482.201 855.762 482.264C855.98 482.327 856.199 482.376 856.418 482.435C856.632 482.49 856.847 482.55 857.066 482.602C857.281 482.657 857.496 482.709 857.711 482.765L858.037 482.842C858.144 482.868 858.255 482.894 858.363 482.916C858.581 482.968 858.8 483.02 859.022 483.072C859.244 483.12 859.467 483.168 859.696 483.217C859.922 483.265 860.152 483.317 860.389 483.357C860.622 483.402 860.863 483.45 861.104 483.494C861.348 483.543 861.597 483.58 861.852 483.624C862.108 483.668 862.367 483.709 862.634 483.746C862.904 483.783 863.179 483.82 863.46 483.861C864.586 484.002 865.839 484.113 867.268 484.157C862.923 484.328 858.744 483.872 854.895 482.913C854.654 482.861 854.417 482.79 854.18 482.728C853.943 482.665 853.702 482.609 853.469 482.535C852.998 482.398 852.531 482.264 852.072 482.113C851.15 481.824 850.253 481.494 849.375 481.157C847.627 480.46 845.963 479.686 844.407 478.83C842.851 477.974 841.388 477.063 840.036 476.096C838.68 475.129 837.424 474.125 836.268 473.099C833.956 471.047 832.045 468.92 830.481 466.875Z" fill="#1E5192"/>
<path d="M829.804 471.547C829.145 470.736 828.348 469.761 827.559 468.713C826.77 467.661 825.992 466.538 825.333 465.468C824.999 464.938 824.707 464.412 824.44 463.93C824.31 463.682 824.192 463.449 824.08 463.223C824.029 463.111 823.973 463.004 823.921 462.897C823.873 462.789 823.829 462.685 823.784 462.585C823.436 461.785 823.28 461.2 823.373 460.978C823.377 460.963 823.336 460.859 823.258 460.689C823.184 460.518 823.08 460.274 822.951 459.988C822.888 459.844 822.813 459.688 822.743 459.522C822.669 459.359 822.595 459.184 822.517 459.003C822.439 458.825 822.35 458.64 822.273 458.451C822.191 458.262 822.11 458.069 822.028 457.877C821.365 456.339 820.761 454.769 820.543 454.78L820.561 454.72C820.213 454.309 820.194 454.687 820.48 455.754C820.769 456.814 821.398 458.551 822.484 460.748C824.421 464.649 826.907 468.339 829.849 471.606C829.86 471.621 829.804 471.547 829.804 471.547Z" fill="#1E5192"/>
<path d="M819.453 439.316C819.449 439.639 819.449 439.95 819.449 440.254C819.457 440.554 819.464 440.85 819.471 441.139C819.475 441.428 819.49 441.706 819.501 441.98C819.516 442.254 819.523 442.517 819.542 442.777C819.583 443.295 819.609 443.784 819.66 444.251C819.683 444.481 819.705 444.71 819.727 444.929C819.753 445.151 819.779 445.366 819.805 445.574C820.016 447.252 820.275 448.585 820.561 449.767C820.65 450.112 820.735 450.401 820.82 450.653C820.909 450.905 820.998 451.116 821.083 451.316C821.253 451.716 821.435 452.046 821.62 452.475C821.516 452.068 821.405 451.631 821.313 451.179C821.264 450.956 821.213 450.73 821.168 450.504C821.124 450.278 821.079 450.056 821.039 449.834C820.872 448.96 820.738 448.156 820.631 447.637C820.594 447.478 820.561 447.322 820.527 447.167C820.498 447.011 820.468 446.855 820.435 446.7C820.375 446.392 820.309 446.088 820.257 445.785C820.201 445.477 820.146 445.173 820.09 444.862C820.038 444.551 819.986 444.236 819.935 443.914C819.738 442.617 819.553 441.176 819.453 439.316Z" fill="#1E5192"/>
<path d="M819.264 428.873C819.553 427.558 819.894 426.25 820.294 424.961C820.694 423.676 821.15 422.401 821.657 421.149C822.672 418.641 823.91 416.218 825.343 413.91L824.969 414.277L824.606 414.655C823.921 415.818 823.284 417.007 822.702 418.219C822.12 419.434 821.591 420.671 821.113 421.927C820.149 424.435 819.416 427.025 818.894 429.647C819.008 429.388 819.142 429.129 819.264 428.873Z" fill="#1E5192"/>
<path d="M820.561 454.72L820.542 454.78C819.972 452.864 819.538 450.994 819.179 449.286C818.823 447.578 818.549 446.029 818.279 444.747C818.275 444.725 818.271 444.796 818.271 444.914C818.271 444.973 818.271 445.044 818.271 445.125C818.271 445.203 818.275 445.288 818.279 445.377C818.29 445.729 818.312 446.122 818.327 446.233C818.809 449.182 819.561 451.994 820.561 454.72Z" fill="#1E5192"/>
<path d="M826.536 475.133C827.785 476.474 829.1 477.745 830.478 478.945C831.856 480.142 833.297 481.268 834.79 482.313L834.587 482.024C831.504 479.786 828.663 477.211 826.129 474.355C826.262 474.614 826.399 474.874 826.536 475.133Z" fill="#1E5192"/>
<path d="M851.102 484.521C849.542 484.009 848.012 483.413 846.515 482.739C845.018 482.064 843.559 481.309 842.144 480.479L842.11 480.553C843.529 481.386 844.989 482.142 846.489 482.816C847.986 483.494 849.52 484.087 851.079 484.598L851.102 484.521Z" fill="#1E5192"/>
<path d="M831.16 409.079C830.927 409.361 830.675 409.646 830.43 409.943C830.19 410.243 829.941 410.539 829.712 410.835C829.486 411.135 829.26 411.424 829.06 411.699C828.86 411.976 828.678 412.239 828.523 412.469C828.178 413.014 827.919 413.451 827.7 413.869C827.593 414.081 827.489 414.281 827.382 414.484C827.281 414.688 827.181 414.896 827.07 415.114C827.852 413.892 828.834 412.584 829.564 411.595C830.549 410.257 831.36 409.172 832.327 408.035C832.127 408.205 831.935 408.379 831.742 408.553C831.546 408.727 831.349 408.902 831.16 409.079Z" fill="#1E5192"/>
<path d="M842.011 476.874C842.311 477.074 842.622 477.263 842.926 477.459C843.23 477.652 843.544 477.83 843.856 478.015C844.119 478.171 844.393 478.3 844.663 478.445C844.037 478.097 843.422 477.733 842.815 477.359C842.548 477.189 842.274 477.041 842.011 476.874Z" fill="#1E5192"/>
<path d="M828.185 459.377C828.029 459.059 827.889 458.762 827.751 458.473C827.618 458.181 827.492 457.903 827.366 457.621C827.259 457.384 827.14 457.136 827.025 456.891C827.14 457.166 827.24 457.443 827.366 457.71C827.492 457.977 827.618 458.24 827.748 458.518C827.885 458.792 828.029 459.073 828.185 459.377Z" fill="#1E5192"/>
<path d="M911.788 445.511C911.74 445.785 911.695 446.059 911.64 446.333C911.584 446.604 911.532 446.878 911.495 447.156C911.388 447.822 911.321 448.504 911.21 449.178C911.277 448.904 911.354 448.634 911.417 448.36C911.477 448.082 911.536 447.808 911.584 447.522C911.643 447.193 911.669 446.859 911.706 446.522C911.743 446.185 911.762 445.848 911.788 445.511Z" fill="#1E5192"/>
<mask id="mask2_290_911" style="mask-type:luminance" maskUnits="userSpaceOnUse" x="839" y="348" width="87" height="50">
<path d="M839.873 348.368H925.228V397.684H839.873V348.368Z" fill="white"/>
</mask>
<g mask="url(#mask2_290_911)">
<mask id="mask3_290_911" style="mask-type:luminance" maskUnits="userSpaceOnUse" x="834" y="338" width="96" height="64">
<path d="M845.016 338.913L929.266 359.596L919.093 401.033L834.839 380.346L845.016 338.913Z" fill="white"/>
</mask>
<g mask="url(#mask3_290_911)">
<mask id="mask4_290_911" style="mask-type:luminance" maskUnits="userSpaceOnUse" x="834" y="338" width="96" height="64">
<path d="M845.016 338.913L929.266 359.596L919.093 401.033L834.839 380.346L845.016 338.913Z" fill="white"/>
</mask>
<g mask="url(#mask4_290_911)">
<path d="M920.138 389.411C920.698 391.964 919.394 397.328 919.394 397.328C919.238 397.384 919.09 397.424 918.946 397.45L918.968 393.835C918.968 393.835 918.179 396.046 917.916 397.38C916.204 397.517 915.478 396.472 915.478 396.472C916.086 392.134 917.13 389.871 917.804 388.785C917.593 388.422 917.516 387.996 917.612 387.563C917.767 386.851 918.353 386.333 919.031 386.233L920.827 378.479L909.395 380.609C908.532 380.768 907.78 380.009 907.958 379.142L908.587 376.06C908.665 375.663 908.55 375.26 908.28 374.971C894.773 360.393 881.369 357.966 872.523 358.496C862.88 359.078 856.526 363.108 856.263 363.279L856.248 363.286C855.97 363.464 855.785 363.738 855.707 364.049L854.922 367.48C854.718 368.347 853.707 368.728 852.981 368.199L841.044 359.5C840.166 358.855 840.481 357.481 841.548 357.281L885.919 349.105C886.252 349.049 886.589 349.12 886.86 349.316L923.921 375.786C924.814 376.423 924.506 377.812 923.428 378.016L921.906 378.294L920.024 386.403C920.724 386.733 921.116 387.514 920.946 388.296C920.85 388.785 920.539 389.178 920.138 389.411ZM857.549 365.301C857.474 365.339 857.415 365.409 857.393 365.502L852.844 384.032C852.788 384.254 852.996 384.454 853.218 384.38C856.648 383.287 877.468 377.779 901.374 396.302C901.545 396.428 901.789 396.35 901.838 396.146L906.605 376.73C906.628 376.638 906.613 376.538 906.542 376.467C904.968 374.648 884.555 351.92 857.549 365.301Z" fill="#1E5192"/>
</g>
</g>
</g>
<mask id="mask5_290_911" style="mask-type:luminance" maskUnits="userSpaceOnUse" x="826" y="456" width="61" height="24">
<path d="M826.988 456.484H886.496V479.43H826.988V456.484Z" fill="white"/>
</mask>
<g mask="url(#mask5_290_911)">
<path d="M886.214 458.584C885.288 457.721 882.995 456.899 877.631 459.877C875.311 461.322 874.052 462.252 873.418 462.767C873.011 463.097 872.511 463.289 871.988 463.326C869.191 463.519 860.371 464.371 857.348 464.312C856.907 464.304 856.755 463.708 857.051 463.475C857.274 463.3 857.614 463.215 858.1 463.063C859.815 462.53 869.347 462.574 869.14 459.007C868.94 455.587 862.104 456.851 860.078 457.284C859.289 457.451 858.415 457.58 857.603 457.68C857.603 457.68 854.662 457.81 853.217 457.462C850.201 456.673 843.855 455.395 839.847 458.644C836.617 461.259 835.187 462.982 834.56 463.923C834.138 464.556 833.56 465.071 832.882 465.423L827.236 469.398C826.94 469.609 826.903 470.035 827.159 470.291L836.428 479.56C836.683 479.816 837.098 479.782 837.313 479.497C838.587 477.771 843.148 472.725 852.658 473.029C864.109 473.399 864.183 473.177 866.694 471.847C868.669 470.802 873.355 469.124 875.286 468.45C875.852 468.25 876.382 467.953 876.845 467.572L886.155 459.929C886.585 459.596 886.614 458.955 886.214 458.584Z" fill="#1E5192"/>
</g>
<path d="M868.592 456.328C868.884 456.491 869.144 456.684 869.359 456.902C869.496 457.036 869.614 457.18 869.718 457.332C870.403 457.006 871.167 456.662 871.989 456.306L872 456.302C874.067 455.528 875.849 455.117 877.309 455.072C876.831 454.82 876.234 454.672 875.531 454.628C874.038 454.539 872.096 454.935 869.762 455.809C869.359 455.984 868.962 456.158 868.592 456.328Z" fill="#1E5192"/>
<path d="M867.373 462.27C867.918 462.226 868.444 462.185 868.933 462.148H868.936C870.244 462.044 871.374 461.959 872.096 461.911C872.219 461.904 872.341 461.881 872.46 461.841C872.611 461.785 872.752 461.711 872.874 461.611C873.53 461.085 874.786 460.163 877.061 458.751L877.087 458.736L877.109 458.725C877.757 458.366 878.391 458.047 878.994 457.78C879.587 457.525 880.158 457.317 880.688 457.162C880.762 457.14 880.832 457.121 880.906 457.099C880.825 457.025 880.732 456.954 880.636 456.891C880.091 456.536 879.365 456.339 878.476 456.313C877.057 456.265 875.245 456.643 873.093 457.436C872.111 457.855 871.23 458.255 870.463 458.625C870.466 458.658 870.466 458.695 870.47 458.729C870.57 460.303 869.529 461.492 867.373 462.27Z" fill="#1E5192"/>
<path d="M798.376 507.367V505.188H805.845V507.367L803.918 507.737V520.703L805.845 521.074V523.237H798.376V521.074L800.302 520.703V507.737L798.376 507.367Z" fill="#FE6601"/>
<path d="M825.661 505.188V507.367L823.734 507.737V523.237H820.134L812.843 511.086L812.769 511.101V520.703L814.695 521.074V523.237H807.227V521.074L809.138 520.703V507.737L807.227 507.367V505.188H812.769L820.059 517.339L820.134 517.325V507.737L818.192 507.367V505.188H825.661Z" fill="#FE6601"/>
<path d="M834.953 505.188C837.153 505.188 838.968 505.896 840.391 507.307C841.821 508.711 842.54 510.519 842.54 512.731V515.709C842.54 517.925 841.821 519.733 840.391 521.133C838.968 522.537 837.153 523.237 834.953 523.237H826.832V521.074L828.744 520.703V507.737L826.832 507.367V505.188H834.953ZM832.374 507.974V520.466H834.76C836.053 520.466 837.064 520.029 837.798 519.147C838.539 518.269 838.909 517.125 838.909 515.709V512.701C838.909 511.308 838.539 510.175 837.798 509.293C837.064 508.415 836.053 507.974 834.76 507.974H832.374Z" fill="#FE6601"/>
<path d="M851.579 505.188V507.367L849.652 507.737V517.162C849.652 518.358 849.967 519.251 850.601 519.844C851.242 520.429 852.12 520.718 853.239 520.718C854.372 520.718 855.261 520.429 855.906 519.844C856.547 519.251 856.869 518.358 856.869 517.162V507.737L854.943 507.367V505.188H862.426V507.367L860.485 507.737V517.162C860.485 519.188 859.818 520.755 858.484 521.859C857.151 522.956 855.402 523.504 853.239 523.504C851.082 523.504 849.341 522.956 848.008 521.859C846.681 520.755 846.022 519.188 846.022 517.162V507.737L844.11 507.367V505.188H851.579Z" fill="#FE6601"/>
<path d="M877.196 510.953H874.485L874.011 508.478C873.692 508.282 873.233 508.107 872.632 507.959C872.029 507.811 871.388 507.737 870.706 507.737C869.717 507.737 868.95 507.944 868.409 508.359C867.876 508.774 867.609 509.315 867.609 509.975C867.609 510.59 867.89 511.093 868.454 511.486C869.017 511.871 869.995 512.286 871.388 512.731C873.373 513.287 874.877 514.016 875.907 514.924C876.933 515.835 877.448 517.025 877.448 518.495C877.448 520.047 876.833 521.274 875.611 522.17C874.396 523.059 872.784 523.504 870.78 523.504C869.357 523.504 868.068 523.274 866.912 522.822C865.757 522.37 864.797 521.737 864.038 520.925V517.162H866.838L867.224 519.725C867.579 520.022 868.068 520.27 868.691 520.466C869.32 520.666 870.017 520.762 870.78 520.762C871.777 520.762 872.532 520.562 873.047 520.155C873.559 519.751 873.818 519.207 873.818 518.525C873.818 517.836 873.57 517.28 873.077 516.865C872.592 516.443 871.732 516.043 870.499 515.665C868.365 515.043 866.742 514.309 865.638 513.457C864.541 512.609 863.993 511.442 863.993 509.96C863.993 508.5 864.608 507.304 865.845 506.374C867.09 505.448 868.65 504.966 870.528 504.936C871.91 504.936 873.17 505.151 874.307 505.573C875.452 506 876.415 506.563 877.196 507.263V510.953Z" fill="#FE6601"/>
<path d="M894.767 505.188V510.004H891.996L891.848 507.974H888.528V520.703L890.455 521.074V523.237H882.971V521.074L884.898 520.703V507.974H881.593L881.445 510.004H878.674V505.188H894.767Z" fill="#FE6601"/>
<path d="M904.052 505.188C906.097 505.188 907.701 505.659 908.868 506.596C910.031 507.537 910.617 508.83 910.617 510.478C910.617 511.39 910.368 512.179 909.876 512.849C909.39 513.524 908.679 514.065 907.742 514.479C908.809 514.787 909.572 515.306 910.039 516.035C910.513 516.769 910.75 517.677 910.75 518.762V519.681C910.75 520.077 910.824 520.385 910.972 520.6C911.128 520.818 911.391 520.951 911.758 521L912.202 521.059V523.237H910.335C909.15 523.237 908.312 522.922 907.831 522.289C907.357 521.648 907.119 520.822 907.119 519.814V518.792C907.119 517.914 906.886 517.228 906.423 516.732C905.956 516.228 905.3 515.961 904.452 515.932H901.488V520.703L903.415 521.074V523.237H895.946V521.074L897.858 520.703V507.737L895.946 507.367V505.188H904.052ZM901.488 513.146H903.993C905 513.146 905.756 512.935 906.26 512.509C906.764 512.075 907.016 511.453 907.016 510.641C907.016 509.834 906.764 509.186 906.26 508.7C905.764 508.219 905.03 507.974 904.052 507.974H901.488V513.146Z" fill="#FE6601"/>
<path d="M919.975 507.367L918.493 507.589L921.294 513.501H921.368L924.183 507.589L922.716 507.367V505.188H929.548V507.367L928.007 507.618L923.102 516.895V520.703L925.028 521.074V523.237H917.559V521.074L919.486 520.703V516.702L914.67 507.618L913.144 507.367V505.188H919.975V507.367Z" fill="#FE6601"/>
<path d="M771.171 534.756V533.259H776.313V534.756L774.979 535.008V543.929L776.313 544.181V545.677H771.171V544.181L772.49 543.929V535.008L771.171 534.756Z" fill="#FE6601"/>
<path d="M789.951 533.259V534.756L788.618 535.008V545.677H786.143L781.12 537.32H781.075V543.929L782.394 544.181V545.677H777.252V544.181L778.571 543.929V535.008L777.252 534.756V533.259H781.075L786.084 541.617L786.143 541.602V535.008L784.809 534.756V533.259H789.951Z" fill="#FE6601"/>
<path d="M801.681 533.259V536.564H799.769L799.665 535.171H797.383V543.929L798.717 544.181V545.677H793.56V544.181L794.894 543.929V535.171H792.612L792.508 536.564H790.611V533.259H801.681Z" fill="#FE6601"/>
<path d="M810.505 540.224H806.311V543.766H810.312L810.431 542.284H812.313V545.677H802.488V544.181L803.807 543.929V535.008L802.488 534.756V533.259H812.298V536.668H810.387L810.283 535.171H806.311V538.298H810.505V540.224Z" fill="#FE6601"/>
<path d="M819.23 533.259C820.642 533.259 821.749 533.582 822.55 534.222C823.35 534.867 823.75 535.76 823.75 536.905C823.75 537.527 823.579 538.072 823.246 538.535C822.909 538.99 822.416 539.361 821.764 539.646C822.505 539.865 823.031 540.224 823.35 540.728C823.676 541.232 823.839 541.854 823.839 542.595V543.232C823.839 543.499 823.887 543.714 823.987 543.869C824.094 544.018 824.276 544.106 824.535 544.136L824.846 544.181V545.677H823.557C822.735 545.677 822.164 545.462 821.838 545.025C821.512 544.581 821.349 544.014 821.349 543.321V542.61C821.349 542.01 821.186 541.539 820.86 541.202C820.534 540.857 820.079 540.676 819.497 540.654H817.467V543.929L818.786 544.181V545.677H813.644V544.181L814.962 543.929V535.008L813.644 534.756V533.259H819.23ZM817.467 538.727H819.186C819.875 538.727 820.393 538.587 820.742 538.298C821.086 538.001 821.26 537.571 821.26 537.008C821.26 536.456 821.086 536.012 820.742 535.675C820.405 535.341 819.901 535.171 819.23 535.171H817.467V538.727Z" fill="#FE6601"/>
<path d="M838.351 533.259V534.756L837.017 535.008V545.677H834.542L829.519 537.32H829.475V543.929L830.793 544.181V545.677H825.651V544.181L826.97 543.929V535.008L825.651 534.756V533.259H829.475L834.483 541.617L834.542 541.602V535.008L833.209 534.756V533.259H838.351Z" fill="#FE6601"/>
<path d="M848.584 537.216H846.717L846.391 535.512C846.172 535.386 845.857 535.271 845.442 535.171C845.027 535.063 844.586 535.008 844.123 535.008C843.442 535.008 842.912 535.152 842.538 535.437C842.16 535.726 841.975 536.097 841.975 536.549C841.975 536.975 842.167 537.319 842.553 537.586C842.945 537.853 843.623 538.142 844.583 538.446C845.953 538.823 846.991 539.327 847.695 539.957C848.406 540.579 848.762 541.402 848.762 542.417C848.762 543.484 848.339 544.325 847.502 544.936C846.661 545.551 845.55 545.855 844.168 545.855C843.19 545.855 842.301 545.699 841.501 545.396C840.708 545.081 840.052 544.647 839.53 544.091V541.498H841.456L841.723 543.262C841.967 543.469 842.304 543.643 842.73 543.78C843.164 543.91 843.642 543.973 844.168 543.973C844.849 543.973 845.368 543.836 845.724 543.558C846.079 543.273 846.257 542.899 846.257 542.432C846.257 541.958 846.087 541.58 845.753 541.291C845.416 540.994 844.824 540.72 843.975 540.461C842.501 540.039 841.386 539.535 840.626 538.949C839.874 538.357 839.5 537.553 839.5 536.534C839.5 535.537 839.922 534.719 840.774 534.074C841.634 533.433 842.705 533.104 843.99 533.081C844.946 533.081 845.816 533.229 846.598 533.526C847.387 533.815 848.05 534.2 848.584 534.682V537.216Z" fill="#FE6601"/>
<path d="M849.736 534.756V533.259H854.878V534.756L853.56 535.008V538.594H858.627V535.008L857.294 534.756V533.259H862.436V534.756L861.102 535.008V543.929L862.436 544.181V545.677H857.294V544.181L858.627 543.929V540.52H853.56V543.929L854.878 544.181V545.677H849.736V544.181L851.055 543.929V535.008L849.736 534.756Z" fill="#FE6601"/>
<path d="M863.391 534.756V533.259H868.533V534.756L867.199 535.008V543.929L868.533 544.181V545.677H863.391V544.181L864.709 543.929V535.008L863.391 534.756Z" fill="#FE6601"/>
<path d="M875.384 533.259C876.807 533.259 877.926 533.626 878.748 534.356C879.567 535.089 879.978 536.041 879.978 537.216C879.978 538.412 879.567 539.372 878.748 540.091C877.926 540.813 876.807 541.172 875.384 541.172H873.295V543.929L874.614 544.181V545.677H869.472V544.181L870.791 543.929V535.008L869.472 534.756V533.259H875.384ZM873.295 539.261H875.384C876.073 539.261 876.599 539.076 876.955 538.698C877.311 538.312 877.489 537.831 877.489 537.245C877.489 536.645 877.311 536.149 876.955 535.764C876.599 535.371 876.073 535.171 875.384 535.171H873.295V539.261Z" fill="#FE6601"/>
<path d="M894.493 537.216H892.626L892.3 535.512C892.081 535.386 891.766 535.271 891.351 535.171C890.936 535.063 890.496 535.008 890.033 535.008C889.351 535.008 888.821 535.152 888.447 535.437C888.069 535.726 887.884 536.097 887.884 536.549C887.884 536.975 888.077 537.319 888.462 537.586C888.854 537.853 889.532 538.142 890.492 538.446C891.863 538.823 892.9 539.327 893.604 539.957C894.315 540.579 894.671 541.402 894.671 542.417C894.671 543.484 894.248 544.325 893.411 544.936C892.57 545.551 891.459 545.855 890.077 545.855C889.099 545.855 888.21 545.699 887.41 545.396C886.617 545.081 885.961 544.647 885.439 544.091V541.498H887.365L887.632 543.262C887.876 543.469 888.214 543.643 888.64 543.78C889.073 543.91 889.551 543.973 890.077 543.973C890.759 543.973 891.277 543.836 891.633 543.558C891.989 543.273 892.166 542.899 892.166 542.432C892.166 541.958 891.996 541.58 891.663 541.291C891.325 540.994 890.733 540.72 889.884 540.461C888.41 540.039 887.295 539.535 886.535 538.949C885.783 538.357 885.409 537.553 885.409 536.534C885.409 535.537 885.832 534.719 886.684 534.074C887.543 533.433 888.614 533.104 889.899 533.081C890.855 533.081 891.726 533.229 892.507 533.526C893.296 533.815 893.959 534.2 894.493 534.682V537.216Z" fill="#FE6601"/>
<path d="M900.18 534.756L899.157 534.904L901.099 538.979H901.143L903.07 534.904L902.062 534.756V533.259H906.759V534.756L905.707 534.934L902.329 541.306V543.929L903.662 544.181V545.677H898.52V544.181L899.839 543.929V541.187L896.535 534.934L895.482 534.756V533.259H900.18V534.756Z" fill="#FE6601"/>
<path d="M917.009 537.216H915.141L914.815 535.512C914.597 535.386 914.282 535.271 913.867 535.171C913.452 535.063 913.011 535.008 912.548 535.008C911.867 535.008 911.337 535.152 910.963 535.437C910.585 535.726 910.4 536.097 910.4 536.549C910.4 536.975 910.592 537.319 910.977 537.586C911.37 537.853 912.048 538.142 913.008 538.446C914.378 538.823 915.416 539.327 916.119 539.957C916.831 540.579 917.186 541.402 917.186 542.417C917.186 543.484 916.764 544.325 915.927 544.936C915.086 545.551 913.974 545.855 912.593 545.855C911.615 545.855 910.726 545.699 909.925 545.396C909.133 545.081 908.477 544.647 907.954 544.091V541.498H909.881L910.148 543.262C910.392 543.469 910.729 543.643 911.155 543.78C911.589 543.91 912.067 543.973 912.593 543.973C913.274 543.973 913.793 543.836 914.149 543.558C914.504 543.273 914.682 542.899 914.682 542.432C914.682 541.958 914.512 541.58 914.178 541.291C913.841 540.994 913.248 540.72 912.4 540.461C910.926 540.039 909.81 539.535 909.051 538.949C908.299 538.357 907.925 537.553 907.925 536.534C907.925 535.537 908.347 534.719 909.199 534.074C910.059 533.433 911.129 533.104 912.415 533.081C913.371 533.081 914.241 533.229 915.023 533.526C915.812 533.815 916.475 534.2 917.009 534.682V537.216Z" fill="#FE6601"/>
<path d="M929.098 533.259V536.564H927.186L927.082 535.171H924.8V543.929L926.134 544.181V545.677H920.977V544.181L922.311 543.929V535.171H920.029L919.925 536.564H918.028V533.259H929.098Z" fill="#FE6601"/>
<path d="M937.922 540.224H933.728V543.766H937.729L937.848 542.284H939.73V545.677H929.905V544.181L931.224 543.929V535.008L929.905 534.756V533.259H939.715V536.668H937.804L937.7 535.171H933.728V538.298H937.922V540.224Z" fill="#FE6601"/>
<path d="M953.049 536.49L953.004 536.475L949.67 545.677H947.996L944.691 536.519H944.632L944.884 541.973V543.929L946.203 544.181V545.677H941.061V544.181L942.379 543.929V535.008L941.061 534.756V533.259H945.639L948.796 542.417H948.855L952.041 533.259H956.635V534.756L955.301 535.008V543.929L956.635 544.181V545.677H951.493V544.181L952.812 543.929V541.973L953.049 536.49Z" fill="#FE6601"/>
<mask id="mask6_290_911" style="mask-type:luminance" maskUnits="userSpaceOnUse" x="841" y="430" width="46" height="23">
<path d="M841.918 430.877H886.007V452.557H841.918V430.877Z" fill="white"/>
</mask>
<g mask="url(#mask6_290_911)">
<path d="M885.807 448.182V430.955C885.573 431.185 885.318 431.404 885.062 431.6C884.821 431.785 884.573 431.952 884.318 432.111C883.469 432.63 882.525 432.982 881.535 433.134C880.205 433.337 878.831 433.26 877.486 433.26H867.973C867.939 433.26 867.902 433.26 867.869 433.252V433.871C867.869 433.945 867.873 434.012 867.869 434.089C867.847 434.49 867.55 434.79 867.147 434.808C866.439 434.841 865.717 434.808 865.002 434.808H861.538C861.234 434.808 860.934 434.812 860.63 434.808C860.178 434.797 859.863 434.493 859.86 434.038C859.856 433.778 859.856 433.515 859.856 433.26C859.826 433.263 859.789 433.263 859.76 433.263C859.741 433.263 859.715 433.263 859.697 433.263C858.344 433.282 856.988 433.263 855.64 433.263H849.609C848.116 433.263 846.593 433.36 845.152 432.897C844.552 432.704 843.967 432.441 843.415 432.119C843.159 431.963 842.911 431.8 842.67 431.618C842.407 431.422 842.159 431.207 841.925 430.981V449.756C841.925 449.897 841.922 450.034 841.933 450.175C842.029 451.486 843.1 452.498 844.415 452.516C844.737 452.524 845.056 452.516 845.378 452.516H881.973C882.399 452.516 882.832 452.516 883.258 452.516C884.71 452.513 885.799 451.372 885.807 449.934C885.807 449.341 885.807 448.764 885.807 448.182Z" fill="#1E5192"/>
</g>
<mask id="mask7_290_911" style="mask-type:luminance" maskUnits="userSpaceOnUse" x="841" y="412" width="46" height="19">
<path d="M841.918 412.732H886.007V430.877H841.918V412.732Z" fill="white"/>
</mask>
<g mask="url(#mask7_290_911)">
<path d="M885.796 423.275V421.568C885.703 420.267 884.64 419.241 883.318 419.222C883.229 419.222 883.143 419.222 883.054 419.222H872.411V415.514C872.411 414.758 872.196 414.043 871.652 413.499C871.14 412.98 870.451 412.743 869.729 412.739C869.081 412.739 868.436 412.739 867.784 412.739H858.278C858.152 412.739 858.03 412.732 857.907 412.739C856.485 412.769 855.362 413.895 855.325 415.322C855.296 416.614 855.31 417.922 855.322 419.222H844.945C844.793 419.222 844.641 419.222 844.489 419.222C843.822 419.222 843.204 419.452 842.711 419.908C842.233 420.356 841.981 420.964 841.94 421.605V424.013C841.94 424.361 841.94 424.705 841.94 425.05C841.94 425.202 841.94 425.346 841.952 425.494C841.955 425.598 841.966 425.698 841.977 425.802C841.977 425.817 841.981 425.832 841.981 425.846C842.007 425.991 842.026 426.135 842.055 426.272C842.129 426.621 842.241 426.961 842.363 427.295C842.363 427.302 842.363 427.302 842.37 427.306C842.37 427.31 842.37 427.31 842.374 427.317C842.378 427.325 842.378 427.332 842.385 427.339C842.415 427.41 842.448 427.48 842.481 427.551C842.548 427.676 842.611 427.802 842.681 427.925C842.692 427.947 842.7 427.965 842.715 427.98C842.811 428.14 842.911 428.299 843.018 428.447C843.063 428.514 843.115 428.566 843.152 428.632C843.148 428.621 843.144 428.61 843.137 428.603C843.148 428.617 843.152 428.625 843.163 428.636C843.248 428.74 843.337 428.843 843.43 428.943C843.574 429.099 843.73 429.247 843.889 429.392C843.952 429.451 844.019 429.507 844.085 429.558C844.097 429.57 844.111 429.581 844.126 429.588C844.211 429.644 844.245 429.662 844.248 429.67C844.245 429.67 844.219 429.647 844.185 429.629C844.289 429.699 844.389 429.777 844.493 429.847C844.771 430.025 845.06 430.185 845.356 430.325C845.645 430.414 845.493 430.377 845.397 430.344C845.408 430.348 845.412 430.348 845.423 430.355C845.508 430.385 845.586 430.418 845.671 430.444C845.83 430.499 845.99 430.548 846.145 430.592C846.319 430.636 846.493 430.677 846.675 430.711C846.734 430.722 846.794 430.733 846.853 430.74C846.886 430.748 846.923 430.748 846.953 430.751C847.394 430.792 847.838 430.781 848.283 430.781H859.775C859.812 430.781 859.845 430.781 859.878 430.785V429.588C859.878 429.244 859.83 428.869 860.112 428.61C860.356 428.388 860.675 428.421 860.979 428.421H866.984C867.043 428.421 867.11 428.421 867.169 428.421C867.554 428.443 867.828 428.71 867.877 429.084C867.884 429.103 867.884 429.121 867.884 429.144C867.884 429.151 867.884 429.162 867.884 429.173V430.792C867.917 430.785 867.954 430.785 867.988 430.785H868.051C869.366 430.762 870.685 430.785 871.992 430.785H880.176C880.391 430.785 880.598 430.777 880.813 430.755C880.85 430.751 880.895 430.748 880.935 430.74C880.987 430.733 881.039 430.725 881.091 430.718C881.265 430.681 881.443 430.648 881.617 430.596C881.791 430.551 881.958 430.499 882.128 430.44C882.206 430.407 882.28 430.377 882.362 430.348C882.669 430.207 882.962 430.051 883.243 429.866C883.34 429.807 883.429 429.747 883.518 429.684C883.544 429.662 883.621 429.603 883.658 429.581L883.662 429.573C883.666 429.57 883.677 429.566 883.677 429.558C883.747 429.507 883.81 429.447 883.873 429.392C884.033 429.251 884.184 429.103 884.333 428.943C884.425 428.843 884.514 428.747 884.599 428.636C884.603 428.625 884.614 428.621 884.622 428.61C884.659 428.547 884.714 428.484 884.759 428.421C884.855 428.288 884.944 428.151 885.022 428.01C885.036 427.98 885.055 427.951 885.07 427.925C885.148 427.791 885.222 427.658 885.285 427.521C885.314 427.454 885.351 427.384 885.381 427.321C885.503 426.991 885.614 426.661 885.688 426.313C885.711 426.202 885.733 426.091 885.751 425.98V425.976V425.969C885.751 425.965 885.751 425.961 885.751 425.954C885.751 425.95 885.751 425.946 885.755 425.939C885.763 425.891 885.77 425.828 885.777 425.787C885.785 425.698 885.792 425.602 885.796 425.513C885.8 425.368 885.807 425.224 885.811 425.08V424.098C885.8 423.805 885.796 423.542 885.796 423.275ZM869.944 415.34C869.944 415.344 869.944 415.351 869.947 415.351V415.355C869.955 415.381 869.959 415.396 869.947 415.37C869.944 415.373 869.933 415.366 869.929 415.355C869.955 416.648 869.944 417.937 869.933 419.226H857.804V415.618C857.804 415.533 857.804 415.444 857.804 415.359C857.789 415.381 857.778 415.384 857.774 415.381C857.763 415.396 857.763 415.366 857.77 415.329C857.744 415.359 857.73 415.366 857.77 415.322C857.77 415.299 857.774 415.284 857.778 415.266C857.778 415.266 857.778 415.266 857.774 415.266C857.774 415.266 857.774 415.266 857.778 415.266C857.785 415.255 857.785 415.24 857.789 415.233C857.756 415.233 857.763 415.221 857.796 415.218C857.8 415.192 857.811 415.181 857.811 415.21C857.819 415.21 857.83 415.207 857.844 415.207C857.844 415.203 857.844 415.203 857.844 415.196V415.203C857.863 415.196 857.878 415.196 857.9 415.192C857.919 415.17 857.93 415.166 857.933 415.162C857.93 415.166 857.919 415.177 857.904 415.192C857.944 415.184 857.974 415.184 857.959 415.196C857.963 415.203 857.959 415.21 857.937 415.225C857.978 415.225 858.019 415.225 858.059 415.225H869.384C869.533 415.225 869.677 415.221 869.825 415.225C869.814 415.221 869.81 415.221 869.803 415.218C869.77 415.196 869.781 415.192 869.803 415.184C869.788 415.177 869.796 415.177 869.81 415.184C869.814 415.184 869.825 415.184 869.829 415.184C869.81 415.17 869.799 415.162 869.796 415.155C869.796 415.155 869.81 415.166 869.833 415.184C869.855 415.184 869.873 415.192 869.896 415.192C869.903 415.192 869.91 415.196 869.918 415.196C869.918 415.184 869.918 415.181 869.925 415.181C869.925 415.181 869.929 415.184 869.929 415.196C869.973 415.207 869.992 415.218 869.929 415.221C869.929 415.233 869.929 415.236 869.929 415.247C869.944 415.251 869.955 415.255 869.959 415.255C869.955 415.255 869.94 415.255 869.929 415.251V415.255C869.933 415.262 869.944 415.266 869.955 415.277C869.947 415.277 869.944 415.27 869.933 415.266C869.933 415.277 869.94 415.281 869.94 415.292C869.955 415.31 869.973 415.329 869.988 415.34C869.973 415.329 869.959 415.314 869.944 415.307C869.944 415.325 869.944 415.329 869.944 415.34Z" fill="#1E5192"/>
</g>
<rect x="656" y="635.116" width="416" height="41" rx="8" fill="#FE6601"/>
<path d="M845.451 661.116V660.063L846.538 659.858V652.427L845.451 652.222V651.163H846.538H848.261H849.43V652.222L848.261 652.427V659.797H851.371L851.487 658.293H852.807V661.116H845.451ZM857.195 661.26C856.484 661.26 855.874 661.1 855.363 660.781C854.853 660.462 854.461 660.02 854.188 659.455C853.914 658.885 853.777 658.231 853.777 657.493V657.349C853.777 656.616 853.914 655.966 854.188 655.401C854.461 654.836 854.853 654.392 855.363 654.068C855.874 653.745 856.48 653.583 857.182 653.583C857.893 653.583 858.503 653.745 859.014 654.068C859.524 654.387 859.916 654.829 860.189 655.394C860.463 655.959 860.6 656.611 860.6 657.349V657.493C860.6 658.231 860.463 658.885 860.189 659.455C859.916 660.02 859.524 660.462 859.014 660.781C858.508 661.1 857.902 661.26 857.195 661.26ZM857.195 659.933C857.578 659.933 857.893 659.831 858.139 659.626C858.389 659.416 858.576 659.129 858.699 658.764C858.822 658.395 858.884 657.971 858.884 657.493V657.349C858.884 656.875 858.822 656.456 858.699 656.092C858.576 655.727 858.389 655.44 858.139 655.23C857.888 655.021 857.569 654.916 857.182 654.916C856.803 654.916 856.489 655.021 856.238 655.23C855.988 655.44 855.801 655.727 855.678 656.092C855.559 656.456 855.5 656.875 855.5 657.349V657.493C855.5 657.971 855.559 658.395 855.678 658.764C855.801 659.129 855.988 659.416 856.238 659.626C856.493 659.831 856.812 659.933 857.195 659.933ZM864.961 664.103C864.596 664.103 864.191 664.053 863.744 663.953C863.302 663.857 862.912 663.723 862.575 663.55L862.931 662.292C863.222 662.424 863.544 662.531 863.895 662.613C864.245 662.695 864.578 662.736 864.893 662.736C865.458 662.736 865.87 662.579 866.13 662.264C866.394 661.955 866.526 661.515 866.526 660.945V660.364C866.299 660.656 866.027 660.879 865.713 661.034C865.398 661.184 865.038 661.26 864.633 661.26C864.031 661.26 863.512 661.109 863.074 660.808C862.641 660.508 862.309 660.086 862.076 659.544C861.848 659.001 861.734 658.372 861.734 657.657V657.513C861.734 656.725 861.848 656.037 862.076 655.449C862.309 654.861 862.639 654.403 863.067 654.075C863.5 653.747 864.015 653.583 864.612 653.583C865.063 653.583 865.455 653.676 865.788 653.863C866.121 654.045 866.403 654.307 866.636 654.649L866.766 653.719H868.249V660.952C868.249 661.594 868.119 662.15 867.859 662.62C867.6 663.094 867.224 663.458 866.731 663.714C866.239 663.973 865.649 664.103 864.961 664.103ZM865.098 659.899C865.43 659.899 865.713 659.829 865.945 659.687C866.182 659.546 866.376 659.341 866.526 659.072V655.777C866.376 655.517 866.182 655.315 865.945 655.169C865.708 655.018 865.428 654.943 865.104 654.943C864.726 654.943 864.414 655.052 864.168 655.271C863.926 655.485 863.746 655.786 863.628 656.174C863.514 656.556 863.457 657.003 863.457 657.513V657.657C863.457 658.341 863.587 658.885 863.847 659.291C864.111 659.696 864.528 659.899 865.098 659.899ZM868.017 655.018L867.292 653.719H869.138V654.779L868.017 655.018ZM869.732 661.116V660.063L870.758 659.858V654.984L869.671 654.779V653.719H872.48V659.858L873.499 660.063V661.116H869.732ZM870.689 652.045V650.452H872.48V652.045H870.689ZM874.237 661.116V660.063L875.263 659.858V654.984L874.183 654.779V653.719H876.849L876.938 654.793C877.184 654.41 877.489 654.114 877.854 653.904C878.223 653.69 878.64 653.583 879.104 653.583C879.866 653.583 880.458 653.817 880.882 654.287C881.306 654.752 881.518 655.481 881.518 656.474V659.858L882.543 660.063V661.116H878.831V660.063L879.795 659.858V656.488C879.795 655.927 879.683 655.531 879.46 655.299C879.237 655.062 878.904 654.943 878.462 654.943C878.129 654.943 877.838 655.018 877.587 655.169C877.341 655.315 877.14 655.52 876.985 655.784V659.858L877.922 660.063V661.116H874.237Z" fill="white"/>
<path d="M743.827 711.116V709.762L745.225 709.499V699.945L743.827 699.681V698.319H745.225H749.83C750.785 698.319 751.603 698.486 752.282 698.82C752.968 699.154 753.492 699.62 753.855 700.218C754.219 700.809 754.4 701.504 754.4 702.301C754.4 703.097 754.219 703.795 753.855 704.392C753.492 704.984 752.968 705.444 752.282 705.772C751.603 706.1 750.785 706.264 749.83 706.264H747.439V709.499L748.837 709.762V711.116H743.827ZM747.439 704.551H749.83C750.615 704.551 751.204 704.34 751.597 703.918C751.989 703.496 752.186 702.963 752.186 702.318C752.186 701.662 751.989 701.117 751.597 700.683C751.204 700.25 750.615 700.033 749.83 700.033H747.439V704.551ZM758.426 711.301C757.459 711.301 756.706 711.052 756.167 710.553C755.628 710.055 755.358 709.37 755.358 708.497C755.358 707.6 755.725 706.874 756.457 706.317C757.189 705.76 758.235 705.482 759.595 705.482H761.045V704.682C761.045 704.178 760.893 703.777 760.588 703.478C760.289 703.179 759.853 703.03 759.278 703.03C758.95 703.03 758.66 703.071 758.408 703.153C758.156 703.229 757.931 703.341 757.731 703.487L757.529 704.77H755.903L755.886 702.424C756.354 702.119 756.876 701.879 757.45 701.703C758.024 701.521 758.663 701.43 759.366 701.43C760.573 701.43 761.522 701.715 762.214 702.283C762.911 702.845 763.26 703.654 763.26 704.709V708.901C763.26 709.03 763.26 709.156 763.26 709.279C763.266 709.402 763.274 709.522 763.286 709.639L764.253 709.762V711.116H761.361C761.303 710.911 761.247 710.712 761.194 710.518C761.147 710.325 761.112 710.132 761.089 709.938C760.772 710.337 760.389 710.665 759.938 710.923C759.492 711.175 758.988 711.301 758.426 711.301ZM758.927 709.587C759.372 709.587 759.788 709.484 760.175 709.279C760.562 709.068 760.852 708.804 761.045 708.488V706.897H759.568C758.906 706.897 758.405 707.052 758.065 707.363C757.731 707.668 757.564 708.025 757.564 708.435C757.564 708.804 757.682 709.089 757.916 709.288C758.15 709.487 758.487 709.587 758.927 709.587ZM769.324 711.301C768.645 711.301 768.009 711.236 767.417 711.107C766.831 710.972 766.242 710.776 765.65 710.518L765.624 708.005H767.215L767.549 709.376C767.801 709.487 768.059 709.575 768.322 709.639C768.592 709.698 768.891 709.727 769.219 709.727C769.852 709.727 770.297 709.616 770.555 709.393C770.818 709.171 770.95 708.895 770.95 708.567C770.95 708.251 770.812 707.981 770.537 707.759C770.268 707.53 769.749 707.334 768.981 707.17C767.845 706.924 767.007 706.566 766.468 706.097C765.935 705.623 765.668 705.008 765.668 704.252C765.668 703.73 765.806 703.259 766.081 702.837C766.362 702.415 766.772 702.078 767.312 701.826C767.856 701.568 768.524 701.439 769.315 701.439C770.036 701.439 770.675 701.515 771.231 701.668C771.794 701.814 772.271 702.01 772.664 702.257L772.717 704.674H771.144L770.871 703.417C770.689 703.288 770.479 703.188 770.238 703.118C769.998 703.048 769.723 703.012 769.412 703.012C768.926 703.012 768.542 703.121 768.261 703.338C767.979 703.549 767.839 703.815 767.839 704.137C767.839 704.325 767.883 704.495 767.971 704.647C768.064 704.8 768.24 704.94 768.498 705.069C768.762 705.192 769.146 705.312 769.649 705.429C770.886 705.717 771.771 706.092 772.304 706.554C772.837 707.017 773.104 707.63 773.104 708.391C773.104 709.241 772.793 709.938 772.172 710.483C771.551 711.028 770.602 711.301 769.324 711.301ZM778.377 711.301C777.697 711.301 777.062 711.236 776.47 711.107C775.884 710.972 775.295 710.776 774.703 710.518L774.677 708.005H776.268L776.602 709.376C776.854 709.487 777.111 709.575 777.375 709.639C777.645 709.698 777.943 709.727 778.271 709.727C778.904 709.727 779.35 709.616 779.607 709.393C779.871 709.171 780.003 708.895 780.003 708.567C780.003 708.251 779.865 707.981 779.59 707.759C779.32 707.53 778.802 707.334 778.034 707.17C776.897 706.924 776.06 706.566 775.521 706.097C774.987 705.623 774.721 705.008 774.721 704.252C774.721 703.73 774.858 703.259 775.134 702.837C775.415 702.415 775.825 702.078 776.364 701.826C776.909 701.568 777.577 701.439 778.368 701.439C779.089 701.439 779.728 701.515 780.284 701.668C780.847 701.814 781.324 702.01 781.717 702.257L781.77 704.674H780.196L779.924 703.417C779.742 703.288 779.531 703.188 779.291 703.118C779.051 703.048 778.775 703.012 778.465 703.012C777.979 703.012 777.595 703.121 777.313 703.338C777.032 703.549 776.892 703.815 776.892 704.137C776.892 704.325 776.936 704.495 777.023 704.647C777.117 704.8 777.293 704.94 777.551 705.069C777.814 705.192 778.198 705.312 778.702 705.429C779.938 705.717 780.823 706.092 781.356 706.554C781.89 707.017 782.156 707.63 782.156 708.391C782.156 709.241 781.846 709.938 781.225 710.483C780.604 711.028 779.654 711.301 778.377 711.301ZM786.665 711.116L784.327 703.144L783.211 702.969V701.606H787.526V702.969L786.454 703.162L787.518 707.293L787.737 708.189H787.79L788.098 707.293L790.093 701.606H791.701L793.626 707.328L793.951 708.339H794.004L794.312 707.328L795.463 703.162L794.32 702.969V701.606H798.548V702.969L797.458 703.153L795.023 711.116H793.081L791.262 705.983L790.893 704.735H790.84L790.471 705.983L788.607 711.116H786.665ZM803.733 711.301C802.819 711.301 802.034 711.095 801.378 710.685C800.722 710.275 800.218 709.707 799.866 708.98C799.515 708.248 799.339 707.407 799.339 706.458V706.273C799.339 705.33 799.515 704.495 799.866 703.768C800.218 703.042 800.722 702.47 801.378 702.054C802.034 701.638 802.813 701.43 803.716 701.43C804.63 701.43 805.415 701.638 806.071 702.054C806.728 702.465 807.231 703.033 807.583 703.76C807.935 704.486 808.11 705.324 808.11 706.273V706.458C808.11 707.407 807.935 708.248 807.583 708.98C807.231 709.707 806.728 710.275 806.071 710.685C805.421 711.095 804.642 711.301 803.733 711.301ZM803.733 709.595C804.226 709.595 804.63 709.464 804.946 709.2C805.269 708.93 805.509 708.561 805.667 708.093C805.825 707.618 805.904 707.073 805.904 706.458V706.273C805.904 705.664 805.825 705.125 805.667 704.656C805.509 704.187 805.269 703.818 804.946 703.549C804.624 703.279 804.214 703.144 803.716 703.144C803.229 703.144 802.825 703.279 802.503 703.549C802.181 703.818 801.94 704.187 801.782 704.656C801.63 705.125 801.554 705.664 801.554 706.273V706.458C801.554 707.073 801.63 707.618 801.782 708.093C801.94 708.561 802.181 708.93 802.503 709.2C802.831 709.464 803.241 709.595 803.733 709.595ZM809.438 711.116V709.762L810.756 709.499V703.232L809.367 702.969V701.606H812.795L812.909 702.802L812.927 702.995C813.179 702.491 813.486 702.104 813.85 701.835C814.219 701.565 814.649 701.43 815.142 701.43C815.306 701.43 815.479 701.445 815.66 701.474C815.848 701.504 816 701.536 816.117 701.571L815.862 703.619L814.623 703.549C814.219 703.525 813.885 703.604 813.621 703.786C813.363 703.968 813.146 704.219 812.971 704.542V709.499L814.289 709.762V711.116H809.438ZM820.538 711.301C819.771 711.301 819.114 711.107 818.569 710.72C818.024 710.334 817.605 709.795 817.312 709.103C817.025 708.406 816.882 707.594 816.882 706.669V706.484C816.882 705.47 817.025 704.586 817.312 703.83C817.605 703.074 818.024 702.485 818.569 702.063C819.12 701.641 819.773 701.43 820.529 701.43C821.074 701.43 821.549 701.536 821.953 701.747C822.363 701.952 822.715 702.248 823.008 702.635V699.031L821.61 698.767V697.405H823.008H825.223V709.499L826.541 709.762V711.116H823.307L823.131 709.965C822.832 710.404 822.466 710.738 822.032 710.967C821.604 711.189 821.106 711.301 820.538 711.301ZM821.162 709.552C821.584 709.552 821.947 709.461 822.252 709.279C822.557 709.092 822.809 708.822 823.008 708.47V704.278C822.814 703.938 822.562 703.672 822.252 703.478C821.947 703.279 821.59 703.179 821.18 703.179C820.699 703.179 820.304 703.32 819.993 703.601C819.688 703.877 819.463 704.263 819.316 704.761C819.17 705.254 819.097 705.828 819.097 706.484V706.669C819.097 707.548 819.258 708.248 819.58 708.769C819.908 709.291 820.436 709.552 821.162 709.552ZM832.061 711.116V709.762L833.379 709.499V703.232L831.99 702.969V701.606H835.418L835.532 702.802L835.55 702.995C835.802 702.491 836.109 702.104 836.473 701.835C836.842 701.565 837.272 701.43 837.765 701.43C837.929 701.43 838.102 701.445 838.283 701.474C838.471 701.504 838.623 701.536 838.74 701.571L838.485 703.619L837.246 703.549C836.842 703.525 836.508 703.604 836.244 703.786C835.986 703.968 835.77 704.219 835.594 704.542V709.499L836.912 709.762V711.116H832.061ZM843.926 711.301C843.029 711.301 842.247 711.101 841.579 710.703C840.917 710.299 840.401 709.742 840.032 709.033C839.669 708.324 839.487 707.512 839.487 706.598V706.229C839.487 705.303 839.666 704.48 840.023 703.76C840.387 703.039 840.885 702.47 841.518 702.054C842.15 701.638 842.871 701.43 843.68 701.43C844.541 701.43 845.262 701.603 845.842 701.949C846.428 702.295 846.87 702.787 847.169 703.426C847.468 704.058 847.617 704.82 847.617 705.711V706.976H841.781L841.764 707.02C841.787 707.518 841.89 707.961 842.071 708.347C842.259 708.734 842.522 709.039 842.862 709.261C843.208 709.484 843.627 709.595 844.119 709.595C844.635 709.595 845.104 709.525 845.525 709.385C845.947 709.244 846.337 709.045 846.694 708.787L847.389 710.176C847.014 710.492 846.536 710.759 845.956 710.975C845.376 711.192 844.699 711.301 843.926 711.301ZM841.816 705.421H845.499V705.192C845.499 704.776 845.435 704.413 845.306 704.102C845.183 703.786 844.986 703.54 844.717 703.364C844.453 703.188 844.116 703.1 843.706 703.1C843.349 703.1 843.035 703.2 842.766 703.399C842.496 703.598 842.279 703.871 842.115 704.217C841.957 704.556 841.849 704.943 841.79 705.377L841.816 705.421ZM852.891 711.301C852.211 711.301 851.575 711.236 850.983 711.107C850.397 710.972 849.809 710.776 849.217 710.518L849.19 708.005H850.781L851.115 709.376C851.367 709.487 851.625 709.575 851.889 709.639C852.158 709.698 852.457 709.727 852.785 709.727C853.418 709.727 853.863 709.616 854.121 709.393C854.385 709.171 854.517 708.895 854.517 708.567C854.517 708.251 854.379 707.981 854.104 707.759C853.834 707.53 853.315 707.334 852.548 707.17C851.411 706.924 850.573 706.566 850.034 706.097C849.501 705.623 849.234 705.008 849.234 704.252C849.234 703.73 849.372 703.259 849.647 702.837C849.929 702.415 850.339 702.078 850.878 701.826C851.423 701.568 852.091 701.439 852.882 701.439C853.603 701.439 854.241 701.515 854.798 701.668C855.36 701.814 855.838 702.01 856.23 702.257L856.283 704.674H854.71L854.438 703.417C854.256 703.288 854.045 703.188 853.805 703.118C853.564 703.048 853.289 703.012 852.979 703.012C852.492 703.012 852.108 703.121 851.827 703.338C851.546 703.549 851.405 703.815 851.405 704.137C851.405 704.325 851.449 704.495 851.537 704.647C851.631 704.8 851.807 704.94 852.064 705.069C852.328 705.192 852.712 705.312 853.216 705.429C854.452 705.717 855.337 706.092 855.87 706.554C856.403 707.017 856.67 707.63 856.67 708.391C856.67 709.241 856.359 709.938 855.738 710.483C855.117 711.028 854.168 711.301 852.891 711.301ZM862.418 711.301C861.521 711.301 860.739 711.101 860.071 710.703C859.409 710.299 858.894 709.742 858.524 709.033C858.161 708.324 857.979 707.512 857.979 706.598V706.229C857.979 705.303 858.158 704.48 858.516 703.76C858.879 703.039 859.377 702.47 860.01 702.054C860.643 701.638 861.363 701.43 862.172 701.43C863.033 701.43 863.754 701.603 864.334 701.949C864.92 702.295 865.362 702.787 865.661 703.426C865.96 704.058 866.109 704.82 866.109 705.711V706.976H860.273L860.256 707.02C860.279 707.518 860.382 707.961 860.563 708.347C860.751 708.734 861.015 709.039 861.354 709.261C861.7 709.484 862.119 709.595 862.611 709.595C863.127 709.595 863.596 709.525 864.018 709.385C864.439 709.244 864.829 709.045 865.187 708.787L865.881 710.176C865.506 710.492 865.028 710.759 864.448 710.975C863.868 711.192 863.191 711.301 862.418 711.301ZM860.309 705.421H863.991V705.192C863.991 704.776 863.927 704.413 863.798 704.102C863.675 703.786 863.479 703.54 863.209 703.364C862.945 703.188 862.608 703.1 862.198 703.1C861.841 703.1 861.527 703.2 861.258 703.399C860.988 703.598 860.771 703.871 860.607 704.217C860.449 704.556 860.341 704.943 860.282 705.377L860.309 705.421ZM870.943 711.283C870.135 711.283 869.505 711.057 869.054 710.606C868.603 710.149 868.377 709.423 868.377 708.427V703.188H866.988V701.606H868.377V699.295H870.583V701.606H872.464V703.188H870.583V708.427C870.583 708.831 870.665 709.127 870.829 709.314C870.999 709.496 871.228 709.587 871.515 709.587C871.679 709.587 871.86 709.572 872.06 709.543C872.265 709.513 872.429 709.484 872.552 709.455L872.78 711.01C872.522 711.087 872.227 711.151 871.893 711.204C871.564 711.257 871.248 711.283 870.943 711.283ZM882.246 711.301C881.566 711.301 880.931 711.236 880.339 711.107C879.753 710.972 879.164 710.776 878.572 710.518L878.546 708.005H880.137L880.471 709.376C880.723 709.487 880.98 709.575 881.244 709.639C881.514 709.698 881.812 709.727 882.141 709.727C882.773 709.727 883.219 709.616 883.477 709.393C883.74 709.171 883.872 708.895 883.872 708.567C883.872 708.251 883.734 707.981 883.459 707.759C883.189 707.53 882.671 707.334 881.903 707.17C880.767 706.924 879.929 706.566 879.39 706.097C878.856 705.623 878.59 705.008 878.59 704.252C878.59 703.73 878.728 703.259 879.003 702.837C879.284 702.415 879.694 702.078 880.233 701.826C880.778 701.568 881.446 701.439 882.237 701.439C882.958 701.439 883.597 701.515 884.153 701.668C884.716 701.814 885.193 702.01 885.586 702.257L885.639 704.674H884.065L883.793 703.417C883.611 703.288 883.4 703.188 883.16 703.118C882.92 703.048 882.645 703.012 882.334 703.012C881.848 703.012 881.464 703.121 881.183 703.338C880.901 703.549 880.761 703.815 880.761 704.137C880.761 704.325 880.805 704.495 880.893 704.647C880.986 704.8 881.162 704.94 881.42 705.069C881.684 705.192 882.067 705.312 882.571 705.429C883.808 705.717 884.692 706.092 885.226 706.554C885.759 707.017 886.025 707.63 886.025 708.391C886.025 709.241 885.715 709.938 885.094 710.483C884.473 711.028 883.523 711.301 882.246 711.301ZM891.413 711.301C890.394 711.301 889.597 710.978 889.022 710.334C888.454 709.683 888.17 708.676 888.17 707.31V703.232L887.098 702.969V701.606H888.17H890.385V707.328C890.385 708.148 890.514 708.725 890.771 709.059C891.035 709.387 891.439 709.552 891.984 709.552C892.465 709.552 892.872 709.458 893.206 709.27C893.546 709.077 893.815 708.804 894.015 708.453V703.232L892.819 702.969V701.606H894.015H896.229V709.499L897.354 709.762V711.116H894.27L894.12 709.824C893.821 710.299 893.44 710.665 892.978 710.923C892.521 711.175 891.999 711.301 891.413 711.301ZM902.804 711.301C901.913 711.301 901.14 711.098 900.483 710.694C899.833 710.284 899.329 709.721 898.972 709.007C898.62 708.286 898.444 707.457 898.444 706.519V706.212C898.444 705.292 898.62 704.471 898.972 703.751C899.323 703.03 899.824 702.465 900.475 702.054C901.131 701.638 901.904 701.43 902.795 701.43C903.609 701.43 904.318 701.562 904.922 701.826C905.525 702.084 906.021 702.406 906.407 702.793L906.416 705.333H904.729L904.403 703.654C904.239 703.484 904.031 703.349 903.779 703.25C903.527 703.144 903.252 703.092 902.953 703.092C902.467 703.092 902.051 703.223 901.705 703.487C901.365 703.751 901.104 704.117 900.923 704.586C900.747 705.049 900.659 705.591 900.659 706.212V706.519C900.659 707.187 900.75 707.75 900.932 708.207C901.113 708.664 901.365 709.01 901.688 709.244C902.016 709.478 902.391 709.595 902.812 709.595C903.322 709.595 903.735 709.458 904.052 709.182C904.374 708.907 904.585 708.526 904.685 708.04H906.601L906.627 708.093C906.557 708.714 906.372 709.267 906.073 709.754C905.78 710.234 905.364 710.612 904.825 710.887C904.292 711.163 903.618 711.301 902.804 711.301ZM912.401 711.301C911.511 711.301 910.737 711.098 910.081 710.694C909.431 710.284 908.927 709.721 908.569 709.007C908.218 708.286 908.042 707.457 908.042 706.519V706.212C908.042 705.292 908.218 704.471 908.569 703.751C908.921 703.03 909.422 702.465 910.072 702.054C910.729 701.638 911.502 701.43 912.393 701.43C913.207 701.43 913.916 701.562 914.52 701.826C915.123 702.084 915.618 702.406 916.005 702.793L916.014 705.333H914.326L914.001 703.654C913.837 703.484 913.629 703.349 913.377 703.25C913.125 703.144 912.85 703.092 912.551 703.092C912.064 703.092 911.648 703.223 911.303 703.487C910.963 703.751 910.702 704.117 910.521 704.586C910.345 705.049 910.257 705.591 910.257 706.212V706.519C910.257 707.187 910.348 707.75 910.529 708.207C910.711 708.664 910.963 709.01 911.285 709.244C911.613 709.478 911.988 709.595 912.41 709.595C912.92 709.595 913.333 709.458 913.649 709.182C913.972 708.907 914.183 708.526 914.282 708.04H916.198L916.225 708.093C916.154 708.714 915.97 709.267 915.671 709.754C915.378 710.234 914.962 710.612 914.423 710.887C913.89 711.163 913.216 711.301 912.401 711.301ZM922.025 711.301C921.129 711.301 920.347 711.101 919.679 710.703C919.017 710.299 918.501 709.742 918.132 709.033C917.769 708.324 917.587 707.512 917.587 706.598V706.229C917.587 705.303 917.766 704.48 918.123 703.76C918.486 703.039 918.984 702.47 919.617 702.054C920.25 701.638 920.971 701.43 921.779 701.43C922.641 701.43 923.361 701.603 923.941 701.949C924.527 702.295 924.97 702.787 925.269 703.426C925.567 704.058 925.717 704.82 925.717 705.711V706.976H919.881L919.863 707.02C919.887 707.518 919.989 707.961 920.171 708.347C920.358 708.734 920.622 709.039 920.962 709.261C921.308 709.484 921.727 709.595 922.219 709.595C922.734 709.595 923.203 709.525 923.625 709.385C924.047 709.244 924.437 709.045 924.794 708.787L925.488 710.176C925.113 710.492 924.636 710.759 924.056 710.975C923.476 711.192 922.799 711.301 922.025 711.301ZM919.916 705.421H923.599V705.192C923.599 704.776 923.534 704.413 923.405 704.102C923.282 703.786 923.086 703.54 922.816 703.364C922.553 703.188 922.216 703.1 921.806 703.1C921.448 703.1 921.135 703.2 920.865 703.399C920.596 703.598 920.379 703.871 920.215 704.217C920.057 704.556 919.948 704.943 919.89 705.377L919.916 705.421ZM930.99 711.301C930.311 711.301 929.675 711.236 929.083 711.107C928.497 710.972 927.908 710.776 927.316 710.518L927.29 708.005H928.881L929.215 709.376C929.467 709.487 929.725 709.575 929.988 709.639C930.258 709.698 930.557 709.727 930.885 709.727C931.518 709.727 931.963 709.616 932.221 709.393C932.484 709.171 932.616 708.895 932.616 708.567C932.616 708.251 932.479 707.981 932.203 707.759C931.934 707.53 931.415 707.334 930.647 707.17C929.511 706.924 928.673 706.566 928.134 706.097C927.601 705.623 927.334 705.008 927.334 704.252C927.334 703.73 927.472 703.259 927.747 702.837C928.028 702.415 928.438 702.078 928.978 701.826C929.522 701.568 930.19 701.439 930.981 701.439C931.702 701.439 932.341 701.515 932.897 701.668C933.46 701.814 933.938 702.01 934.33 702.257L934.383 704.674H932.81L932.537 703.417C932.355 703.288 932.145 703.188 931.904 703.118C931.664 703.048 931.389 703.012 931.078 703.012C930.592 703.012 930.208 703.121 929.927 703.338C929.646 703.549 929.505 703.815 929.505 704.137C929.505 704.325 929.549 704.495 929.637 704.647C929.73 704.8 929.906 704.94 930.164 705.069C930.428 705.192 930.812 705.312 931.315 705.429C932.552 705.717 933.437 706.092 933.97 706.554C934.503 707.017 934.77 707.63 934.77 708.391C934.77 709.241 934.459 709.938 933.838 710.483C933.217 711.028 932.268 711.301 930.99 711.301ZM940.043 711.301C939.363 711.301 938.728 711.236 938.136 711.107C937.55 710.972 936.961 710.776 936.369 710.518L936.343 708.005H937.934L938.268 709.376C938.52 709.487 938.777 709.575 939.041 709.639C939.311 709.698 939.609 709.727 939.938 709.727C940.57 709.727 941.016 709.616 941.273 709.393C941.537 709.171 941.669 708.895 941.669 708.567C941.669 708.251 941.531 707.981 941.256 707.759C940.986 707.53 940.468 707.334 939.7 707.17C938.563 706.924 937.726 706.566 937.187 706.097C936.653 705.623 936.387 705.008 936.387 704.252C936.387 703.73 936.524 703.259 936.8 702.837C937.081 702.415 937.491 702.078 938.03 701.826C938.575 701.568 939.243 701.439 940.034 701.439C940.755 701.439 941.394 701.515 941.95 701.668C942.513 701.814 942.99 702.01 943.383 702.257L943.436 704.674H941.862L941.59 703.417C941.408 703.288 941.197 703.188 940.957 703.118C940.717 703.048 940.441 703.012 940.131 703.012C939.645 703.012 939.261 703.121 938.979 703.338C938.698 703.549 938.558 703.815 938.558 704.137C938.558 704.325 938.602 704.495 938.689 704.647C938.783 704.8 938.959 704.94 939.217 705.069C939.48 705.192 939.864 705.312 940.368 705.429C941.604 705.717 942.489 706.092 943.022 706.554C943.556 707.017 943.822 707.63 943.822 708.391C943.822 709.241 943.512 709.938 942.891 710.483C942.27 711.028 941.32 711.301 940.043 711.301ZM945.176 711.116V709.762L946.503 709.499V703.188H945.053V701.606H946.503V700.49C946.503 699.447 946.79 698.641 947.364 698.073C947.944 697.505 948.753 697.22 949.79 697.22C950.03 697.22 950.288 697.241 950.563 697.282C950.839 697.317 951.091 697.364 951.319 697.423L951.1 699.084C950.977 699.054 950.824 699.031 950.643 699.013C950.461 698.99 950.282 698.978 950.106 698.978C949.638 698.978 949.286 699.107 949.052 699.365C948.823 699.623 948.709 699.998 948.709 700.49V701.606H950.836V703.188H948.709V709.499L950.37 709.762V711.116H945.176ZM955.96 711.301C954.94 711.301 954.144 710.978 953.569 710.334C953.001 709.683 952.717 708.676 952.717 707.31V703.232L951.645 702.969V701.606H952.717H954.932V707.328C954.932 708.148 955.061 708.725 955.318 709.059C955.582 709.387 955.986 709.552 956.531 709.552C957.012 709.552 957.419 709.458 957.753 709.27C958.093 709.077 958.362 708.804 958.562 708.453V703.232L957.366 702.969V701.606H958.562H960.776V709.499L961.901 709.762V711.116H958.816L958.667 709.824C958.368 710.299 957.987 710.665 957.524 710.923C957.067 711.175 956.546 711.301 955.96 711.301ZM962.833 711.116V709.762L964.16 709.499V699.031L962.754 698.767V697.405H966.366V709.499L967.693 709.762V711.116H962.833ZM968.581 711.116V709.762L969.908 709.499V699.031L968.502 698.767V697.405H972.114V709.499L973.441 709.762V711.116H968.581ZM976.79 714.957C976.608 714.957 976.397 714.939 976.157 714.904C975.923 714.869 975.718 714.825 975.542 714.772L975.788 713.111C975.894 713.129 976.02 713.143 976.166 713.155C976.318 713.167 976.438 713.173 976.526 713.173C976.896 713.173 977.206 713.055 977.458 712.821C977.71 712.593 977.915 712.273 978.073 711.863L978.363 711.098L975.111 703.127L974.004 702.969V701.606H978.609V702.969L977.44 703.144L979.093 707.574L979.383 708.4H979.436L981.387 703.135L980.218 702.969V701.606H984.586V702.969L983.558 703.118L979.875 712.549C979.699 712.994 979.479 713.398 979.216 713.761C978.958 714.131 978.63 714.421 978.231 714.632C977.839 714.848 977.358 714.957 976.79 714.957Z" fill="#34A853"/>
<path d="M854 763.116L860.667 769.783L874 756.449M894 763.116C894 779.685 880.569 793.116 864 793.116C847.431 793.116 834 779.685 834 763.116C834 746.547 847.431 733.116 864 733.116C880.569 733.116 894 746.547 894 763.116Z" stroke="#34A853" stroke-width="2" stroke-linecap="round" stroke-linejoin="round"/>
</g>
<defs>
<filter id="filter0_bd_290_911" x="484" y="134" width="760" height="849" filterUnits="userSpaceOnUse" color-interpolation-filters="sRGB">
<feFlood flood-opacity="0" result="BackgroundImageFix"/>
<feGaussianBlur in="BackgroundImageFix" stdDeviation="70"/>
<feComposite in2="SourceAlpha" operator="in" result="effect1_backgroundBlur_290_911"/>
<feColorMatrix in="SourceAlpha" type="matrix" values="0 0 0 0 0 0 0 0 0 0 0 0 0 0 0 0 0 0 127 0" result="hardAlpha"/>
<feMorphology radius="12" operator="erode" in="SourceAlpha" result="effect2_dropShadow_290_911"/>
<feOffset dy="25"/>
<feGaussianBlur stdDeviation="25"/>
<feColorMatrix type="matrix" values="0 0 0 0 0.453889 0 0 0 0 0.369444 0 0 0 0 0.633333 0 0 0 0.25 0"/>
<feBlend mode="normal" in2="effect1_backgroundBlur_290_911" result="effect2_dropShadow_290_911"/>
<feBlend mode="normal" in="SourceGraphic" in2="effect2_dropShadow_290_911" result="shape"/>
</filter>
<linearGradient id="paint0_linear_290_911" x1="864" y1="0" x2="864" y2="1117" gradientUnits="userSpaceOnUse">
<stop stop-color="#1E5192"/>
<stop offset="1" stop-color="white"/>
</linearGradient>
</defs>
</svg>
