<svg width="593" height="130" viewBox="0 0 593 130" fill="none" xmlns="http://www.w3.org/2000/svg">
<mask id="mask0_1146_1648" style="mask-type:luminance" maskUnits="userSpaceOnUse" x="0" y="37" width="88" height="67">
<path d="M0.224121 37.4207H87.9819V103.055H0.224121V37.4207Z" fill="white"/>
</mask>
<g mask="url(#mask0_1146_1648)">
<path d="M87.5852 78.1666C87.3653 76.4502 87.085 75.0616 86.8003 73.8411C86.727 73.5349 86.658 73.2416 86.5804 72.957C86.5071 72.668 86.4338 72.392 86.3605 72.1203C86.2785 71.8486 86.2009 71.5813 86.1276 71.3182C86.0499 71.0551 85.9637 70.7964 85.8818 70.5376C85.0667 67.9673 84.0187 65.4961 82.7378 63.1328C82.837 63.2579 82.9319 63.3829 83.0268 63.508C83.1174 63.6331 83.2122 63.7581 83.3028 63.8832C83.4882 64.129 83.6694 64.3792 83.8505 64.6379C84.0273 64.901 84.2171 65.1641 84.3982 65.453C84.5837 65.742 84.7777 66.0438 84.9675 66.3802C85.3427 67.0056 85.9464 68.3338 86.4122 69.5284C86.8521 70.6627 87.1712 71.5899 87.3869 72.2454C87.6111 72.9009 87.7362 73.2761 87.7836 73.3063C87.8052 73.3236 87.8095 73.2502 87.7836 73.0864C87.7664 72.9225 87.7146 72.668 87.637 72.3101C87.4817 71.5942 87.1971 70.4815 86.6796 68.9376C86.5588 68.5754 86.5028 68.3295 86.4726 68.1139C86.4424 67.8983 86.4381 67.7085 86.3863 67.4713C86.5157 67.7689 86.6278 68.0578 86.74 68.3252C86.8521 68.5926 86.947 68.847 87.0375 69.0842C87.1281 69.3214 87.2187 69.5414 87.292 69.7484C87.3653 69.9511 87.4343 70.1408 87.4947 70.309C87.6197 70.6454 87.706 70.9085 87.775 71.0939C87.844 71.2794 87.8871 71.3829 87.9044 71.4001C87.9346 71.4389 87.8785 71.1241 87.6888 70.4255C87.5939 70.0761 87.4731 69.6276 87.2963 69.0886C87.21 68.8169 87.1152 68.515 87.003 68.1958C86.8909 67.8724 86.7745 67.5231 86.6322 67.1565C85.5066 64.1377 84.1783 61.4293 82.6904 58.9452C81.1939 56.4612 79.5379 54.1927 77.6791 52.0968C76.5492 50.8246 75.3676 49.6386 74.1385 48.5216C72.9094 47.409 71.6328 46.361 70.2959 45.3906C68.9633 44.4246 67.5746 43.5233 66.1256 42.6952C64.6722 41.8672 63.1628 41.1082 61.5844 40.4354C61.2653 40.3017 60.8987 40.1508 60.4933 40.0042C60.0836 39.8575 59.648 39.698 59.1866 39.5556C58.958 39.4823 58.7208 39.409 58.4879 39.3357C58.2507 39.2667 58.0092 39.1977 57.772 39.1287C57.6513 39.0942 57.5348 39.0597 57.4141 39.0252C57.2933 38.995 57.1769 38.9648 57.0561 38.9346C56.8189 38.8699 56.586 38.8096 56.3575 38.7492C53.4939 38.0376 50.557 37.6107 47.6028 37.4683C44.6487 37.3303 41.6686 37.477 38.7102 37.9212C35.7517 38.3697 32.8234 39.1201 29.99 40.168C27.1566 41.216 24.4138 42.5616 21.8305 44.1831C15.7756 47.9782 10.6393 53.1879 6.92608 59.2687C5.06302 62.3048 3.56654 65.5651 2.45819 68.9462C1.36278 72.3317 0.651197 75.8378 0.366562 79.3699C0.258747 80.7154 0.211308 82.0308 0.228558 83.3073C0.241496 84.5838 0.306186 85.8259 0.422626 87.0248C0.543381 88.2237 0.707261 89.3795 0.905641 90.4835C0.957394 90.7595 1.01777 91.0355 1.06952 91.3029C1.0954 91.4409 1.12559 91.5746 1.15146 91.7083C1.18165 91.842 1.21184 91.9757 1.24203 92.1051C1.30672 92.3681 1.36278 92.6312 1.42747 92.89C1.49647 93.1444 1.56116 93.3989 1.62585 93.6533C1.69054 93.9034 1.76386 94.1493 1.83717 94.3951C1.91049 94.6366 1.97517 94.8824 2.0528 95.1196C2.20806 95.594 2.35469 96.0554 2.51857 96.4996C2.60051 96.7239 2.67813 96.9482 2.76007 97.1638C2.84633 97.3794 2.92827 97.5907 3.01021 97.8021C3.05333 97.9056 3.09646 98.0091 3.13527 98.1126C3.1784 98.2161 3.22153 98.3196 3.26465 98.4188C3.35522 98.6215 3.44147 98.8198 3.52341 99.0182C4.22206 100.579 4.95952 101.908 5.66679 103.007C4.39456 100.278 3.38109 97.3751 2.68676 94.4037C1.98811 91.4366 1.61291 88.4048 1.55254 85.4464C1.48785 81.8151 1.88892 78.5505 2.63932 75.2815C3.01452 73.647 3.47597 72.0082 4.06249 70.3263C4.64469 68.6444 5.3304 66.915 6.18862 65.108C6.70613 64.0126 7.38322 63.0854 7.96542 62.2703C8.05167 62.1495 8.13361 62.0331 8.21124 61.9296C8.29318 61.8261 8.37081 61.7312 8.44412 61.6406C8.59075 61.4595 8.72876 61.2999 8.86245 61.1447C9.00045 60.9937 9.13414 60.8471 9.27646 60.6919C9.41878 60.5366 9.5611 60.3641 9.7336 60.17C9.90179 59.976 10.0829 59.756 10.2942 59.4886C10.4021 59.3593 10.5185 59.2169 10.6393 59.0617C10.7643 58.9064 10.8937 58.7382 11.036 58.5614C11.1826 58.3803 11.3336 58.1862 11.4975 57.9749C11.6657 57.7679 11.8425 57.5436 12.0365 57.3021C12.4247 56.8191 12.8775 56.2714 13.4037 55.6504C13.8263 55.4046 14.374 54.9992 15.133 54.3954C15.8964 53.796 16.871 52.9938 18.1648 52.0062C18.3114 51.8898 18.264 52.0019 18.1001 52.2132C18.0225 52.321 17.9104 52.4504 17.7853 52.5927C17.6602 52.7394 17.5179 52.8946 17.3713 53.0499C16.4311 54.0073 15.4867 55.0553 14.6328 56.1248C13.7789 57.19 13.0112 58.2811 12.4031 59.2946C13.2829 58.0482 14.2446 56.8364 15.2408 55.7021C16.043 54.7922 16.9012 53.8736 17.7853 53.024C18.6651 52.1701 19.5707 51.3852 20.4462 50.7254C21.6149 49.8585 22.3437 49.5006 23.271 49.0046C23.3831 48.9443 23.5038 48.8796 23.6289 48.8106C23.754 48.7416 23.8833 48.6769 24.017 48.6036C24.2887 48.4526 24.582 48.2887 24.9141 48.1033C25.0779 48.0127 25.2548 47.9092 25.4402 47.8057C25.63 47.7022 25.824 47.5901 26.0354 47.4736C26.2424 47.3486 26.4709 47.2321 26.7081 47.0984C26.8246 47.0294 26.9496 46.9604 27.0747 46.8914C27.1998 46.8224 27.3335 46.7534 27.4671 46.6758C27.7043 46.6111 27.9588 46.5292 28.2219 46.4559C28.4806 46.3825 28.7437 46.3092 28.9938 46.2402C29.4984 46.1152 29.9383 46.016 30.1755 46.0203C30.3092 46.0203 30.1927 46.1324 29.9297 46.3135C29.6623 46.4947 29.2483 46.7319 28.7782 46.9949C28.4375 47.1761 28.0623 47.3917 27.6612 47.6116C27.4585 47.7195 27.2558 47.8402 27.0445 47.961C26.941 48.017 26.8375 48.0774 26.7297 48.1378C26.6262 48.2025 26.5184 48.2629 26.4149 48.3275C25.5653 48.8278 24.7157 49.3841 24.0041 49.893C22.844 50.734 22.0074 51.4758 21.0844 52.3167C21.2785 52.1615 21.451 52.0407 21.5933 51.9372C21.74 51.8294 21.865 51.7475 21.9685 51.6785C22.1755 51.5448 22.3049 51.4801 22.3912 51.4542C22.5551 51.3981 22.5292 51.506 22.5637 51.562C22.5982 51.6181 22.6887 51.6224 23.0898 51.3809C23.5038 51.1523 24.2068 50.6521 25.5523 49.8111C25.7378 49.699 26.0095 49.5437 26.3157 49.3841C26.6262 49.2289 26.9583 49.0607 27.2731 48.9184C27.5879 48.7804 27.8725 48.6553 28.0752 48.5777C28.2736 48.5044 28.39 48.4655 28.3599 48.4957C27.9674 48.8709 27.9415 49.0176 28.1787 48.9701C28.2995 48.9529 28.4892 48.8882 28.7394 48.789C28.8644 48.7416 28.9981 48.6812 29.1534 48.6165C29.3086 48.5518 29.4725 48.4828 29.6537 48.4052C29.7442 48.362 29.8348 48.3232 29.934 48.2801C30.0288 48.2413 30.128 48.1982 30.2315 48.155C30.4342 48.0688 30.6542 47.9739 30.8784 47.879C31.107 47.7842 31.3442 47.6893 31.5943 47.5901C31.8402 47.4866 32.1032 47.3917 32.3663 47.2882C33.4358 46.8914 34.6434 46.4904 35.9027 46.1626C37.0714 45.8607 38.3954 45.5761 39.7625 45.3691C41.1296 45.1621 42.5355 45.0327 43.8508 45.0025C45.1705 44.968 46.3953 45.0284 47.4001 45.1491C48.405 45.2656 49.1856 45.4467 49.6298 45.6365C49.6729 45.6537 49.7376 45.6753 49.8238 45.6968C49.9101 45.7184 50.0179 45.7486 50.1387 45.7745C50.2594 45.8047 50.3974 45.8348 50.5484 45.865C50.6217 45.878 50.6993 45.8952 50.7812 45.9125C50.8632 45.9297 50.9451 45.947 51.0314 45.9685C51.3721 46.0375 51.7516 46.1109 52.1311 46.1971C52.3252 46.2402 52.5149 46.279 52.7047 46.3222C52.8944 46.3653 53.0842 46.4041 53.2653 46.4472C54.2658 46.6672 55.1284 46.8914 55.702 47.0855C55.9909 47.1804 56.2108 47.2623 56.3402 47.3356C56.4696 47.409 56.5084 47.465 56.4437 47.5038C56.3618 47.5556 56.4739 47.6418 56.7197 47.754C56.9699 47.8661 57.3451 48.0127 57.7979 48.1723C58.6992 48.5001 59.8766 48.927 60.8728 49.3324C65.3278 51.1221 69.4549 53.8003 72.9395 57.1555C76.4285 60.5064 79.2662 64.5215 81.2586 68.8859C81.4009 69.205 81.5648 69.55 81.7071 69.908C81.7848 70.0848 81.8581 70.2659 81.9357 70.4427C82.009 70.6239 82.078 70.805 82.147 70.9861C82.436 71.6977 82.6818 72.3791 82.8802 72.888C82.9837 73.1381 83.0613 73.3494 83.1346 73.4961C83.2036 73.6427 83.2597 73.7246 83.2985 73.729C83.3373 73.7333 83.3546 73.6513 83.3546 73.4745C83.3502 73.2977 83.3287 73.0217 83.264 72.6292C83.2079 72.2972 83.3718 72.5516 83.6004 73.0389C83.7082 73.2847 83.8419 73.5866 83.9669 73.9058C84.0877 74.2206 84.2128 74.5484 84.312 74.8459C84.6915 75.9198 85.0451 77.2092 85.3254 78.4901C85.6101 79.7709 85.8214 81.0475 85.9896 82.0868C86.0844 82.6259 86.1491 83.0701 86.2225 83.3418C86.2915 83.6135 86.3561 83.7127 86.4122 83.5574C86.4381 83.4841 86.464 83.3418 86.4898 83.1305C86.5114 82.9192 86.5373 82.6345 86.5416 82.2723C86.5459 82.0868 86.5502 81.8841 86.5502 81.6599C86.5545 81.4356 86.5416 81.1898 86.5373 80.9181C86.533 80.7844 86.5286 80.6464 86.5243 80.4998C86.5157 80.3532 86.5071 80.2022 86.4941 80.0426C86.4855 79.8874 86.4726 79.7235 86.464 79.5553C86.451 79.3828 86.4295 79.2103 86.4165 79.0249C86.2483 77.3602 86.2871 76.9117 86.2915 76.226C86.2871 76.0535 86.2828 75.868 86.2656 75.6438C86.257 75.5316 86.2483 75.4109 86.2311 75.2772C86.2138 75.1435 86.1923 75.0012 86.1664 74.8416C86.1405 74.682 86.1103 74.5052 86.0715 74.3155C86.0327 74.1257 85.9853 73.9144 85.9335 73.6858C85.9076 73.5737 85.8774 73.4529 85.8516 73.3279C85.8171 73.2028 85.7826 73.0734 85.7438 72.9397C85.6704 72.668 85.5928 72.3748 85.4936 72.06C85.5669 72.0298 85.5367 71.5554 85.7394 72.0427C85.8171 72.2282 85.8904 72.4222 85.968 72.6249C86.0413 72.8233 86.1189 73.0303 86.2009 73.2459C86.2742 73.4616 86.3475 73.6858 86.4295 73.9187C86.4683 74.0351 86.5071 74.1516 86.5459 74.2723C86.5847 74.3931 86.6235 74.5182 86.6623 74.6432C86.9729 75.6438 87.2877 76.7995 87.5852 78.1666Z" fill="#1E5192"/>
</g>
<mask id="mask1_1146_1648" style="mask-type:luminance" maskUnits="userSpaceOnUse" x="7" y="83" width="82" height="45">
<path d="M7.72803 83.5875H88.6244V127.145H7.72803V83.5875Z" fill="white"/>
</mask>
<g mask="url(#mask1_1146_1648)">
<path d="M30.8265 120.068C31.0206 120.154 31.2189 120.245 31.413 120.331C31.6114 120.417 31.8098 120.499 32.0081 120.586C32.4006 120.758 32.806 120.9 33.22 121.051C33.4313 121.12 33.6469 121.189 33.8626 121.254C33.9704 121.289 34.0782 121.323 34.186 121.353C34.2982 121.383 34.406 121.414 34.5138 121.444C34.7337 121.5 34.9537 121.56 35.1736 121.616C35.3979 121.668 35.6178 121.724 35.8378 121.776C35.6221 121.707 35.4065 121.638 35.1952 121.565C34.9796 121.496 34.7639 121.418 34.5483 121.34C34.4405 121.301 34.3327 121.263 34.2205 121.224C34.1127 121.185 34.0049 121.142 33.8971 121.103C33.6771 121.017 33.4529 120.935 33.2286 120.844C32.9742 120.767 32.7413 120.698 32.5214 120.633C32.3014 120.568 32.0987 120.499 31.9046 120.439C31.5165 120.314 31.1715 120.189 30.8265 120.068ZM63.4645 122.224C62.3044 122.755 61.1357 123.281 59.9368 123.734C60.1696 123.695 60.3723 123.704 60.6354 123.609C60.8381 123.535 61.0365 123.458 61.2435 123.384C61.3427 123.346 61.4462 123.307 61.5497 123.268C61.6532 123.225 61.7567 123.182 61.8602 123.139C62.0672 123.057 62.2828 122.97 62.5028 122.88C62.7227 122.785 62.947 122.686 63.1799 122.582C64.1114 122.168 65.1809 121.659 66.4876 120.939C66.3841 120.987 66.2893 121.034 66.1944 121.077C66.0995 121.12 66.0046 121.159 65.9184 121.198C65.7372 121.276 65.5734 121.349 65.4224 121.418C65.1119 121.547 64.8488 121.651 64.616 121.746C64.4995 121.793 64.3874 121.841 64.2882 121.884C64.1847 121.922 64.0855 121.961 63.9906 122C63.8052 122.073 63.6327 122.147 63.4645 122.224ZM31.3914 120.538C30.5246 120.21 29.9251 120.068 29.2179 119.814C29.3128 119.861 29.4076 119.913 29.5025 119.96C29.6017 120.008 29.6966 120.055 29.7958 120.103C29.9898 120.202 30.1839 120.297 30.378 120.391C30.572 120.482 30.7661 120.568 30.9645 120.655C31.0594 120.698 31.1586 120.741 31.2534 120.78C31.3526 120.823 31.4475 120.857 31.5467 120.896C31.7882 120.982 32.0254 121.073 32.2842 121.159C32.5472 121.245 32.8362 121.336 33.1682 121.435C33.8367 121.625 34.6906 121.871 35.9456 122.147C34.6302 121.772 33.703 121.422 32.9957 121.155C32.2885 120.887 31.8055 120.685 31.3914 120.538ZM16.3317 109.455C18.9667 112.297 22.0244 114.807 25.4357 116.859C26.2896 117.373 27.1607 117.86 28.0535 118.313C28.9505 118.761 29.8648 119.184 30.7963 119.576C32.6637 120.353 34.6044 121.004 36.6011 121.5C37.4119 121.711 38.2442 121.866 39.0766 122.013L39.7019 122.108L40.0167 122.16L40.3315 122.198C40.5428 122.229 40.7499 122.255 40.9612 122.285C41.1682 122.306 41.3795 122.332 41.5865 122.354C42.6302 122.47 43.1692 122.474 43.4582 122.449C43.7471 122.423 43.7903 122.367 43.8377 122.311C43.8851 122.259 43.9369 122.203 44.2517 122.173C44.407 122.16 44.6269 122.151 44.946 122.151C45.1056 122.151 45.2867 122.147 45.4981 122.151C45.7094 122.151 45.9509 122.155 46.2226 122.151C44.8124 122.095 43.5013 121.944 42.0135 121.776C39.1585 121.439 36.3337 120.788 33.6124 119.831C30.8955 118.861 28.282 117.597 25.8626 116.044L25.9748 115.997L26.2378 116.161L26.5052 116.316L27.04 116.631C27.4023 116.834 27.7602 117.041 28.1311 117.23C28.8599 117.627 29.6103 117.981 30.365 118.326C31.8874 119.003 33.4529 119.598 35.0658 120.072C36.6787 120.555 38.3391 120.922 40.034 121.194C40.8835 121.319 41.7374 121.431 42.6043 121.5C43.0355 121.543 43.4711 121.565 43.911 121.595C44.1266 121.603 44.3466 121.612 44.5665 121.621L44.8986 121.634C45.0064 121.638 45.1186 121.638 45.2264 121.638C42.0307 121.353 38.7057 120.749 35.3375 119.68C31.9736 118.615 28.5624 117.066 25.2804 114.923C22.9947 113.435 20.8772 111.667 18.9754 109.688L18.7942 109.502L18.6217 109.317L18.2681 108.937C18.0395 108.683 17.8153 108.424 17.5867 108.169C17.3668 107.906 17.1425 107.643 16.9269 107.376L16.4439 106.777L16.2886 106.57C15.452 105.483 14.6714 104.353 13.9555 103.184L14.1064 103.119C16.0643 106.246 18.4794 109.075 21.2568 111.495L21.2266 111.344C18.5872 109.01 16.2714 106.302 14.3652 103.27C12.459 100.243 10.9582 96.8876 9.97491 93.2693C10.7253 95.7966 11.7215 98.1987 12.9334 100.459C14.1495 102.718 15.577 104.836 17.1899 106.807C18.8072 108.778 20.6055 110.602 22.5937 112.262C24.5818 113.918 26.7424 115.419 29.0928 116.726C29.826 117.131 30.5893 117.519 31.3785 117.882C32.172 118.239 32.9828 118.585 33.8238 118.891C35.4971 119.507 37.2566 120.012 39.0593 120.379C39.9563 120.56 40.8663 120.719 41.7806 120.831L42.1256 120.875L42.4663 120.909C42.6992 120.935 42.9277 120.965 43.1563 120.982C43.3849 121 43.6134 121.021 43.842 121.038C44.0706 121.06 44.3035 121.064 44.532 121.082C44.9892 121.112 45.4463 121.12 45.9035 121.138C46.132 121.138 46.3606 121.142 46.5892 121.142L46.9299 121.146L47.2706 121.142C48.1762 121.133 49.0732 121.082 49.9616 121.017C50.1988 120.995 50.4317 120.978 50.6646 120.956C50.8932 120.935 51.1217 120.909 51.346 120.887C51.4581 120.875 51.5703 120.862 51.6824 120.849C51.7902 120.836 51.9023 120.823 52.0101 120.81C52.2301 120.78 52.4457 120.754 52.657 120.728C53.0797 120.659 53.4894 120.607 53.8861 120.538C54.0845 120.504 54.2786 120.473 54.4683 120.439C54.6581 120.404 54.8479 120.37 55.029 120.335C56.4996 120.064 57.733 119.77 58.7033 119.542C58.8284 119.516 58.9449 119.49 59.057 119.464C59.1734 119.438 59.2812 119.413 59.3847 119.387C59.5961 119.339 59.7858 119.3 59.9626 119.266C60.312 119.188 60.5923 119.141 60.8036 119.128C61.2176 119.098 61.334 119.197 61.1141 119.456C60.9632 119.624 61.2349 119.714 60.6483 120.111C60.575 120.163 60.4888 120.219 60.3896 120.279C60.2861 120.335 60.1653 120.4 60.0273 120.469C59.885 120.538 59.7298 120.611 59.5486 120.693C59.3718 120.771 59.1691 120.853 58.9405 120.944C58.0349 121.297 56.7368 121.737 54.8479 122.151C54.5201 122.216 54.1708 122.302 53.7999 122.388C53.6144 122.431 53.4247 122.474 53.2306 122.518C53.1357 122.539 53.0365 122.565 52.9417 122.587C52.8425 122.608 52.7433 122.63 52.6441 122.651C52.4457 122.694 52.243 122.742 52.0446 122.785C51.8419 122.828 51.6393 122.867 51.4366 122.906C51.0312 122.992 50.6258 123.057 50.2333 123.117C52.4975 122.923 54.7961 122.492 56.8877 121.905C57.9314 121.612 58.9233 121.276 59.8376 120.926C60.0661 120.836 60.2904 120.745 60.506 120.659C60.726 120.564 60.9373 120.473 61.1443 120.383C61.3513 120.292 61.554 120.202 61.7481 120.107C61.9421 120.012 62.1319 119.921 62.3173 119.831C63.4214 119.275 64.4348 118.718 65.3836 118.17C66.3324 117.618 67.2251 117.075 68.0747 116.523C68.9243 115.967 69.7351 115.402 70.5286 114.811C71.3221 114.22 72.0941 113.595 72.8617 112.926C73.0385 112.767 73.2154 112.612 73.3922 112.461C73.5604 112.305 73.7329 112.154 73.9011 112.003C74.0693 111.852 74.2331 111.702 74.397 111.546C74.5609 111.395 74.7248 111.244 74.8843 111.093C75.5226 110.477 76.1393 109.843 76.7388 109.131C77.6703 108.023 78.3646 107.096 78.9123 106.363C79.46 105.629 79.8568 105.082 80.1544 104.706C80.3096 104.521 80.4304 104.37 80.5339 104.262C80.6374 104.15 80.7193 104.081 80.7883 104.042C80.9177 103.965 80.9867 104.021 81.004 104.167C81.0126 104.236 81.1506 104.116 81.3404 103.887C81.4352 103.771 81.543 103.628 81.6552 103.464C81.7673 103.301 81.8837 103.124 81.9916 102.934C82.7635 101.575 83.2767 100.519 83.6951 99.6219C83.7986 99.3976 83.8934 99.182 83.9883 98.975C84.0358 98.8715 84.0789 98.768 84.1263 98.6688C84.1694 98.5696 84.2083 98.4661 84.2514 98.3712C84.3376 98.1728 84.4196 97.9787 84.4972 97.789C84.5748 97.5992 84.6525 97.4095 84.7301 97.2197C85.0406 96.4564 85.3425 95.6715 85.6918 94.6666C86.0368 93.6618 86.4336 92.4327 86.839 90.7594C86.4508 92.8596 85.9419 94.7443 85.3425 96.4995C84.7516 98.2591 84.0703 99.8806 83.3155 101.472C83.1948 101.726 83.0395 102.046 82.8929 102.386C82.7376 102.723 82.5738 103.072 82.4314 103.387C82.1339 104.016 81.9182 104.508 81.9743 104.461C82.0778 104.392 82.2331 104.21 82.4444 103.943C82.5479 103.809 82.6686 103.658 82.7894 103.477C82.9145 103.301 83.0482 103.102 83.1905 102.887C83.7554 102.02 84.4325 100.847 85.0837 99.4795C85.7306 98.1167 86.3559 96.5685 86.8476 94.9858C87.3435 93.4074 87.7144 91.8074 87.9473 90.3669C88.1241 89.2845 88.2233 88.1114 88.3139 87.098C88.4303 85.8775 88.5295 84.7864 88.577 83.6306C88.5985 83.9929 88.6244 84.3293 88.646 84.6829C88.6632 85.0365 88.6675 85.4031 88.6632 85.8387L88.6373 86.5589L88.6244 86.9168L88.6028 87.2748L88.5597 87.995L88.495 88.7109L88.4648 89.0688L88.426 89.4268C88.4001 89.6683 88.3699 89.9055 88.3441 90.147C88.3096 90.3842 88.2794 90.6257 88.2449 90.8629L88.1931 91.2252L88.1371 91.5831C88.0939 91.8203 88.0551 92.0618 88.0163 92.299C87.9689 92.5405 87.9214 92.7777 87.8783 93.0192C87.8524 93.14 87.8309 93.2564 87.805 93.3772L87.7274 93.7351C87.6756 93.9766 87.6239 94.2138 87.5678 94.4553C87.3349 95.4127 87.0718 96.3701 86.7656 97.3232C85.4158 101.541 83.3802 105.565 80.7754 109.192C78.1663 112.823 74.9749 116.053 71.3523 118.723C69.8688 119.827 68.3033 120.823 66.6817 121.724C65.8709 122.173 65.0515 122.604 64.2106 122.996C63.7923 123.199 63.3653 123.38 62.9427 123.57C62.7313 123.665 62.5157 123.751 62.3001 123.842C62.0844 123.928 61.8731 124.023 61.6575 124.105C59.9281 124.786 58.16 125.368 56.3573 125.817C56.1287 125.873 55.9044 125.933 55.6802 125.985L54.9988 126.14L54.6581 126.214L54.3174 126.283L53.6317 126.416C52.7174 126.58 51.7988 126.731 50.8759 126.835C49.953 126.951 49.0258 127.024 48.0943 127.08L47.3999 127.111L47.0506 127.124L46.7013 127.132L46.007 127.145C45.7741 127.149 45.5412 127.145 45.3083 127.145C44.3811 127.141 43.4496 127.098 42.5223 127.037L41.8237 126.977L41.4787 126.951L41.1294 126.912L40.435 126.839L39.745 126.744C36.0491 126.248 32.4178 125.26 28.9677 123.833C29.1791 123.893 29.399 123.962 29.6233 124.031C29.7354 124.066 29.8475 124.105 29.964 124.139C30.0804 124.174 30.1968 124.208 30.3133 124.243C30.5505 124.316 30.792 124.389 31.0335 124.467C31.2793 124.536 31.5294 124.609 31.7839 124.683C32.793 124.972 33.8496 125.265 34.8847 125.485C35.1434 125.545 35.3936 125.588 35.6308 125.636C35.868 125.679 36.0922 125.722 36.3208 125.752C36.7693 125.817 37.2006 125.886 37.662 125.938C37.2178 125.838 36.7089 125.687 36.2432 125.562C35.7774 125.424 35.3504 125.308 35.0831 125.243C33.7591 124.946 32.6507 124.583 31.6416 124.208C31.137 124.023 30.6626 123.816 30.1925 123.617C29.7311 123.402 29.2739 123.199 28.8211 122.97C27.9111 122.522 27.0012 122.035 25.992 121.461C24.9786 120.892 23.8659 120.241 22.5721 119.43C22.3479 119.287 22.1753 119.175 22.046 119.089C21.9209 119.003 21.8433 118.942 21.8001 118.904C21.7096 118.826 21.77 118.839 21.9123 118.904C22.0546 118.968 22.2832 119.076 22.529 119.188C22.7791 119.305 23.0465 119.434 23.2751 119.525C23.7322 119.706 24.0168 119.779 23.6201 119.456C23.5209 119.378 23.3786 119.27 23.1888 119.137C22.9991 118.994 22.7619 118.826 22.4643 118.623C21.8821 118.201 21.067 117.64 20.019 116.821C20.1225 116.864 20.1786 116.842 20.3339 116.959C21.5198 117.83 22.2875 118.291 22.7705 118.541C23.2578 118.792 23.4519 118.839 23.5425 118.813C23.7236 118.761 23.4691 118.434 24.2238 118.839C25.4055 119.46 26.0955 119.749 26.3931 119.865C26.695 119.973 26.6087 119.9 26.2896 119.71C26.1343 119.611 25.9144 119.486 25.6556 119.335C25.3969 119.188 25.1079 119.007 24.7888 118.822C24.4697 118.632 24.1376 118.416 23.7969 118.205C23.6287 118.093 23.4605 117.985 23.2923 117.873C23.1241 117.761 22.9559 117.653 22.7964 117.537C18.7209 114.733 15.1544 111.184 12.3296 107.13C12.1657 106.509 11.0013 104.715 9.95766 102.671C9.43152 101.649 8.92263 100.571 8.53449 99.5917C8.4353 99.3458 8.34905 99.1043 8.26279 98.8758C8.21967 98.7593 8.18085 98.6472 8.14204 98.5394C8.10323 98.4273 8.06873 98.3194 8.03422 98.2159C7.96522 98.0046 7.90484 97.8062 7.85309 97.6251C7.80134 97.4397 7.75822 97.2715 7.72803 97.1162C8.01266 97.8709 8.33611 98.617 8.66818 99.3588C9.01319 100.096 9.36683 100.829 9.75065 101.541C10.1259 102.257 10.5356 102.951 10.9496 103.628C11.0531 103.796 11.1609 103.965 11.2644 104.129C11.3722 104.297 11.4757 104.465 11.5835 104.625C11.8035 104.948 12.0148 105.271 12.2434 105.582C12.377 105.772 12.5021 105.94 12.6142 106.091C12.7307 106.242 12.8299 106.371 12.9204 106.475C13.0929 106.686 13.2051 106.807 13.2309 106.807C13.2568 106.807 13.2008 106.686 13.0412 106.414C12.873 106.151 12.6142 105.733 12.2434 105.129C11.3679 103.697 10.5528 102.171 9.97491 100.916C11.7302 104.094 13.8951 106.984 16.3792 109.515L16.3317 109.455Z" fill="#1E5192"/>
</g>
<path d="M16.897 105.599C17.449 106.362 18.0743 107.139 18.76 107.928C19.4501 108.717 20.2004 109.515 21.0198 110.3C22.6543 111.87 24.5605 113.401 26.6996 114.763C27.7691 115.449 28.8904 116.092 30.0678 116.678C31.2408 117.26 32.4656 117.791 33.7206 118.257C34.9798 118.727 36.2736 119.128 37.5933 119.46C38.9087 119.788 40.2499 120.046 41.5997 120.228C43.3981 120.482 45.1533 120.573 46.8827 120.56C48.6078 120.529 50.3069 120.391 51.9889 120.111C53.6751 119.839 55.3441 119.43 57.0131 118.882C57.8497 118.606 58.6821 118.291 59.5144 117.942C60.3511 117.588 61.1834 117.191 62.0157 116.756C63.2319 116.113 64.0642 115.6 64.6076 115.242C64.7456 115.156 64.8664 115.078 64.9656 115.009C65.0648 114.936 65.151 114.876 65.22 114.828C65.3537 114.725 65.427 114.664 65.4443 114.638C65.4788 114.587 65.2847 114.669 64.9181 114.845C64.7327 114.932 64.5041 115.039 64.2367 115.165C64.1031 115.229 63.9564 115.294 63.8055 115.363C63.6502 115.428 63.4907 115.501 63.3182 115.574C62.4298 115.949 61.7915 116.161 61.4292 116.243C61.0583 116.325 60.9635 116.282 61.136 116.118C61.3128 115.958 61.7527 115.669 62.4427 115.225C63.1327 114.781 64.0729 114.181 65.2114 113.349C66.3672 112.499 66.8545 112.008 66.9321 111.848C67.0055 111.684 66.6518 111.831 66.048 112.154C63.5855 113.444 60.7694 114.587 57.8109 115.315C57.7376 115.333 57.6514 115.359 57.5565 115.384C57.4616 115.41 57.3538 115.441 57.2417 115.475C57.0131 115.54 56.7543 115.622 56.4783 115.699C56.2023 115.781 55.9134 115.868 55.6244 115.945C55.4821 115.984 55.3398 116.023 55.2018 116.066C55.0638 116.1 54.9301 116.135 54.8007 116.169C54.3824 116.29 53.9684 116.381 53.5544 116.48C53.136 116.566 52.7263 116.657 52.3166 116.726C51.9026 116.803 51.4929 116.855 51.0875 116.915C50.8805 116.941 50.6778 116.967 50.4751 116.989C50.2724 117.015 50.0697 117.036 49.8671 117.053C48.2455 117.209 46.6412 117.226 45.0455 117.166C41.7507 117.028 38.3911 116.454 35.1092 115.35C31.8359 114.246 28.636 112.624 25.7163 110.477C28.3643 112.607 31.3702 114.337 34.5658 115.579C37.7615 116.825 41.1512 117.575 44.5711 117.817C47.0466 117.994 49.5005 117.92 51.9112 117.597C54.322 117.273 56.6896 116.691 59.0012 115.855L59.0659 116.01C57.1985 116.803 55.2406 117.437 53.2783 117.894C53.1835 117.916 53.0843 117.938 52.9894 117.963C52.8902 117.985 52.7867 118.007 52.6875 118.024C52.4848 118.067 52.2778 118.114 52.0665 118.153C51.6482 118.227 51.2255 118.308 50.8201 118.369C50.0094 118.503 49.2719 118.593 48.8191 118.675C47.9048 118.839 46.9517 118.947 45.9641 118.994C44.9765 119.033 43.9631 119.02 42.9323 118.942C40.8666 118.791 38.7361 118.369 36.6143 117.709C35.5405 117.373 34.4019 116.963 33.3626 116.514C32.3189 116.07 31.3831 115.591 30.6974 115.186C29.5589 114.496 28.6834 113.927 27.7476 113.349C26.816 112.762 25.8241 112.167 24.5131 111.322C24.3233 111.201 24.1163 111.055 23.8877 110.886C23.6549 110.723 23.4134 110.533 23.1503 110.321C23.0856 110.27 23.0209 110.218 22.9519 110.166C22.8829 110.11 22.8182 110.05 22.7492 109.994C22.6112 109.877 22.4689 109.757 22.3266 109.636C22.1843 109.506 22.0376 109.377 21.8867 109.243C21.8134 109.174 21.7357 109.11 21.6624 109.036C21.5848 108.967 21.5115 108.894 21.4339 108.821C21.2829 108.674 21.119 108.532 20.9638 108.372C20.8085 108.217 20.649 108.057 20.4851 107.893C20.3255 107.73 20.1616 107.557 19.9978 107.385C19.8339 107.216 19.6743 107.031 19.5061 106.85C18.8463 106.117 18.1735 105.314 17.5094 104.452C18.8161 106.285 20.2608 107.937 21.7918 109.407C23.3228 110.882 24.94 112.176 26.6176 113.301C28.2996 114.427 30.0289 115.389 31.8014 116.191C32.6855 116.592 33.5782 116.959 34.4796 117.282C35.3809 117.605 36.2909 117.894 37.2052 118.149C37.3906 118.201 37.5717 118.248 37.7529 118.3C37.934 118.352 38.1151 118.39 38.2963 118.442C38.4731 118.485 38.6499 118.537 38.831 118.58C39.0078 118.623 39.1847 118.666 39.3658 118.71L39.6332 118.779C39.7237 118.8 39.81 118.817 39.9006 118.839C40.0817 118.882 40.2628 118.925 40.4439 118.964C40.6294 119.003 40.8148 119.046 41.0003 119.085C41.19 119.124 41.3798 119.167 41.5739 119.201C41.7679 119.24 41.962 119.279 42.1647 119.318C42.3674 119.352 42.5701 119.387 42.7814 119.421C42.9927 119.456 43.2083 119.494 43.4283 119.52C43.6482 119.555 43.8768 119.585 44.1054 119.615C45.0369 119.732 46.0719 119.822 47.2493 119.861C43.6655 120.003 40.2154 119.628 37.0413 118.835C36.8429 118.791 36.6445 118.735 36.4505 118.684C36.2521 118.632 36.058 118.584 35.8639 118.524C35.4758 118.412 35.0877 118.3 34.7081 118.175C33.9491 117.938 33.2073 117.666 32.4871 117.386C31.0424 116.812 29.671 116.174 28.3858 115.466C27.1007 114.759 25.8931 114.004 24.7762 113.211C23.6592 112.413 22.6241 111.581 21.6711 110.735C19.7606 109.045 18.1864 107.29 16.897 105.599Z" fill="#1E5192"/>
<path d="M16.332 109.455C15.7929 108.786 15.1331 107.984 14.4819 107.117C13.8307 106.25 13.1881 105.323 12.6447 104.439C12.3687 103.999 12.1272 103.568 11.9073 103.171C11.7994 102.968 11.7046 102.774 11.6097 102.589C11.5666 102.494 11.5234 102.403 11.4803 102.317C11.4415 102.231 11.4027 102.145 11.3682 102.063C11.0792 101.403 10.9499 100.916 11.0275 100.734C11.0318 100.722 10.9973 100.635 10.9326 100.497C10.8722 100.355 10.786 100.152 10.6782 99.9151C10.6264 99.7986 10.566 99.6693 10.5057 99.5356C10.4453 99.3976 10.3849 99.2553 10.3202 99.1043C10.2555 98.9577 10.1822 98.8067 10.1175 98.6472C10.0528 98.4919 9.98382 98.3323 9.91914 98.1771C9.36712 96.9092 8.87117 95.6111 8.69004 95.6197L8.70729 95.5723C8.41834 95.2316 8.4054 95.5421 8.6426 96.4219C8.87979 97.2973 9.39731 98.7291 10.2943 100.545C11.89 103.766 13.9428 106.811 16.3708 109.502C16.3795 109.515 16.332 109.455 16.332 109.455Z" fill="#1E5192"/>
<path d="M7.79289 82.8586C7.79289 83.126 7.78857 83.3805 7.78857 83.6306C7.7972 83.8807 7.80151 84.1266 7.80582 84.3638C7.81014 84.6009 7.82308 84.8295 7.8317 85.0581C7.84464 85.2823 7.84895 85.5023 7.8662 85.7136C7.9007 86.1406 7.92227 86.5459 7.96539 86.9298C7.98264 87.1238 7.99989 87.3093 8.01714 87.4904C8.03871 87.6715 8.06027 87.8484 8.08183 88.0252C8.25434 89.4095 8.46997 90.5093 8.70717 91.4839C8.78048 91.7685 8.84948 92.0057 8.91848 92.2127C8.99611 92.4197 9.06511 92.5966 9.13843 92.7604C9.27643 93.0925 9.42737 93.3642 9.57832 93.7179C9.49638 93.3815 9.4015 93.0192 9.32818 92.6483C9.28506 92.4629 9.24624 92.2774 9.20743 92.092C9.17293 91.9065 9.13412 91.7211 9.09962 91.54C8.96161 90.8154 8.85379 90.1513 8.76323 89.7244C8.73735 89.595 8.70716 89.4656 8.68129 89.3362C8.65541 89.2068 8.62954 89.0775 8.60366 88.9524C8.55622 88.6979 8.50016 88.4478 8.45703 88.1977C8.40959 87.9432 8.36215 87.6931 8.31903 87.4343C8.2759 87.1799 8.23277 86.9211 8.18965 86.6538C8.02577 85.5799 7.87483 84.3939 7.79289 82.8586Z" fill="#1E5192"/>
<path d="M7.63774 74.242C7.87493 73.1552 8.15526 72.077 8.48733 71.0118C8.81509 69.9509 9.1946 68.8986 9.61293 67.8679C10.4496 65.7978 11.4717 63.7968 12.6533 61.8949L12.3428 62.1968L12.0453 62.5073C11.4803 63.469 10.9542 64.448 10.4711 65.4485C9.99244 66.4534 9.55686 67.4711 9.1601 68.5105C8.36657 70.5805 7.76281 72.7153 7.33154 74.8802C7.42642 74.6646 7.53424 74.4533 7.63774 74.242Z" fill="#1E5192"/>
<path d="M8.70721 95.5723L8.68996 95.6197C8.21988 94.0413 7.86194 92.4974 7.56868 91.0871C7.2711 89.6769 7.04685 88.4004 6.82259 87.3395C6.81828 87.3222 6.81828 87.3783 6.81828 87.4775C6.81396 87.5249 6.81396 87.5853 6.81396 87.65C6.81828 87.7147 6.81828 87.788 6.82259 87.8613C6.83122 88.1502 6.84847 88.4737 6.8614 88.5686C7.26248 91.0009 7.8835 93.3211 8.70721 95.5723Z" fill="#1E5192"/>
<path d="M13.6368 112.417C14.6675 113.521 15.7543 114.569 16.8928 115.561C18.027 116.549 19.2173 117.476 20.4464 118.343L20.2782 118.101C17.7381 116.256 15.392 114.13 13.3047 111.771C13.4125 111.986 13.5246 112.202 13.6368 112.417Z" fill="#1E5192"/>
<path d="M33.9104 120.163C32.6209 119.74 31.3573 119.249 30.1239 118.692C28.8905 118.136 27.6873 117.511 26.5186 116.825L26.4927 116.89C27.6614 117.575 28.8646 118.201 30.1023 118.757C31.3401 119.313 32.6037 119.805 33.8932 120.228L33.9104 120.163Z" fill="#1E5192"/>
<path d="M17.4535 57.9057C17.2594 58.1386 17.0524 58.3758 16.854 58.6173C16.6513 58.8674 16.4486 59.1089 16.2589 59.3547C16.0691 59.6049 15.8837 59.8421 15.7198 60.0706C15.5559 60.2992 15.405 60.5148 15.2756 60.7046C14.9909 61.1531 14.7753 61.5111 14.5985 61.8604C14.5079 62.0329 14.4217 62.1968 14.3354 62.365C14.2535 62.5375 14.1672 62.7057 14.0767 62.8868C14.7236 61.8776 15.5343 60.7995 16.1338 59.9801C16.9489 58.8804 17.6173 57.9833 18.4152 57.0475C18.2513 57.1855 18.0917 57.3278 17.9322 57.4744C17.7726 57.6168 17.6087 57.7591 17.4535 57.9057Z" fill="#1E5192"/>
<path d="M26.4062 113.854C26.6564 114.017 26.9108 114.173 27.161 114.332C27.4154 114.492 27.6742 114.643 27.9286 114.794C28.1486 114.923 28.3728 115.031 28.5971 115.147C28.0796 114.858 27.5707 114.561 27.0704 114.25C26.8505 114.112 26.6262 113.992 26.4062 113.854Z" fill="#1E5192"/>
<path d="M14.9994 99.4148C14.87 99.1517 14.7536 98.9059 14.6414 98.6687C14.5293 98.4272 14.4258 98.1943 14.3223 97.9658C14.2361 97.7674 14.1369 97.5647 14.042 97.362C14.1369 97.5863 14.2188 97.8191 14.3223 98.0391C14.4258 98.259 14.5293 98.4747 14.6371 98.7032C14.7493 98.9275 14.87 99.1647 14.9994 99.4148Z" fill="#1E5192"/>
<path d="M83.9885 87.9691C83.9497 88.1977 83.9152 88.4219 83.8677 88.6462C83.8203 88.8748 83.7771 89.099 83.747 89.3276C83.6607 89.8796 83.6046 90.4403 83.5098 90.9966C83.5658 90.7723 83.6305 90.5481 83.6823 90.3195C83.734 90.0952 83.7815 89.8667 83.8203 89.6295C83.8677 89.3578 83.8893 89.0818 83.9195 88.8058C83.954 88.5298 83.9669 88.2494 83.9885 87.9691Z" fill="#1E5192"/>
<mask id="mask2_1146_1648" style="mask-type:luminance" maskUnits="userSpaceOnUse" x="24" y="7" width="71" height="42">
<path d="M24.2886 7.72821H94.9467V48.5775H24.2886V7.72821Z" fill="white"/>
</mask>
<g mask="url(#mask2_1146_1648)">
<mask id="mask3_1146_1648" style="mask-type:luminance" maskUnits="userSpaceOnUse" x="20" y="0" width="78" height="51">
<path d="M28.8815 0L97.8922 16.9443L89.6163 50.6476L20.6099 33.7032L28.8815 0Z" fill="white"/>
</mask>
<g mask="url(#mask3_1146_1648)">
<mask id="mask4_1146_1648" style="mask-type:luminance" maskUnits="userSpaceOnUse" x="20" y="0" width="78" height="51">
<path d="M28.8815 0L97.8922 16.9443L89.6163 50.6476L20.6099 33.7032L28.8815 0Z" fill="white"/>
</mask>
<g mask="url(#mask4_1146_1648)">
<path d="M90.8798 41.6773C91.3412 43.7819 90.2631 48.2109 90.2631 48.2109C90.138 48.2584 90.0173 48.2886 89.8965 48.3144L89.9137 45.3301C89.9137 45.3301 89.2625 47.1543 89.0469 48.2541C87.6324 48.3662 87.0329 47.5037 87.0329 47.5037C87.5332 43.9242 88.4 42.0568 88.952 41.1598C88.7795 40.8622 88.7148 40.5129 88.7968 40.1506C88.9218 39.5641 89.4049 39.1372 89.9655 39.0552L91.449 32.6553L82.013 34.4105C81.3014 34.5442 80.6804 33.9189 80.827 33.203L81.3489 30.6585C81.4092 30.3308 81.3144 29.9987 81.0901 29.7572C69.9463 17.7292 58.8843 15.7282 51.5831 16.1638C43.6263 16.6425 38.3821 19.9675 38.1621 20.1098L38.1535 20.1141C37.9206 20.2608 37.7697 20.4893 37.705 20.7481L37.0538 23.5772C36.8899 24.2931 36.0533 24.6079 35.4538 24.1723L25.6038 16.9918C24.8792 16.4613 25.138 15.3228 26.0178 15.1589L62.6407 8.41396C62.9167 8.36652 63.1927 8.42259 63.4169 8.58647L94.0021 30.4343C94.7396 30.9561 94.4851 32.1033 93.5967 32.2714L92.3418 32.5043L90.7849 39.1932C91.3628 39.4692 91.6906 40.1118 91.5482 40.7544C91.4663 41.1598 91.2118 41.4832 90.8798 41.6773ZM39.2231 21.7788C39.1627 21.809 39.1152 21.8694 39.098 21.9427L35.3417 37.2396C35.2942 37.4207 35.4668 37.5846 35.6479 37.5242C38.4813 36.6229 55.6628 32.0774 75.3931 47.3614C75.5354 47.4692 75.7381 47.4045 75.7769 47.2363L79.7144 31.2105C79.7316 31.1372 79.7144 31.051 79.6583 30.9949C78.3602 29.4941 61.5107 10.7385 39.2231 21.7788Z" fill="#1E5192"/>
</g>
</g>
</g>
<mask id="mask5_1146_1648" style="mask-type:luminance" maskUnits="userSpaceOnUse" x="14" y="97" width="50" height="20">
<path d="M14.0029 97.0084H63.1195V116.083H14.0029V97.0084Z" fill="white"/>
</mask>
<g mask="url(#mask5_1146_1648)">
<path d="M62.8864 98.7636C62.1187 98.052 60.2298 97.3706 55.8007 99.8332C53.8859 101.023 52.8466 101.791 52.3247 102.218C51.984 102.485 51.5743 102.649 51.1431 102.679C48.8358 102.839 41.5561 103.542 39.0591 103.49C38.6925 103.486 38.5718 102.994 38.8176 102.8C38.9987 102.658 39.279 102.589 39.6801 102.464C41.0946 102.02 48.9652 102.058 48.7927 99.113C48.6288 96.2925 42.9879 97.3318 41.3103 97.6898C40.6634 97.8278 39.9389 97.9356 39.2704 98.0175C39.2704 98.0175 36.8424 98.1254 35.6478 97.8364C33.1594 97.1895 27.9239 96.1329 24.6161 98.8111C21.9509 100.972 20.7692 102.395 20.2517 103.171C19.9024 103.693 19.428 104.12 18.8673 104.409L14.2054 107.691C13.9596 107.863 13.9294 108.217 14.145 108.428L21.7956 116.079C22.0026 116.286 22.3476 116.26 22.5245 116.023C23.5767 114.6 27.3417 110.434 35.1863 110.688C44.6396 110.994 44.7 110.809 46.7744 109.709C48.4002 108.851 52.273 107.462 53.8644 106.906C54.3344 106.742 54.77 106.496 55.1495 106.181L62.8346 99.872C63.1926 99.6003 63.2141 99.0698 62.8864 98.7636Z" fill="#1E5192"/>
</g>
<mask id="mask6_1146_1648" style="mask-type:luminance" maskUnits="userSpaceOnUse" x="47" y="95" width="10" height="4">
<path d="M47.4736 95.4299H56.3059V98.259H47.4736V95.4299Z" fill="white"/>
</mask>
<g mask="url(#mask6_1146_1648)">
<path d="M48.3403 96.9006C48.5818 97.0386 48.7975 97.1981 48.9743 97.3749C49.0864 97.4871 49.1856 97.6035 49.2719 97.7286C49.8325 97.4612 50.4621 97.1766 51.1435 96.8833L51.1522 96.879C52.86 96.245 54.3306 95.9043 55.5338 95.8655C55.1414 95.6585 54.6497 95.5335 54.0675 95.4989C52.8341 95.4256 51.2341 95.7534 49.3064 96.4736C48.97 96.6202 48.6465 96.7626 48.3403 96.9006Z" fill="#1E5192"/>
</g>
<path d="M47.3311 101.804C47.7839 101.769 48.2151 101.739 48.6205 101.705H48.6248C49.703 101.623 50.6345 101.55 51.2297 101.511C51.3332 101.506 51.4324 101.485 51.5316 101.45C51.6566 101.407 51.7731 101.343 51.8766 101.261C52.4156 100.829 53.4507 100.066 55.331 98.9016L55.3526 98.8887L55.3698 98.88C55.9046 98.5868 56.4307 98.3237 56.9267 98.0994C57.414 97.8924 57.8841 97.7199 58.324 97.5906C58.3843 97.5733 58.4447 97.5561 58.5051 97.5388C58.4361 97.4784 58.3585 97.4224 58.2808 97.3663C57.8323 97.073 57.2329 96.9135 56.4997 96.8876C55.3267 96.8488 53.8302 97.1636 52.0534 97.8191C51.2469 98.1641 50.5138 98.4919 49.8841 98.7981C49.8841 98.8283 49.8884 98.8542 49.8884 98.8843C49.9747 100.182 49.1122 101.166 47.3311 101.804Z" fill="#1E5192"/>
<mask id="mask7_1146_1648" style="mask-type:luminance" maskUnits="userSpaceOnUse" x="26" y="75" width="37" height="19">
<path d="M26.3286 75.0743H62.6841V93.8429H26.3286V75.0743Z" fill="white"/>
</mask>
<g mask="url(#mask7_1146_1648)">
<path d="M62.5459 90.1772V75.9584C62.3518 76.1482 62.1405 76.3293 61.9292 76.4932C61.7308 76.6441 61.5281 76.7821 61.3168 76.9158C60.6138 77.3385 59.8375 77.6317 59.0225 77.7568C57.9227 77.925 56.7885 77.8603 55.6759 77.8603H47.8269C47.801 77.8603 47.7708 77.8603 47.7406 77.856V78.3649C47.7406 78.4253 47.7449 78.4813 47.7406 78.546C47.7277 78.8781 47.4819 79.1239 47.1498 79.1368C46.5633 79.167 45.9681 79.1368 45.3773 79.1368H42.518C42.2679 79.1368 42.0177 79.1412 41.7676 79.1368C41.3967 79.1282 41.138 78.8824 41.1337 78.5029C41.1293 78.2916 41.1293 78.0716 41.1293 77.8603C41.1078 77.8646 41.0776 77.8646 41.0517 77.8646C41.0345 77.8646 41.0172 77.8646 41 77.8646C39.883 77.8819 38.766 77.8646 37.6534 77.8646H32.6766C31.4475 77.8646 30.1882 77.9422 28.9979 77.5627C28.502 77.4032 28.0189 77.1832 27.5661 76.9202C27.3548 76.7908 27.1478 76.6571 26.9494 76.5105C26.7338 76.3466 26.5311 76.1698 26.337 75.98V91.4753C26.337 91.5874 26.3327 91.7039 26.3413 91.816C26.4233 92.8985 27.303 93.7351 28.3898 93.7524C28.6572 93.7567 28.916 93.7524 29.1834 93.7524H59.3804C59.734 93.7524 60.092 93.7524 60.4413 93.7524C61.6402 93.748 62.5416 92.8036 62.5459 91.6219C62.5459 91.1303 62.5459 90.6559 62.5459 90.1772Z" fill="#1E5192"/>
</g>
<mask id="mask8_1146_1648" style="mask-type:luminance" maskUnits="userSpaceOnUse" x="26" y="60" width="37" height="17">
<path d="M26.3286 60.9246H62.6841V76.1783H26.3286V60.9246Z" fill="white"/>
</mask>
<g mask="url(#mask8_1146_1648)">
<path d="M62.5374 69.6231V68.2129C62.4598 67.139 61.58 66.2938 60.4932 66.2808C60.4199 66.2808 60.3466 66.2808 60.2733 66.2808H51.4927V63.2189C51.4927 62.5978 51.3159 62.007 50.8631 61.5542C50.4405 61.1272 49.8712 60.9332 49.2804 60.9289C48.7413 60.9289 48.2108 60.9289 47.6718 60.9289H39.8271C39.7236 60.9289 39.6244 60.9245 39.5252 60.9289C38.3478 60.9547 37.4249 61.8819 37.3948 63.0593C37.3689 64.1288 37.3818 65.207 37.3904 66.2808H28.8299C28.7005 66.2808 28.5797 66.2808 28.4504 66.2808C27.9026 66.2808 27.3894 66.4663 26.9841 66.8458C26.5916 67.2124 26.3803 67.7169 26.3501 68.2431V70.2312C26.3501 70.5202 26.3501 70.8005 26.3501 71.0894C26.3501 71.2102 26.3501 71.3309 26.3587 71.4517C26.363 71.5379 26.3717 71.6199 26.376 71.7061C26.376 71.7191 26.3803 71.732 26.3803 71.7449C26.4018 71.8614 26.4191 71.9821 26.445 72.0943C26.5054 72.3832 26.5959 72.6635 26.6994 72.9395C26.6994 72.9439 26.6994 72.9439 26.7037 72.9482C26.7037 72.9525 26.7037 72.9525 26.7037 72.9568C26.708 72.9654 26.708 72.9697 26.7124 72.9784C26.7382 73.0344 26.7684 73.0905 26.7943 73.1509C26.8504 73.2544 26.9021 73.3579 26.9582 73.4614C26.9668 73.4786 26.9754 73.4916 26.9884 73.5045C27.066 73.6382 27.1479 73.7676 27.2385 73.8926C27.2773 73.9444 27.3161 73.9875 27.3506 74.0436C27.3463 74.0349 27.342 74.0263 27.3377 74.0177C27.3463 74.0306 27.3506 74.0393 27.3593 74.0479C27.4283 74.1341 27.5016 74.2204 27.5792 74.298C27.6956 74.4274 27.825 74.5482 27.9544 74.6689C28.0105 74.7163 28.0622 74.7638 28.1183 74.8069C28.1269 74.8155 28.1398 74.8242 28.1528 74.8328C28.2218 74.8759 28.252 74.8932 28.2563 74.8975C28.252 74.8975 28.2304 74.8802 28.2002 74.8673C28.2865 74.9233 28.3684 74.988 28.4547 75.0441C28.6832 75.195 28.9204 75.3244 29.1662 75.4409C29.4034 75.5142 29.2784 75.484 29.2007 75.4538C29.2094 75.4581 29.2137 75.4581 29.2223 75.4624C29.2913 75.4883 29.356 75.5185 29.425 75.5357C29.5587 75.5832 29.6881 75.622 29.8175 75.6608C29.9641 75.6953 30.1064 75.7298 30.253 75.76C30.3048 75.7686 30.3522 75.7729 30.3997 75.7816C30.4298 75.7859 30.46 75.7859 30.4816 75.7902C30.8482 75.8247 31.2147 75.8161 31.5813 75.8161H41.0648C41.095 75.8161 41.1209 75.8161 41.1511 75.8204V74.8328C41.1511 74.5438 41.1079 74.2376 41.3451 74.0263C41.5435 73.8409 41.8066 73.8711 42.0567 73.8711H47.0119C47.0637 73.8711 47.1154 73.8711 47.1629 73.8711C47.4863 73.8883 47.7106 74.1083 47.7494 74.4145C47.7537 74.4317 47.7537 74.449 47.7537 74.4619C47.7537 74.4705 47.7537 74.4791 47.7537 74.4878V75.8247C47.7839 75.8204 47.8141 75.8204 47.8399 75.8204H47.896C48.9785 75.7988 50.0653 75.8204 51.1477 75.8204H57.897C58.0738 75.8204 58.2463 75.8118 58.4231 75.7945C58.4576 75.7902 58.4922 75.7859 58.5267 75.7816C58.5655 75.7729 58.6129 75.7729 58.6517 75.7643C58.794 75.7341 58.945 75.7039 59.0873 75.6651C59.2296 75.6263 59.3676 75.5832 59.5099 75.5314C59.5746 75.5099 59.635 75.484 59.6997 75.4581C59.9541 75.3417 60.1956 75.2123 60.4285 75.0614C60.5062 75.0139 60.5838 74.9622 60.6571 74.9104C60.6743 74.8932 60.7433 74.8457 60.7692 74.8242L60.7735 74.8198C60.7778 74.8155 60.7865 74.8112 60.7865 74.8069C60.8425 74.7638 60.8986 74.712 60.9504 74.6689C61.0797 74.5525 61.2048 74.4317 61.3256 74.3023C61.4032 74.2204 61.4808 74.1385 61.5498 74.0479C61.5541 74.0393 61.5627 74.0349 61.5671 74.0263C61.5972 73.9746 61.6447 73.9185 61.6792 73.8711C61.7568 73.7589 61.8301 73.6468 61.8948 73.5304C61.9078 73.5045 61.925 73.4829 61.9379 73.4614C61.9983 73.3492 62.0587 73.2371 62.1148 73.125C62.1406 73.0732 62.1665 73.0129 62.1924 72.9611C62.2959 72.6894 62.3865 72.4177 62.4468 72.1288C62.4684 72.0382 62.4813 71.9433 62.4986 71.8528V71.8484V71.8441C62.4986 71.8441 62.4986 71.8398 62.4986 71.8355C62.4986 71.8312 62.4986 71.8269 62.5029 71.8226C62.5072 71.7794 62.5158 71.7277 62.5202 71.6932C62.5288 71.6199 62.5331 71.5422 62.5374 71.4689C62.5417 71.3525 62.546 71.2317 62.5503 71.111V70.3002C62.5417 70.0587 62.5374 69.8431 62.5374 69.6231ZM49.4529 63.0765C49.4529 63.0809 49.4529 63.0852 49.4572 63.0852V63.0895C49.4615 63.1067 49.4658 63.1197 49.4572 63.0981C49.4529 63.1024 49.4486 63.0938 49.4442 63.0895C49.4615 64.1504 49.4529 65.2156 49.4486 66.2808H39.4389V63.3051C39.4389 63.2361 39.4389 63.1628 39.4389 63.0895C39.426 63.1067 39.4174 63.111 39.4131 63.1067C39.4044 63.1197 39.4044 63.0938 39.4088 63.0679C39.3872 63.0895 39.3786 63.0938 39.4088 63.0593C39.4088 63.042 39.4131 63.0291 39.4174 63.0119C39.4174 63.0119 39.4174 63.0119 39.4131 63.0119C39.4131 63.0119 39.4131 63.0119 39.4174 63.0119C39.4217 63.0075 39.4217 62.9946 39.426 62.986C39.3958 62.986 39.4044 62.9774 39.4303 62.973C39.4346 62.9515 39.4433 62.9429 39.4433 62.9687C39.4519 62.9687 39.4605 62.9644 39.4691 62.9644C39.4691 62.9601 39.4691 62.9601 39.4691 62.9558V62.9601C39.4864 62.9558 39.4993 62.9558 39.5166 62.9515C39.5338 62.9342 39.5424 62.9299 39.5468 62.9256C39.5424 62.9299 39.5338 62.9385 39.5209 62.9515C39.5511 62.9472 39.5769 62.9472 39.564 62.9558C39.5683 62.9601 39.564 62.9687 39.5511 62.9817C39.5813 62.9817 39.6158 62.9817 39.6459 62.9817H48.9914C49.1165 62.9817 49.2329 62.9774 49.358 62.9817C49.3494 62.9774 49.3451 62.9774 49.3407 62.973C49.3106 62.9558 49.3192 62.9515 49.3407 62.9472C49.3278 62.9385 49.3321 62.9385 49.3451 62.9472C49.3494 62.9472 49.358 62.9472 49.3623 62.9472C49.3451 62.9342 49.3364 62.9256 49.3321 62.9256C49.3321 62.9256 49.3451 62.9299 49.3666 62.9472C49.3796 62.9472 49.3968 62.9515 49.4141 62.9515C49.4227 62.9515 49.427 62.9558 49.4356 62.9558C49.4356 62.9472 49.4356 62.9429 49.4399 62.9429C49.4399 62.9429 49.4442 62.9472 49.4442 62.9558C49.4787 62.9644 49.496 62.973 49.4442 62.9774C49.4442 62.986 49.4442 62.9903 49.4442 62.9989C49.4529 63.0032 49.4615 63.0075 49.4658 63.0075C49.4615 63.0075 49.4529 63.0075 49.4442 63.0032V63.0075C49.4486 63.0075 49.4529 63.0119 49.4615 63.0205C49.4572 63.0205 49.4529 63.0162 49.4486 63.0119C49.4486 63.0205 49.4529 63.0248 49.4529 63.0334C49.4615 63.0507 49.4787 63.0679 49.4917 63.0765C49.4787 63.0679 49.4658 63.055 49.4529 63.0464C49.4529 63.0636 49.4529 63.0679 49.4529 63.0765Z" fill="#1E5192"/>
</g>
<path d="M327.221 41.3495C327.221 41.3495 326.971 41.5996 326.824 41.7463C326.427 42.0913 325.832 42.639 325.785 43.0357C325.733 43.5791 325.884 44.2735 326.082 44.916C326.177 45.3602 326.276 45.8088 326.328 46.2055C326.475 47.3441 326.527 48.53 326.574 49.6729C326.574 49.7678 326.574 49.8669 326.574 49.9661V50.2637L326.328 50.5138C324.396 51.3548 322.464 52.1958 320.532 53.0885L319.644 53.4852C317.362 58.6345 315.335 64.3315 313.502 70.8695C319.941 67.0053 326.824 62.9946 334.005 59.924C338.266 58.0911 341.828 56.9526 345.248 56.3057C347.624 55.8615 349.556 55.8141 351.29 56.1073C352.182 56.2583 353.023 56.5041 353.718 56.8017C353.864 56.8534 354.011 56.9526 354.209 57.0992C352.825 54.6238 350.794 52.0966 348.068 49.3236C346.287 47.5424 344.157 46.6972 341.336 46.6972C340.741 46.6972 340.094 46.6972 339.452 46.7963C339.206 46.7963 338.908 46.8481 338.658 46.8955L337.869 46.9947L337.77 46.6497C337.77 46.6497 337.67 46.4039 337.67 46.253C336.976 42.8373 335.441 38.6757 332.323 38.6757C331.577 38.6757 330.736 38.9215 329.843 39.37C328.955 39.8142 328.109 40.5085 327.268 41.3495H327.221Z" fill="#1E5192"/>
<path d="M353.321 61.5068C353.071 60.7132 352.528 60.1224 351.734 59.7257C349.953 58.8329 347.279 58.7337 344.554 59.3763C344.355 59.7257 344.109 60.0707 343.859 60.42C343.713 60.6141 343.562 60.8124 343.467 61.0108C346.882 62.2011 350.052 63.6372 352.924 65.3709C353.52 63.9822 353.718 62.5979 353.321 61.5068Z" fill="#1E5192"/>
<mask id="mask9_1146_1648" style="mask-type:luminance" maskUnits="userSpaceOnUse" x="270" y="32" width="63" height="88">
<path d="M270.117 32.7717H332.314V119.236H270.117V32.7717Z" fill="white"/>
</mask>
<g mask="url(#mask9_1146_1648)">
<path d="M306.369 112.072C305.576 108.113 305.528 103.999 305.627 100.484C305.774 92.3635 306.913 84.0401 309.043 75.6736C311.372 66.4101 314.291 57.9918 317.711 50.6129C320.135 45.3601 324.098 36.7435 331.232 35.0098C328.605 34.1214 325.931 33.6254 323.602 33.2287L323.012 33.1295C320.829 32.7845 318.501 32.5343 316.819 33.1295C314.887 33.8712 313.205 35.5575 311.967 36.9418C310.63 38.4297 309.388 40.1116 308.103 42.0954L307.904 42.4404L307.262 42.0437C304.584 40.1634 300.672 37.6836 297.455 37.6836C296.364 37.6836 295.424 37.9812 294.682 38.5289C292.353 40.2626 292.5 44.2733 293.392 47.4905C294.98 48.1849 296.562 49.125 298.296 50.2161C298.443 50.3153 298.792 50.5611 299.189 50.9104C299.585 51.2555 300.077 51.6005 300.526 51.9498L300.724 52.0964C301.022 52.2948 301.22 52.4457 301.418 52.4932L302.505 53.1875L302.259 53.7309C302.009 54.2786 301.811 54.8694 301.565 55.4172L301.466 55.663H299.883C298.792 55.663 297.653 55.663 296.562 55.663C297.356 57.1983 298.05 58.4877 298.693 59.6263L298.792 59.7729L299.534 61.1616V61.3082C299.236 62.1017 298.99 62.9427 298.74 63.7362L298.542 64.4306L297.852 63.637C294.63 58.436 292.452 54.0802 291.016 49.8711C289.283 44.7693 289.037 40.8534 290.374 37.9337C287.204 40.0642 283.982 43.1822 281.606 46.5029C279.825 48.9784 279.575 52.394 280.912 57.1983L281.011 57.595L280.019 57.8926C278.091 58.5352 274.771 59.9239 274.029 62.0543C273.684 62.9944 273.93 64.0338 274.624 65.1723C275.564 66.561 276.849 67.4494 278.238 68.4413L279.079 69.0364C279.527 69.334 279.92 69.2348 280.515 69.0364C280.713 68.9373 280.912 68.8855 281.162 68.8381C282.102 68.5879 283.042 68.3421 283.982 68.1437V68.0445L285.173 67.9971L285.319 68.2429C285.867 69.2823 286.41 70.2742 287.005 71.3135C287.204 71.6111 287.846 72.7022 288.739 74.0865L288.938 74.3841L287.45 75.8202L286.755 75.4752C281.606 73.8407 273.089 71.0677 270.661 64.9265C270.117 66.6084 270.117 68.4887 270.117 70.1232V71.2661C270.117 72.9006 270.117 74.5825 270.316 76.217C270.906 79.9302 274.426 82.0606 277.544 83.9409L278.19 84.3377C278.19 84.3377 278.436 84.4886 278.535 84.5878L278.88 84.8336L278.635 85.1829C277.496 86.5673 276.107 88.4476 275.068 90.4789C273.585 93.5494 274.969 96.62 276.504 99.2464C277.841 101.476 279.178 103.607 280.864 105.336C280.567 104.396 280.614 103.408 281.011 102.119C281.507 100.73 282.201 99.3931 283.288 97.6594C285.22 94.5888 287.648 91.8675 289.977 89.3921C290.223 89.1419 290.572 88.8444 290.964 88.4994C291.413 88.1026 291.909 87.7058 292.254 87.2616L293.988 85.7263L293.888 86.7657C293.591 89.6379 293.444 92.5619 293.392 95.5333V95.8308L292.75 96.0292H292.599C291.81 96.275 291.215 96.4734 290.865 96.5726L290.473 96.7192C289.084 97.116 287.846 97.4136 286.656 97.6594C284.526 100.484 283.586 102.761 283.935 104.297C284.081 105.043 284.526 105.586 285.22 105.983C286.16 106.526 287.402 106.776 288.886 106.776C290.374 106.776 291.758 106.526 292.75 106.328L293.147 106.229L294.035 106.181V106.578C294.531 110.041 295.372 113.508 298.494 115.393C300.474 116.579 302.656 117.273 305.278 118.067C306.865 118.563 308.301 118.959 309.785 119.205C307.805 117.571 306.964 114.453 306.468 112.025L306.369 112.072Z" fill="#1E5192"/>
</g>
<path d="M323.06 78.7443C323.06 78.7443 323.504 78.7443 323.754 78.7443C324.198 78.7443 324.694 78.7443 325.138 78.7443H328.209C328.506 78.7443 328.756 78.7443 328.955 78.7443C330.339 78.6926 331.629 78.6926 332.914 78.6452H335.195C336.48 78.546 337.968 78.4942 339.452 78.395C339.107 77.6058 338.559 76.8123 338.067 76.0188C337.817 75.6738 337.619 75.3244 337.373 74.9794C336.631 73.7891 335.885 72.6506 335.144 71.4646C333.462 68.9374 331.827 66.6603 330.193 64.5299C327.023 66.0652 323.702 67.8463 319.791 70.1234C320.286 70.8177 320.782 71.4646 321.278 72.1072C322.119 73.1983 322.913 74.2851 323.702 75.3762L323.801 75.5228L323.357 77.4549L323.206 78.0975C323.159 78.2958 323.107 78.4942 323.06 78.6926V78.7443Z" fill="#1E5192"/>
<path d="M342.125 78.1967H342.225C342.225 78.1967 342.971 77.9509 343.76 77.1099L345.295 75.4237L345.593 75.5746C346.041 75.773 346.533 76.0188 346.981 76.2689C347.378 76.463 347.775 76.6614 348.219 76.8598C348.564 77.0107 349.556 76.6139 350.199 76.3638C350.397 76.2689 350.595 76.2172 350.695 76.1697C352.23 75.5746 353.916 74.8285 354.606 73.4916C355.499 71.7579 354.063 69.9768 353.619 69.4808C350.992 66.6086 346.93 64.8275 343.363 63.4388C342.276 63.0421 341.185 62.6453 340.094 62.3003C339.9 62.2529 339.65 62.1537 339.404 62.0027C338.856 61.7569 338.115 61.4594 337.67 61.4594C337.571 61.4594 337.52 61.4594 337.472 61.4594C335.488 62.2529 333.759 62.9946 332.172 63.7364C332.616 64.6291 333.41 65.5175 334.151 66.4103C334.6 66.958 335.044 67.4496 335.441 67.9973C336.579 69.58 337.77 71.2663 339.007 73.1466L340.444 75.5746C340.939 76.5148 341.435 77.4549 342.125 78.1967Z" fill="#1E5192"/>
<path d="M350.94 79.1411C347.676 80.2279 344.01 80.9222 339.107 81.4182C331.133 82.2117 322.615 82.0608 314.046 80.9697C317.66 85.1314 321.571 89.0429 325.634 92.6095L326.082 93.058C326.427 93.403 326.824 93.748 327.221 93.9981L328.955 95.3825C328.955 95.3825 329.399 95.7792 329.645 95.9776C329.744 95.7318 329.843 95.4817 329.942 95.1367C330.093 94.7399 330.192 94.4423 330.292 94.1965L330.391 93.9464H331.331C331.926 93.8472 332.517 93.8472 333.164 93.7997L334.449 93.7006L334.548 93.9981C334.798 94.6407 335.096 95.2833 335.242 95.6326L335.342 95.8784C335.937 97.3663 336.532 99.0008 336.929 100.782C338.511 101.623 340.689 102.714 342.673 102.714C343.217 102.714 343.712 102.615 344.208 102.468C346.434 101.722 346.585 98.5523 346.486 97.2671C346.434 95.9776 346.287 94.8391 346.041 93.8472C345.942 93.403 345.843 92.9588 345.744 92.6095L345.593 92.1653L346.041 92.0661C347.279 91.7685 348.366 91.5227 349.31 91.2251H349.504C351.536 90.5308 353.817 89.8364 355.055 88.1028C356.439 86.1233 356.888 83.4494 357.28 80.8748C357.578 78.891 357.677 76.9115 357.578 75.0269C356.241 77.3557 352.972 78.4468 350.992 79.1411H350.94Z" fill="#1E5192"/>
<path d="M336.678 104.098C333.608 102.662 330.486 100.73 327.169 98.1555C323.999 95.7318 320.881 93.0063 317.957 90.0823C316.573 88.6979 315.184 87.2618 313.847 85.7265C313.748 85.6273 313.55 85.3298 313.252 84.9848C312.756 84.3379 311.618 82.9018 310.975 82.2117C310.134 86.7659 309.686 91.2251 309.241 95.4343V95.6801L308.845 100.635L309.884 100.187L310.233 100.536C311.221 101.425 312.213 102.317 313.205 103.158L313.451 103.357L312.657 104.745C312.066 105.733 311.471 106.677 310.824 107.617C310.678 107.816 310.479 108.062 310.233 108.312C309.785 108.803 309.19 109.45 309.241 109.895C309.388 111.676 310.082 114.155 311.221 115.79C311.967 116.829 312.808 117.325 313.796 117.325C316.767 117.325 320.334 112.818 321.869 110.735L322.464 109.946L322.762 110.14C325.388 111.874 328.855 113.905 332.073 113.905C332.965 113.905 333.754 113.759 334.548 113.461C338.908 111.827 342.72 108.26 344.95 105.832C344.402 105.983 343.812 106.082 343.216 106.082C340.939 106.082 338.658 104.991 336.627 104.051L336.678 104.098Z" fill="#1E5192"/>
<path d="M216.447 3.44147C215.877 3.44147 215.468 3.90292 215.468 4.42043V126.093C215.468 126.658 215.929 127.072 216.447 127.072C216.96 127.072 217.426 126.606 217.426 126.093V4.42043C217.426 3.90292 217.012 3.44147 216.447 3.44147Z" fill="#1E5192"/>
<path d="M415.378 64.5232L412.48 64.8855L405.338 95.5224H398.765L392.297 72.2514H392.159L385.69 95.5224H379.134L371.941 64.8855L369.06 64.5232V60.2623H382.032V64.5232L378.807 65.0752L382.86 84.4131L382.998 84.4303L389.623 60.2623H394.815L401.474 84.4303L401.629 84.4131L405.648 65.0752L402.423 64.5232V60.2623H415.378V64.5232Z" fill="#1E5192"/>
<path d="M417.43 64.5232V60.2623H432.041V64.5232L428.263 65.2477V90.5543L432.041 91.2788V95.5224H417.43V91.2788L421.208 90.5543V65.2477L417.43 64.5232Z" fill="#1E5192"/>
<path d="M470.748 60.2623V64.5232L466.97 65.2477V95.5224H459.932L445.7 71.7857L445.545 71.8202V90.5543L449.322 91.2788V95.5224H434.729V91.2788L438.472 90.5543V65.2477L434.729 64.5232V60.2623H445.545L459.794 83.9991L459.932 83.9646V65.2477L456.154 64.5232V60.2623H470.748Z" fill="#1E5192"/>
<path d="M504.068 60.2623V69.6639H498.651L498.358 65.7135H491.872V90.5543L495.65 91.2788V95.5224H481.021V91.2788L484.799 90.5543V65.7135H478.33L478.037 69.6639H472.638V60.2623H504.068Z" fill="#1E5192"/>
<path d="M529.13 80.0314H517.193V90.1057H528.578L528.888 85.8794H534.271V95.5224H506.376V91.2788L510.12 90.5543V65.2477L506.376 64.5232V60.2623H534.219V69.9226H528.802L528.474 65.7135H517.193V74.5803H529.13V80.0314Z" fill="#1E5192"/>
<path d="M566.925 72.148H561.681L560.956 67.4558C560.253 66.7658 559.373 66.2224 558.317 65.817C557.256 65.403 556.009 65.196 554.573 65.196C551.511 65.196 549.157 66.313 547.501 68.5426C545.845 70.7766 545.017 73.6833 545.017 77.2714V78.4962C545.017 82.0843 545.836 84.9996 547.483 87.2422C549.127 89.4848 551.451 90.606 554.453 90.606C555.841 90.606 557.113 90.4077 558.265 90.0023C559.425 89.6012 560.322 89.0492 560.956 88.3462L561.681 83.6541H566.925V90.6233C565.51 92.2793 563.699 93.599 561.491 94.5737C559.291 95.5397 556.825 96.0227 554.09 96.0227C549.364 96.0227 545.487 94.3925 542.463 91.1236C539.449 87.846 537.944 83.6368 537.944 78.4962V77.3059C537.944 72.1911 539.445 67.9863 542.446 64.6957C545.448 61.4095 549.329 59.7621 554.09 59.7621C556.825 59.7621 559.287 60.258 561.474 61.2456C563.669 62.2375 565.484 63.5486 566.925 65.1788V72.148Z" fill="#1E5192"/>
<path d="M101.194 68.2313V63.9704H115.806V68.2313L112.028 68.9558V94.2623L115.806 94.9869V99.2305H101.194V94.9869L104.972 94.2623V68.9558L101.194 68.2313Z" fill="#1E5192"/>
<path d="M118.458 68.2313V63.9704H133.07V68.2313L129.292 68.9558V94.2623L133.07 94.9869V99.2305H118.458V94.9869L122.236 94.2623V68.9558L118.458 68.2313Z" fill="#1E5192"/>
<path d="M162.53 75.235H157.234L156.303 70.3876C155.69 69.9995 154.793 69.6588 153.612 69.3699C152.439 69.0852 151.188 68.9386 149.868 68.9386C147.936 68.9386 146.44 69.3483 145.383 70.1634C144.322 70.9828 143.796 72.0351 143.796 73.3202C143.796 74.5191 144.348 75.5024 145.452 76.2701C146.556 77.0291 148.462 77.8399 151.179 78.7024C155.065 79.7849 158.015 81.2123 160.029 82.9805C162.039 84.753 163.048 87.0862 163.048 89.9842C163.048 92.9988 161.849 95.3793 159.46 97.126C157.066 98.864 153.914 99.7308 150.006 99.7308C147.22 99.7308 144.702 99.2866 142.451 98.4025C140.195 97.5184 138.315 96.2936 136.81 94.7281V87.3622H142.295L143.037 92.3821C143.749 92.96 144.715 93.4344 145.935 93.8139C147.151 94.1934 148.51 94.3831 150.006 94.3831C151.947 94.3831 153.422 93.995 154.423 93.2101C155.432 92.4166 155.941 91.36 155.941 90.036C155.941 88.6818 155.458 87.5864 154.492 86.7584C153.534 85.9304 151.856 85.1541 149.454 84.4296C145.28 83.222 142.114 81.7902 139.967 80.1342C137.815 78.4695 136.741 76.1924 136.741 73.303C136.741 70.4394 137.948 68.1019 140.363 66.282C142.787 64.4664 145.836 63.5349 149.506 63.4874C152.219 63.4874 154.686 63.9014 156.907 64.7295C159.136 65.5489 161.012 66.64 162.53 68.0071V75.235Z" fill="#1E5192"/>
</svg>
