<svg width="167" height="217" viewBox="0 0 167 217" fill="none" xmlns="http://www.w3.org/2000/svg">
<mask id="mask0_1871_1981" style="mask-type:luminance" maskUnits="userSpaceOnUse" x="0" y="63" width="149" height="113">
<path d="M0.010498 63.8594H148.667V175.042H0.010498V63.8594Z" fill="white"/>
</mask>
<g mask="url(#mask0_1871_1981)">
<path d="M147.995 132.886C147.62 129.979 147.151 127.625 146.667 125.557C146.542 125.042 146.427 124.542 146.297 124.057C146.167 123.573 146.042 123.104 145.917 122.641C145.787 122.182 145.656 121.729 145.526 121.287C145.401 120.839 145.25 120.401 145.115 119.964C143.729 115.61 141.958 111.422 139.787 107.417C139.948 107.636 140.109 107.844 140.276 108.057C140.432 108.266 140.589 108.479 140.74 108.688C141.052 109.11 141.365 109.531 141.667 109.969C141.974 110.412 142.292 110.86 142.599 111.349C142.906 111.839 143.24 112.354 143.563 112.922C144.198 113.979 145.219 116.229 146.005 118.255C146.75 120.172 147.292 121.75 147.662 122.86C148.042 123.964 148.255 124.599 148.333 124.656C148.37 124.682 148.375 124.563 148.333 124.281C148.302 124.005 148.219 123.568 148.083 122.964C147.818 121.755 147.339 119.87 146.458 117.255C146.26 116.636 146.162 116.224 146.115 115.86C146.063 115.49 146.052 115.172 145.964 114.771C146.188 115.276 146.375 115.761 146.563 116.214C146.755 116.667 146.917 117.099 147.073 117.5C147.224 117.906 147.375 118.276 147.5 118.625C147.625 118.974 147.74 119.287 147.839 119.573C148.052 120.146 148.203 120.594 148.318 120.906C148.432 121.219 148.505 121.396 148.537 121.427C148.589 121.485 148.49 120.958 148.172 119.776C148.01 119.182 147.807 118.427 147.505 117.505C147.359 117.047 147.203 116.537 147.01 115.995C146.823 115.453 146.62 114.86 146.38 114.235C144.474 109.125 142.229 104.537 139.703 100.323C137.172 96.1147 134.365 92.2762 131.214 88.7293C129.302 86.5731 127.297 84.5626 125.219 82.672C123.135 80.7814 120.969 79.0106 118.708 77.3699C116.448 75.7241 114.099 74.2033 111.641 72.797C109.188 71.4012 106.63 70.1095 103.948 68.9689C103.412 68.7449 102.787 68.4897 102.099 68.2397C101.412 67.9949 100.672 67.7189 99.8907 67.4793C99.5001 67.3543 99.1042 67.2293 98.7032 67.1043C98.3022 66.9897 97.8959 66.8751 97.4949 66.7553C97.2917 66.6981 97.0886 66.6408 96.8855 66.5835C96.6824 66.5314 96.4844 66.4793 96.2813 66.4272C95.8803 66.3231 95.4844 66.2189 95.0938 66.1147C90.2501 64.9116 85.2761 64.1824 80.2657 63.9481C75.2657 63.7085 70.2136 63.9585 65.2032 64.7137C60.198 65.4689 55.2344 66.7397 50.4324 68.5158C45.6303 70.2918 40.9897 72.5731 36.6094 75.3231C26.3542 81.7501 17.6511 90.5678 11.3594 100.875C8.20841 106.016 5.67195 111.542 3.79695 117.266C1.93757 123.005 0.729238 128.943 0.255279 134.927C0.0677793 137.203 -0.015554 139.432 0.0156961 141.599C0.0365294 143.761 0.145904 145.86 0.34382 147.891C0.552154 149.922 0.822988 151.88 1.16674 153.75C1.25528 154.219 1.34903 154.682 1.44278 155.141C1.48966 155.37 1.53653 155.599 1.5834 155.823C1.63549 156.052 1.68236 156.276 1.73445 156.5C1.83861 156.948 1.93757 157.391 2.04695 157.828C2.16153 158.261 2.27611 158.693 2.38549 159.12C2.49486 159.547 2.61986 159.964 2.73965 160.375C2.86465 160.792 2.97403 161.198 3.10945 161.599C3.36986 162.406 3.61986 163.188 3.8959 163.943C4.03132 164.323 4.16674 164.698 4.30736 165.063C4.44799 165.427 4.58861 165.792 4.72924 166.146C4.80215 166.323 4.86986 166.5 4.94278 166.677C5.0157 166.849 5.08861 167.021 5.16153 167.193C5.31257 167.537 5.45841 167.875 5.59903 168.203C6.77611 170.854 8.03132 173.104 9.22924 174.969C7.0782 170.344 5.35945 165.422 4.18236 160.396C3.00007 155.365 2.35945 150.235 2.26049 145.219C2.1459 139.068 2.8334 133.537 4.09903 127.995C4.73445 125.229 5.5157 122.453 6.51049 119.604C7.50007 116.755 8.66153 113.823 10.1147 110.766C10.9897 108.912 12.1355 107.339 13.1251 105.958C13.2709 105.75 13.4063 105.557 13.5417 105.38C13.6772 105.203 13.8074 105.042 13.9324 104.891C14.1824 104.583 14.4167 104.313 14.6407 104.057C14.8751 103.797 15.1042 103.552 15.3438 103.287C15.5834 103.021 15.8282 102.729 16.1147 102.401C16.4011 102.073 16.7084 101.698 17.0678 101.25C17.2501 101.026 17.448 100.787 17.6563 100.526C17.8594 100.261 18.0782 99.9741 18.3282 99.672C18.5678 99.3699 18.8282 99.0418 19.1042 98.6824C19.3907 98.3283 19.6928 97.9481 20.0209 97.5418C20.6772 96.7241 21.4428 95.797 22.3386 94.7449C23.0469 94.3283 23.9792 93.6408 25.2657 92.6147C26.5626 91.5991 28.2084 90.2449 30.4011 88.5678C30.6511 88.3751 30.5678 88.5626 30.2917 88.922C30.1563 89.1043 29.974 89.3283 29.7553 89.5678C29.5469 89.8126 29.3074 90.0783 29.0522 90.3387C27.4636 91.9585 25.8647 93.7345 24.4167 95.547C22.9688 97.3543 21.6719 99.1981 20.6407 100.917C22.1355 98.8022 23.7605 96.7553 25.448 94.8335C26.8074 93.2866 28.2605 91.7345 29.7553 90.2918C31.2501 88.8491 32.7865 87.521 34.2709 86.4012C36.2449 84.9324 37.4792 84.3283 39.0469 83.4897C39.2449 83.3803 39.4428 83.271 39.6563 83.1564C39.8647 83.047 40.0834 82.9272 40.3126 82.8074C40.7709 82.5522 41.2709 82.2762 41.8334 81.9637C42.1147 81.8022 42.4115 81.6356 42.724 81.4533C43.0417 81.2814 43.3803 81.0939 43.7344 80.8908C44.0834 80.6824 44.4688 80.4793 44.8699 80.2553C45.073 80.1408 45.2761 80.0262 45.4897 79.9064C45.7032 79.7866 45.9272 79.672 46.1563 79.547C46.5574 79.4324 46.9897 79.2918 47.4324 79.1668C47.8751 79.047 48.323 78.922 48.7449 78.8022C49.599 78.5939 50.3438 78.4272 50.7501 78.4324C50.974 78.4324 50.7709 78.6199 50.3282 78.9324C49.8803 79.2345 49.1719 79.6408 48.3751 80.0835C47.8022 80.3908 47.1667 80.7501 46.4844 81.1251C46.1459 81.3074 45.8022 81.5158 45.448 81.7137C45.2709 81.8178 45.0886 81.9168 44.9115 82.021C44.7344 82.1251 44.5522 82.2345 44.3751 82.3387C42.9324 83.1876 41.4949 84.1251 40.2917 84.9949C38.3282 86.4168 36.9115 87.6772 35.349 89.0991C35.6719 88.8387 35.9636 88.6303 36.2084 88.4533C36.4584 88.2762 36.6667 88.1303 36.8386 88.0158C37.1928 87.7866 37.4167 87.6772 37.5574 87.6303C37.8334 87.5418 37.7917 87.7189 37.849 87.8178C37.9063 87.9116 38.0626 87.922 38.7449 87.5158C39.4428 87.1251 40.6355 86.2762 42.9115 84.8543C43.2292 84.6616 43.6928 84.4012 44.2084 84.1251C44.7292 83.8647 45.2969 83.5783 45.8282 83.3387C46.3594 83.1043 46.8438 82.896 47.1876 82.7658C47.5261 82.6356 47.724 82.5783 47.6719 82.6251C47.0053 83.2606 46.9636 83.5053 47.3647 83.4324C47.5678 83.396 47.8907 83.2918 48.3126 83.1251C48.5209 83.0418 48.7553 82.9376 49.0157 82.8283C49.2761 82.7241 49.5574 82.5991 49.8647 82.4689C50.0157 82.4012 50.1719 82.3335 50.3334 82.2606C50.4949 82.1928 50.6667 82.1199 50.8386 82.047C51.1876 81.9012 51.5522 81.7449 51.9376 81.5783C52.323 81.422 52.7292 81.2553 53.1459 81.0887C53.5678 80.9168 54.0105 80.7553 54.4584 80.5835C56.2657 79.9012 58.3126 79.2293 60.448 78.672C62.4219 78.1616 64.6667 77.6772 66.9844 77.3283C69.2969 76.9741 71.6824 76.7606 73.9115 76.7085C76.1459 76.6512 78.2188 76.7553 79.9219 76.9585C81.6251 77.1512 82.948 77.4637 83.698 77.7814C83.7709 77.8126 83.8855 77.8439 84.0313 77.8803C84.1772 77.922 84.3542 77.9689 84.5626 78.0158C84.7657 78.0626 85.0001 78.1147 85.2553 78.1668C85.3855 78.1928 85.5157 78.2189 85.6511 78.2501C85.7917 78.2762 85.9324 78.3074 86.073 78.3387C86.6563 78.4637 87.2917 78.5887 87.9376 78.7345C88.2657 78.8022 88.5886 78.8699 88.9115 78.9428C89.2344 79.0106 89.5522 79.0835 89.8594 79.1512C91.5522 79.5314 93.0157 79.9064 93.9897 80.2345C94.4792 80.396 94.849 80.5314 95.0678 80.6564C95.2813 80.7814 95.3542 80.8751 95.2397 80.9428C95.1042 81.0314 95.2969 81.1772 95.7136 81.3699C96.1355 81.5522 96.7709 81.8074 97.5365 82.0783C99.0626 82.6303 101.063 83.3543 102.745 84.0366C110.292 87.0731 117.287 91.6147 123.188 97.2918C129.094 102.969 133.901 109.771 137.281 117.162C137.521 117.708 137.797 118.292 138.042 118.896C138.167 119.198 138.297 119.5 138.427 119.807C138.547 120.11 138.667 120.417 138.787 120.719C139.271 121.927 139.693 123.083 140.026 123.943C140.203 124.37 140.333 124.724 140.453 124.974C140.573 125.219 140.672 125.365 140.734 125.37C140.797 125.375 140.833 125.24 140.828 124.943C140.818 124.641 140.787 124.172 140.672 123.505C140.583 122.938 140.859 123.375 141.245 124.203C141.432 124.62 141.656 125.13 141.865 125.667C142.068 126.203 142.281 126.761 142.453 127.255C143.094 129.078 143.693 131.261 144.172 133.432C144.656 135.604 145.01 137.766 145.297 139.526C145.453 140.443 145.563 141.198 145.688 141.656C145.802 142.115 145.912 142.281 146.005 142.021C146.052 141.891 146.099 141.656 146.135 141.297C146.172 140.938 146.219 140.458 146.229 139.839C146.234 139.531 146.24 139.182 146.245 138.802C146.25 138.422 146.229 138.005 146.219 137.552C146.214 137.323 146.203 137.083 146.198 136.839C146.182 136.589 146.167 136.333 146.151 136.068C146.13 135.797 146.115 135.521 146.094 135.235C146.073 134.948 146.042 134.651 146.016 134.344C145.734 131.521 145.797 130.761 145.802 129.594C145.802 129.307 145.787 128.99 145.76 128.61C145.745 128.422 145.729 128.219 145.698 127.99C145.672 127.766 145.635 127.521 145.589 127.25C145.547 126.985 145.5 126.688 145.438 126.36C145.37 126.037 145.292 125.688 145.198 125.297C145.156 125.104 145.109 124.901 145.057 124.688C145 124.479 144.943 124.261 144.88 124.031C144.75 123.573 144.625 123.078 144.448 122.542C144.578 122.49 144.526 121.688 144.87 122.516C145 122.828 145.125 123.156 145.255 123.495C145.38 123.839 145.516 124.188 145.651 124.552C145.771 124.917 145.901 125.297 146.037 125.688C146.099 125.886 146.172 126.083 146.234 126.292C146.302 126.495 146.365 126.703 146.432 126.917C146.958 128.615 147.495 130.573 147.995 132.886Z" fill="#1E5192"/>
</g>
<mask id="mask1_1871_1981" style="mask-type:luminance" maskUnits="userSpaceOnUse" x="12" y="142" width="138" height="74">
<path d="M12.7136 142.067H149.828V215.854H12.7136V142.067Z" fill="white"/>
</mask>
<g mask="url(#mask1_1871_1981)">
<path d="M51.8438 203.865C52.1771 204.016 52.5104 204.161 52.8438 204.313C53.1771 204.458 53.5104 204.599 53.849 204.74C54.5156 205.031 55.2031 205.281 55.901 205.531C56.2604 205.651 56.625 205.766 56.9896 205.875C57.1719 205.932 57.3594 205.99 57.5417 206.042C57.7292 206.094 57.9115 206.146 58.099 206.193C58.4688 206.292 58.8438 206.396 59.2135 206.49C59.5885 206.578 59.9635 206.672 60.3385 206.76C59.974 206.641 59.6094 206.526 59.2448 206.406C58.8854 206.281 58.5208 206.151 58.1563 206.021C57.9688 205.958 57.7865 205.891 57.6042 205.828C57.4167 205.755 57.2344 205.688 57.0469 205.615C56.6771 205.474 56.2969 205.333 55.9167 205.182C55.4896 205.052 55.0938 204.938 54.7188 204.823C54.349 204.714 54.0052 204.594 53.6771 204.49C53.0208 204.281 52.4323 204.073 51.8438 203.865ZM107.141 207.521C105.172 208.417 103.193 209.313 101.161 210.078C101.552 210.01 101.896 210.026 102.344 209.865C102.688 209.74 103.026 209.609 103.37 209.479C103.542 209.417 103.719 209.349 103.891 209.286C104.068 209.214 104.24 209.141 104.417 209.073C104.771 208.927 105.135 208.781 105.505 208.63C105.875 208.469 106.26 208.302 106.656 208.125C108.234 207.422 110.047 206.563 112.26 205.344C112.083 205.422 111.922 205.5 111.76 205.573C111.599 205.646 111.443 205.719 111.292 205.781C110.99 205.911 110.708 206.036 110.448 206.151C109.932 206.375 109.479 206.547 109.083 206.714C108.885 206.792 108.703 206.865 108.531 206.938C108.354 207.01 108.188 207.073 108.031 207.135C107.714 207.266 107.422 207.391 107.141 207.521ZM52.8073 204.661C51.3385 204.104 50.3229 203.865 49.125 203.432C49.2813 203.516 49.4479 203.599 49.6094 203.682C49.7708 203.766 49.9375 203.844 50.099 203.927C50.4271 204.089 50.7604 204.25 51.0885 204.411C51.4167 204.568 51.75 204.719 52.0781 204.865C52.2448 204.932 52.4115 205.005 52.5729 205.073C52.7396 205.146 52.901 205.203 53.0677 205.266C53.474 205.417 53.875 205.568 54.3229 205.714C54.7656 205.859 55.25 206.01 55.8125 206.182C56.9479 206.505 58.3958 206.922 60.5208 207.391C58.2917 206.75 56.7188 206.156 55.5208 205.708C54.3229 205.255 53.5104 204.911 52.8073 204.661ZM27.2969 185.891C31.7552 190.703 36.9375 194.953 42.7135 198.432C44.1615 199.297 45.6354 200.125 47.1563 200.891C48.6719 201.656 50.2188 202.37 51.7969 203.036C54.9635 204.344 58.2448 205.453 61.6302 206.292C63.0052 206.646 64.4115 206.911 65.8229 207.161L66.8854 207.323L67.4167 207.406L67.9531 207.474C68.3073 207.526 68.6615 207.573 69.0156 207.62C69.3698 207.656 69.724 207.698 70.0781 207.74C71.8385 207.938 72.7552 207.938 73.25 207.896C73.7396 207.854 73.8073 207.76 73.8854 207.667C73.9688 207.573 74.0573 207.484 74.5885 207.432C74.8542 207.406 75.2292 207.396 75.7656 207.396C76.0365 207.391 76.3438 207.391 76.7031 207.391C77.0625 207.391 77.4688 207.401 77.9271 207.396C75.5417 207.302 73.3229 207.042 70.8021 206.755C65.9635 206.188 61.1771 205.089 56.5677 203.464C51.9688 201.823 47.5417 199.682 43.4375 197.052L43.6302 196.969L44.0781 197.245L44.5313 197.51L45.4375 198.047C46.0521 198.385 46.6563 198.74 47.2813 199.063C48.5208 199.729 49.7917 200.333 51.0729 200.917C53.6458 202.063 56.2969 203.068 59.0313 203.87C61.7604 204.693 64.5729 205.318 67.4427 205.771C68.8802 205.984 70.3333 206.177 71.8021 206.292C72.5313 206.37 73.2708 206.401 74.0104 206.453C74.3802 206.469 74.7552 206.479 75.125 206.495L75.6823 206.516C75.8698 206.526 76.0573 206.526 76.2448 206.526C70.8281 206.047 65.1979 205.021 59.4896 203.214C53.7917 201.401 48.0104 198.781 42.4583 195.151C38.5833 192.625 34.9948 189.63 31.7708 186.281L31.4688 185.969L31.1719 185.651L30.5781 185.01C30.1875 184.583 29.8073 184.141 29.4219 183.708C29.0469 183.26 28.6667 182.818 28.3021 182.37L27.4844 181.349L27.2188 181C25.8021 179.156 24.4844 177.24 23.2708 175.26L23.5313 175.151C26.8385 180.448 30.9375 185.245 35.6354 189.344L35.5833 189.089C31.1146 185.135 27.1979 180.547 23.9635 175.411C20.7344 170.281 18.1875 164.599 16.526 158.469C17.7969 162.755 19.4896 166.823 21.5417 170.651C23.599 174.479 26.0208 178.063 28.75 181.401C31.4896 184.74 34.5365 187.833 37.901 190.641C41.2708 193.448 44.9323 195.99 48.9167 198.203C50.1563 198.891 51.4479 199.547 52.7865 200.167C54.125 200.771 55.5052 201.354 56.9219 201.875C59.7604 202.917 62.7396 203.771 65.7917 204.391C67.3177 204.698 68.8542 204.969 70.4063 205.156L70.9896 205.229L71.5677 205.292C71.9583 205.333 72.3438 205.385 72.7344 205.411C73.125 205.448 73.5104 205.479 73.901 205.51C74.2865 205.547 74.6771 205.557 75.0625 205.583C75.8385 205.635 76.6146 205.646 77.3906 205.677C77.776 205.682 78.1615 205.682 78.5469 205.688L79.125 205.693L79.7031 205.682C81.2396 205.672 82.7604 205.583 84.2604 205.474C84.6615 205.438 85.0625 205.406 85.4531 205.375C85.8438 205.333 86.2292 205.292 86.6094 205.25C86.8021 205.229 86.9896 205.214 87.1771 205.193C87.3646 205.167 87.5521 205.146 87.7344 205.12C88.1042 205.073 88.4688 205.026 88.8281 204.979C89.5417 204.87 90.2396 204.781 90.9115 204.661C91.2448 204.604 91.5729 204.552 91.8958 204.5C92.2188 204.438 92.5365 204.38 92.849 204.323C95.3385 203.859 97.4271 203.365 99.0729 202.979C99.2813 202.932 99.4792 202.885 99.6719 202.844C99.8646 202.797 100.047 202.755 100.224 202.714C100.578 202.63 100.906 202.563 101.208 202.505C101.797 202.375 102.276 202.297 102.625 202.276C103.328 202.224 103.531 202.391 103.151 202.828C102.896 203.109 103.359 203.266 102.37 203.943C102.245 204.026 102.099 204.12 101.927 204.224C101.75 204.323 101.547 204.427 101.313 204.542C101.078 204.661 100.807 204.786 100.505 204.927C100.203 205.057 99.8594 205.198 99.474 205.349C97.9427 205.948 95.7396 206.693 92.5417 207.391C91.9844 207.5 91.3906 207.646 90.7656 207.792C90.4531 207.865 90.1302 207.943 89.8021 208.016C89.6406 208.052 89.474 208.094 89.3073 208.135C89.1406 208.172 88.974 208.208 88.8073 208.245C88.4688 208.318 88.1302 208.391 87.7917 208.469C87.4479 208.542 87.1042 208.604 86.7604 208.677C86.0781 208.818 85.3906 208.927 84.724 209.031C88.5573 208.698 92.4479 207.969 95.9948 206.979C97.7656 206.484 99.4427 205.911 100.99 205.318C101.38 205.167 101.755 205.016 102.13 204.865C102.495 204.708 102.854 204.552 103.208 204.401C103.557 204.25 103.901 204.089 104.229 203.932C104.557 203.771 104.88 203.62 105.193 203.464C107.068 202.521 108.781 201.583 110.391 200.651C112 199.719 113.505 198.797 114.948 197.859C116.385 196.917 117.76 195.958 119.104 194.958C120.448 193.958 121.755 192.901 123.052 191.766C123.359 191.5 123.656 191.24 123.953 190.979C124.24 190.719 124.531 190.458 124.813 190.203C125.104 189.948 125.38 189.693 125.656 189.432C125.932 189.172 126.214 188.922 126.479 188.661C127.563 187.62 128.604 186.547 129.625 185.339C131.203 183.458 132.38 181.891 133.307 180.651C134.234 179.406 134.906 178.484 135.411 177.844C135.667 177.526 135.875 177.276 136.052 177.089C136.224 176.901 136.365 176.781 136.479 176.719C136.703 176.589 136.818 176.682 136.849 176.932C136.865 177.047 137.099 176.849 137.422 176.458C137.578 176.26 137.76 176.016 137.953 175.74C138.141 175.464 138.339 175.161 138.521 174.839C139.828 172.542 140.703 170.75 141.411 169.234C141.583 168.849 141.745 168.484 141.906 168.135C141.984 167.958 142.057 167.786 142.135 167.615C142.208 167.443 142.281 167.276 142.349 167.109C142.495 166.776 142.63 166.453 142.771 166.13C142.901 165.807 143.031 165.484 143.161 165.161C143.688 163.87 144.193 162.536 144.786 160.833C145.375 159.13 146.047 157.052 146.734 154.219C146.073 157.776 145.208 160.969 144.198 163.943C143.198 166.922 142.042 169.672 140.76 172.365C140.557 172.797 140.297 173.339 140.042 173.911C139.786 174.479 139.505 175.073 139.266 175.609C138.766 176.672 138.396 177.505 138.495 177.432C138.667 177.307 138.932 177.005 139.286 176.552C139.464 176.323 139.667 176.068 139.875 175.766C140.083 175.464 140.307 175.13 140.552 174.766C141.51 173.297 142.656 171.307 143.755 168.995C144.854 166.682 145.911 164.057 146.745 161.38C147.583 158.703 148.219 155.99 148.615 153.552C148.906 151.724 149.073 149.729 149.234 148.016C149.427 145.948 149.599 144.099 149.677 142.141C149.714 142.76 149.755 143.328 149.792 143.922C149.818 144.521 149.833 145.146 149.823 145.885L149.781 147.099L149.755 147.708L149.719 148.318L149.646 149.531L149.542 150.745L149.484 151.354L149.417 151.964C149.375 152.37 149.328 152.776 149.281 153.182C149.224 153.583 149.172 153.99 149.115 154.396L149.026 155.005L148.927 155.615C148.859 156.016 148.792 156.422 148.724 156.828C148.646 157.234 148.568 157.641 148.49 158.047C148.453 158.245 148.411 158.453 148.37 158.651L148.234 159.26C148.146 159.667 148.063 160.073 147.964 160.479C147.573 162.099 147.125 163.719 146.609 165.339C144.318 172.484 140.875 179.297 136.458 185.443C132.042 191.594 126.635 197.068 120.5 201.589C117.984 203.458 115.328 205.141 112.589 206.677C111.214 207.427 109.823 208.156 108.396 208.823C107.693 209.167 106.969 209.479 106.25 209.802C105.896 209.964 105.526 210.104 105.167 210.26C104.802 210.406 104.443 210.568 104.073 210.703C101.146 211.859 98.151 212.844 95.0938 213.604C94.7135 213.703 94.3333 213.802 93.9479 213.891L92.7969 214.151L92.2188 214.276L91.6406 214.391L90.4792 214.62C88.9323 214.896 87.375 215.151 85.8073 215.328C84.2448 215.526 82.6771 215.646 81.1042 215.745L79.9219 215.797L79.3333 215.823L78.7448 215.833L77.5625 215.854C77.1719 215.859 76.776 215.854 76.3802 215.849C74.8073 215.849 73.2344 215.771 71.6615 215.667L70.4792 215.573L69.8906 215.521L68.125 215.333L66.9531 215.177C60.6979 214.339 54.5469 212.661 48.7031 210.245C49.0625 210.349 49.4323 210.464 49.8125 210.578C50 210.641 50.1927 210.703 50.3854 210.76C50.5833 210.818 50.7813 210.88 50.9792 210.943C51.3802 211.063 51.7865 211.188 52.2031 211.313C52.6198 211.438 53.0417 211.563 53.4688 211.688C55.1771 212.177 56.9688 212.667 58.724 213.042C59.1615 213.146 59.5833 213.219 59.9844 213.297C60.3906 213.365 60.7708 213.443 61.151 213.495C61.9167 213.604 62.6458 213.719 63.4271 213.807C62.6771 213.641 61.8125 213.385 61.0208 213.172C60.2344 212.943 59.5156 212.74 59.0573 212.63C56.8177 212.125 54.9375 211.516 53.2344 210.875C52.375 210.563 51.5729 210.214 50.776 209.875C49.9948 209.516 49.2188 209.172 48.4531 208.781C46.9115 208.026 45.3698 207.193 43.6563 206.229C41.9427 205.26 40.0573 204.161 37.8646 202.786C37.4844 202.542 37.1927 202.354 36.9792 202.214C36.7656 202.063 36.6302 201.958 36.5573 201.896C36.4063 201.766 36.5052 201.786 36.75 201.896C36.9896 202.005 37.375 202.182 37.7969 202.38C38.2135 202.573 38.6667 202.792 39.0573 202.943C39.8333 203.255 40.3125 203.375 39.6406 202.828C39.474 202.693 39.2344 202.516 38.9115 202.286C38.5885 202.052 38.1875 201.76 37.6875 201.417C36.6979 200.703 35.3177 199.755 33.5417 198.365C33.7188 198.438 33.8125 198.401 34.0781 198.594C36.0781 200.078 37.3854 200.854 38.2031 201.281C39.026 201.703 39.3594 201.786 39.5104 201.74C39.8125 201.651 39.3854 201.099 40.6615 201.786C42.6667 202.833 43.8333 203.328 44.3385 203.521C44.849 203.703 44.7083 203.583 44.1667 203.26C43.8958 203.094 43.5313 202.88 43.0938 202.625C42.6563 202.38 42.1615 202.068 41.6198 201.755C41.0833 201.432 40.5156 201.068 39.9375 200.708C39.6563 200.521 39.3698 200.333 39.0833 200.146C38.7969 199.958 38.5156 199.771 38.2448 199.578C31.3385 194.833 25.3021 188.818 20.5156 181.948C20.2396 180.896 18.2656 177.859 16.4948 174.391C15.6042 172.661 14.75 170.839 14.0885 169.177C13.9167 168.76 13.776 168.354 13.6302 167.964C13.5573 167.771 13.4896 167.578 13.4219 167.396C13.3594 167.208 13.2969 167.026 13.2396 166.844C13.125 166.49 13.0208 166.156 12.9323 165.844C12.8438 165.536 12.776 165.245 12.7188 164.99C13.2031 166.266 13.7552 167.531 14.3177 168.786C14.901 170.036 15.4948 171.281 16.151 172.484C16.7865 173.698 17.4792 174.87 18.1771 176.021C18.349 176.307 18.5365 176.583 18.7135 176.865C18.8958 177.146 19.0677 177.432 19.2552 177.703C19.6302 178.25 19.9844 178.802 20.3698 179.328C20.599 179.646 20.8073 179.932 20.9948 180.193C21.1927 180.443 21.3646 180.661 21.5156 180.839C21.8073 181.198 21.9948 181.401 22.0417 181.401C22.0885 181.396 21.9948 181.193 21.7188 180.74C21.4375 180.286 21 179.578 20.3698 178.563C18.8854 176.13 17.5052 173.552 16.526 171.422C19.5 176.807 23.1667 181.698 27.3802 185.99L27.2969 185.891Z" fill="#1E5192"/>
</g>
<path d="M28.25 179.354C29.1875 180.646 30.2448 181.968 31.4115 183.302C32.5729 184.64 33.849 185.984 35.2344 187.317C38.0052 189.979 41.2344 192.573 44.8542 194.885C46.6667 196.036 48.5729 197.125 50.5625 198.119C52.5521 199.109 54.6198 200.01 56.7552 200.802C58.8854 201.588 61.0781 202.271 63.3125 202.833C65.5417 203.39 67.8125 203.828 70.0938 204.14C73.1406 204.562 76.1146 204.724 79.0417 204.698C81.9688 204.646 84.8438 204.416 87.6979 203.937C90.5521 203.479 93.3802 202.781 96.2083 201.854C97.625 201.39 99.0313 200.854 100.448 200.265C101.859 199.666 103.271 198.994 104.682 198.255C106.74 197.166 108.156 196.297 109.078 195.692C109.307 195.541 109.51 195.411 109.682 195.291C109.849 195.177 109.995 195.073 110.109 194.989C110.339 194.817 110.464 194.713 110.49 194.666C110.547 194.578 110.219 194.718 109.599 195.021C109.286 195.166 108.896 195.349 108.443 195.562C108.219 195.672 107.974 195.781 107.714 195.89C107.453 196.005 107.177 196.125 106.891 196.255C105.38 196.885 104.307 197.244 103.688 197.385C103.063 197.521 102.901 197.453 103.193 197.177C103.49 196.901 104.234 196.411 105.406 195.661C106.573 194.911 108.167 193.896 110.094 192.484C112.052 191.047 112.875 190.208 113.01 189.942C113.13 189.666 112.536 189.916 111.516 190.463C107.339 192.64 102.573 194.578 97.5573 195.812C97.4375 195.843 97.2917 195.885 97.1302 195.932C96.9688 195.979 96.7865 196.031 96.5938 196.083C96.2031 196.192 95.7656 196.338 95.2969 196.463C94.8333 196.599 94.3438 196.75 93.8594 196.88C93.6146 196.948 93.375 197.015 93.1406 197.083C92.9063 197.146 92.6771 197.208 92.4583 197.265C91.7552 197.463 91.0469 197.619 90.349 197.786C89.6406 197.932 88.9479 198.088 88.25 198.203C87.5521 198.333 86.8594 198.422 86.1667 198.526C85.8229 198.567 85.474 198.609 85.1302 198.651C84.7865 198.698 84.4427 198.729 84.099 198.755C81.3542 199.021 78.6406 199.052 75.9375 198.953C70.349 198.713 64.6615 197.739 59.1042 195.869C53.5573 194.005 48.1354 191.255 43.1927 187.614C47.6823 191.229 52.7708 194.161 58.1823 196.265C63.599 198.375 69.3385 199.64 75.1302 200.052C79.3281 200.349 83.4792 200.224 87.5625 199.677C91.6458 199.13 95.6615 198.146 99.5781 196.729L99.6875 196.989C96.5208 198.333 93.2083 199.411 89.8802 200.182C89.7188 200.224 89.5573 200.26 89.3906 200.302C89.2188 200.333 89.0521 200.369 88.8802 200.406C88.5365 200.474 88.1875 200.552 87.8333 200.619C87.1198 200.75 86.401 200.885 85.7135 200.989C84.3385 201.218 83.0938 201.369 82.3281 201.51C80.776 201.781 79.1615 201.968 77.4896 202.047C75.8229 202.114 74.1042 202.088 72.3542 201.958C68.8594 201.703 65.2448 200.989 61.651 199.869C59.8385 199.302 57.901 198.604 56.1406 197.849C54.3802 197.093 52.7917 196.281 51.6302 195.593C49.7031 194.427 48.2188 193.463 46.6302 192.479C45.0521 191.489 43.3698 190.484 41.1563 189.052C40.8281 188.849 40.4792 188.593 40.0938 188.312C39.6979 188.036 39.2917 187.708 38.8438 187.359C38.7344 187.271 38.625 187.182 38.5104 187.088C38.3958 186.994 38.2813 186.901 38.1667 186.802C37.9323 186.604 37.6927 186.401 37.4479 186.192C37.2083 185.979 36.9583 185.755 36.7083 185.531C36.5781 185.416 36.4479 185.302 36.3229 185.182C36.1927 185.062 36.0677 184.937 35.9375 184.817C35.6771 184.567 35.4063 184.323 35.1406 184.052C34.875 183.791 34.6042 183.521 34.3281 183.244C34.0625 182.963 33.7865 182.677 33.5052 182.38C33.224 182.093 32.9531 181.781 32.6719 181.474C31.5521 180.234 30.4115 178.875 29.2917 177.411C31.5052 180.521 33.9479 183.312 36.5417 185.807C39.1354 188.302 41.8802 190.5 44.724 192.401C47.5625 194.307 50.4948 195.942 53.4948 197.297C54.9948 197.979 56.5104 198.599 58.0365 199.151C59.5625 199.698 61.1042 200.187 62.651 200.614C62.9635 200.703 63.276 200.786 63.5833 200.869C63.8906 200.958 64.1979 201.026 64.5 201.109C64.8021 201.187 65.1042 201.271 65.4063 201.343C65.7083 201.422 66.0104 201.494 66.3125 201.567L66.7656 201.682C66.9167 201.713 67.0677 201.75 67.2188 201.786C67.526 201.854 67.8333 201.927 68.1406 202C68.4531 202.062 68.7656 202.13 69.0833 202.198C69.401 202.265 69.724 202.338 70.0521 202.401C70.3802 202.463 70.7135 202.526 71.0573 202.593C71.3958 202.656 71.7448 202.708 72.099 202.771C72.4583 202.833 72.8177 202.89 73.1927 202.942C73.5677 202.994 73.9531 203.047 74.3438 203.104C75.9219 203.297 77.6719 203.453 79.6719 203.515C73.599 203.755 67.7552 203.119 62.375 201.781C62.0365 201.703 61.7083 201.609 61.375 201.521C61.0417 201.432 60.7083 201.349 60.3802 201.25C59.724 201.057 59.0677 200.875 58.4271 200.661C57.1354 200.255 55.8854 199.797 54.6563 199.323C52.2135 198.349 49.8906 197.271 47.7135 196.067C45.5417 194.875 43.4948 193.599 41.599 192.244C39.7083 190.896 37.9531 189.489 36.3385 188.057C33.1042 185.192 30.4323 182.218 28.25 179.354Z" fill="#1E5192"/>
<path d="M27.2969 185.89C26.3802 184.755 25.2604 183.395 24.1562 181.927C23.0573 180.458 21.9687 178.885 21.0469 177.39C20.5833 176.651 20.1719 175.916 19.8021 175.239C19.6198 174.895 19.4531 174.567 19.2969 174.255C19.2239 174.098 19.151 173.947 19.0781 173.796C19.0104 173.651 18.9479 173.505 18.8854 173.364C18.3958 172.244 18.1823 171.421 18.3073 171.114C18.3125 171.093 18.2552 170.953 18.151 170.713C18.0469 170.468 17.901 170.13 17.7187 169.729C17.6302 169.526 17.526 169.312 17.4271 169.083C17.3281 168.848 17.2187 168.609 17.1094 168.354C17 168.104 16.8802 167.848 16.7708 167.583C16.6562 167.317 16.5417 167.046 16.4271 166.781C15.5 164.635 14.6562 162.437 14.3542 162.453C14.3542 162.447 14.375 162.369 14.375 162.369C13.8906 161.791 13.8646 162.322 14.2656 163.812C14.6719 165.291 15.5521 167.718 17.0677 170.791C19.7708 176.25 23.2448 181.406 27.3594 185.968C27.3802 185.989 27.2969 185.89 27.2969 185.89Z" fill="#1E5192"/>
<path d="M12.8281 140.839C12.8281 141.287 12.8281 141.719 12.8281 142.141C12.8333 142.568 12.8437 142.979 12.8542 143.381C12.8594 143.787 12.8802 144.177 12.901 144.558C12.9167 144.938 12.9271 145.313 12.9583 145.672C13.0104 146.396 13.0469 147.084 13.1198 147.729C13.151 148.058 13.1823 148.375 13.2135 148.683C13.25 148.99 13.2865 149.292 13.3229 149.584C13.6146 151.927 13.9792 153.792 14.3802 155.448C14.5052 155.927 14.625 156.328 14.7396 156.683C14.8646 157.032 14.9896 157.334 15.1094 157.61C15.3437 158.167 15.599 158.631 15.8594 159.229C15.7135 158.662 15.5573 158.047 15.4271 157.417C15.3594 157.104 15.2917 156.787 15.224 156.474C15.1667 156.157 15.1042 155.844 15.0469 155.542C14.8125 154.313 14.6302 153.193 14.474 152.469C14.4271 152.245 14.3802 152.026 14.3333 151.808C14.2917 151.589 14.2448 151.375 14.2031 151.157C14.1198 150.729 14.026 150.302 13.9531 149.875C13.875 149.448 13.7969 149.021 13.7187 148.589C13.651 148.157 13.5781 147.714 13.5052 147.261C13.2292 145.448 12.9687 143.433 12.8281 140.839Z" fill="#1E5192"/>
<path d="M12.5677 126.234C12.9687 124.396 13.4427 122.573 14.0052 120.771C14.5677 118.968 15.2031 117.187 15.9115 115.437C17.3281 111.932 19.0625 108.547 21.0625 105.317L20.5417 105.833L20.0313 106.359C19.0781 107.984 18.1875 109.646 17.3698 111.343C16.5573 113.041 15.8177 114.771 15.1458 116.526C13.8021 120.036 12.7813 123.656 12.0469 127.317C12.2083 126.953 12.3958 126.593 12.5677 126.234Z" fill="#1E5192"/>
<path d="M14.3749 162.369C14.3749 162.369 14.3541 162.447 14.3541 162.453C13.552 159.776 12.9478 157.161 12.4478 154.77C11.9478 152.385 11.5676 150.218 11.1874 148.427C11.1822 148.395 11.177 148.494 11.177 148.661C11.177 148.744 11.177 148.843 11.177 148.953C11.177 149.062 11.1822 149.182 11.1874 149.307C11.203 149.802 11.2343 150.349 11.2551 150.505C11.9322 154.625 12.9791 158.557 14.3749 162.369Z" fill="#1E5192"/>
<path d="M22.7343 190.901C24.4791 192.776 26.3176 194.552 28.2447 196.229C30.1666 197.906 32.1822 199.479 34.2708 200.943L33.9843 200.536C29.677 197.406 25.7083 193.807 22.1614 189.812C22.3489 190.177 22.5416 190.536 22.7343 190.901Z" fill="#1E5192"/>
<path d="M57.0679 204.026C54.8908 203.307 52.7502 202.479 50.6564 201.536C48.5679 200.589 46.5314 199.531 44.5522 198.375L44.5054 198.479C46.4845 199.641 48.5262 200.698 50.62 201.646C52.7137 202.589 54.8595 203.417 57.0418 204.135L57.0679 204.026Z" fill="#1E5192"/>
<path d="M29.1926 98.5677C28.8645 98.9583 28.5155 99.3594 28.177 99.7708C27.8385 100.193 27.4895 100.604 27.1718 101.021C26.8489 101.443 26.5364 101.844 26.2551 102.229C25.9791 102.62 25.7239 102.984 25.5103 103.307C25.026 104.062 24.6614 104.677 24.3593 105.266C24.2083 105.557 24.0624 105.839 23.9114 106.12C23.7708 106.411 23.6301 106.698 23.4739 107.005C24.5676 105.292 25.9426 103.464 26.9635 102.083C28.3385 100.214 29.4739 98.6979 30.828 97.1094C30.5468 97.3437 30.276 97.5885 30.0051 97.8333C29.7343 98.0781 29.4583 98.3177 29.1926 98.5677Z" fill="#1E5192"/>
<path d="M44.3647 193.339C44.7814 193.62 45.2137 193.881 45.6408 194.151C46.0679 194.422 46.5054 194.672 46.9377 194.933C47.3075 195.151 47.6929 195.328 48.0731 195.532C47.1981 195.047 46.3387 194.537 45.4845 194.011C45.1147 193.776 44.7345 193.573 44.3647 193.339Z" fill="#1E5192"/>
<path d="M25.0365 168.88C24.823 168.432 24.6199 168.016 24.4272 167.615C24.2449 167.208 24.0678 166.818 23.8907 166.422C23.7397 166.089 23.5782 165.745 23.4167 165.406C23.5782 165.786 23.7136 166.177 23.8907 166.547C24.0678 166.917 24.2397 167.292 24.4272 167.677C24.6199 168.057 24.8178 168.453 25.0365 168.88Z" fill="#1E5192"/>
<path d="M141.906 149.495C141.839 149.875 141.776 150.261 141.698 150.641C141.62 151.021 141.547 151.407 141.49 151.797C141.344 152.724 141.25 153.683 141.094 154.62C141.188 154.235 141.297 153.86 141.385 153.474C141.469 153.089 141.552 152.703 141.62 152.308C141.698 151.849 141.74 151.375 141.786 150.907C141.844 150.438 141.87 149.964 141.906 149.495Z" fill="#1E5192"/>
<mask id="mask2_1871_1981" style="mask-type:luminance" maskUnits="userSpaceOnUse" x="41" y="14" width="119" height="69">
<path d="M41.3335 14.667H160V82.667H41.3335V14.667Z" fill="white"/>
</mask>
<g mask="url(#mask2_1871_1981)">
<mask id="mask3_1871_1981" style="mask-type:luminance" maskUnits="userSpaceOnUse" x="34" y="0" width="133" height="88">
<path d="M48.5626 0.479492L166.339 29.3962L152.115 87.318L34.3386 58.4014L48.5626 0.479492Z" fill="white"/>
</mask>
<g mask="url(#mask3_1871_1981)">
<mask id="mask4_1871_1981" style="mask-type:luminance" maskUnits="userSpaceOnUse" x="34" y="0" width="133" height="88">
<path d="M48.5626 0.479492L166.339 29.3962L152.115 87.318L34.3386 58.4014L48.5626 0.479492Z" fill="white"/>
</mask>
<g mask="url(#mask4_1871_1981)">
<path d="M153.578 71.0728C154.359 74.6405 152.531 82.1353 152.531 82.1353C152.318 82.2186 152.109 82.2707 151.906 82.3124L151.937 77.2551C151.937 77.2551 150.839 80.3488 150.469 82.2134C148.078 82.4009 147.062 80.9426 147.062 80.9426C147.906 74.8801 149.375 71.7134 150.312 70.1978C150.021 69.6926 149.911 69.0988 150.047 68.4894C150.26 67.4947 151.078 66.7707 152.026 66.6301L154.536 55.7915L138.557 58.7655C137.349 58.9947 136.297 57.9269 136.547 56.7186L137.427 52.4113C137.536 51.854 137.375 51.2915 136.995 50.8853C118.115 30.5051 99.3854 27.1197 87.0156 27.8592C73.5364 28.6717 64.6562 34.3019 64.2812 34.5415L64.2656 34.5519C63.875 34.8019 63.6198 35.1822 63.5104 35.6197L62.4062 40.4113C62.125 41.6301 60.7083 42.1613 59.6979 41.4217L43.0104 29.2603C41.7812 28.3592 42.2239 26.4374 43.7135 26.1613L105.74 14.729C106.208 14.6509 106.677 14.7499 107.057 15.0207L158.865 52.0259C160.109 52.9165 159.677 54.854 158.177 55.1457L156.047 55.5311L153.417 66.8644C154.391 67.328 154.943 68.4217 154.708 69.5103C154.568 70.1978 154.135 70.7447 153.578 71.0728ZM66.0833 37.3749C65.9791 37.4217 65.8958 37.5207 65.8646 37.6457L59.5052 63.5519C59.4271 63.8644 59.7187 64.1457 60.026 64.0415C64.8229 62.5155 93.9271 54.8124 127.344 80.703C127.583 80.8801 127.927 80.7707 127.995 80.4894L134.661 53.3436C134.693 53.2186 134.667 53.078 134.573 52.979C132.37 50.4374 103.833 18.6665 66.0833 37.3749Z" fill="#1E5192"/>
</g>
</g>
</g>
<mask id="mask5_1871_1981" style="mask-type:luminance" maskUnits="userSpaceOnUse" x="23" y="164" width="84" height="33">
<path d="M23.3645 164.792H106.547V196.912H23.3645V164.792Z" fill="white"/>
</mask>
<g mask="url(#mask5_1871_1981)">
<path d="M106.156 167.771C104.859 166.563 101.656 165.412 94.1561 169.578C90.9113 171.599 89.1561 172.896 88.2654 173.615C87.6977 174.073 86.9998 174.349 86.2654 174.396C82.3592 174.667 70.0259 175.86 65.8019 175.776C65.1821 175.766 64.9738 174.933 65.3904 174.604C65.6977 174.365 66.1769 174.245 66.854 174.032C69.255 173.287 82.5779 173.349 82.2863 168.36C82.005 163.584 72.4529 165.344 69.6196 165.948C68.5154 166.183 67.2915 166.365 66.1613 166.506C66.1613 166.506 62.0519 166.683 60.0259 166.198C55.8123 165.099 46.9425 163.313 41.3384 167.849C36.8227 171.506 34.8227 173.917 33.9477 175.229C33.3592 176.12 32.5519 176.839 31.604 177.328L23.7082 182.886C23.2915 183.177 23.2446 183.776 23.604 184.136L36.5623 197.094C36.9113 197.448 37.4998 197.401 37.7967 197C39.5779 194.594 45.9529 187.532 59.2446 187.964C75.255 188.479 75.3592 188.167 78.8696 186.308C81.6248 184.849 88.1821 182.506 90.8748 181.558C91.6717 181.282 92.4061 180.87 93.0571 180.334L106.068 169.646C106.672 169.183 106.713 168.287 106.156 167.771Z" fill="#1E5192"/>
</g>
<mask id="mask6_1871_1981" style="mask-type:luminance" maskUnits="userSpaceOnUse" x="81" y="162" width="14" height="5">
<path d="M81.3335 162.12H94.6668V166.667H81.3335V162.12Z" fill="white"/>
</mask>
<g mask="url(#mask6_1871_1981)">
<path d="M81.521 164.615C81.9325 164.844 82.2918 165.115 82.5939 165.417C82.7814 165.604 82.9481 165.808 83.0939 166.016C84.0522 165.563 85.12 165.084 86.271 164.589L86.2866 164.578C89.172 163.5 91.6668 162.922 93.7033 162.86C93.0366 162.505 92.2033 162.297 91.2189 162.24C89.1356 162.115 86.422 162.672 83.1564 163.891C82.5887 164.136 82.0418 164.38 81.521 164.615Z" fill="#1E5192"/>
</g>
<path d="M79.8125 172.922C80.5781 172.859 81.3125 172.802 81.9948 172.75H82C83.8281 172.609 85.4115 172.484 86.4167 172.422C86.5885 172.411 86.7604 172.375 86.9271 172.318C87.1406 172.245 87.3385 172.141 87.5104 172C88.4219 171.266 90.1771 169.974 93.3594 168.005L93.3958 167.984L93.4219 167.963C94.3333 167.463 95.2187 167.021 96.0625 166.646C96.8906 166.286 97.6875 166 98.4271 165.781C98.5313 165.75 98.6302 165.719 98.7344 165.693C98.6198 165.588 98.4896 165.495 98.3542 165.406C97.5937 164.906 96.5781 164.635 95.3385 164.594C93.3542 164.526 90.8229 165.057 87.8125 166.167C86.4427 166.75 85.2031 167.307 84.1354 167.828C84.1354 167.875 84.1406 167.922 84.1458 167.969C84.2865 170.172 82.8281 171.833 79.8125 172.922Z" fill="#1E5192"/>
<mask id="mask7_1871_1981" style="mask-type:luminance" maskUnits="userSpaceOnUse" x="44" y="128" width="62" height="32">
<path d="M44.229 128H105.864V159.344H44.229V128Z" fill="white"/>
</mask>
<g mask="url(#mask7_1871_1981)">
<path d="M105.583 153.229V129.146C105.26 129.463 104.906 129.771 104.541 130.047C104.208 130.307 103.864 130.541 103.5 130.765C102.317 131.484 100.994 131.979 99.6143 132.192C97.7549 132.479 95.833 132.364 93.9528 132.364H80.6559C80.6038 132.364 80.557 132.364 80.5101 132.359V133.218C80.5101 133.323 80.5153 133.422 80.5101 133.526C80.4788 134.088 80.0622 134.505 79.4997 134.531C78.5101 134.578 77.5049 134.531 76.5049 134.531H71.6611C71.234 134.531 70.8122 134.536 70.3903 134.531C69.7601 134.515 69.3226 134.093 69.3122 133.458C69.307 133.093 69.307 132.729 69.307 132.364C69.2653 132.375 69.2184 132.375 69.1768 132.375C69.1455 132.375 69.1143 132.375 69.083 132.375C67.1976 132.401 65.3018 132.375 63.4163 132.375H54.984C52.9007 132.375 50.7705 132.505 48.7549 131.859C47.9163 131.588 47.0986 131.218 46.3278 130.771C45.9684 130.557 45.6195 130.328 45.2861 130.078C44.9163 129.797 44.5726 129.5 44.2445 129.182V155.427C44.2445 155.625 44.2393 155.817 44.2497 156.01C44.3903 157.843 45.8851 159.26 47.7236 159.286C48.1715 159.297 48.6195 159.286 49.0674 159.286H100.224C100.823 159.286 101.427 159.286 102.026 159.286C104.052 159.281 105.578 157.687 105.583 155.677C105.583 154.843 105.583 154.041 105.583 153.229Z" fill="#1E5192"/>
</g>
<mask id="mask8_1871_1981" style="mask-type:luminance" maskUnits="userSpaceOnUse" x="44" y="103" width="62" height="27">
<path d="M44.229 103.677H105.864V129.333H44.229V103.677Z" fill="white"/>
</mask>
<g mask="url(#mask8_1871_1981)">
<path d="M105.568 118.411V116.021C105.438 114.203 103.953 112.776 102.109 112.745C101.984 112.745 101.865 112.745 101.74 112.745H86.8594V107.562C86.8594 106.505 86.5625 105.505 85.7969 104.745C85.0833 104.021 84.1198 103.687 83.1094 103.682C82.2031 103.682 81.3021 103.682 80.3906 103.682H67.099C66.9271 103.682 66.7552 103.677 66.5885 103.682C64.5938 103.724 63.026 105.297 62.9792 107.291C62.9375 109.104 62.9583 110.927 62.9688 112.745H48.4635C48.25 112.745 48.0417 112.745 47.8281 112.745C46.8958 112.745 46.0313 113.067 45.3438 113.703C44.6771 114.328 44.3229 115.182 44.2656 116.078V119.442C44.2656 119.927 44.2656 120.406 44.2656 120.896C44.2656 121.104 44.2656 121.302 44.2813 121.51C44.2865 121.656 44.3021 121.797 44.3125 121.942C44.3125 121.963 44.3229 121.984 44.3229 122.005C44.3542 122.208 44.3854 122.406 44.4271 122.599C44.5313 123.088 44.6823 123.567 44.8542 124.031C44.8542 124.036 44.8542 124.036 44.8646 124.047C44.8646 124.052 44.8646 124.052 44.8698 124.057C44.875 124.073 44.875 124.078 44.8854 124.093C44.9271 124.192 44.974 124.286 45.0208 124.385C45.1146 124.567 45.2031 124.739 45.3021 124.911C45.3125 124.942 45.3281 124.968 45.349 124.989C45.4792 125.213 45.6198 125.432 45.7708 125.64C45.8333 125.729 45.9063 125.807 45.9583 125.896C45.9531 125.885 45.9479 125.87 45.9375 125.854C45.9531 125.875 45.9583 125.89 45.974 125.906C46.0937 126.052 46.2187 126.198 46.349 126.333C46.5469 126.552 46.7656 126.76 46.9844 126.958C47.0781 127.041 47.1667 127.12 47.2656 127.198C47.276 127.208 47.2969 127.224 47.3177 127.239C47.4375 127.312 47.4844 127.343 47.4948 127.349C47.4844 127.349 47.4531 127.323 47.401 127.291C47.5469 127.39 47.6875 127.5 47.8333 127.599C48.224 127.849 48.625 128.073 49.0417 128.265C49.4427 128.39 49.2292 128.338 49.099 128.291C49.1094 128.297 49.1198 128.297 49.1302 128.307C49.25 128.349 49.3594 128.396 49.4792 128.432C49.6979 128.505 49.9219 128.578 50.1458 128.64C50.3854 128.703 50.6302 128.755 50.8802 128.807C50.9635 128.817 51.0469 128.833 51.1302 128.849C51.1771 128.854 51.2292 128.854 51.2708 128.859C51.8854 128.916 52.5104 128.901 53.1302 128.901H69.1979C69.2448 128.901 69.2917 128.901 69.3438 128.911V127.239C69.3438 126.75 69.2708 126.229 69.6667 125.87C70.0052 125.557 70.4531 125.604 70.875 125.604H79.2708C79.3542 125.604 79.4479 125.604 79.5313 125.604C80.0729 125.635 80.4531 126.01 80.5208 126.531C80.5313 126.557 80.5313 126.583 80.5313 126.614C80.5313 126.625 80.5313 126.64 80.5313 126.656V128.916C80.5781 128.911 80.625 128.911 80.6771 128.911H80.7656C82.6042 128.875 84.4427 128.911 86.276 128.911H97.7135C98.0104 128.911 98.3021 128.896 98.6042 128.87C98.6563 128.859 98.7188 128.854 98.776 128.849C98.8438 128.833 98.9219 128.828 98.9896 128.812C99.2344 128.765 99.4844 128.713 99.724 128.646C99.9688 128.583 100.203 128.505 100.443 128.422C100.552 128.38 100.656 128.338 100.766 128.297C101.198 128.099 101.609 127.885 102.005 127.625C102.135 127.541 102.26 127.458 102.385 127.37C102.417 127.343 102.531 127.26 102.578 127.224L102.583 127.218C102.594 127.208 102.604 127.203 102.604 127.198C102.703 127.12 102.792 127.036 102.885 126.958C103.104 126.765 103.313 126.557 103.521 126.333C103.656 126.198 103.781 126.057 103.896 125.906C103.906 125.89 103.917 125.885 103.927 125.87C103.979 125.781 104.057 125.687 104.12 125.604C104.25 125.416 104.375 125.224 104.49 125.031C104.51 124.989 104.536 124.948 104.557 124.911C104.661 124.724 104.766 124.536 104.854 124.343C104.896 124.255 104.948 124.156 104.99 124.067C105.161 123.609 105.313 123.14 105.417 122.656C105.453 122.505 105.479 122.343 105.505 122.192V122.187V122.177C105.505 122.172 105.505 122.166 105.505 122.156C105.505 122.151 105.505 122.146 105.516 122.135C105.521 122.067 105.536 121.979 105.542 121.922C105.557 121.797 105.563 121.666 105.568 121.541C105.578 121.338 105.583 121.135 105.589 120.937V119.562C105.578 119.151 105.568 118.786 105.568 118.411ZM83.4115 107.317C83.4115 107.328 83.4115 107.333 83.4167 107.333V107.338C83.4219 107.375 83.4323 107.396 83.4167 107.359C83.4115 107.37 83.3958 107.354 83.3906 107.338C83.4219 109.146 83.4115 110.948 83.3958 112.755H66.4427V107.708C66.4427 107.588 66.4427 107.463 66.4427 107.349C66.4219 107.375 66.4063 107.38 66.401 107.375C66.3854 107.396 66.3854 107.354 66.3906 107.307C66.3594 107.349 66.3385 107.354 66.3906 107.291C66.3906 107.265 66.401 107.245 66.4063 107.213C66.4063 107.213 66.4063 107.213 66.401 107.213C66.401 107.213 66.401 107.213 66.4063 107.213C66.4115 107.203 66.4115 107.182 66.4219 107.166C66.3698 107.166 66.3854 107.151 66.4271 107.146C66.4323 107.109 66.4479 107.099 66.4479 107.14C66.4635 107.14 66.474 107.13 66.4948 107.13C66.4948 107.125 66.4948 107.125 66.4948 107.12V107.125C66.526 107.12 66.5469 107.12 66.5729 107.109C66.599 107.083 66.6146 107.078 66.6198 107.067C66.6146 107.078 66.599 107.088 66.5781 107.109C66.6354 107.104 66.6771 107.104 66.6563 107.12C66.6615 107.125 66.6563 107.14 66.6302 107.161C66.6823 107.161 66.7396 107.161 66.7969 107.161H82.625C82.8333 107.161 83.0365 107.151 83.2448 107.161C83.2292 107.151 83.224 107.151 83.2135 107.146C83.1667 107.12 83.1823 107.109 83.2135 107.104C83.1927 107.088 83.2031 107.088 83.224 107.104C83.2292 107.104 83.2448 107.104 83.25 107.104C83.224 107.083 83.2083 107.067 83.2031 107.062C83.2031 107.062 83.224 107.078 83.2552 107.104C83.2865 107.104 83.3125 107.109 83.3385 107.109C83.3542 107.109 83.3594 107.12 83.375 107.12C83.375 107.104 83.375 107.099 83.3802 107.099C83.3802 107.099 83.3906 107.104 83.3906 107.12C83.4531 107.13 83.4792 107.146 83.3906 107.151C83.3906 107.166 83.3906 107.172 83.3906 107.187C83.4115 107.192 83.4219 107.203 83.4323 107.203C83.4219 107.203 83.401 107.203 83.3906 107.192V107.203C83.3958 107.208 83.4115 107.213 83.4219 107.229C83.4167 107.229 83.4115 107.224 83.3958 107.213C83.3958 107.229 83.401 107.234 83.401 107.25C83.4219 107.276 83.4531 107.307 83.474 107.317C83.4531 107.307 83.4323 107.286 83.4115 107.271C83.4115 107.297 83.4115 107.307 83.4115 107.317Z" fill="#1E5192"/>
</g>
</svg>
