<svg width="441" height="217" viewBox="0 0 441 217" fill="none" xmlns="http://www.w3.org/2000/svg">
<mask id="mask0_880_2813" style="mask-type:luminance" maskUnits="userSpaceOnUse" x="166" y="45" width="108" height="80">
<path d="M166.781 45.3672H273.126V124.906H166.781V45.3672Z" fill="white"/>
</mask>
<g mask="url(#mask0_880_2813)">
<path d="M272.648 94.7466C272.378 92.6683 272.04 90.9827 271.696 89.5046C271.603 89.1378 271.525 88.7785 271.433 88.4302C271.34 88.0857 271.251 87.7486 271.162 87.4188C271.066 87.0891 270.97 86.7668 270.877 86.4482C270.788 86.1259 270.681 85.8147 270.584 85.5036C269.592 82.388 268.325 79.3909 266.772 76.5272C266.891 76.6828 267.006 76.8347 267.121 76.9829C267.235 77.1348 267.347 77.2867 267.458 77.4386C267.68 77.7386 267.902 78.0387 268.121 78.3536C268.336 78.6685 268.565 78.9908 268.784 79.3427C269.006 79.691 269.247 80.0577 269.477 80.4652C269.929 81.221 270.662 82.8288 271.222 84.281C271.755 85.6517 272.144 86.778 272.407 87.5707C272.678 88.3635 272.829 88.8192 272.885 88.8563C272.915 88.8785 272.915 88.7896 272.889 88.5932C272.867 88.3932 272.804 88.082 272.707 87.6485C272.522 86.7854 272.177 85.4332 271.548 83.566C271.403 83.1252 271.333 82.8288 271.299 82.5658C271.262 82.3027 271.255 82.0768 271.192 81.7878C271.351 82.1472 271.485 82.4954 271.622 82.8214C271.759 83.1437 271.874 83.4549 271.985 83.7401C272.096 84.0291 272.203 84.2958 272.292 84.5441C272.381 84.7923 272.463 85.0182 272.537 85.2257C272.689 85.6332 272.796 85.9555 272.878 86.1778C272.959 86.4001 273.011 86.526 273.03 86.5483C273.07 86.5927 273 86.2148 272.774 85.3665C272.655 84.9442 272.511 84.4033 272.296 83.7439C272.192 83.4141 272.077 83.0511 271.94 82.6658C271.807 82.2731 271.663 81.8508 271.488 81.4025C270.129 77.7497 268.521 74.4674 266.713 71.4519C264.905 68.4437 262.894 65.6986 260.641 63.1572C259.274 61.6161 257.841 60.1787 256.351 58.8228C254.862 57.4743 253.313 56.2073 251.695 55.0329C250.079 53.8585 248.397 52.7657 246.638 51.7617C244.882 50.7615 243.052 49.839 241.136 49.0203C240.751 48.8647 240.306 48.6795 239.814 48.5016C239.321 48.3238 238.791 48.1312 238.232 47.9571C237.954 47.8681 237.669 47.7792 237.383 47.6903C237.098 47.6051 236.809 47.5236 236.52 47.4421C236.372 47.3977 236.228 47.3569 236.087 47.3162C235.939 47.2791 235.794 47.2421 235.653 47.205C235.364 47.1309 235.079 47.0531 234.801 46.9827C231.338 46.1196 227.777 45.6009 224.195 45.4305C220.616 45.2601 217.004 45.4379 213.418 45.9788C209.836 46.5197 206.287 47.4273 202.853 48.698C199.418 49.9687 196.095 51.5987 192.965 53.5659C185.63 58.1633 179.402 64.476 174.901 71.8446C172.645 75.527 170.833 79.4761 169.489 83.5734C168.162 87.6782 167.295 91.9274 166.955 96.2062C166.821 97.8363 166.766 99.4293 166.784 100.978C166.803 102.526 166.881 104.03 167.021 105.483C167.17 106.931 167.366 108.332 167.61 109.673C167.673 110.01 167.74 110.339 167.807 110.669C167.84 110.832 167.873 110.995 167.907 111.158C167.944 111.317 167.981 111.48 168.018 111.64C168.092 111.958 168.162 112.277 168.24 112.588C168.322 112.899 168.403 113.207 168.481 113.511C168.559 113.818 168.651 114.114 168.737 114.411C168.825 114.707 168.903 115.004 169 115.289C169.185 115.863 169.363 116.426 169.563 116.967C169.659 117.237 169.755 117.504 169.855 117.767C169.959 118.027 170.059 118.286 170.159 118.542C170.211 118.667 170.259 118.793 170.311 118.919C170.363 119.045 170.415 119.168 170.467 119.29C170.574 119.534 170.678 119.775 170.782 120.012C171.622 121.909 172.519 123.521 173.375 124.851C171.837 121.542 170.607 118.023 169.766 114.426C168.922 110.828 168.466 107.157 168.392 103.571C168.311 99.17 168.803 95.2097 169.707 91.2494C170.163 89.2712 170.722 87.2818 171.43 85.2442C172.137 83.2104 172.971 81.1099 174.012 78.9204C174.638 77.5979 175.457 76.4716 176.164 75.4825C176.268 75.3343 176.364 75.1973 176.464 75.0713C176.561 74.9453 176.653 74.8268 176.742 74.7194C176.924 74.5008 177.087 74.3081 177.25 74.1229C177.417 73.9377 177.58 73.7599 177.75 73.5709C177.924 73.382 178.098 73.1745 178.306 72.9411C178.509 72.704 178.728 72.4336 178.987 72.115C179.117 71.9557 179.254 71.7853 179.402 71.5963C179.554 71.4074 179.71 71.2037 179.884 70.9888C180.058 70.7702 180.243 70.5331 180.443 70.2775C180.647 70.0256 180.862 69.7551 181.099 69.4625C181.569 68.8771 182.114 68.214 182.755 67.462C183.262 67.1656 183.929 66.6729 184.848 65.9394C185.774 65.2133 186.952 64.2426 188.523 63.0423C188.701 62.9053 188.642 63.0386 188.445 63.298C188.349 63.4276 188.216 63.5869 188.064 63.7573C187.912 63.9315 187.741 64.1241 187.56 64.3093C186.423 65.4689 185.278 66.7396 184.24 68.0362C183.203 69.3291 182.277 70.648 181.544 71.8742C182.61 70.3664 183.774 68.8994 184.981 67.5249C185.952 66.421 186.993 65.3096 188.06 64.276C189.131 63.2461 190.227 62.294 191.29 61.4938C192.702 60.4417 193.584 60.0119 194.71 59.4081C194.847 59.334 194.991 59.2562 195.143 59.1747C195.295 59.0932 195.451 59.008 195.614 58.9191C195.94 58.7413 196.299 58.5412 196.703 58.3189C196.903 58.2041 197.114 58.0818 197.34 57.9559C197.566 57.8299 197.807 57.6965 198.059 57.5521C198.311 57.4039 198.585 57.2594 198.874 57.0964C199.018 57.0149 199.166 56.9334 199.318 56.8482C199.47 56.763 199.63 56.6778 199.793 56.5889C200.082 56.5074 200.389 56.4073 200.708 56.3184C201.022 56.2332 201.345 56.1406 201.645 56.0591C202.256 55.9072 202.79 55.7887 203.079 55.7924C203.238 55.7924 203.097 55.9257 202.778 56.148C202.456 56.3666 201.952 56.6555 201.382 56.9741C200.971 57.1927 200.519 57.452 200.03 57.7188C199.785 57.8521 199.541 57.9966 199.285 58.1411C199.159 58.2152 199.033 58.2856 198.903 58.3597C198.774 58.4338 198.648 58.5116 198.518 58.5894C197.488 59.1932 196.462 59.8675 195.599 60.4861C194.195 61.5049 193.18 62.4051 192.061 63.4239C192.294 63.235 192.502 63.0905 192.68 62.9608C192.857 62.8312 193.006 62.7311 193.132 62.6459C193.384 62.4829 193.543 62.4088 193.643 62.3755C193.843 62.3088 193.81 62.4385 193.85 62.5052C193.891 62.5756 194.006 62.583 194.491 62.2903C194.991 62.0124 195.843 61.4012 197.473 60.3861C197.699 60.249 198.029 60.0601 198.4 59.8675C198.774 59.6785 199.181 59.4748 199.559 59.3044C199.941 59.1377 200.285 58.9858 200.53 58.8931C200.774 58.8005 200.915 58.7561 200.878 58.7931C200.4 59.2451 200.37 59.4229 200.659 59.3673C200.804 59.3451 201.034 59.271 201.334 59.1488C201.486 59.0895 201.652 59.0154 201.838 58.9376C202.023 58.8598 202.226 58.7746 202.445 58.6783C202.553 58.6301 202.667 58.582 202.782 58.5301C202.901 58.4819 203.019 58.4301 203.145 58.3782C203.393 58.2708 203.656 58.1596 203.931 58.0448C204.205 57.9299 204.494 57.8151 204.798 57.6928C205.098 57.5706 205.412 57.4557 205.735 57.3298C207.028 56.8445 208.491 56.3629 210.021 55.9665C211.433 55.596 213.037 55.2515 214.693 55.0033C216.349 54.7514 218.053 54.5958 219.649 54.5587C221.246 54.518 222.732 54.5921 223.947 54.7365C225.166 54.8773 226.114 55.0996 226.651 55.3256C226.703 55.3478 226.785 55.3737 226.888 55.3997C226.992 55.4293 227.118 55.4589 227.266 55.496C227.414 55.5293 227.581 55.5664 227.766 55.6034C227.855 55.622 227.951 55.6405 228.048 55.6627C228.148 55.6812 228.248 55.7035 228.352 55.7257C228.767 55.8146 229.222 55.9035 229.685 56.0072C229.915 56.0591 230.148 56.1073 230.378 56.1554C230.611 56.2073 230.837 56.2591 231.06 56.3073C232.271 56.5777 233.312 56.8445 234.012 57.0816C234.361 57.2001 234.627 57.2964 234.783 57.3854C234.938 57.4743 234.987 57.541 234.905 57.5891C234.809 57.6521 234.946 57.7558 235.246 57.8929C235.546 58.0263 236.002 58.2078 236.55 58.4004C237.639 58.7968 239.073 59.3155 240.273 59.8045C245.674 61.9717 250.676 65.2207 254.899 69.2847C259.122 73.3449 262.564 78.2091 264.979 83.4993C265.153 83.8883 265.35 84.3033 265.524 84.7367C265.617 84.9553 265.709 85.1701 265.798 85.3887C265.887 85.6073 265.972 85.8259 266.057 86.0444C266.406 86.9076 266.706 87.7337 266.947 88.3487C267.069 88.6525 267.165 88.9081 267.25 89.0859C267.335 89.2638 267.406 89.3638 267.45 89.3675C267.498 89.3712 267.521 89.2786 267.517 89.0637C267.513 88.8488 267.487 88.5117 267.41 88.0375C267.343 87.6337 267.539 87.9412 267.817 88.5339C267.95 88.834 268.11 89.2008 268.262 89.5824C268.406 89.9676 268.558 90.364 268.68 90.7197C269.14 92.0237 269.566 93.5871 269.91 95.1393C270.255 96.6916 270.51 98.2364 270.714 99.496C270.825 100.152 270.907 100.693 270.992 101.019C271.077 101.348 271.155 101.467 271.222 101.282C271.259 101.189 271.288 101.019 271.318 100.763C271.344 100.507 271.377 100.163 271.381 99.722C271.388 99.4997 271.392 99.2515 271.392 98.981C271.396 98.7069 271.385 98.4105 271.377 98.0845C271.37 97.9215 271.366 97.7511 271.359 97.5733C271.348 97.3954 271.337 97.2139 271.325 97.0213C271.314 96.8323 271.299 96.6323 271.285 96.4285C271.274 96.2211 271.248 96.0099 271.229 95.7876C271.025 93.7723 271.073 93.2277 271.077 92.3942C271.077 92.1867 271.066 91.9607 271.048 91.6903C271.036 91.5532 271.025 91.405 271.003 91.2457C270.981 91.0864 270.959 90.9086 270.925 90.716C270.896 90.5233 270.859 90.3122 270.814 90.0788C270.766 89.8491 270.71 89.5972 270.647 89.3193C270.614 89.1786 270.581 89.0341 270.544 88.8822C270.503 88.734 270.462 88.5784 270.418 88.4117C270.325 88.0857 270.233 87.73 270.11 87.3485C270.203 87.3077 270.162 86.7372 270.407 87.3262C270.503 87.5522 270.596 87.7856 270.684 88.0301C270.777 88.2746 270.87 88.5265 270.966 88.7859C271.055 89.0452 271.148 89.3193 271.244 89.5972C271.292 89.738 271.34 89.8824 271.388 90.0269C271.433 90.1751 271.477 90.3233 271.525 90.4752C271.903 91.6903 272.289 93.0907 272.648 94.7466Z" fill="white"/>
</g>
<mask id="mask1_880_2813" style="mask-type:luminance" maskUnits="userSpaceOnUse" x="175" y="101" width="99" height="54">
<path d="M175.868 101.314H273.956V154.102H175.868V101.314Z" fill="white"/>
</mask>
<g mask="url(#mask1_880_2813)">
<path d="M203.864 145.522C204.101 145.629 204.338 145.737 204.575 145.844C204.816 145.948 205.057 146.048 205.294 146.148C205.775 146.356 206.268 146.533 206.765 146.715C207.02 146.8 207.283 146.882 207.546 146.963C207.676 147 207.806 147.041 207.939 147.082C208.072 147.119 208.206 147.152 208.335 147.189C208.602 147.259 208.869 147.334 209.136 147.4C209.402 147.463 209.673 147.53 209.939 147.593C209.676 147.508 209.417 147.426 209.158 147.337C208.898 147.252 208.639 147.156 208.376 147.067C208.246 147.019 208.113 146.974 207.98 146.926C207.85 146.874 207.717 146.826 207.583 146.774C207.32 146.674 207.05 146.574 206.776 146.463C206.468 146.374 206.187 146.289 205.92 146.207C205.653 146.13 205.409 146.044 205.175 145.97C204.701 145.822 204.282 145.67 203.864 145.522ZM243.418 148.137C242.01 148.778 240.595 149.419 239.143 149.968C239.421 149.919 239.669 149.931 239.988 149.816C240.232 149.723 240.477 149.634 240.725 149.538C240.847 149.493 240.969 149.445 241.095 149.401C241.221 149.349 241.347 149.297 241.473 149.245C241.725 149.145 241.985 149.038 242.251 148.93C242.514 148.815 242.788 148.697 243.074 148.571C244.204 148.067 245.497 147.452 247.082 146.578C246.956 146.637 246.838 146.693 246.723 146.745C246.608 146.796 246.497 146.848 246.389 146.893C246.171 146.989 245.974 147.078 245.789 147.156C245.415 147.319 245.093 147.441 244.811 147.56C244.67 147.615 244.537 147.671 244.415 147.723C244.289 147.771 244.17 147.819 244.055 147.863C243.829 147.956 243.622 148.045 243.418 148.137ZM204.549 146.092C203.501 145.696 202.775 145.522 201.915 145.214C202.03 145.274 202.149 145.333 202.263 145.392C202.382 145.452 202.497 145.507 202.615 145.566C202.849 145.681 203.086 145.8 203.319 145.915C203.556 146.026 203.793 146.133 204.031 146.237C204.149 146.289 204.268 146.337 204.386 146.389C204.501 146.437 204.62 146.481 204.738 146.526C205.031 146.633 205.316 146.741 205.635 146.845C205.953 146.948 206.298 147.059 206.702 147.182C207.513 147.411 208.546 147.708 210.069 148.045C208.472 147.585 207.35 147.163 206.494 146.841C205.638 146.519 205.053 146.27 204.549 146.092ZM186.304 132.663C189.494 136.105 193.198 139.15 197.333 141.636C198.366 142.254 199.422 142.847 200.507 143.396C201.593 143.944 202.701 144.455 203.83 144.929C206.094 145.867 208.443 146.659 210.862 147.259C211.847 147.511 212.855 147.704 213.863 147.878L214.622 147.997L215.004 148.056L215.385 148.104C215.637 148.141 215.893 148.174 216.145 148.208C216.4 148.237 216.652 148.267 216.908 148.293C218.167 148.434 218.823 148.438 219.175 148.404C219.527 148.375 219.575 148.308 219.631 148.241C219.69 148.174 219.753 148.112 220.131 148.074C220.324 148.056 220.59 148.049 220.976 148.049C221.168 148.045 221.39 148.045 221.646 148.045C221.902 148.045 222.194 148.052 222.524 148.049C220.816 147.982 219.227 147.797 217.423 147.589C213.963 147.182 210.54 146.396 207.242 145.233C203.953 144.059 200.785 142.529 197.851 140.65L197.985 140.587L198.307 140.787L198.629 140.976L199.277 141.362C199.718 141.602 200.152 141.858 200.6 142.084C201.485 142.562 202.393 142.995 203.308 143.414C205.149 144.233 207.046 144.951 209.002 145.526C210.958 146.115 212.966 146.559 215.022 146.885C216.052 147.037 217.089 147.178 218.138 147.259C218.664 147.311 219.19 147.337 219.72 147.374C219.986 147.385 220.249 147.393 220.516 147.404L220.916 147.419C221.05 147.426 221.183 147.426 221.316 147.426C217.441 147.082 213.414 146.352 209.332 145.055C205.253 143.759 201.119 141.884 197.147 139.287C194.376 137.483 191.809 135.342 189.505 132.945L189.286 132.722L189.075 132.493L188.649 132.033C188.367 131.73 188.097 131.411 187.823 131.104C187.556 130.781 187.286 130.466 187.023 130.144L186.437 129.414L186.248 129.166C185.233 127.847 184.292 126.476 183.425 125.061L183.607 124.983C185.974 128.773 188.904 132.204 192.268 135.134L192.231 134.953C189.034 132.122 186.23 128.844 183.918 125.169C181.606 121.497 179.787 117.433 178.594 113.047C179.506 116.115 180.717 119.023 182.184 121.76C183.659 124.498 185.389 127.065 187.345 129.455C189.301 131.841 191.483 134.052 193.891 136.064C196.295 138.072 198.918 139.891 201.767 141.473C202.656 141.966 203.582 142.432 204.534 142.877C205.494 143.31 206.479 143.725 207.498 144.099C209.525 144.844 211.658 145.455 213.84 145.9C214.933 146.118 216.034 146.311 217.141 146.444L217.556 146.5L217.975 146.544C218.253 146.574 218.527 146.607 218.805 146.63C219.086 146.652 219.364 146.674 219.642 146.7C219.916 146.726 220.198 146.733 220.472 146.752C221.027 146.789 221.583 146.796 222.139 146.819C222.413 146.822 222.691 146.822 222.965 146.826L223.38 146.83L223.791 146.822C224.891 146.815 225.981 146.752 227.055 146.674C227.34 146.648 227.625 146.626 227.903 146.6C228.185 146.57 228.459 146.541 228.733 146.515C228.87 146.5 229.003 146.485 229.137 146.47C229.274 146.452 229.407 146.437 229.537 146.419C229.8 146.385 230.063 146.352 230.319 146.318C230.83 146.241 231.33 146.178 231.808 146.092C232.049 146.052 232.282 146.015 232.515 145.974C232.745 145.933 232.975 145.889 233.197 145.848C234.975 145.518 236.472 145.163 237.65 144.888C237.798 144.855 237.939 144.822 238.076 144.792C238.213 144.759 238.347 144.729 238.473 144.7C238.728 144.64 238.962 144.592 239.173 144.548C239.599 144.459 239.94 144.403 240.191 144.385C240.692 144.348 240.836 144.466 240.566 144.777C240.384 144.985 240.714 145.092 240.006 145.578C239.917 145.637 239.814 145.704 239.688 145.778C239.562 145.848 239.417 145.926 239.251 146.007C239.08 146.092 238.891 146.181 238.673 146.281C238.454 146.378 238.21 146.474 237.935 146.585C236.839 147.015 235.261 147.545 232.975 148.045C232.578 148.123 232.152 148.226 231.704 148.334C231.482 148.386 231.252 148.438 231.019 148.493C230.9 148.519 230.782 148.549 230.663 148.578C230.545 148.604 230.426 148.63 230.304 148.656C230.063 148.708 229.822 148.76 229.578 148.815C229.333 148.867 229.085 148.915 228.84 148.964C228.351 149.064 227.859 149.141 227.385 149.219C230.126 148.982 232.912 148.46 235.446 147.752C236.713 147.397 237.913 146.989 239.021 146.563C239.299 146.452 239.569 146.344 239.832 146.241C240.095 146.126 240.354 146.015 240.606 145.904C240.858 145.796 241.099 145.681 241.336 145.57C241.573 145.455 241.803 145.348 242.025 145.237C243.366 144.562 244.593 143.888 245.745 143.221C246.893 142.558 247.971 141.895 249.005 141.225C250.031 140.55 251.016 139.869 251.98 139.154C252.939 138.435 253.873 137.679 254.803 136.868C255.021 136.675 255.236 136.49 255.443 136.305C255.655 136.116 255.858 135.931 256.062 135.749C256.27 135.568 256.466 135.382 256.666 135.197C256.862 135.012 257.062 134.834 257.255 134.645C258.029 133.901 258.774 133.134 259.504 132.267C260.63 130.926 261.475 129.803 262.138 128.914C262.801 128.025 263.282 127.366 263.646 126.906C263.827 126.68 263.975 126.502 264.101 126.369C264.227 126.236 264.327 126.147 264.409 126.102C264.568 126.01 264.65 126.076 264.672 126.258C264.683 126.336 264.85 126.195 265.083 125.913C265.194 125.773 265.324 125.598 265.461 125.402C265.594 125.206 265.739 124.991 265.865 124.757C266.802 123.116 267.428 121.835 267.936 120.749C268.058 120.475 268.176 120.216 268.287 119.964C268.343 119.838 268.399 119.712 268.454 119.593C268.506 119.467 268.558 119.349 268.61 119.23C268.71 118.989 268.81 118.756 268.906 118.526C268.999 118.297 269.095 118.067 269.188 117.834C269.566 116.911 269.929 115.959 270.351 114.74C270.773 113.521 271.255 112.036 271.744 110.006C271.273 112.554 270.655 114.836 269.932 116.963C269.214 119.093 268.387 121.06 267.472 122.99C267.324 123.298 267.139 123.687 266.957 124.094C266.772 124.502 266.572 124.924 266.402 125.309C266.042 126.069 265.779 126.665 265.846 126.61C265.972 126.525 266.161 126.306 266.417 125.984C266.543 125.821 266.687 125.635 266.835 125.421C266.983 125.206 267.146 124.965 267.321 124.706C268.006 123.654 268.828 122.231 269.614 120.575C270.399 118.923 271.155 117.044 271.751 115.129C272.351 113.218 272.803 111.273 273.089 109.531C273.3 108.22 273.418 106.797 273.53 105.567C273.67 104.089 273.793 102.767 273.848 101.37C273.874 101.811 273.904 102.215 273.93 102.641C273.952 103.071 273.959 103.519 273.952 104.045L273.922 104.915L273.907 105.349L273.878 105.786L273.826 106.653L273.752 107.524L273.711 107.961L273.663 108.394C273.633 108.683 273.6 108.972 273.567 109.265C273.526 109.554 273.485 109.843 273.444 110.135L273.385 110.569L273.315 111.002C273.266 111.295 273.218 111.584 273.17 111.873C273.111 112.165 273.055 112.454 273 112.743C272.974 112.888 272.944 113.036 272.915 113.181L272.818 113.614C272.755 113.903 272.692 114.196 272.622 114.485C272.344 115.644 272.025 116.804 271.655 117.959C270.018 123.072 267.554 127.947 264.394 132.345C261.234 136.746 257.366 140.658 252.976 143.896C251.176 145.229 249.279 146.437 247.319 147.534C246.334 148.071 245.337 148.593 244.318 149.071C243.815 149.316 243.296 149.538 242.785 149.767C242.529 149.882 242.266 149.986 242.007 150.097C241.747 150.201 241.488 150.316 241.225 150.416C239.132 151.238 236.987 151.946 234.801 152.49C234.531 152.557 234.257 152.631 233.983 152.694L233.156 152.879L232.745 152.972L231.5 153.217C230.393 153.413 229.281 153.594 228.159 153.724C227.04 153.861 225.918 153.95 224.795 154.02L223.528 154.076L222.261 154.098C221.979 154.102 221.698 154.098 221.416 154.098C220.29 154.095 219.164 154.039 218.038 153.965L217.193 153.898L216.774 153.861L216.352 153.817L215.511 153.724L214.67 153.617C210.195 153.013 205.794 151.812 201.615 150.086C201.871 150.16 202.137 150.242 202.408 150.327C202.545 150.368 202.682 150.412 202.819 150.457C202.96 150.497 203.101 150.542 203.245 150.583C203.53 150.671 203.823 150.76 204.119 150.853C204.416 150.938 204.72 151.027 205.023 151.116C206.25 151.468 207.528 151.82 208.784 152.087C209.098 152.161 209.399 152.213 209.688 152.268C209.976 152.32 210.251 152.376 210.521 152.413C211.066 152.49 211.588 152.572 212.147 152.635C211.61 152.516 210.995 152.331 210.428 152.183C209.865 152.016 209.35 151.872 209.021 151.794C207.42 151.431 206.075 150.997 204.857 150.538C204.242 150.312 203.667 150.064 203.101 149.823C202.538 149.564 201.986 149.316 201.437 149.038C200.337 148.501 199.233 147.904 198.007 147.215C196.781 146.522 195.428 145.733 193.861 144.751C193.591 144.577 193.383 144.444 193.228 144.34C193.076 144.233 192.98 144.159 192.928 144.114C192.82 144.022 192.891 144.036 193.065 144.111C193.235 144.192 193.509 144.318 193.813 144.459C194.113 144.6 194.436 144.755 194.717 144.863C195.269 145.085 195.614 145.174 195.132 144.781C195.013 144.685 194.843 144.555 194.61 144.392C194.38 144.225 194.091 144.018 193.735 143.77C193.028 143.262 192.042 142.581 190.772 141.588C190.894 141.64 190.964 141.614 191.153 141.751C192.587 142.81 193.52 143.37 194.106 143.673C194.695 143.977 194.932 144.036 195.039 143.999C195.258 143.936 194.95 143.544 195.866 144.033C197.299 144.785 198.133 145.14 198.492 145.277C198.859 145.407 198.759 145.322 198.37 145.089C198.177 144.97 197.914 144.818 197.603 144.637C197.288 144.459 196.932 144.24 196.547 144.01C196.162 143.781 195.762 143.521 195.347 143.266C195.143 143.132 194.939 142.995 194.736 142.862C194.532 142.725 194.328 142.595 194.132 142.455C189.193 139.061 184.874 134.76 181.451 129.844C181.254 129.092 179.843 126.917 178.576 124.439C177.939 123.202 177.324 121.898 176.853 120.708C176.731 120.412 176.627 120.119 176.524 119.841C176.472 119.701 176.424 119.567 176.375 119.434C176.331 119.297 176.287 119.167 176.246 119.041C176.164 118.786 176.09 118.545 176.023 118.326C175.964 118.104 175.912 117.897 175.872 117.711C176.22 118.626 176.613 119.53 177.016 120.43C177.435 121.323 177.861 122.212 178.328 123.076C178.783 123.942 179.28 124.78 179.776 125.602C179.902 125.806 180.036 126.006 180.162 126.21C180.291 126.41 180.413 126.614 180.551 126.806C180.817 127.199 181.073 127.592 181.347 127.969C181.51 128.195 181.658 128.403 181.795 128.588C181.936 128.766 182.058 128.925 182.166 129.051C182.377 129.31 182.51 129.451 182.544 129.451C182.577 129.451 182.507 129.303 182.314 128.981C182.114 128.658 181.799 128.151 181.347 127.421C180.284 125.684 179.298 123.835 178.598 122.316C180.725 126.165 183.348 129.666 186.359 132.737L186.304 132.663Z" fill="white"/>
</g>
<path d="M186.982 127.992C187.656 128.914 188.412 129.859 189.245 130.815C190.079 131.767 190.99 132.734 191.983 133.686C193.965 135.59 196.273 137.442 198.862 139.098C200.159 139.924 201.522 140.702 202.945 141.413C204.368 142.121 205.849 142.766 207.376 143.329C208.898 143.896 210.469 144.381 212.066 144.785C213.662 145.185 215.285 145.496 216.919 145.718C219.097 146.022 221.227 146.137 223.32 146.118C225.414 146.081 227.47 145.918 229.511 145.577C231.552 145.244 233.575 144.748 235.598 144.085C236.613 143.751 237.62 143.366 238.632 142.947C239.643 142.517 240.651 142.04 241.658 141.51C243.133 140.732 244.144 140.109 244.804 139.676C244.97 139.569 245.115 139.476 245.237 139.391C245.359 139.306 245.459 139.231 245.541 139.172C245.708 139.05 245.797 138.976 245.815 138.942C245.856 138.88 245.622 138.98 245.178 139.194C244.956 139.302 244.678 139.431 244.352 139.583C244.189 139.661 244.015 139.739 243.829 139.82C243.644 139.902 243.444 139.987 243.24 140.076C242.159 140.528 241.392 140.787 240.947 140.887C240.503 140.984 240.388 140.936 240.595 140.736C240.806 140.539 241.34 140.191 242.177 139.654C243.014 139.117 244.152 138.39 245.53 137.379C246.934 136.349 247.523 135.753 247.615 135.564C247.704 135.364 247.278 135.545 246.549 135.934C243.563 137.494 240.151 138.88 236.565 139.765C236.476 139.787 236.376 139.813 236.257 139.85C236.142 139.88 236.013 139.917 235.875 139.958C235.598 140.035 235.283 140.135 234.949 140.228C234.616 140.324 234.264 140.432 233.916 140.524C233.745 140.576 233.575 140.624 233.404 140.673C233.238 140.717 233.075 140.758 232.915 140.802C232.412 140.943 231.908 141.058 231.408 141.176C230.904 141.28 230.404 141.388 229.904 141.469C229.407 141.565 228.911 141.628 228.414 141.702C228.17 141.732 227.922 141.762 227.673 141.791C227.429 141.825 227.184 141.847 226.936 141.869C224.973 142.058 223.032 142.08 221.098 142.006C217.1 141.836 213.033 141.139 209.058 139.802C205.086 138.468 201.207 136.501 197.673 133.897C200.885 136.483 204.523 138.579 208.398 140.084C212.27 141.595 216.378 142.503 220.52 142.795C223.521 143.01 226.495 142.918 229.415 142.525C232.338 142.136 235.209 141.432 238.009 140.417L238.087 140.602C235.824 141.565 233.453 142.336 231.071 142.888C230.956 142.918 230.841 142.943 230.719 142.973C230.6 142.995 230.478 143.021 230.356 143.047C230.111 143.099 229.859 143.155 229.607 143.203C229.1 143.292 228.585 143.392 228.092 143.466C227.11 143.629 226.218 143.736 225.669 143.836C224.562 144.033 223.406 144.162 222.209 144.222C221.012 144.27 219.786 144.255 218.534 144.159C216.033 143.973 213.448 143.466 210.877 142.662C209.58 142.258 208.198 141.758 206.939 141.217C205.675 140.68 204.542 140.098 203.708 139.606C202.33 138.772 201.267 138.083 200.133 137.379C199.003 136.672 197.803 135.949 196.217 134.927C195.984 134.778 195.732 134.597 195.454 134.397C195.176 134.201 194.88 133.967 194.565 133.715C194.484 133.652 194.406 133.586 194.321 133.523C194.243 133.456 194.161 133.386 194.076 133.315C193.913 133.174 193.739 133.03 193.565 132.882C193.391 132.726 193.217 132.567 193.035 132.408C192.942 132.322 192.85 132.241 192.757 132.156C192.668 132.07 192.576 131.985 192.483 131.896C192.298 131.718 192.101 131.541 191.916 131.352C191.724 131.163 191.531 130.966 191.335 130.77C191.142 130.57 190.946 130.363 190.746 130.155C190.542 129.948 190.349 129.725 190.145 129.507C189.345 128.618 188.53 127.643 187.73 126.599C189.312 128.821 191.06 130.822 192.917 132.604C194.773 134.389 196.732 135.96 198.766 137.324C200.8 138.683 202.897 139.854 205.046 140.824C206.116 141.31 207.198 141.754 208.291 142.151C209.384 142.54 210.488 142.892 211.595 143.199C211.818 143.258 212.04 143.318 212.262 143.381C212.481 143.444 212.699 143.492 212.918 143.551C213.133 143.607 213.348 143.666 213.566 143.718C213.781 143.773 213.996 143.825 214.211 143.881L214.537 143.959C214.644 143.984 214.755 144.01 214.863 144.033C215.081 144.085 215.3 144.136 215.522 144.188C215.744 144.236 215.967 144.285 216.196 144.333C216.422 144.381 216.652 144.433 216.889 144.474C217.123 144.518 217.363 144.566 217.604 144.611C217.849 144.659 218.097 144.696 218.353 144.74C218.608 144.785 218.868 144.825 219.134 144.862C219.405 144.9 219.679 144.937 219.96 144.977C221.087 145.118 222.339 145.229 223.769 145.274C219.423 145.444 215.244 144.988 211.395 144.029C211.154 143.977 210.917 143.907 210.68 143.844C210.443 143.781 210.202 143.725 209.969 143.651C209.498 143.514 209.032 143.381 208.572 143.229C207.65 142.94 206.753 142.61 205.875 142.273C204.127 141.576 202.463 140.802 200.907 139.946C199.351 139.091 197.888 138.179 196.536 137.212C195.18 136.246 193.924 135.242 192.768 134.215C190.457 132.163 188.545 130.037 186.982 127.992Z" fill="white"/>
<path d="M186.304 132.663C185.644 131.852 184.848 130.877 184.059 129.829C183.27 128.777 182.492 127.654 181.832 126.584C181.499 126.054 181.206 125.528 180.94 125.046C180.81 124.798 180.691 124.564 180.58 124.339C180.528 124.227 180.473 124.12 180.421 124.012C180.373 123.905 180.328 123.801 180.284 123.701C179.936 122.901 179.78 122.316 179.873 122.093C179.876 122.079 179.836 121.975 179.758 121.805C179.684 121.634 179.58 121.39 179.45 121.104C179.387 120.96 179.313 120.804 179.243 120.638C179.169 120.475 179.095 120.3 179.017 120.119C178.939 119.941 178.85 119.756 178.772 119.567C178.691 119.378 178.609 119.185 178.528 118.993C177.865 117.455 177.261 115.885 177.042 115.896L177.061 115.836C176.713 115.425 176.694 115.803 176.979 116.87C177.268 117.929 177.898 119.667 178.984 121.864C180.921 125.765 183.407 129.455 186.348 132.722C186.359 132.737 186.304 132.663 186.304 132.663Z" fill="white"/>
<path d="M175.953 100.433C175.949 100.755 175.949 101.066 175.949 101.37C175.957 101.67 175.964 101.966 175.972 102.255C175.975 102.544 175.99 102.822 176.001 103.096C176.016 103.37 176.024 103.633 176.042 103.893C176.083 104.411 176.109 104.9 176.161 105.367C176.183 105.597 176.205 105.827 176.227 106.045C176.253 106.267 176.279 106.482 176.305 106.69C176.516 108.368 176.776 109.702 177.061 110.883C177.15 111.228 177.235 111.517 177.32 111.769C177.409 112.021 177.498 112.232 177.583 112.432C177.754 112.832 177.935 113.162 178.12 113.591C178.017 113.184 177.906 112.747 177.813 112.295C177.765 112.073 177.713 111.847 177.668 111.621C177.624 111.395 177.58 111.172 177.539 110.95C177.372 110.076 177.239 109.272 177.131 108.753C177.094 108.594 177.061 108.438 177.028 108.283C176.998 108.127 176.968 107.972 176.935 107.816C176.876 107.508 176.809 107.205 176.757 106.901C176.702 106.593 176.646 106.29 176.59 105.978C176.539 105.667 176.487 105.352 176.435 105.03C176.238 103.733 176.053 102.292 175.953 100.433Z" fill="white"/>
<path d="M175.764 89.9894C176.053 88.6742 176.394 87.3665 176.794 86.0773C177.194 84.7918 177.65 83.5174 178.157 82.2652C179.172 79.7572 180.41 77.3344 181.843 75.0264L181.469 75.3931L181.106 75.771C180.421 76.9343 179.784 78.1234 179.202 79.3349C178.62 80.55 178.091 81.7873 177.613 83.0432C176.649 85.5512 175.916 88.1408 175.394 90.7637C175.508 90.5043 175.642 90.245 175.764 89.9894Z" fill="white"/>
<path d="M177.061 115.836L177.042 115.896C176.472 113.98 176.038 112.109 175.679 110.402C175.323 108.694 175.049 107.145 174.779 105.863C174.775 105.841 174.771 105.912 174.771 106.03C174.771 106.089 174.771 106.16 174.771 106.241C174.771 106.319 174.775 106.404 174.779 106.493C174.79 106.845 174.812 107.238 174.827 107.349C175.308 110.298 176.06 113.11 177.061 115.836Z" fill="white"/>
<path d="M183.036 136.249C184.285 137.59 185.6 138.86 186.978 140.061C188.356 141.257 189.797 142.384 191.29 143.428L191.087 143.139C188.004 140.902 185.163 138.327 182.629 135.471C182.762 135.73 182.899 135.989 183.036 136.249Z" fill="white"/>
<path d="M207.602 145.636C206.042 145.125 204.512 144.529 203.015 143.855C201.519 143.18 200.059 142.425 198.644 141.595L198.611 141.669C200.029 142.502 201.489 143.258 202.989 143.932C204.486 144.61 206.02 145.203 207.58 145.714L207.602 145.636Z" fill="white"/>
<path d="M187.66 70.1951C187.426 70.4767 187.174 70.7619 186.93 71.0583C186.689 71.3584 186.441 71.6547 186.211 71.9511C185.985 72.2512 185.759 72.5401 185.559 72.8143C185.359 73.0921 185.178 73.3552 185.022 73.5848C184.678 74.1294 184.418 74.5666 184.2 74.9852C184.092 75.1964 183.988 75.3964 183.881 75.6002C183.781 75.8039 183.681 76.0114 183.57 76.23C184.352 75.0074 185.333 73.6997 186.063 72.7105C187.048 71.3732 187.86 70.2877 188.827 69.1504C188.627 69.3208 188.434 69.4949 188.241 69.669C188.045 69.8432 187.849 70.0173 187.66 70.1951Z" fill="white"/>
<path d="M198.511 137.99C198.811 138.19 199.122 138.379 199.426 138.576C199.73 138.768 200.044 138.946 200.356 139.131C200.619 139.287 200.893 139.417 201.163 139.561C200.537 139.213 199.922 138.85 199.315 138.476C199.048 138.305 198.774 138.157 198.511 137.99Z" fill="white"/>
<path d="M184.685 120.494C184.529 120.175 184.389 119.879 184.251 119.59C184.118 119.297 183.992 119.019 183.866 118.738C183.759 118.501 183.64 118.252 183.525 118.008C183.64 118.282 183.74 118.56 183.866 118.827C183.992 119.093 184.118 119.356 184.248 119.634C184.385 119.908 184.529 120.19 184.685 120.494Z" fill="white"/>
<path d="M268.287 106.627C268.239 106.901 268.195 107.175 268.139 107.449C268.084 107.72 268.032 107.994 267.995 108.272C267.887 108.939 267.821 109.62 267.709 110.295C267.776 110.02 267.854 109.75 267.917 109.476C267.976 109.198 268.035 108.924 268.084 108.639C268.143 108.309 268.169 107.975 268.206 107.638C268.243 107.301 268.261 106.964 268.287 106.627Z" fill="white"/>
<mask id="mask2_880_2813" style="mask-type:luminance" maskUnits="userSpaceOnUse" x="196" y="9" width="86" height="50">
<path d="M196.373 9.4834H281.728V58.7995H196.373V9.4834Z" fill="white"/>
</mask>
<g mask="url(#mask2_880_2813)">
<mask id="mask3_880_2813" style="mask-type:luminance" maskUnits="userSpaceOnUse" x="191" y="0" width="95" height="63">
<path d="M201.515 0.0292969L285.766 20.7123L275.593 62.1487L191.338 41.462L201.515 0.0292969Z" fill="white"/>
</mask>
<g mask="url(#mask3_880_2813)">
<mask id="mask4_880_2813" style="mask-type:luminance" maskUnits="userSpaceOnUse" x="191" y="0" width="95" height="63">
<path d="M201.515 0.0292969L285.766 20.7123L275.593 62.1487L191.338 41.462L201.515 0.0292969Z" fill="white"/>
</mask>
<g mask="url(#mask4_880_2813)">
<path d="M276.638 50.527C277.197 53.0795 275.893 58.4438 275.893 58.4438C275.737 58.4994 275.589 58.5401 275.445 58.566L275.467 54.9503C275.467 54.9503 274.678 57.162 274.415 58.4957C272.703 58.6327 271.977 57.588 271.977 57.588C272.585 53.2499 273.63 50.9864 274.304 49.9009C274.093 49.5378 274.015 49.1118 274.111 48.6784C274.267 47.9671 274.852 47.4484 275.53 47.3484L277.327 39.5946L265.894 41.7248C265.031 41.8841 264.279 41.1246 264.457 40.2577L265.087 37.1755C265.164 36.7791 265.05 36.3753 264.779 36.0863C251.272 21.5086 237.869 19.082 229.022 19.6118C219.379 20.1934 213.025 24.2241 212.762 24.3945L212.748 24.4019C212.47 24.5797 212.284 24.8539 212.207 25.165L211.421 28.5955C211.217 29.4624 210.206 29.844 209.48 29.3142L197.544 20.6157C196.666 19.9711 196.981 18.5967 198.048 18.3967L242.418 10.2205C242.751 10.165 243.088 10.2354 243.359 10.4317L280.42 36.9013C281.313 37.5385 281.005 38.9278 279.927 39.1315L278.405 39.4094L276.523 47.5188C277.223 47.8485 277.616 48.6302 277.445 49.4119C277.349 49.9009 277.038 50.2936 276.638 50.527ZM214.048 26.4172C213.974 26.4543 213.914 26.5246 213.892 26.6173L209.343 45.1479C209.287 45.3701 209.495 45.5702 209.717 45.4961C213.148 44.4032 233.968 38.8944 257.874 57.4176C258.044 57.5436 258.289 57.4658 258.337 57.262L263.105 37.846C263.127 37.7534 263.112 37.6534 263.042 37.583C261.467 35.764 241.055 13.0361 214.048 26.4172Z" fill="white"/>
</g>
</g>
</g>
<mask id="mask5_880_2813" style="mask-type:luminance" maskUnits="userSpaceOnUse" x="183" y="117" width="60" height="24">
<path d="M183.488 117.6H242.996V140.546H183.488V117.6Z" fill="white"/>
</mask>
<g mask="url(#mask5_880_2813)">
<path d="M242.714 119.7C241.788 118.837 239.495 118.015 234.131 120.993C231.811 122.438 230.552 123.368 229.918 123.883C229.511 124.213 229.011 124.405 228.488 124.442C225.691 124.635 216.871 125.487 213.848 125.428C213.407 125.42 213.255 124.824 213.551 124.591C213.774 124.416 214.114 124.331 214.6 124.179C216.315 123.646 225.847 123.69 225.64 120.123C225.44 116.703 218.604 117.967 216.578 118.4C215.789 118.567 214.915 118.696 214.103 118.796C214.103 118.796 211.162 118.926 209.717 118.578C206.701 117.789 200.355 116.511 196.347 119.76C193.117 122.375 191.687 124.098 191.06 125.039C190.638 125.672 190.06 126.187 189.382 126.539L183.736 130.514C183.44 130.725 183.403 131.151 183.659 131.407L192.928 140.676C193.183 140.932 193.598 140.898 193.813 140.613C195.087 138.887 199.648 133.841 209.158 134.145C220.609 134.515 220.683 134.293 223.194 132.963C225.169 131.918 229.855 130.24 231.786 129.566C232.352 129.366 232.882 129.069 233.345 128.688L242.655 121.045C243.085 120.712 243.114 120.071 242.714 119.7Z" fill="white"/>
</g>
<path d="M225.091 117.444C225.384 117.607 225.643 117.8 225.858 118.018C225.995 118.152 226.114 118.296 226.218 118.448C226.903 118.122 227.666 117.778 228.488 117.422L228.5 117.418C230.567 116.644 232.349 116.233 233.808 116.188C233.33 115.936 232.734 115.788 232.03 115.744C230.537 115.655 228.596 116.051 226.262 116.925C225.858 117.1 225.462 117.274 225.091 117.444Z" fill="white"/>
<path d="M223.873 123.387C224.417 123.342 224.943 123.302 225.432 123.265H225.436C226.744 123.161 227.874 123.076 228.596 123.028C228.718 123.02 228.84 122.998 228.959 122.957C229.111 122.902 229.252 122.828 229.374 122.727C230.03 122.201 231.286 121.279 233.56 119.868L233.586 119.853L233.608 119.842C234.257 119.482 234.89 119.164 235.494 118.897C236.087 118.641 236.657 118.434 237.187 118.278C237.261 118.256 237.332 118.237 237.406 118.215C237.324 118.141 237.231 118.071 237.135 118.008C236.591 117.652 235.864 117.456 234.975 117.43C233.556 117.382 231.745 117.76 229.593 118.552C228.611 118.971 227.729 119.371 226.962 119.742C226.966 119.775 226.966 119.812 226.97 119.845C227.07 121.42 226.029 122.609 223.873 123.387Z" fill="white"/>
<path d="M154.876 168.977V166.799H162.344V168.977L160.418 169.348V182.314L162.344 182.684V184.848H154.876V182.684L156.802 182.314V169.348L154.876 168.977Z" fill="white"/>
<path d="M182.161 166.799V168.977L180.234 169.348V184.848H176.634L169.343 172.697L169.269 172.711V182.314L171.195 182.684V184.848H163.727V182.684L165.638 182.314V169.348L163.727 168.977V166.799H169.269L176.559 178.95L176.634 178.935V169.348L174.692 168.977V166.799H182.161Z" fill="white"/>
<path d="M191.452 166.799C193.653 166.799 195.468 167.506 196.891 168.918C198.321 170.322 199.039 172.13 199.039 174.341V177.32C199.039 179.535 198.321 181.343 196.891 182.744C195.468 184.148 193.653 184.848 191.452 184.848H183.332V182.684L185.243 182.314V169.348L183.332 168.977V166.799H191.452ZM188.874 169.585V182.077H191.26C192.553 182.077 193.564 181.64 194.298 180.758C195.038 179.88 195.409 178.735 195.409 177.32V174.312C195.409 172.919 195.038 171.785 194.298 170.904C193.564 170.026 192.553 169.585 191.26 169.585H188.874Z" fill="white"/>
<path d="M208.079 166.799V168.977L206.152 169.348V178.772C206.152 179.969 206.467 180.862 207.101 181.454C207.742 182.04 208.62 182.329 209.739 182.329C210.872 182.329 211.761 182.04 212.406 181.454C213.047 180.862 213.369 179.969 213.369 178.772V169.348L211.443 168.977V166.799H218.926V168.977L216.985 169.348V178.772C216.985 180.799 216.318 182.366 214.984 183.47C213.651 184.566 211.902 185.115 209.739 185.115C207.582 185.115 205.841 184.566 204.508 183.47C203.181 182.366 202.522 180.799 202.522 178.772V169.348L200.61 168.977V166.799H208.079Z" fill="white"/>
<path d="M233.697 172.563H230.985L230.511 170.089C230.192 169.892 229.733 169.718 229.133 169.57C228.529 169.422 227.888 169.348 227.206 169.348C226.217 169.348 225.45 169.555 224.909 169.97C224.376 170.385 224.109 170.926 224.109 171.585C224.109 172.2 224.391 172.704 224.954 173.097C225.517 173.482 226.495 173.897 227.888 174.341C229.874 174.897 231.378 175.627 232.408 176.535C233.434 177.446 233.949 178.635 233.949 180.106C233.949 181.658 233.334 182.884 232.111 183.781C230.896 184.67 229.285 185.115 227.28 185.115C225.858 185.115 224.569 184.885 223.413 184.433C222.257 183.981 221.297 183.347 220.538 182.536V178.772H223.339L223.724 181.336C224.079 181.632 224.569 181.88 225.191 182.077C225.821 182.277 226.517 182.373 227.28 182.373C228.277 182.373 229.033 182.173 229.548 181.766C230.059 181.362 230.318 180.817 230.318 180.135C230.318 179.446 230.07 178.891 229.577 178.476C229.092 178.053 228.232 177.653 226.999 177.276C224.865 176.653 223.242 175.92 222.138 175.068C221.042 174.219 220.493 173.052 220.493 171.57C220.493 170.111 221.108 168.914 222.346 167.984C223.59 167.058 225.15 166.577 227.028 166.547C228.41 166.547 229.67 166.762 230.807 167.184C231.952 167.61 232.915 168.173 233.697 168.873V172.563Z" fill="white"/>
<path d="M251.267 166.799V171.615H248.496L248.348 169.585H245.028V182.314L246.955 182.684V184.848H239.471V182.684L241.398 182.314V169.585H238.093L237.945 171.615H235.174V166.799H251.267Z" fill="white"/>
<path d="M260.552 166.799C262.597 166.799 264.201 167.269 265.368 168.207C266.531 169.148 267.116 170.44 267.116 172.089C267.116 173 266.868 173.789 266.375 174.46C265.89 175.134 265.179 175.675 264.242 176.09C265.309 176.398 266.072 176.916 266.538 177.646C267.013 178.38 267.25 179.287 267.25 180.373V181.291C267.25 181.688 267.324 181.995 267.472 182.21C267.628 182.429 267.891 182.562 268.257 182.61L268.702 182.669V184.848H266.835C265.649 184.848 264.812 184.533 264.331 183.899C263.856 183.259 263.619 182.432 263.619 181.425V180.402C263.619 179.524 263.386 178.839 262.923 178.342C262.456 177.839 261.8 177.572 260.952 177.542H257.988V182.314L259.915 182.684V184.848H252.446V182.684L254.358 182.314V169.348L252.446 168.977V166.799H260.552ZM257.988 174.756H260.493C261.5 174.756 262.256 174.545 262.76 174.119C263.264 173.686 263.516 173.063 263.516 172.252C263.516 171.444 263.264 170.796 262.76 170.311C262.263 169.829 261.53 169.585 260.552 169.585H257.988V174.756Z" fill="white"/>
<path d="M276.474 168.977L274.993 169.199L277.793 175.112H277.867L280.683 169.199L279.216 168.977V166.799H286.047V168.977L284.506 169.229L279.601 178.505V182.314L281.528 182.684V184.848H274.059V182.684L275.985 182.314V178.313L271.169 169.229L269.643 168.977V166.799H276.474V168.977Z" fill="white"/>
<path d="M127.671 195.872V194.375H132.813V195.872L131.48 196.124V205.044L132.813 205.296V206.793H127.671V205.296L128.99 205.044V196.124L127.671 195.872Z" fill="white"/>
<path d="M146.451 194.375V195.872L145.118 196.124V206.793H142.643L137.62 198.435H137.575V205.044L138.894 205.296V206.793H133.752V205.296L135.071 205.044V196.124L133.752 195.872V194.375H137.575L142.584 202.733L142.643 202.718V196.124L141.309 195.872V194.375H146.451Z" fill="white"/>
<path d="M158.18 194.375V197.68H156.269L156.165 196.287H153.883V205.044L155.217 205.296V206.793H150.06V205.296L151.393 205.044V196.287H149.111L149.008 197.68H147.111V194.375H158.18Z" fill="white"/>
<path d="M167.005 201.34H162.811V204.881H166.812L166.931 203.399H168.813V206.793H158.988V205.296L160.307 205.044V196.124L158.988 195.872V194.375H168.798V197.783H166.886L166.783 196.287H162.811V199.413H167.005V201.34Z" fill="white"/>
<path d="M175.73 194.375C177.142 194.375 178.249 194.697 179.05 195.338C179.85 195.983 180.25 196.876 180.25 198.02C180.25 198.643 180.079 199.187 179.746 199.65C179.409 200.106 178.916 200.477 178.264 200.762C179.005 200.98 179.531 201.34 179.85 201.844C180.176 202.347 180.339 202.97 180.339 203.711V204.348C180.339 204.615 180.387 204.829 180.487 204.985C180.594 205.133 180.776 205.222 181.035 205.252L181.346 205.296V206.793H180.057C179.235 206.793 178.664 206.578 178.338 206.141C178.012 205.696 177.849 205.13 177.849 204.437V203.726C177.849 203.125 177.686 202.655 177.36 202.318C177.034 201.973 176.579 201.792 175.997 201.769H173.967V205.044L175.286 205.296V206.793H170.144V205.296L171.462 205.044V196.124L170.144 195.872V194.375H175.73ZM173.967 199.843H175.686C176.375 199.843 176.893 199.702 177.242 199.413C177.586 199.117 177.76 198.687 177.76 198.124C177.76 197.572 177.586 197.128 177.242 196.79C176.905 196.457 176.401 196.287 175.73 196.287H173.967V199.843Z" fill="white"/>
<path d="M194.851 194.375V195.872L193.518 196.124V206.793H191.043L186.019 198.435H185.975V205.044L187.294 205.296V206.793H182.152V205.296L183.471 205.044V196.124L182.152 195.872V194.375H185.975L190.984 202.733L191.043 202.718V196.124L189.709 195.872V194.375H194.851Z" fill="white"/>
<path d="M205.084 198.332H203.216L202.89 196.628C202.672 196.502 202.357 196.387 201.942 196.287C201.527 196.179 201.086 196.124 200.623 196.124C199.941 196.124 199.412 196.268 199.038 196.553C198.66 196.842 198.474 197.213 198.474 197.665C198.474 198.091 198.667 198.435 199.052 198.702C199.445 198.969 200.123 199.258 201.083 199.562C202.453 199.939 203.491 200.443 204.194 201.073C204.906 201.695 205.261 202.518 205.261 203.533C205.261 204.6 204.839 205.441 204.002 206.052C203.161 206.667 202.049 206.971 200.668 206.971C199.69 206.971 198.8 206.815 198 206.511C197.207 206.197 196.552 205.763 196.029 205.207V202.614H197.956L198.223 204.378C198.467 204.585 198.804 204.759 199.23 204.896C199.664 205.026 200.142 205.089 200.668 205.089C201.349 205.089 201.868 204.952 202.224 204.674C202.579 204.389 202.757 204.015 202.757 203.548C202.757 203.074 202.587 202.696 202.253 202.407C201.916 202.11 201.323 201.836 200.475 201.577C199.001 201.155 197.885 200.651 197.126 200.065C196.374 199.473 196 198.669 196 197.65C196 196.653 196.422 195.835 197.274 195.19C198.134 194.549 199.204 194.219 200.49 194.197C201.446 194.197 202.316 194.345 203.098 194.642C203.887 194.931 204.55 195.316 205.084 195.798V198.332Z" fill="white"/>
<path d="M206.237 195.872V194.375H211.379V195.872L210.06 196.124V199.71H215.128V196.124L213.794 195.872V194.375H218.936V195.872L217.602 196.124V205.044L218.936 205.296V206.793H213.794V205.296L215.128 205.044V201.636H210.06V205.044L211.379 205.296V206.793H206.237V205.296L207.555 205.044V196.124L206.237 195.872Z" fill="white"/>
<path d="M219.891 195.872V194.375H225.033V195.872L223.699 196.124V205.044L225.033 205.296V206.793H219.891V205.296L221.21 205.044V196.124L219.891 195.872Z" fill="white"/>
<path d="M231.884 194.375C233.307 194.375 234.426 194.742 235.248 195.472C236.067 196.205 236.478 197.157 236.478 198.332C236.478 199.528 236.067 200.488 235.248 201.206C234.426 201.929 233.307 202.288 231.884 202.288H229.795V205.044L231.114 205.296V206.793H225.972V205.296L227.291 205.044V196.124L225.972 195.872V194.375H231.884ZM229.795 200.377H231.884C232.573 200.377 233.099 200.191 233.455 199.813C233.811 199.428 233.989 198.947 233.989 198.361C233.989 197.761 233.811 197.265 233.455 196.879C233.099 196.487 232.573 196.287 231.884 196.287H229.795V200.377Z" fill="white"/>
<path d="M250.993 198.332H249.126L248.8 196.628C248.581 196.502 248.266 196.387 247.851 196.287C247.436 196.179 246.996 196.124 246.533 196.124C245.851 196.124 245.321 196.268 244.947 196.553C244.569 196.842 244.384 197.213 244.384 197.665C244.384 198.091 244.577 198.435 244.962 198.702C245.354 198.969 246.032 199.258 246.992 199.562C248.363 199.939 249.4 200.443 250.104 201.073C250.815 201.695 251.171 202.518 251.171 203.533C251.171 204.6 250.748 205.441 249.911 206.052C249.07 206.667 247.959 206.971 246.577 206.971C245.599 206.971 244.71 206.815 243.91 206.511C243.117 206.197 242.461 205.763 241.939 205.207V202.614H243.865L244.132 204.378C244.376 204.585 244.714 204.759 245.14 204.896C245.573 205.026 246.051 205.089 246.577 205.089C247.259 205.089 247.777 204.952 248.133 204.674C248.489 204.389 248.666 204.015 248.666 203.548C248.666 203.074 248.496 202.696 248.163 202.407C247.825 202.11 247.233 201.836 246.384 201.577C244.91 201.155 243.795 200.651 243.035 200.065C242.283 199.473 241.909 198.669 241.909 197.65C241.909 196.653 242.332 195.835 243.184 195.19C244.043 194.549 245.114 194.219 246.399 194.197C247.355 194.197 248.226 194.345 249.007 194.642C249.796 194.931 250.459 195.316 250.993 195.798V198.332Z" fill="white"/>
<path d="M256.68 195.872L255.658 196.02L257.599 200.095H257.644L259.57 196.02L258.562 195.872V194.375H263.26V195.872L262.208 196.049L258.829 202.421V205.044L260.163 205.296V206.793H255.021V205.296L256.34 205.044V202.303L253.035 196.049L251.983 195.872V194.375H256.68V195.872Z" fill="white"/>
<path d="M273.508 198.332H271.641L271.315 196.628C271.097 196.502 270.782 196.387 270.367 196.287C269.952 196.179 269.511 196.124 269.048 196.124C268.366 196.124 267.837 196.268 267.462 196.553C267.084 196.842 266.899 197.213 266.899 197.665C266.899 198.091 267.092 198.435 267.477 198.702C267.87 198.969 268.548 199.258 269.507 199.562C270.878 199.939 271.915 200.443 272.619 201.073C273.331 201.695 273.686 202.518 273.686 203.533C273.686 204.6 273.264 205.441 272.427 206.052C271.586 206.667 270.474 206.971 269.092 206.971C268.114 206.971 267.225 206.815 266.425 206.511C265.632 206.197 264.977 205.763 264.454 205.207V202.614H266.381L266.647 204.378C266.892 204.585 267.229 204.759 267.655 204.896C268.088 205.026 268.566 205.089 269.092 205.089C269.774 205.089 270.293 204.952 270.648 204.674C271.004 204.389 271.182 204.015 271.182 203.548C271.182 203.074 271.011 202.696 270.678 202.407C270.341 202.11 269.748 201.836 268.9 201.577C267.425 201.155 266.31 200.651 265.551 200.065C264.799 199.473 264.425 198.669 264.425 197.65C264.425 196.653 264.847 195.835 265.699 195.19C266.558 194.549 267.629 194.219 268.915 194.197C269.87 194.197 270.741 194.345 271.523 194.642C272.312 194.931 272.975 195.316 273.508 195.798V198.332Z" fill="white"/>
<path d="M285.598 194.375V197.68H283.686L283.582 196.287H281.3V205.044L282.634 205.296V206.793H277.477V205.296L278.811 205.044V196.287H276.529L276.425 197.68H274.528V194.375H285.598Z" fill="white"/>
<path d="M294.422 201.34H290.228V204.881H294.229L294.348 203.399H296.23V206.793H286.405V205.296L287.724 205.044V196.124L286.405 195.872V194.375H296.215V197.783H294.304L294.2 196.287H290.228V199.413H294.422V201.34Z" fill="white"/>
<path d="M309.549 197.605L309.505 197.591L306.17 206.793H304.496L301.191 197.635H301.132L301.384 203.088V205.044L302.703 205.296V206.793H297.561V205.296L298.88 205.044V196.124L297.561 195.872V194.375H302.14L305.296 203.533H305.355L308.541 194.375H313.135V195.872L311.801 196.124V205.044L313.135 205.296V206.793H307.993V205.296L309.312 205.044V203.088L309.549 197.605Z" fill="white"/>
<mask id="mask6_880_2813" style="mask-type:luminance" maskUnits="userSpaceOnUse" x="198" y="91" width="45" height="23">
<path d="M198.418 91.9932H242.507V113.673H198.418V91.9932Z" fill="white"/>
</mask>
<g mask="url(#mask6_880_2813)">
<path d="M242.307 109.298V92.0713C242.073 92.301 241.818 92.5196 241.562 92.7159C241.321 92.9011 241.073 93.0678 240.818 93.2271C239.969 93.7458 239.025 94.0977 238.035 94.2496C236.705 94.4534 235.331 94.3756 233.986 94.3756H224.473C224.439 94.3756 224.402 94.3756 224.369 94.3682V94.9868C224.369 95.0609 224.373 95.1276 224.369 95.2054C224.347 95.6055 224.05 95.9056 223.647 95.9241C222.939 95.9575 222.217 95.9241 221.502 95.9241H218.038C217.734 95.9241 217.434 95.9278 217.13 95.9241C216.678 95.913 216.363 95.6092 216.36 95.1535C216.356 94.8942 216.356 94.6312 216.356 94.3756C216.326 94.3793 216.289 94.3793 216.26 94.3793C216.241 94.3793 216.215 94.3793 216.197 94.3793C214.844 94.3978 213.488 94.3793 212.14 94.3793H206.109C204.616 94.3793 203.093 94.4756 201.652 94.0125C201.052 93.8199 200.467 93.5568 199.915 93.2345C199.659 93.0789 199.411 92.9159 199.17 92.7344C198.907 92.5381 198.659 92.3232 198.425 92.0972V110.872C198.425 111.013 198.422 111.15 198.433 111.291C198.529 112.602 199.6 113.614 200.915 113.632C201.237 113.64 201.556 113.632 201.878 113.632H238.473C238.899 113.632 239.332 113.632 239.758 113.632C241.21 113.629 242.299 112.488 242.307 111.05C242.307 110.457 242.307 109.879 242.307 109.298Z" fill="white"/>
</g>
<mask id="mask7_880_2813" style="mask-type:luminance" maskUnits="userSpaceOnUse" x="198" y="73" width="45" height="19">
<path d="M198.418 73.8486H242.507V91.9939H198.418V73.8486Z" fill="white"/>
</mask>
<g mask="url(#mask7_880_2813)">
<path d="M242.296 84.3918V82.684C242.203 81.3837 241.14 80.3575 239.817 80.3389C239.728 80.3389 239.643 80.3389 239.554 80.3389H228.911V76.6306C228.911 75.8749 228.696 75.1599 228.151 74.6153C227.64 74.0966 226.951 73.8595 226.229 73.8558C225.58 73.8558 224.936 73.8558 224.284 73.8558H214.778C214.652 73.8558 214.529 73.8484 214.407 73.8558C212.985 73.8855 211.862 75.0117 211.825 76.438C211.795 77.7309 211.81 79.0386 211.821 80.3389H201.445C201.293 80.3389 201.141 80.3389 200.989 80.3389C200.322 80.3389 199.703 80.5686 199.211 81.0243C198.733 81.4726 198.481 82.0801 198.44 82.721V85.129C198.44 85.4773 198.44 85.8218 198.44 86.1663C198.44 86.3182 198.44 86.4627 198.451 86.6109C198.455 86.7146 198.466 86.8147 198.477 86.9184C198.477 86.9332 198.481 86.948 198.481 86.9628C198.507 87.1073 198.525 87.2518 198.555 87.3889C198.629 87.7371 198.74 88.0779 198.863 88.4114C198.863 88.4188 198.863 88.4188 198.87 88.4225C198.87 88.4262 198.87 88.4262 198.874 88.4336C198.877 88.441 198.877 88.4484 198.885 88.4558C198.914 88.5262 198.948 88.5966 198.981 88.667C199.048 88.7929 199.111 88.9189 199.181 89.0411C199.192 89.0634 199.2 89.0819 199.214 89.0967C199.311 89.256 199.411 89.4153 199.518 89.5635C199.563 89.6302 199.615 89.682 199.652 89.7487C199.648 89.7376 199.644 89.7265 199.637 89.7191C199.648 89.7339 199.652 89.7413 199.663 89.7524C199.748 89.8562 199.837 89.9599 199.929 90.0599C200.074 90.2155 200.23 90.3637 200.389 90.5082C200.452 90.5674 200.518 90.623 200.585 90.6749C200.596 90.686 200.611 90.6971 200.626 90.7045C200.711 90.7601 200.744 90.7786 200.748 90.786C200.744 90.786 200.719 90.7638 200.685 90.7453C200.789 90.8157 200.889 90.8935 200.993 90.9638C201.271 91.1417 201.559 91.301 201.856 91.4417C202.145 91.5307 201.993 91.4936 201.897 91.4603C201.908 91.464 201.911 91.464 201.923 91.4714C202.008 91.501 202.086 91.5344 202.171 91.5603C202.33 91.6159 202.489 91.664 202.645 91.7085C202.819 91.7529 202.993 91.7937 203.175 91.827C203.234 91.8381 203.293 91.8493 203.353 91.8567C203.386 91.8641 203.423 91.8641 203.453 91.8678C203.893 91.9085 204.338 91.8974 204.783 91.8974H216.274C216.311 91.8974 216.345 91.8974 216.378 91.9011V90.7045C216.378 90.36 216.33 89.9858 216.611 89.7265C216.856 89.5042 217.175 89.5376 217.478 89.5376H223.484C223.543 89.5376 223.609 89.5376 223.669 89.5376C224.054 89.5598 224.328 89.8265 224.376 90.2007C224.384 90.2192 224.384 90.2377 224.384 90.26C224.384 90.2674 224.384 90.2785 224.384 90.2896V91.9085C224.417 91.9011 224.454 91.9011 224.487 91.9011H224.55C225.866 91.8789 227.184 91.9011 228.492 91.9011H236.676C236.891 91.9011 237.098 91.8937 237.313 91.8715C237.35 91.8678 237.394 91.8641 237.435 91.8567C237.487 91.8493 237.539 91.8418 237.591 91.8344C237.765 91.7974 237.943 91.764 238.117 91.7122C238.291 91.6677 238.458 91.6159 238.628 91.5566C238.706 91.5232 238.78 91.4936 238.861 91.464C239.169 91.3232 239.462 91.1676 239.743 90.9824C239.84 90.9231 239.928 90.8638 240.017 90.8008C240.043 90.7786 240.121 90.7193 240.158 90.6971L240.162 90.6897C240.166 90.686 240.177 90.6823 240.177 90.6749C240.247 90.623 240.31 90.5637 240.373 90.5082C240.532 90.3674 240.684 90.2192 240.832 90.0599C240.925 89.9599 241.014 89.8636 241.099 89.7524C241.103 89.7413 241.114 89.7376 241.121 89.7265C241.158 89.6635 241.214 89.6005 241.258 89.5376C241.355 89.4042 241.444 89.2671 241.521 89.1263C241.536 89.0967 241.555 89.0671 241.57 89.0411C241.647 88.9078 241.721 88.7744 241.784 88.6373C241.814 88.5707 241.851 88.5003 241.881 88.4373C242.003 88.1076 242.114 87.7779 242.188 87.4296C242.21 87.3185 242.233 87.2073 242.251 87.0962V87.0925V87.0851C242.251 87.0814 242.251 87.0777 242.251 87.0703C242.251 87.0666 242.251 87.0629 242.255 87.0555C242.262 87.0073 242.27 86.9443 242.277 86.9036C242.285 86.8147 242.292 86.7183 242.296 86.6294C242.299 86.4849 242.307 86.3405 242.311 86.196V85.2143C242.299 84.9216 242.296 84.6586 242.296 84.3918ZM226.444 76.4565C226.444 76.4602 226.444 76.4676 226.447 76.4676V76.4713C226.455 76.4972 226.458 76.5121 226.447 76.4861C226.444 76.4898 226.432 76.4824 226.429 76.4713C226.455 77.7642 226.444 79.0534 226.432 80.3427H214.303V76.7343C214.303 76.6491 214.303 76.5602 214.303 76.475C214.289 76.4972 214.278 76.5009 214.274 76.4972C214.263 76.5121 214.263 76.4824 214.27 76.4454C214.244 76.475 214.229 76.4824 214.27 76.438C214.27 76.4157 214.274 76.4009 214.278 76.3824C214.278 76.3824 214.278 76.3824 214.274 76.3824C214.274 76.3824 214.274 76.3824 214.278 76.3824C214.285 76.3713 214.285 76.3565 214.289 76.3491C214.255 76.3491 214.263 76.3379 214.296 76.3342C214.3 76.3083 214.311 76.2972 214.311 76.3268C214.318 76.3268 214.329 76.3231 214.344 76.3231C214.344 76.3194 214.344 76.3194 214.344 76.312V76.3194C214.363 76.312 214.378 76.312 214.4 76.3083C214.418 76.2861 214.429 76.2824 214.433 76.2787C214.429 76.2824 214.418 76.2935 214.403 76.3083C214.444 76.3009 214.474 76.3009 214.459 76.312C214.463 76.3194 214.459 76.3268 214.437 76.3416C214.478 76.3416 214.518 76.3416 214.559 76.3416H225.884C226.032 76.3416 226.177 76.3379 226.325 76.3416C226.314 76.3379 226.31 76.3379 226.303 76.3342C226.269 76.312 226.281 76.3083 226.303 76.3009C226.288 76.2935 226.295 76.2935 226.31 76.3009C226.314 76.3009 226.325 76.3009 226.329 76.3009C226.31 76.2861 226.299 76.2787 226.295 76.2713C226.295 76.2713 226.31 76.2824 226.332 76.3009C226.355 76.3009 226.373 76.3083 226.395 76.3083C226.403 76.3083 226.41 76.312 226.418 76.312C226.418 76.3009 226.418 76.2972 226.425 76.2972C226.425 76.2972 226.429 76.3009 226.429 76.312C226.473 76.3231 226.492 76.3342 226.429 76.3379C226.429 76.3491 226.429 76.3528 226.429 76.3639C226.444 76.3676 226.455 76.3713 226.458 76.3713C226.455 76.3713 226.44 76.3713 226.429 76.3676V76.3713C226.432 76.3787 226.444 76.3824 226.455 76.3935C226.447 76.3935 226.444 76.3861 226.432 76.3824C226.432 76.3935 226.44 76.3972 226.44 76.4083C226.455 76.4269 226.473 76.4454 226.488 76.4565C226.473 76.4454 226.458 76.4306 226.444 76.4231C226.444 76.4417 226.444 76.4454 226.444 76.4565Z" fill="white"/>
</g>
</svg>
