<svg width="74" height="100" viewBox="0 0 74 100" fill="none" xmlns="http://www.w3.org/2000/svg">
<mask id="mask0_503_1922" style="mask-type:luminance" maskUnits="userSpaceOnUse" x="0" y="11" width="72" height="87">
<path d="M0.505859 11.4802H71.3392V97.2123H0.505859V11.4802Z" fill="white"/>
</mask>
<g mask="url(#mask0_503_1922)">
<path d="M4.98063 13.5635C3.65287 13.5635 2.57452 14.6566 2.57452 15.9917V92.7082C2.57452 94.0433 3.65287 95.129 4.98063 95.129H66.8718C68.1995 95.129 69.2779 94.0433 69.2779 92.7082V15.9917C69.2779 14.6566 68.1995 13.5635 66.8718 13.5635H58.9199V16.982C58.9199 19.036 57.262 20.7012 55.23 20.7012H15.7421C13.7027 20.7012 12.0449 19.036 12.0449 16.982V13.5635H4.98063ZM66.8718 97.2123H4.98063C2.51584 97.2123 0.505859 95.1877 0.505859 92.7082V15.9917C0.505859 13.5049 2.51584 11.4875 4.98063 11.4875H14.1135V16.982C14.1135 17.8843 14.8398 18.6252 15.7421 18.6252H55.23C56.125 18.6252 56.8586 17.8843 56.8586 16.982V11.4875H66.8718C69.3365 11.4875 71.3392 13.5049 71.3392 15.9917V92.7082C71.3392 95.1877 69.3365 97.2123 66.8718 97.2123Z" fill="black"/>
</g>
<path d="M15.7421 8.23061C14.8398 8.23061 14.1136 8.96418 14.1136 9.8738V16.9821C14.1136 17.8844 14.8398 18.6253 15.7421 18.6253H55.2301C56.125 18.6253 56.8586 17.8844 56.8586 16.9821V9.8738C56.8586 8.96418 56.125 8.23061 55.2301 8.23061H46.3319C44.6814 8.23061 43.1775 7.25497 42.4073 5.69247C41.329 3.50643 38.8055 2.09065 35.9886 2.09065C33.1643 2.09065 30.6482 3.50643 29.5625 5.69247C28.7923 7.25497 27.2885 8.23061 25.6453 8.23061H15.7421ZM55.2301 20.7013H15.7421C13.7028 20.7013 12.0449 19.0361 12.0449 16.9821V9.8738C12.0449 7.81981 13.7028 6.15461 15.7421 6.15461H25.6453C26.5035 6.15461 27.2958 5.61911 27.7213 4.76817C29.1444 1.87791 32.3868 0.0146484 35.9886 0.0146484C39.5831 0.0146484 42.8328 1.87791 44.2559 4.76817C44.674 5.61911 45.4736 6.15461 46.3319 6.15461H55.2301C57.2694 6.15461 58.9199 7.81981 58.9199 9.8738V16.9821C58.9199 19.0361 57.2694 20.7013 55.2301 20.7013Z" fill="black"/>
<path d="M37.6612 11.429C37.6612 12.3973 36.8836 13.1749 35.9226 13.1749C34.969 13.1749 34.1914 12.3973 34.1914 11.429C34.1914 10.468 34.969 9.68311 35.9226 9.68311C36.8836 9.68311 37.6612 10.468 37.6612 11.429Z" fill="black"/>
<path d="M57.7907 37.7127H39.7229C38.7693 37.7127 37.999 36.9351 37.999 35.9815C37.999 35.0205 38.7693 34.2502 39.7229 34.2502H57.7907C58.7443 34.2502 59.5146 35.0205 59.5146 35.9815C59.5146 36.9351 58.7443 37.7127 57.7907 37.7127Z" fill="black"/>
<path d="M57.798 56.448H39.7229C38.7693 56.448 37.999 55.6705 37.999 54.7095C37.999 53.7559 38.7693 52.9783 39.7229 52.9783H57.798C58.7443 52.9783 59.5146 53.7559 59.5146 54.7095C59.5146 55.6705 58.7443 56.448 57.798 56.448Z" fill="black"/>
<path d="M17.4878 38.0649C17.8253 38.5857 18.1994 39.0772 18.5882 39.554C18.977 40.0309 19.4098 40.4563 19.8646 40.8598L20.07 41.0358L20.1507 41.1019C20.8182 41.608 21.7645 41.4686 22.2633 40.7938C22.9382 39.8768 23.5471 38.9012 24.2513 38.0062C24.9335 37.0966 25.6304 36.1943 26.2906 35.27C26.9655 34.353 27.6257 33.4214 28.2786 32.4824C28.9315 31.5508 29.5917 30.6118 30.2226 29.6582C30.2666 29.5995 30.2592 29.5188 30.2152 29.4601C30.1565 29.3941 30.0538 29.3794 29.9878 29.4381C29.1075 30.1717 28.2566 30.9273 27.3983 31.6828C26.54 32.4311 25.6891 33.1867 24.8528 33.9569C24.0019 34.7198 23.1876 35.5121 22.3587 36.2897C21.9626 36.6711 21.5444 37.0379 21.119 37.4047C21.053 37.3387 20.9869 37.2726 20.9136 37.214C20.4441 36.8178 19.9526 36.4437 19.4391 36.0989C18.9256 35.7542 18.3901 35.424 17.8179 35.138C17.2604 34.8372 16.6589 34.5804 15.9987 34.375C15.9693 34.3677 15.9326 34.3677 15.896 34.375C15.8006 34.4044 15.7419 34.5071 15.7713 34.6098C15.9693 35.27 16.2334 35.8715 16.5268 36.4364C16.8129 37.0159 17.143 37.5514 17.4878 38.0649Z" fill="black"/>
<path d="M29.9878 48.1734C29.1075 48.907 28.2566 49.6625 27.3983 50.4181C26.54 51.1664 25.6891 51.9219 24.8528 52.6922C24.0019 53.4478 23.1876 54.24 22.3587 55.0176C21.9626 55.4064 21.5444 55.7732 21.119 56.1399C21.053 56.0739 20.9869 56.0079 20.9136 55.9419C20.4441 55.5531 19.9526 55.179 19.4391 54.8342C18.9256 54.4894 18.3901 54.1593 17.8179 53.8732C17.2604 53.5725 16.6589 53.3084 15.9987 53.1103C15.9693 53.0956 15.9326 53.0956 15.896 53.1103C15.8006 53.1397 15.7419 53.2424 15.7713 53.3377C15.9693 54.0053 16.2334 54.6068 16.5268 55.1716C16.8129 55.7438 17.143 56.2793 17.4878 56.8002C17.8253 57.321 18.1994 57.8125 18.5882 58.282C18.977 58.7588 19.4098 59.1843 19.8646 59.5877L20.07 59.7638L20.1507 59.8371C20.8182 60.336 21.7645 60.1966 22.2633 59.529C22.9382 58.6121 23.5471 57.6364 24.2513 56.7415C24.9335 55.8245 25.6304 54.9296 26.2906 53.9979C26.9655 53.081 27.6257 52.1493 28.2786 51.2104C28.9315 50.2787 29.5917 49.3471 30.2226 48.3935C30.2666 48.3348 30.2592 48.2541 30.2152 48.1954C30.1565 48.1221 30.0538 48.1147 29.9878 48.1734Z" fill="black"/>
<path d="M29.9878 66.9014C29.1075 67.6349 28.2566 68.3905 27.3983 69.1461C26.54 69.8943 25.6891 70.6572 24.8528 71.4275C24.0019 72.1831 23.1876 72.9753 22.3587 73.7529C21.9626 74.1417 21.5444 74.5085 21.119 74.8679C21.053 74.8092 20.9869 74.7359 20.9136 74.6772C20.4441 74.2884 19.9526 73.9143 19.4391 73.5695C18.9256 73.2174 18.3901 72.8946 17.8179 72.6012C17.2604 72.3078 16.6589 72.0437 15.9987 71.8383C15.9693 71.831 15.9326 71.831 15.896 71.8383C15.8006 71.8676 15.7419 71.9703 15.7713 72.073C15.9693 72.7332 16.2334 73.3348 16.5268 73.9069C16.8129 74.4791 17.143 75.0146 17.4878 75.5355C17.8253 76.049 18.1994 76.5405 18.5882 77.0173C18.977 77.4941 19.4098 77.9196 19.8646 78.323L20.07 78.4991L20.1507 78.5651C20.8182 79.0713 21.7645 78.9319 22.2633 78.257C22.9382 77.3474 23.5471 76.3644 24.2513 75.4694C24.9335 74.5598 25.6304 73.6649 26.2906 72.7332C26.9655 71.8163 27.6257 70.8846 28.2786 69.9457C28.9315 69.0141 29.5917 68.0824 30.2226 67.1214C30.2666 67.0628 30.2592 66.9821 30.2152 66.9234C30.1565 66.8574 30.0538 66.85 29.9878 66.9014Z" fill="black"/>
<path d="M57.798 75.1761H39.7229C38.7693 75.1761 37.999 74.3985 37.999 73.4448C37.999 72.4912 38.7693 71.7136 39.7229 71.7136H57.798C58.7443 71.7136 59.5146 72.4912 59.5146 73.4448C59.5146 74.3985 58.7443 75.1761 57.798 75.1761Z" fill="black"/>
</svg>
