<svg width="116" height="100" viewBox="0 0 116 100" fill="none" xmlns="http://www.w3.org/2000/svg">
<g clip-path="url(#clip0_503_1942)">
<path d="M25.7089 76.5283L29.2267 81.3951C28.3302 81.8562 27.3653 82.1721 26.3493 82.3344C25.8626 82.4112 25.3759 82.4539 24.8807 82.4624L25.7089 76.5283ZM24.7782 84.0078C25.3845 84.0078 25.9992 83.9566 26.5969 83.8542C28.0996 83.6151 29.4999 83.0857 30.7721 82.2917L31.4722 81.8647L24.7099 72.4897L23.1133 83.9139L23.9415 83.9737C24.2147 83.9908 24.4965 84.0078 24.7782 84.0078Z" fill="black"/>
<path d="M15.1977 70.6371L21.5245 72.9595L20.5853 80.7805C17.8104 79.7474 15.7015 76.9297 15.2233 73.5144C15.0867 72.5496 15.0782 71.5848 15.1977 70.6371ZM13.8401 69.4332C13.5327 70.842 13.4815 72.2849 13.6864 73.7279C14.3012 78.108 17.264 81.6514 21.0635 82.5394L21.9088 82.7272L23.2066 71.9349L14.028 68.5623L13.8401 69.4332Z" fill="black"/>
<path d="M26.2467 69.3219L17.5462 66.5812C18.1012 65.4712 18.8867 64.4893 19.8601 63.7038C20.1333 63.4818 20.4236 63.2769 20.731 63.0805C21.7214 62.4657 22.8229 62.0559 23.9926 61.868C24.6842 61.757 25.3843 61.7229 26.0759 61.7741C26.426 61.8083 26.7846 61.851 27.1432 61.9193C30.7037 62.6365 33.4871 65.5139 34.0677 69.0743C34.2641 70.2611 34.2129 71.4394 33.9226 72.5921C33.8287 72.9422 33.7262 73.2837 33.5981 73.6167H33.5896C33.1456 74.7693 32.4455 75.8195 31.566 76.6905L26.2467 69.3219ZM35.0411 74.1717C35.1948 73.7789 35.3229 73.3776 35.4253 72.9763C35.7669 71.6102 35.8266 70.2185 35.5961 68.8267C34.913 64.6344 31.6343 61.2533 27.4421 60.408C27.0322 60.3312 26.6138 60.2714 26.1869 60.2372C25.3758 60.1775 24.5561 60.2116 23.745 60.3482C22.3618 60.5702 21.0725 61.0484 19.9028 61.7827C19.5527 62.0047 19.2026 62.2523 18.8782 62.517C17.4865 63.644 16.4106 65.1126 15.7617 66.7775L15.4629 67.5374L25.2819 70.6368L31.2843 78.9445L31.9246 78.4323C33.3164 77.3052 34.3922 75.8281 35.0411 74.1717Z" fill="black"/>
<mask id="mask0_503_1942" style="mask-type:luminance" maskUnits="userSpaceOnUse" x="0" y="0" width="79" height="98">
<path d="M0 0.427002H78.6885V97.4215H0V0.427002Z" fill="white"/>
</mask>
<g mask="url(#mask0_503_1942)">
<path d="M75.4698 90.8386C75.4698 93.5623 73.2328 95.7823 70.4835 95.7823H6.51491C3.76559 95.7823 1.52857 93.5623 1.52857 90.8386V7.01007C1.52857 4.27783 3.76559 2.05788 6.51491 2.05788H70.4835C73.2328 2.05788 75.4698 4.27783 75.4698 7.01007V36.6463C75.0173 36.8 74.5648 36.9708 74.1208 37.1501C72.8827 37.6624 71.6788 38.3028 70.5603 39.0456C70.1932 39.2932 69.826 39.5579 69.4674 39.8311V8.02612H7.53096V89.8226H69.4674V72.4387C69.826 72.7119 70.1932 72.9766 70.5689 73.2157C71.6874 73.967 72.8827 74.5989 74.1208 75.1112C74.5562 75.2905 75.0173 75.4612 75.4698 75.6149V90.8386ZM74.7185 73.6853C73.5743 73.2157 72.4644 72.6265 71.4312 71.9349C70.6543 71.4226 69.9114 70.842 69.2113 70.2187L67.9135 69.049V88.2857H9.08492V9.56301H67.9135V43.2123L69.2113 42.0425C69.9114 41.4192 70.6543 40.8386 71.4312 40.3263C72.4644 39.6433 73.5658 39.0456 74.7185 38.576C75.2905 38.3455 75.8797 38.132 76.4688 37.9527L77.0238 37.7819V7.01007C77.0238 3.43254 74.0866 0.520996 70.4835 0.520996H6.51491C2.91177 0.520996 -0.0253906 3.43254 -0.0253906 7.01007V90.8386C-0.0253906 94.4161 2.91177 97.3277 6.51491 97.3277H70.4835C74.0866 97.3277 77.0238 94.4161 77.0238 90.8386V74.4793L76.4688 74.3086C75.8797 74.1293 75.282 73.9243 74.7185 73.6853Z" fill="black"/>
</g>
<path d="M60.2201 19.8429H16.7775C15.8639 19.8429 15.1126 19.1001 15.1126 18.1865C15.1126 17.2729 15.8639 16.53 16.7775 16.53H60.2201C61.1423 16.53 61.8936 17.2729 61.8936 18.1865C61.8936 19.1001 61.1423 19.8429 60.2201 19.8429ZM60.2201 14.9932H16.7775C15.0016 14.9932 13.5586 16.4276 13.5586 18.1865C13.5586 19.9539 15.0016 21.3883 16.7775 21.3883H60.2201C61.9961 21.3883 63.4391 19.9539 63.4391 18.1865C63.4391 16.4276 61.9961 14.9932 60.2201 14.9932Z" fill="black"/>
<path d="M60.2201 31.6085H16.7775C15.8639 31.6085 15.1126 30.8657 15.1126 29.9521C15.1126 29.0385 15.8639 28.2871 16.7775 28.2871H60.2201C61.1423 28.2871 61.8936 29.0385 61.8936 29.9521C61.8936 30.8657 61.1423 31.6085 60.2201 31.6085ZM60.2201 26.7502H16.7775C15.0016 26.7502 13.5586 28.1847 13.5586 29.9521C13.5586 31.711 15.0016 33.1454 16.7775 33.1454H60.2201C61.9961 33.1454 63.4391 31.711 63.4391 29.9521C63.4391 28.1847 61.9961 26.7502 60.2201 26.7502Z" fill="black"/>
<path d="M60.2201 43.3658H16.7775C15.8639 43.3658 15.1126 42.623 15.1126 41.7094C15.1126 40.7958 15.8639 40.053 16.7775 40.053H60.2201C61.1423 40.053 61.8936 40.7958 61.8936 41.7094C61.8936 42.623 61.1423 43.3658 60.2201 43.3658ZM60.2201 38.5076H16.7775C15.0016 38.5076 13.5586 39.9505 13.5586 41.7094C13.5586 43.4768 15.0016 44.9027 16.7775 44.9027H60.2201C61.9961 44.9027 63.4391 43.4768 63.4391 41.7094C63.4391 39.9505 61.9961 38.5076 60.2201 38.5076Z" fill="black"/>
<path d="M45.3634 64.7541V81.9757H42.0249V64.7541C42.0249 63.8405 42.7763 63.0977 43.6984 63.0977C44.6205 63.0977 45.3634 63.8405 45.3634 64.7541ZM40.4795 64.7541V83.5212H46.9173V64.7541C46.9173 62.9867 45.4744 61.5522 43.6984 61.5522C41.9225 61.5522 40.4795 62.9867 40.4795 64.7541Z" fill="black"/>
<path d="M53.6287 72.1994V81.9757H50.2903V72.1994C50.2903 71.2773 51.0417 70.5344 51.9638 70.5344C52.8774 70.5344 53.6287 71.2773 53.6287 72.1994ZM48.7363 72.1994V83.5211H55.1827V72.1994C55.1827 70.432 53.7397 68.9976 51.9638 68.9976C50.1878 68.9976 48.7363 70.432 48.7363 72.1994Z" fill="black"/>
<path d="M61.8934 81.9759H58.5549V78.0141C58.5549 77.1005 59.3063 76.3577 60.2199 76.3577C61.142 76.3577 61.8934 77.1005 61.8934 78.0141V81.9759ZM60.2199 74.8208C58.4439 74.8208 57.001 76.2552 57.001 78.0141V83.5213H63.4388V78.0141C63.4388 76.2552 61.9959 74.8208 60.2199 74.8208Z" fill="black"/>
<mask id="mask1_503_1942" style="mask-type:luminance" maskUnits="userSpaceOnUse" x="65" y="39" width="50" height="49">
<path d="M65.5742 39.3442H114.78V87.4317H65.5742V39.3442Z" fill="white"/>
</mask>
<g mask="url(#mask1_503_1942)">
<path d="M111.775 84.7166C111.16 85.357 110.332 85.707 109.444 85.7327C108.547 85.7327 107.711 85.4167 107.07 84.8105L96.3719 74.6073C95.8084 74.0694 95.5523 73.2753 95.706 72.5069L95.7828 72.0971L91.2661 67.7853C91.4966 67.5803 91.7101 67.3583 91.9406 67.1449C92.1455 66.9656 92.3675 66.7863 92.5639 66.5814C93.0079 66.1374 93.4092 65.6678 93.7934 65.1811C93.8361 65.1299 93.8788 65.0872 93.9129 65.0445L98.4382 69.3563L98.848 69.2624C99.6165 69.0831 100.419 69.2965 100.983 69.8344L111.681 80.0376C113.004 81.3013 113.047 83.4017 111.775 84.7166ZM72.6015 65.497C70.0827 62.9953 68.6909 59.6654 68.6909 56.1305C68.6909 52.5957 70.0827 49.2743 72.6015 46.7641C75.1288 44.2624 78.4758 42.8877 82.0362 42.8877C85.5967 42.8877 88.9437 44.2624 91.4624 46.7641C93.9898 49.2743 95.373 52.5957 95.373 56.1305C95.373 59.0933 94.3911 61.8939 92.598 64.2077C92.2565 64.6176 91.9064 65.0189 91.5308 65.4031C91.3941 65.5482 91.249 65.6763 91.1038 65.8215C88.6277 68.1097 85.4344 69.3819 82.0362 69.3819C78.4758 69.3819 75.1288 67.9987 72.6015 65.497ZM112.757 78.9277L102.058 68.7245C101.222 67.9219 100.069 67.5462 98.9249 67.6828L94.7924 63.7381C96.1756 61.4584 96.9269 58.8542 96.9269 56.1305C96.9269 52.1859 95.3815 48.4717 92.5639 45.6797C89.7463 42.8792 86.0065 41.3423 82.0362 41.3423C78.0574 41.3423 74.3262 42.8792 71.5086 45.6797C68.6909 48.4803 67.1455 52.1859 67.1455 56.1305C67.1455 60.0752 68.6909 63.7893 71.5086 66.5814C74.3262 69.3819 78.0659 70.9188 82.0362 70.9188C84.8709 70.9188 87.5861 70.1247 89.9341 68.6562L94.1178 72.6435C94.0325 73.7876 94.4594 74.9147 95.2961 75.7173L105.995 85.9205C106.908 86.7914 108.104 87.2695 109.376 87.2695C109.41 87.2695 109.444 87.2695 109.47 87.2695C110.776 87.2439 111.988 86.7146 112.893 85.7839C114.763 83.8542 114.704 80.7805 112.757 78.9277Z" fill="black"/>
</g>
</g>
<defs>
<clipPath id="clip0_503_1942">
<rect width="116.393" height="100" fill="white"/>
</clipPath>
</defs>
</svg>
