<svg width="76" height="100" viewBox="0 0 76 100" fill="none" xmlns="http://www.w3.org/2000/svg">
<mask id="mask0_503_1962" style="mask-type:luminance" maskUnits="userSpaceOnUse" x="0" y="0" width="74" height="98">
<path d="M0.430664 0H73.7245V97.1624H0.430664V0Z" fill="white"/>
</mask>
<g mask="url(#mask0_503_1962)">
<path d="M71.7131 30.9088C71.7131 38.4788 55.8995 44.8725 37.1765 44.8725C18.4624 44.8725 2.64881 38.4788 2.64881 30.9088V21.2374C7.53387 27.5054 20.9588 31.9055 37.1765 31.9055C53.4031 31.9055 66.828 27.5144 71.7131 21.2374V30.9088ZM71.7131 47.7371C71.7131 55.3071 55.8995 61.7008 37.1765 61.7008C18.4624 61.7008 2.64881 55.3071 2.64881 47.7371V36.1979C7.53387 42.4659 20.9588 46.866 37.1765 46.866C53.4031 46.866 66.828 42.4659 71.7131 36.1979V47.7371ZM71.7131 64.278C71.7131 71.8481 55.8995 78.2417 37.1765 78.2417C18.4624 78.2417 2.64881 71.8481 2.64881 64.278V53.0262C7.53387 59.2942 20.9588 63.6943 37.1765 63.6943C53.4031 63.6943 66.828 59.2942 71.7131 53.0262V64.278ZM71.7131 81.4206C71.7131 88.9907 55.8995 95.3843 37.1765 95.3843C18.4624 95.3843 2.64881 88.9907 2.64881 81.4206V69.5672C7.53387 75.8351 20.9588 80.2263 37.1765 80.2263C53.4031 80.2263 66.828 75.8351 71.7131 69.5672V81.4206ZM37.1765 1.98455C55.8906 1.98455 71.6952 8.36925 71.7131 15.9393V15.9662C71.6952 23.5363 55.8906 29.912 37.1765 29.912C18.4624 29.912 2.64881 23.5273 2.64881 15.9483C2.64881 8.38721 18.4624 1.98455 37.1765 1.98455ZM73.6977 15.9483V15.9393V14.0715C73.6977 13.6943 73.4821 13.38 73.1768 13.2184C70.2853 5.62141 55.5134 0 37.1765 0C16.7023 0 0.655273 7.00431 0.655273 15.9483C0.655273 16.1009 0.673234 16.2536 0.682214 16.3973C0.673234 16.4422 0.655273 16.4871 0.655273 16.523V81.4206C0.655273 90.3646 16.7023 97.3689 37.1765 97.3689C57.6596 97.3689 73.6977 90.3646 73.6977 81.4206V15.9752C73.6977 15.9662 73.6977 15.9573 73.6977 15.9483Z" fill="black"/>
</g>
</svg>
