<svg width="36" height="36" viewBox="0 0 36 36" fill="none" xmlns="http://www.w3.org/2000/svg">
<g clip-path="url(#clip0_1864_1816)">
<mask id="mask0_1864_1816" style="mask-type:luminance" maskUnits="userSpaceOnUse" x="0" y="0" width="36" height="36">
<path d="M0.0419922 0.0413818H35.4299V35.4292H0.0419922V0.0413818Z" fill="white"/>
</mask>
<g mask="url(#mask0_1864_1816)">
<path d="M0.0419922 33.7059V3.58734C0.0419922 3.35021 0.0861098 3.1241 0.177102 2.90903C0.268095 2.6912 0.394933 2.49818 0.560375 2.33274C0.725816 2.1673 0.918831 2.03771 1.13666 1.94947C1.35174 1.85848 1.57784 1.81436 1.81497 1.81436H17.7607C17.9951 1.81436 18.2212 1.85848 18.4391 1.94947C18.6541 2.03771 18.8471 2.1673 19.0126 2.33274C19.178 2.49818 19.3076 2.6912 19.3986 2.90903C19.4868 3.1241 19.531 3.35021 19.531 3.58734C19.531 3.82171 19.4868 4.04782 19.3986 4.26289C19.3076 4.48072 19.178 4.67374 19.0126 4.83918C18.8471 5.00462 18.6541 5.13421 18.4391 5.22245C18.2212 5.31344 17.9951 5.35756 17.7607 5.35756H3.58519V31.9357H30.1633V17.7601C30.1633 17.5258 30.2074 17.2997 30.2984 17.0818C30.3867 16.8667 30.5163 16.6737 30.6817 16.5083C30.8471 16.3429 31.0402 16.2133 31.258 16.125C31.4731 16.034 31.6992 15.9899 31.9363 15.9899C32.1707 15.9899 32.3968 16.034 32.6118 16.125C32.8297 16.2133 33.0227 16.3429 33.1881 16.5083C33.3536 16.6737 33.4832 16.8667 33.5714 17.0818C33.6624 17.2997 33.7065 17.5258 33.7065 17.7601V33.7059C33.7065 33.943 33.6624 34.1691 33.5714 34.3842C33.4832 34.602 33.3536 34.7951 33.1881 34.9605C33.0227 35.1259 32.8297 35.2555 32.6118 35.3438C32.3968 35.4348 32.1707 35.4789 31.9363 35.4789H1.81497C1.57784 35.4789 1.35174 35.4348 1.13666 35.3438C0.918831 35.2555 0.725816 35.1259 0.560375 34.9605C0.394933 34.7951 0.268095 34.602 0.177102 34.3842C0.0861098 34.1691 0.0419922 33.943 0.0419922 33.7059ZM32.7414 0.562522C32.576 0.394323 32.383 0.267485 32.1652 0.176492C31.9501 0.0882568 31.724 0.0413818 31.4868 0.0413818C31.2525 0.0413818 31.0264 0.0882568 30.8085 0.176492C30.5907 0.267485 30.4004 0.394323 30.235 0.562522L18.4942 12.3006V17.0267H23.2203L34.9584 5.28587C35.1266 5.12043 35.2534 4.93017 35.3444 4.71234C35.4354 4.49451 35.4795 4.2684 35.4795 4.03403C35.4795 3.79965 35.4354 3.57079 35.3444 3.35572C35.2534 3.13789 35.1266 2.94487 34.9584 2.77943L32.7414 0.562522Z" fill="#1E5192"/>
</g>
</g>
<defs>
<clipPath id="clip0_1864_1816">
<rect width="36" height="36" fill="white"/>
</clipPath>
</defs>
</svg>
