<svg width="36" height="30" viewBox="0 0 36 30" fill="none" xmlns="http://www.w3.org/2000/svg">
<g clip-path="url(#clip0_1577_2548)">
<mask id="mask0_1577_2548" style="mask-type:luminance" maskUnits="userSpaceOnUse" x="0" y="0" width="33" height="28">
<path d="M0 0.152405H32.6809V27.5107H0V0.152405Z" fill="white"/>
</mask>
<g mask="url(#mask0_1577_2548)">
<path d="M0.664574 27.3511C0.345425 27.3511 0.0869141 27.0918 0.0869141 26.7734V3.45559C0.0869141 1.70187 1.51431 0.274475 3.26883 0.274475H11.6433C13.247 0.274475 14.5779 1.46889 14.7933 3.01437H29.0648C31.0077 3.01437 32.5882 4.59575 32.5882 6.53937V10.5567C32.5882 10.8758 32.3297 11.1343 32.0106 11.1343C31.6906 11.1343 31.4329 10.8758 31.4329 10.5567V6.53937C31.4329 5.23245 30.3702 4.16969 29.0648 4.16969H14.2468C13.9268 4.16969 13.6691 3.91118 13.6691 3.59203V3.45559C13.6691 2.33857 12.7603 1.42979 11.6433 1.42979H3.26883C2.15101 1.42979 1.24223 2.33857 1.24223 3.45559V26.7734C1.24223 27.0926 0.98452 27.3511 0.664574 27.3511Z" fill="#1E5192"/>
</g>
<path d="M29.8189 29.4878H2.4519C1.70509 29.4878 1.05084 29.1934 0.60802 28.6572C0.168392 28.1242 -0.00315043 27.3982 0.137275 26.6641L2.85722 12.5841C3.13648 11.1471 4.54472 9.979 5.99605 9.979H33.3623C34.1099 9.979 34.7657 10.2742 35.2085 10.8112C35.6482 11.3442 35.8197 12.0702 35.6769 12.8027L32.9578 26.8827C32.6785 28.3197 31.271 29.4878 29.8189 29.4878ZM5.99525 11.1343C5.08488 11.1343 4.16653 11.8995 3.9902 12.8043L1.27105 26.8827C1.19525 27.2825 1.27584 27.6519 1.49924 27.9216C1.71786 28.1865 2.05616 28.3325 2.4519 28.3325H29.8189C30.7293 28.3325 31.6476 27.5681 31.8232 26.6633L34.5431 12.5841C34.6197 12.1851 34.5391 11.8165 34.3165 11.5468C34.0971 11.2811 33.758 11.1343 33.3623 11.1343H5.99525Z" fill="#1E5192"/>
<path d="M3.44192 13.1889C3.12277 13.1889 2.86426 12.9304 2.86426 12.6112V7.2168C2.86426 6.68701 3.29511 6.25696 3.8241 6.25696H28.2454C28.7728 6.25696 29.2028 6.68781 29.2028 7.2168V10.5575C29.2028 10.8766 28.9443 11.1351 28.6252 11.1351C28.306 11.1351 28.0475 10.8766 28.0475 10.5575V7.41228H4.01958V12.6112C4.01958 12.9304 3.76186 13.1889 3.44192 13.1889Z" fill="#1E5192"/>
</g>
<defs>
<clipPath id="clip0_1577_2548">
<rect width="36" height="29.7191" fill="white" transform="translate(0 0.140442)"/>
</clipPath>
</defs>
</svg>
