<svg width="36" height="30" viewBox="0 0 36 30" fill="none" xmlns="http://www.w3.org/2000/svg">
<g clip-path="url(#clip0_1864_1822)">
<mask id="mask0_1864_1822" style="mask-type:luminance" maskUnits="userSpaceOnUse" x="0" y="0" width="33" height="28">
<path d="M0 0.0119629H32.6809V27.3702H0V0.0119629Z" fill="white"/>
</mask>
<g mask="url(#mask0_1864_1822)">
<path d="M0.664574 27.2106C0.345425 27.2106 0.0869141 26.9513 0.0869141 26.633V3.31515C0.0869141 1.56143 1.51431 0.134033 3.26883 0.134033H11.6433C13.247 0.134033 14.5779 1.32845 14.7933 2.87393H29.0648C31.0077 2.87393 32.5882 4.45531 32.5882 6.39893V10.4162C32.5882 10.7354 32.3297 10.9939 32.0106 10.9939C31.6906 10.9939 31.4329 10.7354 31.4329 10.4162V6.39893C31.4329 5.09201 30.3702 4.02925 29.0648 4.02925H14.2468C13.9268 4.02925 13.6691 3.77074 13.6691 3.45159V3.31515C13.6691 2.19813 12.7603 1.28935 11.6433 1.28935H3.26883C2.15101 1.28935 1.24223 2.19813 1.24223 3.31515V26.633C1.24223 26.9521 0.98452 27.2106 0.664574 27.2106Z" fill="white"/>
</g>
<path d="M29.8189 29.3474H2.4519C1.70509 29.3474 1.05084 29.053 0.60802 28.5168C0.168392 27.9838 -0.00315043 27.2578 0.137275 26.5237L2.85722 12.4437C3.13648 11.0067 4.54472 9.83862 5.99605 9.83862H33.3623C34.1099 9.83862 34.7657 10.1338 35.2086 10.6708C35.6482 11.2038 35.8197 11.9298 35.6769 12.6623L32.9578 26.7423C32.6785 28.1793 31.2711 29.3474 29.8189 29.3474ZM5.99525 10.9939C5.08488 10.9939 4.16653 11.7591 3.9902 12.6639L1.27105 26.7423C1.19525 27.1421 1.27584 27.5115 1.49924 27.7812C1.71786 28.0461 2.05616 28.1921 2.4519 28.1921H29.8189C30.7293 28.1921 31.6476 27.4277 31.8232 26.5229L34.5431 12.4437C34.6197 12.0447 34.5391 11.6761 34.3165 11.4064C34.0971 11.1408 33.758 10.9939 33.3623 10.9939H5.99525Z" fill="white"/>
<path d="M3.44192 13.0484C3.12277 13.0484 2.86426 12.7899 2.86426 12.4707V7.0763C2.86426 6.54651 3.29511 6.11646 3.8241 6.11646H28.2454C28.7728 6.11646 29.2028 6.54731 29.2028 7.0763V10.417C29.2028 10.7361 28.9443 10.9946 28.6252 10.9946C28.306 10.9946 28.0475 10.7361 28.0475 10.417V7.27177H4.01958V12.4707C4.01958 12.7899 3.76186 13.0484 3.44192 13.0484Z" fill="white"/>
</g>
<defs>
<clipPath id="clip0_1864_1822">
<rect width="36" height="29.7191" fill="white"/>
</clipPath>
</defs>
</svg>
