<svg width="40" height="50" viewBox="0 0 40 50" fill="none" xmlns="http://www.w3.org/2000/svg">
<g clip-path="url(#clip0_1146_1773)">
<mask id="mask0_1146_1773" style="mask-type:luminance" maskUnits="userSpaceOnUse" x="0" y="0" width="40" height="50">
<path d="M0.147461 0H39.8523V49.6296H0.147461V0Z" fill="white"/>
</mask>
<g mask="url(#mask0_1146_1773)">
<path d="M35.0578 -0.0839233H4.7742C2.22211 -0.0839233 0.147461 1.99073 0.147461 4.54281V44.9219C0.147461 47.4739 2.22211 49.5486 4.7742 49.5486H35.0578C37.6099 49.5486 39.6845 47.4739 39.6845 44.9219V4.54281C39.6845 1.99073 37.6099 -0.0839233 35.0578 -0.0839233ZM21.1313 6.7361C21.7765 6.48436 22.5115 6.79108 22.769 7.43923L24.9623 12.9224L27.1556 7.43923C27.416 6.79108 28.1509 6.48436 28.7962 6.7361C29.4443 6.99362 29.7568 7.72858 29.4993 8.37673L26.1342 16.7882C25.9432 17.2685 25.4802 17.581 24.9623 17.581C24.4472 17.581 23.9843 17.2685 23.7904 16.7882L20.4281 8.37673C20.1677 7.72858 20.4831 6.99362 21.1313 6.7361ZM14.6295 6.6464C15.8679 6.6464 17.0485 7.16723 17.9513 8.11341C18.4316 8.61689 18.4114 9.4155 17.9079 9.89582C17.4044 10.379 16.6058 10.3588 16.1255 9.85531C15.8245 9.54281 15.324 9.16955 14.6295 9.16955C13.3361 9.16955 12.2858 10.489 12.2858 12.1123C12.2858 13.7355 13.3361 15.0579 14.6295 15.0579C15.1735 15.0579 15.7059 14.8148 16.1255 14.3721C16.6058 13.8686 17.4073 13.8484 17.9108 14.3287C18.4142 14.809 18.4345 15.6076 17.9542 16.114C17.0514 17.0602 15.8708 17.581 14.6295 17.581C11.9472 17.581 9.76262 15.1273 9.76262 12.1123C9.76262 9.10011 11.9472 6.6464 14.6295 6.6464ZM19.916 42.8183H8.13936C7.44202 42.8183 6.87779 42.254 6.87779 41.5567C6.87779 40.8594 7.44202 40.2951 8.13936 40.2951H19.916C20.6133 40.2951 21.1776 40.8594 21.1776 41.5567C21.1776 42.254 20.6133 42.8183 19.916 42.8183ZM31.6926 34.4068H8.13936C7.44202 34.4068 6.87779 33.8397 6.87779 33.1452C6.87779 32.4479 7.44202 31.8837 8.13936 31.8837H31.6926C32.3899 31.8837 32.9542 32.4479 32.9542 33.1452C32.9542 33.8397 32.3899 34.4068 31.6926 34.4068ZM31.6926 25.9925H8.13936C7.44202 25.9925 6.87779 25.4282 6.87779 24.7309C6.87779 24.0364 7.44202 23.4693 8.13936 23.4693H31.6926C32.3899 23.4693 32.9542 24.0364 32.9542 24.7309C32.9542 25.4282 32.3899 25.9925 31.6926 25.9925Z" fill="#FE6601"/>
</g>
</g>
<defs>
<clipPath id="clip0_1146_1773">
<rect width="40" height="50" fill="white"/>
</clipPath>
</defs>
</svg>
