<svg width="18" height="18" viewBox="0 0 18 18" fill="none" xmlns="http://www.w3.org/2000/svg">
<path d="M3.75 3.75H8.25C8.6625 3.75 9 3.4125 9 3C9 2.5875 8.6625 2.25 8.25 2.25H3.75C2.925 2.25 2.25 2.925 2.25 3.75V14.25C2.25 15.075 2.925 15.75 3.75 15.75H8.25C8.6625 15.75 9 15.4125 9 15C9 14.5875 8.6625 14.25 8.25 14.25H3.75V3.75Z" fill="white"/>
<path d="M16.7375 8.73741L14.645 6.64491C14.5928 6.59132 14.5259 6.55452 14.4527 6.53921C14.3795 6.5239 14.3034 6.53078 14.2341 6.55897C14.1648 6.58716 14.1056 6.63537 14.0639 6.69745C14.0222 6.75952 13.9999 6.83263 14 6.90741V8.24991H8.75C8.3375 8.24991 8 8.58741 8 8.99991C8 9.41241 8.3375 9.74991 8.75 9.74991H14V11.0924C14 11.4299 14.405 11.5949 14.6375 11.3549L16.73 9.26241C16.88 9.11991 16.88 8.87991 16.7375 8.73741Z" fill="white"/>
</svg>
