<svg width="49" height="50" viewBox="0 0 49 50" fill="none" xmlns="http://www.w3.org/2000/svg">
<g clip-path="url(#clip0_1146_1786)">
<mask id="mask0_1146_1786" style="mask-type:luminance" maskUnits="userSpaceOnUse" x="0" y="0" width="48" height="49">
<path d="M0 0.740753H47.2338V48.8889H0V0.740753Z" fill="white"/>
</mask>
<g mask="url(#mask0_1146_1786)">
<path fill-rule="evenodd" clip-rule="evenodd" d="M23.6169 1.08798C10.5729 1.08798 0 11.713 0 24.8177C0 37.9225 10.5729 48.5475 23.6169 48.5475C36.6609 48.5475 47.2338 37.9225 47.2338 24.8177C47.2338 11.713 36.6609 1.08798 23.6169 1.08798ZM3.93519 24.8177C3.93519 13.8947 12.7488 5.04342 23.6169 5.04342C34.4879 5.04342 43.2986 13.8947 43.2986 24.8177C43.2986 33.7153 37.4479 41.2413 29.401 43.724C29.621 39.728 29.5457 37.2512 29.1725 36.2963C28.7818 35.2894 28.4635 34.8756 28.2726 34.6297C28.1482 34.4676 28.0758 34.375 28.0758 34.2332C28.0758 33.996 28.2436 33.8253 28.5764 33.7182C31.4757 33.0758 33.4201 31.2847 34.4097 28.3478C35.7784 24.2766 33.8223 21.3195 33.0324 20.1215C32.9659 20.0232 32.908 19.9364 32.8617 19.8611C32.2454 18.8831 33.0527 16.5075 34.0162 14.6065C30.7407 13.9468 29.4907 15.4746 28.7732 16.3513C28.4809 16.7101 28.2755 16.9589 28.0585 16.9068C27.8646 16.8606 27.6591 16.768 27.4074 16.658C26.6927 16.3426 25.6395 15.8768 23.6169 15.8768C21.1111 15.8768 19.4502 16.7564 19.1956 16.8895C19.1754 16.9011 19.1638 16.9068 19.1638 16.9068C17.8443 15.0608 15.9751 14.294 13.5503 14.6065C14.2188 17.2888 14.2679 19.0394 13.7008 19.8611C12.8501 21.0938 11.2558 23.9612 12.4942 28.3478C13.7326 32.7344 18.2407 33.7182 19.0972 33.7182L19.103 33.7211C19.1725 33.7356 19.8032 33.8715 19.6152 34.4068C19.5775 34.5515 19.5515 34.7454 19.5226 34.9624C19.4358 35.6655 19.3142 36.6204 18.6429 36.93C17.7633 37.338 15.8247 37.5579 15.0116 37.0515C14.7425 36.8808 14.5486 36.5278 14.3142 36.1025C13.8455 35.2489 13.2205 34.1059 11.5046 33.5735C8.93229 32.7749 9.09433 33.831 9.73669 34.0886C9.87847 34.1464 10.0637 34.1985 10.2778 34.2593C11.0359 34.4763 12.1238 34.7859 12.6823 35.6887C12.8472 35.952 13.015 36.2413 13.1887 36.5394C13.7674 37.5376 14.3895 38.6111 15.0116 39.022C15.5498 39.375 16.8374 39.5197 18.8773 39.4474C18.7876 41.3802 18.7413 42.8906 18.7355 43.9786C10.2286 41.7969 3.93519 34.0452 3.93519 24.8177Z" fill="#FE6601"/>
</g>
</g>
<defs>
<clipPath id="clip0_1146_1786">
<rect width="48.3333" height="50" fill="white"/>
</clipPath>
</defs>
</svg>
