<svg width="90" height="100" viewBox="0 0 90 100" fill="none" xmlns="http://www.w3.org/2000/svg">
<mask id="mask0_503_1813" style="mask-type:luminance" maskUnits="userSpaceOnUse" x="0" y="57" width="88" height="42">
<path d="M0.511719 57.4712H87.3562V98.8505H0.511719V57.4712Z" fill="white"/>
</mask>
<g mask="url(#mask0_503_1813)">
<path d="M86.4136 91.7206L81.807 67.5287L81.7172 67.0708C81.4837 65.8315 80.7294 64.8348 79.6248 64.269C79.0052 63.9727 78.2689 63.6045 77.4158 63.2004C76.6166 62.8143 75.7186 62.3922 74.7667 61.9433C74.7488 61.9343 74.7398 61.9343 74.7039 61.9343C72.0099 60.6501 68.858 59.2223 65.9575 58.019C65.6521 58.4052 65.3378 58.7823 65.0146 59.1595C62.8863 61.7996 60.6593 64.4486 58.3784 67.0079C57.1841 68.3459 55.9718 69.657 54.7685 70.9052C53.0444 72.6922 51.3113 74.3804 49.5422 75.9249L46.6866 64.5654L47.4499 61.2698H40.4995L41.2628 64.5654L38.4072 75.9249C36.6381 74.3804 34.905 72.6922 33.1809 70.9052C31.9776 69.657 30.7653 68.3459 29.571 67.0079C27.2901 64.4486 25.072 61.7996 22.9348 59.1595C22.6115 58.7823 22.2972 58.4052 21.9919 58.019C19.0914 59.2223 15.9395 60.6501 13.2455 61.9343C13.2096 61.9343 13.2006 61.9343 13.1827 61.9433C12.2308 62.3922 11.3328 62.8143 10.5336 63.2004C9.68051 63.6045 8.94416 63.9727 8.32454 64.269C7.22002 64.8348 6.47469 65.8315 6.23223 67.0708L6.14243 67.5287L1.53575 91.7206L0.772461 95.7256C0.772461 95.7256 1.03288 97.315 1.74229 97.8987C2.43374 98.5183 3.28683 98.8506 4.27462 98.8506H83.6748C84.6626 98.8506 85.5156 98.5183 86.2071 97.8987C86.9165 97.315 87.1769 95.7256 87.1769 95.7256L86.4136 91.7206Z" fill="black"/>
</g>
<path d="M17.5645 36.4135C17.798 37.2038 18.6241 37.6438 19.3964 37.4103C19.3964 37.4103 24.937 35.9825 25.386 35.8029L23.4643 27.3977C23.2847 26.3022 23.2039 25.1887 23.2039 24.0752C23.2039 12.4642 32.516 3.06225 43.9923 3.06225C55.4776 3.06225 64.7897 12.4642 64.7897 24.0752C64.7897 25.1887 64.7089 26.3022 64.5293 27.3977L63.2631 32.9473C62.9668 34.2404 62.8052 35.5784 62.1945 36.7548C59.6622 41.6578 52.7567 42.4211 47.6561 42.6276C47.1892 41.559 46.1385 40.8047 44.8993 40.8047H42.0886C40.4273 40.8047 39.0803 42.1696 39.0803 43.8489C39.0803 45.5281 40.4273 46.8931 42.0886 46.8931H44.8993C46.1924 46.8931 47.2879 46.0669 47.71 44.9085C54.2204 44.6301 62.3562 43.4448 64.7718 36.4495L68.5523 37.5899C69.3336 37.8234 70.1507 37.3834 70.3842 36.5931L72.261 30.2803C73.0153 27.7569 71.5965 25.0899 69.0911 24.3266L67.798 23.9315C67.7172 10.7041 57.085 0.0180664 43.9923 0.0180664C30.9715 0.0180664 20.3932 10.5964 20.2136 23.7429L18.8576 24.147C16.3612 24.9103 14.9424 27.5684 15.6877 30.1007L17.5645 36.4135Z" fill="black"/>
<path d="M56.4834 34.3212C56.2589 35.9196 56.0254 37.3833 55.7201 38.7483C57.5879 38.0928 59.1055 37.096 59.9047 35.5514C60.2011 34.9767 60.3448 34.2134 60.5243 33.3334C60.5243 33.3244 60.5423 33.3244 60.5243 33.3065C60.9913 29.3643 61.1619 25.3862 61.1619 21.4081C61.1619 20.4473 61.0542 19.4954 60.8746 18.5615C60.219 15.3826 58.4769 12.518 55.8458 10.5784C51.1853 7.13909 46.4978 6.79785 44.8724 6.79785C44.4863 6.79785 44.2797 6.82479 44.2797 6.82479C44.2797 6.82479 44.163 6.82479 43.9744 6.81581C43.7858 6.82479 43.6781 6.82479 43.6781 6.82479C43.6781 6.82479 43.4715 6.79785 43.0854 6.79785C41.469 6.79785 36.7726 7.13909 32.112 10.5784C30.9446 11.4405 29.9478 12.4911 29.1576 13.6675C27.622 15.9124 26.7959 18.6154 26.7959 21.4081C26.7959 25.2156 26.9396 29.05 27.3616 32.8395C27.4065 33.2257 27.4604 33.6387 27.5053 34.0338C27.5322 34.3032 27.5682 34.5816 27.6131 34.86C27.7388 35.7759 27.8735 36.6919 28.0261 37.5809C28.7625 41.9002 30.0107 45.9591 33.0549 49.3446C35.5782 52.4606 39.3857 54.4451 43.6781 54.4451C43.7679 54.4451 43.8756 54.4272 43.9744 54.4272C44.0732 54.4272 44.172 54.4451 44.2797 54.4451C48.5721 54.4451 52.3796 52.4606 54.9029 49.3446C55.8099 48.3478 56.5463 47.2702 57.1569 46.1657C55.1993 46.7853 53.2237 47.0996 51.5085 47.2702C49.7036 49.3176 47.1174 50.485 44.3695 50.503C44.2618 50.503 44.163 50.494 44.0463 50.494H43.9026C43.7948 50.494 43.696 50.494 43.5793 50.503C40.6608 50.485 37.922 49.156 36.0631 46.8661L35.9374 46.6955C33.1986 43.6513 32.1928 39.7091 31.4654 34.3212C31.1781 32.2468 30.9715 30.0827 30.8548 27.7749C32.1928 26.1854 33.7822 24.8564 35.5872 23.8417C38.4697 26.0417 42.0437 27.3438 45.941 27.3438C48.9852 27.3438 51.8498 26.5446 54.3282 25.1258C55.3789 24.5421 56.3667 23.8417 57.2557 23.0425C57.2467 24.6768 57.1838 26.2573 57.103 27.7749C56.9773 30.0827 56.7618 32.2468 56.4834 34.3212Z" fill="black"/>
</svg>
