<svg width="100" height="100" viewBox="0 0 100 100" fill="none" xmlns="http://www.w3.org/2000/svg">
<mask id="mask0_503_1841" style="mask-type:luminance" maskUnits="userSpaceOnUse" x="0" y="0" width="97" height="97">
<path d="M0 0H96.9522V96.9522H0V0Z" fill="white"/>
</mask>
<g mask="url(#mask0_503_1841)">
<path d="M48.4761 0C21.7496 0 0 21.7496 0 48.4761C0 75.2026 21.7496 96.9522 48.4761 96.9522C75.2026 96.9522 96.9522 75.2026 96.9522 48.4761C96.9522 21.7496 75.2026 0 48.4761 0ZM48.4761 94.8013C22.936 94.8013 2.15085 74.0162 2.15085 48.4761C2.15085 22.936 22.936 2.15085 48.4761 2.15085C74.0162 2.15085 94.8013 22.936 94.8013 48.4761C94.8013 74.0162 74.0162 94.8013 48.4761 94.8013Z" fill="black"/>
</g>
<path d="M48.4758 6.46216C25.318 6.46216 6.46191 25.3183 6.46191 48.476C6.46191 71.6338 25.318 90.4899 48.4758 90.4899C71.6336 90.4899 90.4897 71.6338 90.4897 48.476C90.4897 25.3183 71.6336 6.46216 48.4758 6.46216ZM48.4758 88.3294C26.5044 88.3294 8.62241 70.4475 8.62241 48.476C8.62241 26.5046 26.5044 8.62265 48.4758 8.62265C70.4473 8.62265 88.3292 26.5046 88.3292 48.476C88.3292 70.4475 70.4473 88.3294 48.4758 88.3294Z" fill="black"/>
<path d="M24.7786 42.0139C21.2099 42.0139 18.3164 44.9074 18.3164 48.4761C18.3164 52.0448 21.2099 54.9383 24.7786 54.9383C28.3473 54.9383 31.2408 52.0448 31.2408 48.4761C31.2408 44.9074 28.3473 42.0139 24.7786 42.0139ZM24.7786 52.7875C22.3963 52.7875 20.4673 50.8584 20.4673 48.4761C20.4673 46.0938 22.3963 44.1648 24.7786 44.1648C27.1609 44.1648 29.0899 46.0938 29.0899 48.4761C29.0899 50.8584 27.1609 52.7875 24.7786 52.7875Z" fill="black"/>
<path d="M48.4759 42.0139C44.9072 42.0139 42.0137 44.9074 42.0137 48.4761C42.0137 52.0448 44.9072 54.9383 48.4759 54.9383C52.0445 54.9383 54.9381 52.0448 54.9381 48.4761C54.9381 44.9074 52.0445 42.0139 48.4759 42.0139ZM48.4759 52.7875C46.0935 52.7875 44.1645 50.8584 44.1645 48.4761C44.1645 46.0938 46.0935 44.1648 48.4759 44.1648C50.8582 44.1648 52.7872 46.0938 52.7872 48.4761C52.7872 50.8584 50.8582 52.7875 48.4759 52.7875Z" fill="black"/>
<path d="M72.1741 42.0139C68.6054 42.0139 65.7119 44.9074 65.7119 48.4761C65.7119 52.0448 68.6054 54.9383 72.1741 54.9383C75.7428 54.9383 78.6363 52.0448 78.6363 48.4761C78.6363 44.9074 75.7428 42.0139 72.1741 42.0139ZM72.1741 52.7875C69.7918 52.7875 67.8628 50.8584 67.8628 48.4761C67.8628 46.0938 69.7918 44.1648 72.1741 44.1648C74.5564 44.1648 76.4854 46.0938 76.4854 48.4761C76.4854 50.8584 74.5564 52.7875 72.1741 52.7875Z" fill="black"/>
</svg>
