<svg width="51" height="50" viewBox="0 0 51 50" fill="none" xmlns="http://www.w3.org/2000/svg">
<g clip-path="url(#clip0_1146_1792)">
<mask id="mask0_1146_1792" style="mask-type:luminance" maskUnits="userSpaceOnUse" x="0" y="0" width="50" height="50">
<path d="M0.333008 0H49.7648V49.4318H0.333008V0Z" fill="white"/>
</mask>
<g mask="url(#mask0_1146_1792)">
<path fill-rule="evenodd" clip-rule="evenodd" d="M34.8027 1.8821C37.7945 3.11908 40.4313 4.89761 42.6507 7.11411C44.8672 9.33357 46.6457 11.9703 47.8827 14.9621C49.096 17.9362 49.7648 21.221 49.7648 24.7159C49.7648 28.2108 49.096 31.4956 47.8827 34.4697C46.6457 37.4615 44.8672 40.0983 42.6507 42.3177C40.4313 44.5342 37.7945 46.3127 34.8027 47.5497C31.8286 48.763 28.5438 49.4318 25.0489 49.4318C21.554 49.4318 18.2692 48.763 15.2951 47.5497C12.3033 46.3127 9.66658 44.5342 7.44712 42.3177C5.23062 40.0983 3.45209 37.4615 2.21511 34.4697C1.0018 31.4956 0.333008 28.2108 0.333008 24.7159C0.333008 21.221 1.0018 17.9362 2.21511 14.9621C3.45209 11.9703 5.23062 9.33357 7.44712 7.11411C9.66658 4.89761 12.3033 3.11908 15.2951 1.8821C18.2692 0.668797 21.554 0 25.0489 0C28.5438 0 31.8286 0.668797 34.8027 1.8821ZM34.2168 46.0612C36.9778 44.9337 39.4695 43.2588 41.541 41.208C43.5918 39.1365 45.2667 36.6448 46.3942 33.8838C47.5454 31.0784 48.1757 28.0007 48.1757 24.7159C48.1757 21.4311 47.5454 18.3535 46.3942 15.5481C45.2667 12.7871 43.5918 10.2953 41.541 8.22384C39.4695 6.17306 36.9778 4.49811 34.2168 3.37062C31.4114 2.21946 28.3337 1.58913 25.0489 1.58913C21.7641 1.58913 18.6865 2.21946 15.8811 3.37062C13.1201 4.49811 10.6283 6.17306 8.55685 8.22384C6.50607 10.2953 4.83111 12.7871 3.70363 15.5481C2.55247 18.3535 1.92214 21.4311 1.92214 24.7159C1.92214 28.0007 2.55247 31.0784 3.70363 33.8838C4.83111 36.6448 6.50607 39.1365 8.55685 41.208C10.6283 43.2588 13.1201 44.9337 15.8811 46.0612C18.6865 47.2124 21.7641 47.8427 25.0489 47.8427C28.3337 47.8427 31.4114 47.2124 34.2168 46.0612Z" fill="#FE6601"/>
</g>
<path fill-rule="evenodd" clip-rule="evenodd" d="M20.906 14.7135C20.8646 14.7135 20.8202 14.7343 20.7787 14.755C20.6752 14.7964 20.5923 14.8586 20.5065 14.9207C20.4443 15.0065 20.3822 15.0894 20.3408 15.1929C20.32 15.2344 20.2993 15.2788 20.2993 15.3202C20.2786 15.3616 20.2786 15.3823 20.2786 15.4238V16.2405H29.695V15.4238C29.695 15.3823 29.695 15.3616 29.6743 15.3202C29.6743 15.2788 29.6536 15.2344 29.6329 15.1929C29.5915 15.1101 29.5264 15.0065 29.4435 14.9414C29.3606 14.8586 29.2778 14.7964 29.1713 14.755C29.1298 14.7343 29.0884 14.7135 29.047 14.7135C29.0055 14.6928 28.9848 14.6928 28.9404 14.6928H21.0096C20.9681 14.6928 20.9474 14.6928 20.906 14.7135ZM18.6865 15.4238C18.6865 15.2551 18.7072 15.1101 18.7487 14.9621C18.7694 14.8171 18.8345 14.6692 18.8966 14.5242C19.0002 14.2519 19.1896 14.0211 19.3997 13.8139C19.6069 13.6038 19.8377 13.4144 20.1099 13.3108C20.2579 13.2487 20.4029 13.1836 20.5509 13.1629C20.6959 13.1215 20.8438 13.1007 21.0096 13.1007H28.9404C29.1091 13.1007 29.2541 13.1215 29.4021 13.1629C29.5471 13.1836 29.695 13.2487 29.8401 13.3108C30.1123 13.4144 30.3431 13.6038 30.5532 13.8139C30.7841 14.0004 30.9498 14.2519 31.077 14.5242C31.1392 14.6484 31.2013 14.7964 31.222 14.9414C31.2635 15.1101 31.2842 15.2551 31.2842 15.4238V16.2405H37.0607C38.274 16.2405 39.511 17.4538 39.511 18.6671V20.8659L26.8068 25.0296C26.7239 24.9882 26.6381 24.9675 26.576 24.9467C26.4931 24.926 26.3895 24.926 26.3037 24.926H23.667C23.5841 24.926 23.4806 24.926 23.3947 24.9467C23.3326 24.9675 23.2497 24.9882 23.1876 25.0089L10.4834 20.8659V18.6671C10.4834 17.4538 11.6967 16.2405 12.91 16.2405H18.6865V15.4238ZM23.6463 25.9914H26.3244C26.3451 25.9914 26.3688 25.9914 26.3895 25.9914C26.4102 26.0121 26.4517 26.0358 26.4724 26.0772C26.5138 26.0979 26.5345 26.1393 26.5553 26.16C26.5553 26.1808 26.5553 26.1808 26.5553 26.2015L26.576 26.2222V27.1218L26.5553 27.1425C26.5553 27.1632 26.5553 27.184 26.5553 27.184C26.5345 27.2283 26.5138 27.2698 26.4724 27.2905C26.4517 27.3319 26.4102 27.3526 26.3688 27.3733C26.3688 27.3733 26.3451 27.3733 26.3244 27.3733L26.3037 27.3941H23.667L23.6463 27.3733C23.6256 27.3733 23.6048 27.3733 23.6048 27.3733C23.5634 27.3526 23.522 27.3319 23.5013 27.2905C23.4598 27.2698 23.4362 27.2283 23.4155 27.184C23.4155 27.184 23.4155 27.1632 23.4155 27.1425V26.2015C23.4155 26.1808 23.4155 26.1808 23.4155 26.16C23.4362 26.1393 23.4598 26.0979 23.5013 26.0772C23.522 26.0358 23.5634 26.0121 23.5841 25.9914C23.6048 25.9914 23.6256 25.9914 23.6463 25.9914ZM27.6028 25.9499C27.6028 25.9292 27.5821 25.9085 27.5821 25.8878L39.511 21.9756V32.9812C39.511 34.1974 38.274 35.4315 37.0607 35.4315H12.91C11.6967 35.4315 10.4834 34.1974 10.4834 32.9812V21.9756L22.3915 25.8878C22.3915 25.9085 22.3708 25.9292 22.3708 25.9499C22.3501 26.0358 22.3501 26.1393 22.3501 26.2222V27.1218C22.3501 27.2076 22.3501 27.3112 22.3708 27.3941C22.3915 27.4769 22.4123 27.5627 22.4537 27.6456C22.5158 27.7936 22.6224 27.9179 22.7467 28.0421C22.8739 28.1694 22.9982 28.273 23.1432 28.3351C23.229 28.3795 23.3119 28.4002 23.3947 28.4209C23.4806 28.4416 23.5841 28.4624 23.667 28.4624H26.3037C26.3895 28.4624 26.4931 28.4416 26.576 28.4209C26.6618 28.4002 26.7446 28.3795 26.8275 28.3351C26.9755 28.273 27.0998 28.1694 27.224 28.0421C27.3513 27.9179 27.4549 27.7936 27.517 27.6456C27.5614 27.5627 27.5821 27.4769 27.6028 27.3941C27.6236 27.3112 27.6443 27.2076 27.6443 27.1218V26.2222C27.6443 26.1393 27.6236 26.0358 27.6028 25.9499Z" fill="#FE6601"/>
</g>
<defs>
<clipPath id="clip0_1146_1792">
<rect width="50" height="50" fill="white" transform="translate(0.333008)"/>
</clipPath>
</defs>
</svg>
