<svg width="75" height="100" viewBox="0 0 75 100" fill="none" xmlns="http://www.w3.org/2000/svg">
<g clip-path="url(#clip0_503_1857)">
<path d="M37.9611 22.2618C44.1218 22.2618 49.1292 27.2395 49.1292 33.363V38.0579H52.4774V33.363C52.4774 25.4091 45.967 18.9434 37.9611 18.9434C29.9626 18.9434 23.4521 25.4091 23.4521 33.363V38.0579H26.7929V33.363C26.7929 27.2395 31.8078 22.2618 37.9611 22.2618Z" fill="black"/>
<path d="M27.7981 40.052H23.3412C21.9127 40.052 20.752 41.2053 20.752 42.6264V62.1428C20.752 63.5639 21.9127 64.7246 23.3412 64.7246H52.5823C54.0183 64.7246 55.179 63.5639 55.179 62.1428V42.6264C55.179 41.2053 54.0183 40.052 52.5823 40.052H27.7981ZM42.2103 59.8883C42.2549 60.1785 42.1656 60.4612 41.9796 60.677C41.7862 60.9002 41.5109 61.0193 41.2207 61.0193H34.7028C34.4201 61.0193 34.1448 60.9002 33.9514 60.677C33.7579 60.4612 33.6761 60.1785 33.7133 59.8883L34.6508 53.177C33.3784 52.18 32.6344 50.677 32.6344 49.0401C32.6344 46.1234 35.0228 43.7499 37.9618 43.7499C40.9008 43.7499 43.2892 46.1234 43.2892 49.0401C43.2892 50.677 42.5525 52.18 41.2802 53.177L42.2103 59.8883Z" fill="black"/>
<mask id="mask0_503_1857" style="mask-type:luminance" maskUnits="userSpaceOnUse" x="0" y="0" width="74" height="98">
<path d="M0.349609 0H73.9359V97.6414H0.349609V0Z" fill="white"/>
</mask>
<g mask="url(#mask0_503_1857)">
<path d="M72.4104 11.9717C64.4193 10.9821 45.1262 7.87947 38.4967 0.610118C38.1321 0.215773 37.6559 0 37.1425 0C36.6291 0 36.153 0.215773 35.7884 0.610118C29.1663 7.87947 9.86575 10.9821 1.87467 11.9717C1.01158 12.0833 0.364258 12.8199 0.364258 13.6905V29.3824C0.364258 66.8527 27.7006 90.7292 36.0785 97.1577C36.7035 97.6414 37.5815 97.6414 38.2065 97.1577C46.5845 90.7292 73.9208 66.8527 73.9208 29.3824V13.6905C73.9208 12.8199 73.2735 12.0833 72.4104 11.9717ZM70.8628 31.9792C70.8628 65.2753 46.6366 86.4435 39.211 92.1429C38.6009 92.6116 37.8717 92.8423 37.1425 92.8423C36.4134 92.8423 35.6842 92.6116 35.0741 92.1429C27.6485 86.4435 3.42229 65.2753 3.42229 31.9792V18.3854C3.42229 16.7039 4.68718 15.2679 6.36872 15.0595C11.6068 14.4122 29.1217 11.8155 34.5905 5.81845C35.2452 5.08929 36.1753 4.68006 37.1425 4.68006C38.1098 4.68006 39.0399 5.08929 39.6946 5.81845C45.1634 11.8155 62.6782 14.4122 67.9163 15.0595C69.5979 15.2679 70.8628 16.7039 70.8628 18.3854V31.9792Z" fill="black"/>
</g>
</g>
<defs>
<clipPath id="clip0_503_1857">
<rect width="74.2857" height="100" fill="white"/>
</clipPath>
</defs>
</svg>
