<svg width="108" height="100" viewBox="0 0 108 100" fill="none" xmlns="http://www.w3.org/2000/svg">
<g clip-path="url(#clip0_503_1968)">
<path d="M51.2501 47.036C51.108 47.036 50.966 47.0076 50.8334 46.9603C50.2179 46.733 49.8959 46.0512 50.1327 45.4356L61.3732 15.2273C61.6005 14.6118 62.2917 14.2993 62.9073 14.5265C63.5228 14.7538 63.8353 15.4451 63.608 16.0606L52.3675 46.2595C52.1876 46.733 51.733 47.036 51.2501 47.036Z" fill="black"/>
<path d="M24.4979 41.4015C20.6153 41.4015 17.4619 38.4186 17.4619 34.7538V21.411C17.4619 20.7576 17.9922 20.2273 18.6551 20.2273C19.3085 20.2273 19.8483 20.7576 19.8483 21.411V34.7538C19.8483 37.1118 21.9316 39.0246 24.4979 39.0246C27.0737 39.0246 29.157 37.1118 29.157 34.7538V21.411C29.157 20.7576 29.6968 20.2273 30.3502 20.2273C31.0131 20.2273 31.5434 20.7576 31.5434 21.411V34.7538C31.5434 38.4186 28.3805 41.4015 24.4979 41.4015Z" fill="black"/>
<path d="M36.0035 41.4016C35.8141 41.4016 35.6153 41.3542 35.4353 41.2595C34.8577 40.947 34.6399 40.2273 34.9524 39.6497L45.1986 20.7198C45.5111 20.1421 46.2308 19.9243 46.8084 20.2368C47.3956 20.5398 47.6134 21.2595 47.3009 21.8372L37.0547 40.7766C36.8369 41.1743 36.4297 41.4016 36.0035 41.4016Z" fill="black"/>
<path d="M46.2497 41.4016C45.8236 41.4016 45.4164 41.1743 45.1986 40.7766L34.9524 21.8372C34.6399 21.2595 34.8577 20.5398 35.4353 20.2368C36.013 19.9243 36.7422 20.1421 37.0547 20.7198L47.3009 39.6497C47.6134 40.2273 47.3956 40.947 46.8084 41.2595C46.638 41.3542 46.4391 41.4016 46.2497 41.4016Z" fill="black"/>
<path d="M73.3423 41.4015C69.4598 41.4015 66.2969 38.4186 66.2969 34.7538V21.411C66.2969 20.7576 66.8366 20.2273 67.4901 20.2273C68.1529 20.2273 68.6832 20.7576 68.6832 21.411V34.7538C68.6832 37.1118 70.7666 39.0246 73.3423 39.0246C75.9086 39.0246 78.0014 37.1118 78.0014 34.7538V21.411C78.0014 20.7576 78.5317 20.2273 79.1851 20.2273C79.848 20.2273 80.3783 20.7576 80.3783 21.411V34.7538C80.3783 38.4186 77.2249 41.4015 73.3423 41.4015Z" fill="black"/>
<path d="M86.8084 42.6895C86.155 42.6895 85.6247 42.1592 85.6247 41.4963L85.6152 19.9906C85.6152 19.3372 86.1455 18.8069 86.8084 18.8069C87.4618 18.8069 88.0016 19.3372 88.0016 19.9906V41.4963C88.0111 42.1592 87.4713 42.68 86.8084 42.6895Z" fill="black"/>
<path d="M41.2409 72.8787C39.0628 72.8787 37.292 71.1173 37.292 68.9488C37.292 66.7897 39.0628 65.0283 41.2409 65.0283C43.4094 65.0283 45.1803 66.7897 45.1803 68.9488C45.1803 71.1173 43.4094 72.8787 41.2409 72.8787ZM41.2409 67.3957C40.3791 67.3957 39.6784 68.0965 39.6784 68.9488C39.6784 69.8105 40.3791 70.5018 41.2409 70.5018C42.1026 70.5018 42.7939 69.8105 42.7939 68.9488C42.7939 68.0965 42.1026 67.3957 41.2409 67.3957Z" fill="black"/>
<path d="M52.7369 72.8787C50.5589 72.8787 48.7881 71.1173 48.7881 68.9488C48.7881 66.7897 50.5589 65.0283 52.7369 65.0283C54.9055 65.0283 56.6763 66.7897 56.6763 68.9488C56.6763 71.1173 54.9055 72.8787 52.7369 72.8787ZM52.7369 67.3957C51.8752 67.3957 51.1744 68.0965 51.1744 68.9488C51.1744 69.8105 51.8752 70.5018 52.7369 70.5018C53.5987 70.5018 54.29 69.8105 54.29 68.9488C54.29 68.0965 53.5987 67.3957 52.7369 67.3957Z" fill="black"/>
<path d="M64.233 72.8787C62.055 72.8787 60.2842 71.1173 60.2842 68.9488C60.2842 66.7897 62.055 65.0283 64.233 65.0283C66.4016 65.0283 68.1724 66.7897 68.1724 68.9488C68.1724 71.1173 66.4016 72.8787 64.233 72.8787ZM64.233 67.3957C63.3713 67.3957 62.6705 68.0965 62.6705 68.9488C62.6705 69.8105 63.3713 70.5018 64.233 70.5018C65.0948 70.5018 65.7861 69.8105 65.7861 68.9488C65.7861 68.0965 65.0948 67.3957 64.233 67.3957Z" fill="black"/>
<mask id="mask0_503_1968" style="mask-type:luminance" maskUnits="userSpaceOnUse" x="0" y="0" width="106" height="80">
<path d="M0.0664062 0H105.426V80H0.0664062V0Z" fill="white"/>
</mask>
<g mask="url(#mask0_503_1968)">
<path d="M98.0112 78.8162H7.45247C3.37103 78.8162 0.0566406 75.5113 0.0566406 71.4488V7.39574C0.0566406 3.34271 3.37103 0.0283203 7.45247 0.0283203H98.0112C102.093 0.0283203 105.416 3.33324 105.416 7.39574V71.4488C105.416 75.5113 102.093 78.8162 98.0112 78.8162ZM7.45247 2.40522C4.68732 2.40522 2.443 4.64953 2.443 7.39574V71.4488C2.443 74.2045 4.68732 76.4393 7.45247 76.4393H98.0112C100.776 76.4393 103.03 74.2045 103.03 71.4488V7.39574C103.03 4.64953 100.776 2.40522 98.0112 2.40522H7.45247Z" fill="black"/>
</g>
<mask id="mask1_503_1968" style="mask-type:luminance" maskUnits="userSpaceOnUse" x="0" y="58" width="106" height="6">
<path d="M0.0664062 58.1819H105.426V63.0304H0.0664062V58.1819Z" fill="white"/>
</mask>
<g mask="url(#mask1_503_1968)">
<path d="M104.223 61.4584H1.24982C0.586945 61.4584 0.0566406 60.9281 0.0566406 60.2653C0.0566406 59.6118 0.586945 59.0815 1.24982 59.0815H104.223C104.877 59.0815 105.416 59.6118 105.416 60.2653C105.416 60.9281 104.877 61.4584 104.223 61.4584Z" fill="black"/>
</g>
<path d="M71.7805 89.7728C71.1176 89.7728 70.5873 89.2425 70.5873 88.5891V77.6326C70.5873 76.9792 71.1176 76.4395 71.7805 76.4395C72.4339 76.4395 72.9642 76.9792 72.9642 77.6326V88.5891C72.9642 89.2425 72.4339 89.7728 71.7805 89.7728ZM34.2521 89.7728C33.5987 89.7728 33.0684 89.2425 33.0684 88.5891V77.6326C33.0684 76.9792 33.5987 76.4395 34.2521 76.4395C34.915 76.4395 35.4453 76.9792 35.4453 77.6326V88.5891C35.4453 89.2425 34.915 89.7728 34.2521 89.7728Z" fill="black"/>
<mask id="mask2_503_1968" style="mask-type:luminance" maskUnits="userSpaceOnUse" x="19" y="87" width="66" height="12">
<path d="M19.3936 87.2727H84.8481V98.2102H19.3936V87.2727Z" fill="white"/>
</mask>
<g mask="url(#mask2_503_1968)">
<path d="M78.267 98.2007H27.2064C24.214 98.2007 21.7803 95.7765 21.7803 92.803C21.7803 89.82 24.214 87.4053 27.2064 87.4053H78.267C81.2594 87.4053 83.6837 89.8295 83.6837 92.803C83.6932 95.7765 81.2594 98.2007 78.267 98.2007ZM27.2064 89.7727C25.5303 89.7727 24.1666 91.1269 24.1666 92.803C24.1666 94.4697 25.5303 95.8238 27.2064 95.8238H78.267C79.9432 95.8238 81.3068 94.4697 81.3068 92.803C81.3068 91.1269 79.9432 89.7727 78.267 89.7727H27.2064Z" fill="black"/>
</g>
</g>
<defs>
<clipPath id="clip0_503_1968">
<rect width="107.273" height="100" fill="white"/>
</clipPath>
</defs>
</svg>
